G04 DipTrace 2.3.0.1*
%INBottomSilk.gbr*%
%MOIN*%
%ADD11C,0.006*%
%ADD24C,0.008*%
%ADD50C,0.0046*%
%FSLAX44Y44*%
G04*
G70*
G90*
G75*
G01*
%LNBotSilk*%
%LPD*%
X5864Y18736D2*
D11*
X5628D1*
X5864Y18264D2*
X5628D1*
X6096Y13201D2*
X5860D1*
X6096Y12729D2*
X5860D1*
X7342Y27918D2*
X7106D1*
X7342Y27446D2*
X7106D1*
X10696Y20105D2*
D24*
Y20322D1*
Y20105D2*
X9712D1*
Y20322D1*
Y27920D2*
Y28176D1*
X10696D1*
Y27920D1*
X2035Y20105D2*
Y20322D1*
Y20105D2*
X1051D1*
Y20322D1*
Y27920D2*
Y28176D1*
X2035D1*
Y27920D1*
X4758Y16787D2*
G02X4758Y16787I141J0D01*
G01*
X4600Y14327D2*
D11*
X7360D1*
Y17087D1*
X4740D1*
X4600Y16947D2*
Y14327D1*
Y16947D2*
X4740Y17087D1*
X7851Y18301D2*
D24*
Y18813D1*
X6434D2*
Y18301D1*
X6168Y19175D2*
D50*
X6211Y19161D1*
X6240Y19118D1*
X6254Y19046D1*
Y19003D1*
X6240Y18931D1*
X6211Y18888D1*
X6168Y18874D1*
X6139D1*
X6096Y18888D1*
X6068Y18931D1*
X6053Y19003D1*
Y19046D1*
X6068Y19118D1*
X6096Y19161D1*
X6139Y19175D1*
X6168D1*
X6068Y19118D2*
X6240Y18931D1*
X5946Y18903D2*
X5961Y18888D1*
X5946Y18874D1*
X5932Y18888D1*
X5946Y18903D1*
X5839Y19118D2*
X5810Y19132D1*
X5767Y19175D1*
Y18874D1*
X5674Y19075D2*
Y18931D1*
X5660Y18889D1*
X5631Y18874D1*
X5588D1*
X5560Y18889D1*
X5517Y18931D1*
Y19075D2*
Y18874D1*
X5237Y19176D2*
X5424D1*
Y18874D1*
Y19032D2*
X5309D1*
X6400Y13640D2*
X6443Y13626D1*
X6472Y13583D1*
X6486Y13511D1*
Y13468D1*
X6472Y13397D1*
X6443Y13354D1*
X6400Y13339D1*
X6371D1*
X6328Y13354D1*
X6300Y13397D1*
X6285Y13468D1*
Y13511D1*
X6300Y13583D1*
X6328Y13626D1*
X6371Y13640D1*
X6400D1*
X6300Y13583D2*
X6472Y13397D1*
X6178Y13368D2*
X6193Y13354D1*
X6178Y13339D1*
X6164Y13354D1*
X6178Y13368D1*
X6071Y13583D2*
X6042Y13598D1*
X5999Y13640D1*
Y13339D1*
X5906Y13540D2*
Y13397D1*
X5892Y13354D1*
X5863Y13339D1*
X5820D1*
X5792Y13354D1*
X5749Y13397D1*
Y13540D2*
Y13339D1*
X5469Y13641D2*
X5656D1*
Y13339D1*
Y13497D2*
X5541D1*
X7646Y28357D2*
X7689Y28343D1*
X7718Y28300D1*
X7732Y28228D1*
Y28185D1*
X7718Y28113D1*
X7689Y28070D1*
X7646Y28056D1*
X7617D1*
X7574Y28070D1*
X7546Y28113D1*
X7531Y28185D1*
Y28228D1*
X7546Y28300D1*
X7574Y28343D1*
X7617Y28357D1*
X7646D1*
X7546Y28300D2*
X7718Y28113D1*
X7424Y28085D2*
X7439Y28070D1*
X7424Y28056D1*
X7410Y28070D1*
X7424Y28085D1*
X7317Y28300D2*
X7288Y28314D1*
X7245Y28357D1*
Y28056D1*
X7153Y28257D2*
Y28113D1*
X7138Y28070D1*
X7109Y28056D1*
X7066D1*
X7038Y28070D1*
X6995Y28113D1*
Y28257D2*
Y28056D1*
X6715Y28357D2*
X6902D1*
Y28056D1*
Y28214D2*
X6787D1*
X7068Y17785D2*
X7183Y18086D1*
X7298Y17785D1*
X7254Y17885D2*
X7111D1*
X6875Y18086D2*
Y17785D1*
X6975Y18086D2*
X6774D1*
X6452Y17785D2*
Y18086D1*
X6567Y17785D1*
X6681Y18086D1*
Y17785D1*
X6173Y18086D2*
X6359D1*
Y17785D1*
X6173D1*
X6359Y17942D2*
X6245D1*
X5865Y18014D2*
X5879Y18043D1*
X5908Y18072D1*
X5937Y18086D1*
X5994D1*
X6023Y18072D1*
X6052Y18043D1*
X6066Y18014D1*
X6080Y17971D1*
Y17899D1*
X6066Y17856D1*
X6052Y17828D1*
X6023Y17799D1*
X5994Y17785D1*
X5937D1*
X5908Y17799D1*
X5879Y17828D1*
X5865Y17856D1*
Y17899D1*
X5937D1*
X5543Y17785D2*
X5658Y18086D1*
X5773Y17785D1*
X5729Y17885D2*
X5586D1*
X5421Y18086D2*
X5264D1*
X5350Y17971D1*
X5306D1*
X5278Y17957D1*
X5264Y17942D1*
X5249Y17899D1*
Y17871D1*
X5264Y17828D1*
X5292Y17799D1*
X5335Y17785D1*
X5378D1*
X5421Y17799D1*
X5435Y17813D1*
X5450Y17842D1*
X5142Y18014D2*
Y18028D1*
X5128Y18057D1*
X5113Y18071D1*
X5085Y18086D1*
X5027D1*
X4999Y18071D1*
X4984Y18057D1*
X4970Y18028D1*
Y18000D1*
X4984Y17971D1*
X5013Y17928D1*
X5156Y17785D1*
X4956D1*
X4791Y18086D2*
X4834Y18071D1*
X4849Y18043D1*
Y18014D1*
X4834Y17985D1*
X4806Y17971D1*
X4748Y17957D1*
X4705Y17942D1*
X4677Y17914D1*
X4662Y17885D1*
Y17842D1*
X4677Y17813D1*
X4691Y17799D1*
X4734Y17785D1*
X4791D1*
X4834Y17799D1*
X4849Y17813D1*
X4863Y17842D1*
Y17885D1*
X4849Y17914D1*
X4820Y17942D1*
X4777Y17957D1*
X4720Y17971D1*
X4691Y17985D1*
X4677Y18014D1*
Y18043D1*
X4691Y18071D1*
X4734Y18086D1*
X4791D1*
X7953Y19040D2*
X7967Y19083D1*
X7996Y19098D1*
X8025D1*
X8053Y19083D1*
X8068Y19055D1*
X8082Y18997D1*
X8096Y18954D1*
X8125Y18926D1*
X8154Y18911D1*
X8197D1*
X8225Y18926D1*
X8240Y18940D1*
X8254Y18983D1*
Y19040D1*
X8240Y19083D1*
X8225Y19098D1*
X8197Y19112D1*
X8154D1*
X8125Y19098D1*
X8096Y19069D1*
X8082Y19026D1*
X8068Y18969D1*
X8053Y18940D1*
X8025Y18926D1*
X7996D1*
X7967Y18940D1*
X7953Y18983D1*
Y19040D1*
X8254Y18589D2*
X7953D1*
X8254Y18704D1*
X7953Y18819D1*
X8254D1*
X7953Y18497D2*
X8254D1*
X7953Y18296D2*
X8254D1*
X8096Y18497D2*
Y18296D1*
X7953Y18203D2*
Y18002D1*
X8254Y18203D1*
Y18002D1*
X2421Y15060D2*
X2306Y14759D1*
X2192Y15060D1*
X1926Y14916D2*
X1955Y14945D1*
X1984Y14960D1*
X2027D1*
X2056Y14945D1*
X2084Y14916D1*
X2099Y14873D1*
Y14845D1*
X2084Y14802D1*
X2056Y14773D1*
X2027Y14759D1*
X1984D1*
X1955Y14773D1*
X1926Y14802D1*
X1661Y14916D2*
X1690Y14945D1*
X1719Y14960D1*
X1762D1*
X1791Y14945D1*
X1819Y14916D1*
X1834Y14873D1*
Y14845D1*
X1819Y14802D1*
X1791Y14773D1*
X1762Y14759D1*
X1719D1*
X1690Y14773D1*
X1661Y14802D1*
X2213Y13938D2*
X2241Y13967D1*
X2284Y13981D1*
X2342D1*
X2385Y13967D1*
X2414Y13938D1*
Y13910D1*
X2399Y13881D1*
X2385Y13867D1*
X2356Y13852D1*
X2270Y13824D1*
X2241Y13809D1*
X2227Y13795D1*
X2213Y13766D1*
Y13723D1*
X2241Y13695D1*
X2284Y13680D1*
X2342D1*
X2385Y13695D1*
X2414Y13723D1*
X1905Y13910D2*
X1919Y13938D1*
X1948Y13967D1*
X1976Y13981D1*
X2034D1*
X2063Y13967D1*
X2091Y13938D1*
X2106Y13910D1*
X2120Y13867D1*
Y13795D1*
X2106Y13752D1*
X2091Y13723D1*
X2063Y13695D1*
X2034Y13680D1*
X1976D1*
X1948Y13695D1*
X1919Y13723D1*
X1905Y13752D1*
X1812Y13981D2*
Y13680D1*
X1640D1*
X2256Y13058D2*
X2285Y13087D1*
X2328Y13101D1*
X2385D1*
X2428Y13087D1*
X2457Y13058D1*
Y13030D1*
X2442Y13001D1*
X2428Y12987D1*
X2400Y12972D1*
X2313Y12944D1*
X2285Y12929D1*
X2270Y12915D1*
X2256Y12886D1*
Y12843D1*
X2285Y12815D1*
X2328Y12800D1*
X2385D1*
X2428Y12815D1*
X2457Y12843D1*
X2163Y13101D2*
Y12800D1*
X2063D1*
X2020Y12815D1*
X1991Y12843D1*
X1977Y12872D1*
X1962Y12915D1*
Y12987D1*
X1977Y13030D1*
X1991Y13058D1*
X2020Y13087D1*
X2063Y13101D1*
X2163D1*
X1640Y12800D2*
X1755Y13101D1*
X1870Y12800D1*
X1827Y12900D2*
X1683D1*
X2227Y12030D2*
X2241Y12058D1*
X2270Y12087D1*
X2299Y12101D1*
X2356D1*
X2385Y12087D1*
X2414Y12058D1*
X2428Y12030D1*
X2442Y11987D1*
Y11915D1*
X2428Y11872D1*
X2414Y11843D1*
X2385Y11815D1*
X2356Y11800D1*
X2299D1*
X2270Y11815D1*
X2241Y11843D1*
X2227Y11872D1*
Y11915D1*
X2299D1*
X1934Y12101D2*
Y11800D1*
X2135Y12101D1*
Y11800D1*
X1841Y12101D2*
Y11800D1*
X1740D1*
X1697Y11815D1*
X1669Y11843D1*
X1654Y11872D1*
X1640Y11915D1*
Y11987D1*
X1654Y12030D1*
X1669Y12058D1*
X1697Y12087D1*
X1740Y12101D1*
X1841D1*
X9987Y8350D2*
X10001Y8378D1*
X10030Y8407D1*
X10059Y8421D1*
X10116D1*
X10145Y8407D1*
X10174Y8378D1*
X10188Y8350D1*
X10202Y8307D1*
Y8235D1*
X10188Y8192D1*
X10174Y8163D1*
X10145Y8135D1*
X10116Y8120D1*
X10059D1*
X10030Y8135D1*
X10001Y8163D1*
X9987Y8192D1*
Y8235D1*
X10059D1*
X9694Y8421D2*
Y8120D1*
X9895Y8421D1*
Y8120D1*
X9601Y8421D2*
Y8120D1*
X9500D1*
X9457Y8135D1*
X9429Y8163D1*
X9414Y8192D1*
X9400Y8235D1*
Y8307D1*
X9414Y8350D1*
X9429Y8378D1*
X9457Y8407D1*
X9500Y8421D1*
X9601D1*
X9987Y10050D2*
X10001Y10078D1*
X10030Y10107D1*
X10059Y10121D1*
X10116D1*
X10145Y10107D1*
X10174Y10078D1*
X10188Y10050D1*
X10202Y10007D1*
Y9935D1*
X10188Y9892D1*
X10174Y9863D1*
X10145Y9835D1*
X10116Y9820D1*
X10059D1*
X10030Y9835D1*
X10001Y9863D1*
X9987Y9892D1*
Y9935D1*
X10059D1*
X9694Y10121D2*
Y9820D1*
X9895Y10121D1*
Y9820D1*
X9601Y10121D2*
Y9820D1*
X9500D1*
X9457Y9835D1*
X9429Y9863D1*
X9414Y9892D1*
X9400Y9935D1*
Y10007D1*
X9414Y10050D1*
X9429Y10078D1*
X9457Y10107D1*
X9500Y10121D1*
X9601D1*
X9908Y10720D2*
Y11021D1*
X10023Y10720D1*
X10138Y11021D1*
Y10720D1*
X9816Y11021D2*
Y10720D1*
X9522Y10978D2*
X9551Y11007D1*
X9594Y11021D1*
X9651D1*
X9694Y11007D1*
X9723Y10978D1*
Y10950D1*
X9708Y10921D1*
X9694Y10907D1*
X9666Y10892D1*
X9579Y10864D1*
X9551Y10849D1*
X9536Y10835D1*
X9522Y10806D1*
Y10763D1*
X9551Y10735D1*
X9594Y10720D1*
X9651D1*
X9694Y10735D1*
X9723Y10763D1*
X9343Y11021D2*
X9372Y11007D1*
X9401Y10978D1*
X9415Y10950D1*
X9429Y10907D1*
Y10835D1*
X9415Y10792D1*
X9401Y10763D1*
X9372Y10735D1*
X9343Y10720D1*
X9286D1*
X9257Y10735D1*
X9229Y10763D1*
X9214Y10792D1*
X9200Y10835D1*
Y10907D1*
X9214Y10950D1*
X9229Y10978D1*
X9257Y11007D1*
X9286Y11021D1*
X9343D1*
X10102Y12092D2*
X9800D1*
X10102Y12207D1*
X9800Y12322D1*
X10102D1*
X9800Y11913D2*
X9814Y11942D1*
X9843Y11971D1*
X9872Y11985D1*
X9915Y11999D1*
X9987D1*
X10030Y11985D1*
X10058Y11971D1*
X10087Y11942D1*
X10102Y11913D1*
Y11856D1*
X10087Y11827D1*
X10058Y11798D1*
X10030Y11784D1*
X9987Y11770D1*
X9915D1*
X9872Y11784D1*
X9843Y11798D1*
X9814Y11827D1*
X9800Y11856D1*
Y11913D1*
X9843Y11476D2*
X9814Y11505D1*
X9800Y11548D1*
Y11605D1*
X9814Y11648D1*
X9843Y11677D1*
X9872D1*
X9901Y11663D1*
X9915Y11648D1*
X9929Y11620D1*
X9958Y11534D1*
X9972Y11505D1*
X9987Y11491D1*
X10015Y11476D1*
X10058D1*
X10087Y11505D1*
X10102Y11548D1*
Y11605D1*
X10087Y11648D1*
X10058Y11677D1*
X9800Y11384D2*
X10102D1*
X9876Y13153D2*
X9847Y13181D1*
X9832Y13224D1*
Y13282D1*
X9847Y13325D1*
X9876Y13354D1*
X9904D1*
X9933Y13339D1*
X9947Y13325D1*
X9961Y13296D1*
X9990Y13210D1*
X10005Y13181D1*
X10019Y13167D1*
X10048Y13153D1*
X10091D1*
X10119Y13181D1*
X10134Y13224D1*
Y13282D1*
X10119Y13325D1*
X10091Y13354D1*
X9904Y12845D2*
X9876Y12859D1*
X9847Y12888D1*
X9832Y12917D1*
Y12974D1*
X9847Y13003D1*
X9876Y13031D1*
X9904Y13046D1*
X9947Y13060D1*
X10019D1*
X10062Y13046D1*
X10091Y13031D1*
X10119Y13003D1*
X10134Y12974D1*
Y12917D1*
X10119Y12888D1*
X10091Y12859D1*
X10062Y12845D1*
X9832Y12752D2*
X10134D1*
X9832Y12551D2*
X10033Y12752D1*
X9961Y12681D2*
X10134Y12551D1*
X9857Y13992D2*
X9829Y14006D1*
X9800Y14035D1*
X9786Y14063D1*
Y14121D1*
X9800Y14150D1*
X9829Y14178D1*
X9857Y14193D1*
X9900Y14207D1*
X9972D1*
X10015Y14193D1*
X10044Y14178D1*
X10072Y14150D1*
X10087Y14121D1*
Y14063D1*
X10072Y14035D1*
X10044Y14006D1*
X10015Y13992D1*
X9829Y13698D2*
X9800Y13727D1*
X9786Y13770D1*
Y13827D1*
X9800Y13870D1*
X9829Y13899D1*
X9857D1*
X9886Y13885D1*
X9900Y13870D1*
X9915Y13842D1*
X9943Y13756D1*
X9958Y13727D1*
X9972Y13712D1*
X10001Y13698D1*
X10044D1*
X10072Y13727D1*
X10087Y13770D1*
Y13827D1*
X10072Y13870D1*
X10044Y13899D1*
X9757Y15378D2*
X10058Y15264D1*
X9757Y15149D1*
Y15056D2*
X10058D1*
X9944Y14964D2*
Y14792D1*
X9915D1*
X9886Y14806D1*
X9872Y14820D1*
X9857Y14849D1*
Y14892D1*
X9872Y14921D1*
X9901Y14949D1*
X9944Y14964D1*
X9972D1*
X10015Y14949D1*
X10044Y14921D1*
X10058Y14892D1*
Y14849D1*
X10044Y14820D1*
X10015Y14792D1*
X9757Y14527D2*
X10058D1*
X9901D2*
X9872Y14555D1*
X9857Y14584D1*
Y14627D1*
X9872Y14656D1*
X9901Y14685D1*
X9944Y14699D1*
X9972D1*
X10015Y14685D1*
X10044Y14656D1*
X10058Y14627D1*
Y14584D1*
X10044Y14555D1*
X10015Y14527D1*
X1604Y6439D2*
X1576Y6453D1*
X1547Y6482D1*
X1532Y6510D1*
Y6568D1*
X1547Y6596D1*
X1576Y6625D1*
X1604Y6640D1*
X1647Y6654D1*
X1719D1*
X1762Y6640D1*
X1791Y6625D1*
X1819Y6596D1*
X1834Y6568D1*
Y6510D1*
X1819Y6482D1*
X1791Y6453D1*
X1762Y6439D1*
X1719D1*
Y6510D1*
X1532Y6145D2*
X1834D1*
X1532Y6346D1*
X1834D1*
X1532Y6052D2*
X1834D1*
Y5952D1*
X1819Y5909D1*
X1791Y5880D1*
X1762Y5866D1*
X1719Y5851D1*
X1647D1*
X1604Y5866D1*
X1576Y5880D1*
X1547Y5909D1*
X1532Y5952D1*
Y6052D1*
X2787Y6578D2*
X2486Y6693D1*
X2787Y6807D1*
X2687Y6764D2*
Y6621D1*
X2587Y6485D2*
X2787D1*
X2673D2*
X2630Y6470D1*
X2601Y6442D1*
X2587Y6413D1*
Y6370D1*
X2673Y6277D2*
Y6105D1*
X2644D1*
X2615Y6119D1*
X2601Y6134D1*
X2587Y6163D1*
Y6206D1*
X2601Y6234D1*
X2630Y6263D1*
X2673Y6277D1*
X2701D1*
X2744Y6263D1*
X2773Y6234D1*
X2787Y6206D1*
Y6163D1*
X2773Y6134D1*
X2744Y6105D1*
X2486Y5898D2*
Y5926D1*
X2500Y5955D1*
X2543Y5969D1*
X2787D1*
X2587Y6013D2*
Y5912D1*
X3794Y6185D2*
X3493Y6300D1*
X3794Y6414D1*
X3694Y6371D2*
Y6228D1*
X3794Y6035D2*
X3493Y5891D1*
Y6092D1*
X4787Y6177D2*
X4486Y6292D1*
X4787Y6407D1*
X4687Y6364D2*
Y6220D1*
X4529Y5912D2*
X4500Y5927D1*
X4486Y5970D1*
Y5998D1*
X4500Y6041D1*
X4543Y6070D1*
X4615Y6085D1*
X4687D1*
X4744Y6070D1*
X4773Y6041D1*
X4787Y5998D1*
Y5984D1*
X4773Y5941D1*
X4744Y5912D1*
X4701Y5898D1*
X4687D1*
X4643Y5912D1*
X4615Y5941D1*
X4601Y5984D1*
Y5998D1*
X4615Y6041D1*
X4643Y6070D1*
X4687Y6085D1*
X5561Y6582D2*
X5862D1*
Y6482D1*
X5848Y6439D1*
X5819Y6410D1*
X5790Y6395D1*
X5747Y6381D1*
X5676D1*
X5632Y6395D1*
X5604Y6410D1*
X5575Y6439D1*
X5561Y6482D1*
Y6582D1*
X5618Y6289D2*
X5604Y6260D1*
X5561Y6217D1*
X5862D1*
X5561Y6095D2*
Y5938D1*
X5676Y6024D1*
Y5980D1*
X5690Y5952D1*
X5704Y5938D1*
X5747Y5923D1*
X5776D1*
X5819Y5938D1*
X5848Y5966D1*
X5862Y6009D1*
Y6052D1*
X5848Y6095D1*
X5833Y6109D1*
X5805Y6124D1*
X6578Y6400D2*
X6880D1*
Y6299D1*
X6865Y6256D1*
X6837Y6227D1*
X6808Y6213D1*
X6765Y6199D1*
X6693D1*
X6650Y6213D1*
X6622Y6227D1*
X6593Y6256D1*
X6578Y6299D1*
Y6400D1*
X6579Y5934D2*
Y6077D1*
X6708Y6092D1*
X6694Y6077D1*
X6679Y6034D1*
Y5992D1*
X6694Y5948D1*
X6722Y5920D1*
X6765Y5905D1*
X6794D1*
X6837Y5920D1*
X6866Y5948D1*
X6880Y5992D1*
Y6034D1*
X6866Y6077D1*
X6851Y6092D1*
X6823Y6106D1*
X7486Y6407D2*
X7787D1*
Y6307D1*
X7772Y6263D1*
X7744Y6235D1*
X7715Y6220D1*
X7672Y6206D1*
X7600D1*
X7557Y6220D1*
X7529Y6235D1*
X7500Y6263D1*
X7486Y6307D1*
Y6407D1*
X7787Y5970D2*
X7486D1*
X7687Y6113D1*
Y5898D1*
X8540Y6632D2*
Y6475D1*
X8655Y6560D1*
Y6517D1*
X8669Y6489D1*
X8683Y6475D1*
X8726Y6460D1*
X8755D1*
X8798Y6475D1*
X8827Y6503D1*
X8841Y6546D1*
Y6589D1*
X8827Y6632D1*
X8812Y6646D1*
X8784Y6661D1*
X8540Y6367D2*
X8841Y6253D1*
X8540Y6138D1*
Y6016D2*
Y5859D1*
X8655Y5945D1*
Y5902D1*
X8669Y5873D1*
X8683Y5859D1*
X8726Y5844D1*
X8755D1*
X8798Y5859D1*
X8827Y5887D1*
X8841Y5930D1*
Y5974D1*
X8827Y6016D1*
X8812Y6031D1*
X8784Y6045D1*
X10153Y7421D2*
Y7120D1*
X10052D1*
X10009Y7135D1*
X9980Y7163D1*
X9966Y7192D1*
X9952Y7235D1*
Y7307D1*
X9966Y7350D1*
X9980Y7378D1*
X10009Y7407D1*
X10052Y7421D1*
X10153D1*
X9788Y7321D2*
X9816Y7307D1*
X9845Y7278D1*
X9859Y7235D1*
Y7206D1*
X9845Y7163D1*
X9816Y7135D1*
X9788Y7120D1*
X9745D1*
X9716Y7135D1*
X9687Y7163D1*
X9673Y7206D1*
Y7235D1*
X9687Y7278D1*
X9716Y7307D1*
X9745Y7321D1*
X9788D1*
X9580D2*
X9523Y7120D1*
X9465Y7321D1*
X9408Y7120D1*
X9350Y7321D1*
X9258D2*
Y7120D1*
Y7264D2*
X9215Y7307D1*
X9186Y7321D1*
X9143D1*
X9114Y7307D1*
X9100Y7264D1*
Y7120D1*
X10166Y6421D2*
Y6206D1*
X10152Y6163D1*
X10123Y6135D1*
X10080Y6120D1*
X10051D1*
X10008Y6135D1*
X9979Y6163D1*
X9965Y6206D1*
Y6421D1*
X9872Y6321D2*
Y6019D1*
Y6278D2*
X9844Y6306D1*
X9815Y6321D1*
X9772D1*
X9743Y6306D1*
X9715Y6278D1*
X9700Y6235D1*
Y6206D1*
X9715Y6163D1*
X9743Y6134D1*
X9772Y6120D1*
X9815D1*
X9844Y6134D1*
X9872Y6163D1*
X10216Y5421D2*
Y5120D1*
X10044D1*
X9951Y5421D2*
X9937Y5407D1*
X9923Y5421D1*
X9937Y5436D1*
X9951Y5421D1*
X9937Y5321D2*
Y5120D1*
X9658Y5307D2*
Y5077D1*
X9672Y5034D1*
X9686Y5019D1*
X9715Y5005D1*
X9758D1*
X9787Y5019D1*
X9658Y5264D2*
X9686Y5292D1*
X9715Y5307D1*
X9758D1*
X9787Y5292D1*
X9816Y5264D1*
X9830Y5220D1*
Y5192D1*
X9816Y5149D1*
X9787Y5120D1*
X9758Y5106D1*
X9715D1*
X9686Y5120D1*
X9658Y5149D1*
X9565Y5421D2*
Y5120D1*
Y5264D2*
X9522Y5307D1*
X9493Y5321D1*
X9450D1*
X9422Y5307D1*
X9407Y5264D1*
Y5120D1*
X9272Y5421D2*
Y5177D1*
X9257Y5135D1*
X9229Y5120D1*
X9200D1*
X9315Y5321D2*
X9214D1*
X4560Y27050D2*
X4574Y27078D1*
X4603Y27107D1*
X4632Y27121D1*
X4689D1*
X4718Y27107D1*
X4746Y27078D1*
X4761Y27050D1*
X4775Y27007D1*
Y26935D1*
X4761Y26892D1*
X4746Y26863D1*
X4718Y26835D1*
X4689Y26820D1*
X4632D1*
X4603Y26835D1*
X4574Y26863D1*
X4560Y26892D1*
X4467Y27121D2*
Y26820D1*
Y26964D2*
X4424Y27007D1*
X4396Y27021D1*
X4352D1*
X4324Y27007D1*
X4310Y26964D1*
Y26820D1*
X4045Y27021D2*
Y26820D1*
Y26978D2*
X4073Y27007D1*
X4102Y27021D1*
X4145D1*
X4174Y27007D1*
X4202Y26978D1*
X4217Y26935D1*
Y26906D1*
X4202Y26863D1*
X4174Y26835D1*
X4145Y26820D1*
X4102D1*
X4073Y26835D1*
X4045Y26863D1*
X3952Y27021D2*
Y26820D1*
Y26935D2*
X3938Y26978D1*
X3909Y27007D1*
X3880Y27021D1*
X3837D1*
X3572Y27007D2*
Y26777D1*
X3587Y26734D1*
X3601Y26719D1*
X3630Y26705D1*
X3673D1*
X3701Y26719D1*
X3572Y26964D2*
X3601Y26992D1*
X3630Y27007D1*
X3673D1*
X3701Y26992D1*
X3730Y26964D1*
X3745Y26920D1*
Y26892D1*
X3730Y26849D1*
X3701Y26820D1*
X3673Y26806D1*
X3630D1*
X3601Y26820D1*
X3572Y26849D1*
X3480Y26935D2*
X3308D1*
Y26964D1*
X3322Y26992D1*
X3336Y27007D1*
X3365Y27021D1*
X3408D1*
X3437Y27007D1*
X3466Y26978D1*
X3480Y26935D1*
Y26906D1*
X3466Y26863D1*
X3437Y26835D1*
X3408Y26820D1*
X3365D1*
X3336Y26835D1*
X3308Y26863D1*
X3215Y27021D2*
Y26820D1*
Y26935D2*
X3200Y26978D1*
X3172Y27007D1*
X3143Y27021D1*
X3100D1*
X300Y23422D2*
X602D1*
X401Y23329D2*
X602D1*
X458D2*
X415Y23286D1*
X401Y23257D1*
Y23214D1*
X415Y23186D1*
X458Y23171D1*
X602D1*
X458D2*
X415Y23128D1*
X401Y23099D1*
Y23057D1*
X415Y23028D1*
X458Y23013D1*
X602D1*
X401Y22849D2*
X415Y22877D1*
X444Y22906D1*
X487Y22921D1*
X516D1*
X559Y22906D1*
X587Y22877D1*
X602Y22849D1*
Y22806D1*
X587Y22777D1*
X559Y22748D1*
X516Y22734D1*
X487D1*
X444Y22748D1*
X415Y22777D1*
X401Y22806D1*
Y22849D1*
Y22641D2*
X602D1*
X458D2*
X415Y22598D1*
X401Y22569D1*
Y22526D1*
X415Y22498D1*
X458Y22483D1*
X602D1*
M02*
