G04 DipTrace 2.3.0.1*
%INBottomMask.gbr*%
%MOIN*%
%ADD25C,0.074*%
%ADD42C,0.0669*%
%FSLAX44Y44*%
G04*
G70*
G90*
G75*
G01*
%LNBotMask*%
%LPD*%
G36*
X5943Y18736D2*
X6257D1*
Y18264D1*
X5943D1*
Y18736D1*
G37*
G36*
X5234D2*
X5549D1*
Y18264D1*
X5234D1*
Y18736D1*
G37*
G36*
X6175Y13201D2*
X6490D1*
Y12729D1*
X6175D1*
Y13201D1*
G37*
G36*
X5466D2*
X5781D1*
Y12729D1*
X5466D1*
Y13201D1*
G37*
G36*
X7421Y27918D2*
X7736D1*
Y27446D1*
X7421D1*
Y27918D1*
G37*
G36*
X6712D2*
X7027D1*
Y27446D1*
X6712D1*
Y27918D1*
G37*
D25*
X2924Y15703D3*
Y16703D3*
X10770Y9960D3*
X10870Y10960D3*
X10770Y11960D3*
X10870Y12960D3*
X10770Y13960D3*
X10870Y14960D3*
G36*
X738Y12162D2*
X1261D1*
X1262Y11639D1*
X738Y11638D1*
Y12162D1*
G37*
D25*
X1100Y12900D3*
X1000Y13900D3*
X1100Y14900D3*
G36*
X8024Y13375D2*
X7824Y13575D1*
Y13858D1*
X8024Y14059D1*
X8307D1*
X8508Y13858D1*
Y13575D1*
X8307Y13375D1*
X8024D1*
G37*
G36*
X9024D2*
X8824Y13575D1*
Y13858D1*
X9024Y14059D1*
X9307D1*
X9508Y13858D1*
Y13575D1*
X9307Y13375D1*
X9024D1*
G37*
G36*
X8024Y12375D2*
X7824Y12575D1*
Y12858D1*
X8024Y13059D1*
X8307D1*
X8508Y12858D1*
Y12575D1*
X8307Y12375D1*
X8024D1*
G37*
G36*
X9024D2*
X8824Y12575D1*
Y12858D1*
X9024Y13059D1*
X9307D1*
X9508Y12858D1*
Y12575D1*
X9307Y12375D1*
X9024D1*
G37*
G36*
X8024Y11375D2*
X7824Y11575D1*
Y11858D1*
X8024Y12059D1*
X8307D1*
X8508Y11858D1*
Y11575D1*
X8307Y11375D1*
X8024D1*
G37*
G36*
X9024D2*
X8824Y11575D1*
Y11858D1*
X9024Y12059D1*
X9307D1*
X9508Y11858D1*
Y11575D1*
X9307Y11375D1*
X9024D1*
G37*
G36*
X1907Y5496D2*
X1908Y4973D1*
X1384Y4972D1*
Y5496D1*
X1907D1*
G37*
D25*
X2646Y5234D3*
X3646D3*
X4646D3*
X5646D3*
X6646D3*
X7646D3*
X8646D3*
G36*
X11132Y7998D2*
X10609D1*
X10608Y8521D1*
X11132Y8522D1*
Y7998D1*
G37*
D25*
X10770Y7260D3*
X10870Y6260D3*
X10770Y5260D3*
X3420Y27809D3*
X4420D3*
X8071Y23692D3*
Y24692D3*
D42*
X600Y3600D3*
X1600D3*
X2600D3*
X3600Y2600D3*
Y3600D3*
X2600Y2600D3*
X600D3*
X4600Y3600D3*
Y2600D3*
X1600D3*
X5600Y3600D3*
X6600D3*
X7600D3*
X8600Y2600D3*
Y3600D3*
X7600Y2600D3*
X5600D3*
X9600Y3600D3*
X1000Y23000D3*
X6600Y2600D3*
X600Y1600D3*
X1600D3*
X2600D3*
X3600Y600D3*
Y1600D3*
X2600Y600D3*
X600D3*
X4600Y1600D3*
Y600D3*
X1600D3*
X5600Y1600D3*
X6600D3*
X7600D3*
X8600Y600D3*
Y1600D3*
X7600Y600D3*
X5600D3*
X6600D3*
G36*
X11130Y27851D2*
Y27517D1*
X10460D1*
Y27851D1*
X11130D1*
G37*
G36*
X9948Y27064D2*
Y26729D1*
X9279D1*
Y27064D1*
X9948D1*
G37*
G36*
X11130Y26277D2*
Y25942D1*
X10460D1*
Y26277D1*
X11130D1*
G37*
G36*
X9948Y25489D2*
Y25154D1*
X9279D1*
Y25489D1*
X9948D1*
G37*
G36*
X11130Y24702D2*
Y24367D1*
X10460D1*
Y24702D1*
X11130D1*
G37*
G36*
X9948Y23914D2*
Y23580D1*
X9279D1*
Y23914D1*
X9948D1*
G37*
G36*
X11130Y23127D2*
Y22792D1*
X10460D1*
Y23127D1*
X11130D1*
G37*
G36*
X9948Y22340D2*
Y22005D1*
X9279D1*
Y22340D1*
X9948D1*
G37*
G36*
X11130Y21552D2*
Y21217D1*
X10460D1*
Y21552D1*
X11130D1*
G37*
G36*
X9948Y20765D2*
Y20430D1*
X9279D1*
Y20765D1*
X9948D1*
G37*
G36*
X1287D2*
Y20430D1*
X618D1*
Y20765D1*
X1287D1*
G37*
G36*
X2468Y21552D2*
Y21217D1*
X1799D1*
Y21552D1*
X2468D1*
G37*
G36*
X1287Y22340D2*
Y22005D1*
X618D1*
Y22340D1*
X1287D1*
G37*
G36*
X2468Y23127D2*
Y22792D1*
X1799D1*
Y23127D1*
X2468D1*
G37*
G36*
X1287Y23914D2*
Y23580D1*
X618D1*
Y23914D1*
X1287D1*
G37*
G36*
X2468Y24702D2*
Y24367D1*
X1799D1*
Y24702D1*
X2468D1*
G37*
G36*
X1287Y25489D2*
Y25154D1*
X618D1*
Y25489D1*
X1287D1*
G37*
G36*
X2468Y26277D2*
Y25942D1*
X1799D1*
Y26277D1*
X2468D1*
G37*
G36*
X1287Y27064D2*
Y26729D1*
X618D1*
Y27064D1*
X1287D1*
G37*
G36*
X2468Y27851D2*
Y27517D1*
X1799D1*
Y27851D1*
X2468D1*
G37*
G36*
X4768Y17147D2*
Y17647D1*
X4988D1*
Y17147D1*
X4768D1*
G37*
G36*
X5082D2*
Y17647D1*
X5302D1*
Y17147D1*
X5082D1*
G37*
G36*
X5397D2*
Y17647D1*
X5617D1*
Y17147D1*
X5397D1*
G37*
G36*
X5712D2*
Y17647D1*
X5932D1*
Y17147D1*
X5712D1*
G37*
G36*
X6027D2*
Y17647D1*
X6247D1*
Y17147D1*
X6027D1*
G37*
G36*
X6342D2*
Y17647D1*
X6562D1*
Y17147D1*
X6342D1*
G37*
G36*
X6657D2*
Y17647D1*
X6877D1*
Y17147D1*
X6657D1*
G37*
G36*
X6972D2*
Y17647D1*
X7192D1*
Y17147D1*
X6972D1*
G37*
G36*
X7420Y16699D2*
Y16919D1*
X7920D1*
Y16699D1*
X7420D1*
G37*
G36*
Y16384D2*
Y16604D1*
X7920D1*
Y16384D1*
X7420D1*
G37*
G36*
Y16069D2*
Y16289D1*
X7920D1*
Y16069D1*
X7420D1*
G37*
G36*
Y15754D2*
Y15974D1*
X7920D1*
Y15754D1*
X7420D1*
G37*
G36*
Y15439D2*
Y15659D1*
X7920D1*
Y15439D1*
X7420D1*
G37*
G36*
Y15124D2*
Y15344D1*
X7920D1*
Y15124D1*
X7420D1*
G37*
G36*
Y14809D2*
Y15029D1*
X7920D1*
Y14809D1*
X7420D1*
G37*
G36*
Y14494D2*
Y14714D1*
X7920D1*
Y14494D1*
X7420D1*
G37*
G36*
X6972Y13767D2*
Y14267D1*
X7192D1*
Y13767D1*
X6972D1*
G37*
G36*
X6657D2*
Y14267D1*
X6877D1*
Y13767D1*
X6657D1*
G37*
G36*
X6342D2*
Y14267D1*
X6562D1*
Y13767D1*
X6342D1*
G37*
G36*
X6027D2*
Y14267D1*
X6247D1*
Y13767D1*
X6027D1*
G37*
G36*
X5712D2*
Y14267D1*
X5932D1*
Y13767D1*
X5712D1*
G37*
G36*
X5397D2*
Y14267D1*
X5617D1*
Y13767D1*
X5397D1*
G37*
G36*
X5082D2*
Y14267D1*
X5302D1*
Y13767D1*
X5082D1*
G37*
G36*
X4768D2*
Y14267D1*
X4988D1*
Y13767D1*
X4768D1*
G37*
G36*
X4040Y14494D2*
Y14714D1*
X4540D1*
Y14494D1*
X4040D1*
G37*
G36*
Y14809D2*
Y15029D1*
X4540D1*
Y14809D1*
X4040D1*
G37*
G36*
Y15124D2*
Y15344D1*
X4540D1*
Y15124D1*
X4040D1*
G37*
G36*
Y15439D2*
Y15659D1*
X4540D1*
Y15439D1*
X4040D1*
G37*
G36*
Y15754D2*
Y15974D1*
X4540D1*
Y15754D1*
X4040D1*
G37*
G36*
Y16069D2*
Y16289D1*
X4540D1*
Y16069D1*
X4040D1*
G37*
G36*
Y16384D2*
Y16604D1*
X4540D1*
Y16384D1*
X4040D1*
G37*
G36*
Y16699D2*
Y16919D1*
X4540D1*
Y16699D1*
X4040D1*
G37*
G36*
X6808Y18222D2*
X6532D1*
Y18892D1*
X6808D1*
Y18222D1*
G37*
G36*
X7280D2*
X7005D1*
Y18892D1*
X7280D1*
Y18222D1*
G37*
G36*
X7753D2*
X7477D1*
Y18892D1*
X7753D1*
Y18222D1*
G37*
M02*
