M48
INCH
T01C0.013
T02C0.0354
T03C0.04
T04C0.13
%
T01
X+006100Y+027800
X+006100Y+027250
X+006100Y+026700
X+006100Y+026100
X+006879Y+024570
X+007000Y+022200
X+007000Y+021800
X+007100Y+020350
X+006750Y+020350
X+006750Y+019150
X+006450Y+016934
X+006340Y+016504
X+007150Y+016184
X+006920Y+015294
X+006770Y+014484
X+006350Y+014484
X+006110Y+014844
X+004750Y+014604
X+005190Y+013534
X+004420Y+013160
X+003960Y+011864
X+004440Y+010280
X+003480Y+010240
X+005620Y+010260
X+007630Y+009914
X+007630Y+010834
X+007670Y+008304
X+008710Y+007854
X+009600Y+007084
X+007450Y+006844
X+005410Y+007984
X+005110Y+005724
X+010250Y+013450
X+009600Y+014284
X+009900Y+015874
X+009900Y+019404
X+010600Y+020800
X+010250Y+026100
X+009450Y+026150
X+004900Y+022900
X+003850Y+021600
X+003300Y+023550
X+003552Y+024516
X+002738Y+024505
X+002022Y+023419
X+001049Y+024797
X+003200Y+018900
X+001660Y+018434
X+001070Y+017324
X+002570Y+017314
X+004130Y+017314
X+004730Y+016500
X+005440Y+016934
X+003830Y+016234
X+003200Y+015000
X+001650Y+015400
X+001650Y+014350
T02
X+000600Y+003600
X+000600Y+002600
X+001600Y+002600
X+001600Y+003600
X+002600Y+003600
X+002600Y+002600
X+003600Y+002600
X+003600Y+003600
X+004600Y+003600
X+004600Y+002600
X+005600Y+002600
X+005600Y+003600
X+006600Y+003600
X+006600Y+002600
X+007600Y+002600
X+007600Y+003600
X+008600Y+003600
X+008600Y+002600
X+008600Y+001600
X+007600Y+001600
X+006600Y+001600
X+005600Y+001600
X+004600Y+001600
X+003600Y+001600
X+002600Y+001600
X+001600Y+001600
X+001600Y+000600
X+002600Y+000600
X+003600Y+000600
X+004600Y+000600
X+005600Y+000600
X+006600Y+000600
X+007600Y+000600
X+008600Y+000600
X+009600Y+003600
X+000600Y+001600
X+000600Y+000600
X+001000Y+023000
T03
X+002924Y+015703
X+002924Y+016703
X+001100Y+014900
X+001000Y+013900
X+001100Y+012900
X+001000Y+011900
X+001646Y+005234
X+002646Y+005234
X+003646Y+005234
X+004646Y+005234
X+005646Y+005234
X+006646Y+005234
X+007646Y+005234
X+008646Y+005234
X+010770Y+005260
X+010870Y+006260
X+010770Y+007260
X+010870Y+008260
X+010770Y+009960
X+010870Y+010960
X+010770Y+011960
X+010870Y+012960
X+010770Y+013960
X+010870Y+014960
X+009166Y+013717
X+008166Y+013717
X+008166Y+012717
X+008166Y+011717
X+009166Y+011717
X+009166Y+012717
X+008071Y+023692
X+008071Y+024692
X+004420Y+027809
X+003420Y+027809
T04
X+010500Y+017660
X+001256Y+009296
X+010300Y+001500
T00
M30
