G04 DipTrace 2.3.0.1*
%INTopMask.gbr*%
%MOIN*%
%ADD25C,0.074*%
%ADD36R,0.063X0.0236*%
%ADD38R,0.2303X0.2264*%
%ADD40R,0.0906X0.0472*%
%ADD42C,0.0669*%
%ADD46R,0.1159X0.0929*%
%ADD48R,0.0709X0.0787*%
%FSLAX44Y44*%
G04*
G70*
G90*
G75*
G01*
%LNTopMask*%
%LPD*%
G36*
X3486Y18243D2*
Y18557D1*
X3014D1*
Y18243D1*
X3486D1*
G37*
G36*
Y17534D2*
Y17849D1*
X3014D1*
Y17534D1*
X3486D1*
G37*
G36*
X4327Y9670D2*
X4012D1*
Y9198D1*
X4327D1*
Y9670D1*
G37*
G36*
X5036D2*
X4721D1*
Y9198D1*
X5036D1*
Y9670D1*
G37*
G36*
X8827D2*
X8512D1*
Y9198D1*
X8827D1*
Y9670D1*
G37*
G36*
X9536D2*
X9221D1*
Y9198D1*
X9536D1*
Y9670D1*
G37*
G36*
X6702D2*
X6387D1*
Y9198D1*
X6702D1*
Y9670D1*
G37*
G36*
X7411D2*
X7096D1*
Y9198D1*
X7411D1*
Y9670D1*
G37*
G36*
X4059Y17841D2*
Y17527D1*
X4531D1*
Y17841D1*
X4059D1*
G37*
G36*
Y18550D2*
Y18235D1*
X4531D1*
Y18550D1*
X4059D1*
G37*
D48*
X8800Y15300D3*
X7698D3*
G36*
X3734Y24772D2*
X4049D1*
Y25245D1*
X3734D1*
Y24772D1*
G37*
G36*
X3026D2*
X3340D1*
Y25245D1*
X3026D1*
Y24772D1*
G37*
G36*
X1043Y19564D2*
X1357D1*
Y20036D1*
X1043D1*
Y19564D1*
G37*
G36*
X334D2*
X649D1*
Y20036D1*
X334D1*
Y19564D1*
G37*
G36*
X4452Y7427D2*
X4137D1*
Y7191D1*
X4452D1*
Y7427D1*
G37*
G36*
X4885D2*
X4570D1*
Y7191D1*
X4885D1*
Y7427D1*
G37*
G36*
X8952D2*
X8637D1*
Y7191D1*
X8952D1*
Y7427D1*
G37*
G36*
X9385D2*
X9070D1*
Y7191D1*
X9385D1*
Y7427D1*
G37*
G36*
X6827D2*
X6512D1*
Y7191D1*
X6827D1*
Y7427D1*
G37*
G36*
X7260D2*
X6945D1*
Y7191D1*
X7260D1*
Y7427D1*
G37*
D46*
X6078Y23043D3*
Y24783D3*
D25*
X2924Y15703D3*
Y16703D3*
X10770Y9960D3*
X10870Y10960D3*
X10770Y11960D3*
X10870Y12960D3*
X10770Y13960D3*
X10870Y14960D3*
G36*
X738Y12162D2*
X1261D1*
X1262Y11639D1*
X738Y11638D1*
Y12162D1*
G37*
D25*
X1100Y12900D3*
X1000Y13900D3*
X1100Y14900D3*
G36*
X8024Y13375D2*
X7824Y13575D1*
Y13858D1*
X8024Y14059D1*
X8307D1*
X8508Y13858D1*
Y13575D1*
X8307Y13375D1*
X8024D1*
G37*
G36*
X9024D2*
X8824Y13575D1*
Y13858D1*
X9024Y14059D1*
X9307D1*
X9508Y13858D1*
Y13575D1*
X9307Y13375D1*
X9024D1*
G37*
G36*
X8024Y12375D2*
X7824Y12575D1*
Y12858D1*
X8024Y13059D1*
X8307D1*
X8508Y12858D1*
Y12575D1*
X8307Y12375D1*
X8024D1*
G37*
G36*
X9024D2*
X8824Y12575D1*
Y12858D1*
X9024Y13059D1*
X9307D1*
X9508Y12858D1*
Y12575D1*
X9307Y12375D1*
X9024D1*
G37*
G36*
X8024Y11375D2*
X7824Y11575D1*
Y11858D1*
X8024Y12059D1*
X8307D1*
X8508Y11858D1*
Y11575D1*
X8307Y11375D1*
X8024D1*
G37*
G36*
X9024D2*
X8824Y11575D1*
Y11858D1*
X9024Y12059D1*
X9307D1*
X9508Y11858D1*
Y11575D1*
X9307Y11375D1*
X9024D1*
G37*
G36*
X1907Y5496D2*
X1908Y4973D1*
X1384Y4972D1*
Y5496D1*
X1907D1*
G37*
D25*
X2646Y5234D3*
X3646D3*
X4646D3*
X5646D3*
X6646D3*
X7646D3*
X8646D3*
G36*
X11132Y7998D2*
X10609D1*
X10608Y8521D1*
X11132Y8522D1*
Y7998D1*
G37*
D25*
X10770Y7260D3*
X10870Y6260D3*
X10770Y5260D3*
X3420Y27809D3*
X4420D3*
X8071Y23692D3*
Y24692D3*
G36*
X9450Y21612D2*
Y22006D1*
X7639D1*
Y21612D1*
X9450D1*
G37*
G36*
Y20825D2*
Y21218D1*
X7639D1*
Y20825D1*
X9450D1*
G37*
G36*
X11261Y23069D2*
X9923D1*
Y22439D1*
X11261D1*
Y23069D1*
G37*
G36*
Y20392D2*
X9923D1*
Y19762D1*
X11261D1*
Y20392D1*
G37*
D42*
X600Y3600D3*
X1600D3*
X2600D3*
X3600Y2600D3*
Y3600D3*
X2600Y2600D3*
X600D3*
X4600Y3600D3*
Y2600D3*
X1600D3*
X5600Y3600D3*
X6600D3*
X7600D3*
X8600Y2600D3*
Y3600D3*
X7600Y2600D3*
X5600D3*
X9600Y3600D3*
X1000Y23000D3*
X6600Y2600D3*
X600Y1600D3*
X1600D3*
X2600D3*
X3600Y600D3*
Y1600D3*
X2600Y600D3*
X600D3*
X4600Y1600D3*
Y600D3*
X1600D3*
X5600Y1600D3*
X6600D3*
X7600D3*
X8600Y600D3*
Y1600D3*
X7600Y600D3*
X5600D3*
X6600D3*
G36*
X4665Y12124D2*
Y11730D1*
X5216D1*
Y12124D1*
X4665D1*
G37*
G36*
Y12872D2*
Y12478D1*
X5216D1*
Y12872D1*
X4665D1*
G37*
G36*
X3799Y12498D2*
Y12104D1*
X4350D1*
Y12498D1*
X3799D1*
G37*
G36*
X8286Y17089D2*
Y17483D1*
X7735D1*
Y17089D1*
X8286D1*
G37*
G36*
Y16341D2*
Y16735D1*
X7735D1*
Y16341D1*
X8286D1*
G37*
G36*
X9152Y16715D2*
Y17109D1*
X8601D1*
Y16715D1*
X9152D1*
G37*
D40*
X2400Y21700D3*
Y19905D3*
D38*
X5254Y20802D3*
G36*
X4065Y16387D2*
Y16072D1*
X4538D1*
Y16387D1*
X4065D1*
G37*
G36*
Y17095D2*
Y16780D1*
X4538D1*
Y17095D1*
X4065D1*
G37*
G36*
X3115Y13519D2*
X3430D1*
Y13991D1*
X3115D1*
Y13519D1*
G37*
G36*
X2406D2*
X2721D1*
Y13991D1*
X2406D1*
Y13519D1*
G37*
G36*
X4762Y8073D2*
X5077D1*
Y8545D1*
X4762D1*
Y8073D1*
G37*
G36*
X4054D2*
X4369D1*
Y8545D1*
X4054D1*
Y8073D1*
G37*
G36*
X9262D2*
X9577D1*
Y8545D1*
X9262D1*
Y8073D1*
G37*
G36*
X8554D2*
X8869D1*
Y8545D1*
X8554D1*
Y8073D1*
G37*
G36*
X7137D2*
X7452D1*
Y8545D1*
X7137D1*
Y8073D1*
G37*
G36*
X6429D2*
X6744D1*
Y8545D1*
X6429D1*
Y8073D1*
G37*
G36*
X4195Y14011D2*
X3880D1*
Y13539D1*
X4195D1*
Y14011D1*
G37*
G36*
X4904D2*
X4589D1*
Y13539D1*
X4904D1*
Y14011D1*
G37*
G36*
X7268Y17108D2*
Y17423D1*
X6795D1*
Y17108D1*
X7268D1*
G37*
G36*
Y16399D2*
Y16714D1*
X6795D1*
Y16399D1*
X7268D1*
G37*
G36*
X1707Y20936D2*
X1393D1*
Y20464D1*
X1707D1*
Y20936D1*
G37*
G36*
X2416D2*
X2101D1*
Y20464D1*
X2416D1*
Y20936D1*
G37*
G36*
X3115Y11065D2*
Y10750D1*
X3587D1*
Y11065D1*
X3115D1*
G37*
G36*
Y11773D2*
Y11458D1*
X3587D1*
Y11773D1*
X3115D1*
G37*
G36*
X4336Y11154D2*
X4021D1*
Y10682D1*
X4336D1*
Y11154D1*
G37*
G36*
X5044D2*
X4729D1*
Y10682D1*
X5044D1*
Y11154D1*
G37*
G36*
X4702Y26295D2*
X4387D1*
Y25823D1*
X4702D1*
Y26295D1*
G37*
G36*
X5411D2*
X5096D1*
Y25823D1*
X5411D1*
Y26295D1*
G37*
G36*
X7780Y25915D2*
X7465D1*
Y25442D1*
X7780D1*
Y25915D1*
G37*
G36*
X8489D2*
X8174D1*
Y25442D1*
X8489D1*
Y25915D1*
G37*
G36*
X3327Y26295D2*
X3012D1*
Y25823D1*
X3327D1*
Y26295D1*
G37*
G36*
X4036D2*
X3721D1*
Y25823D1*
X4036D1*
Y26295D1*
G37*
G36*
X1406Y18326D2*
Y18542D1*
X934D1*
Y18326D1*
X1406D1*
G37*
G36*
Y17952D2*
Y18168D1*
X934D1*
Y17952D1*
X1406D1*
G37*
G36*
Y17578D2*
Y17794D1*
X934D1*
Y17578D1*
X1406D1*
G37*
G36*
X2430D2*
Y17794D1*
X1957D1*
Y17578D1*
X2430D1*
G37*
G36*
Y18326D2*
Y18542D1*
X1957D1*
Y18326D1*
X2430D1*
G37*
D36*
X2601Y23870D3*
Y23614D3*
Y23358D3*
Y23102D3*
X4333D3*
Y23358D3*
Y23614D3*
Y23870D3*
M02*
