G04 DipTrace 2.3.0.1*
%INTopSilk.gbr*%
%MOIN*%
%ADD10C,0.01*%
%ADD11C,0.006*%
%ADD22C,0.005*%
%ADD24C,0.008*%
%ADD27C,0.0153*%
%ADD50C,0.0046*%
%ADD51C,0.0093*%
%ADD52C,0.0062*%
%FSLAX44Y44*%
G04*
G70*
G90*
G75*
G01*
%LNTopSilk*%
%LPD*%
X3486Y18164D2*
D11*
Y17928D1*
X3014Y18164D2*
Y17928D1*
X4406Y9670D2*
X4642D1*
X4406Y9198D2*
X4642D1*
X8906Y9670D2*
X9142D1*
X8906Y9198D2*
X9142D1*
X6781Y9670D2*
X7017D1*
X6781Y9198D2*
X7017D1*
X4059Y17920D2*
Y18156D1*
X4531Y17920D2*
Y18156D1*
X8292Y15615D2*
D10*
Y14985D1*
X8367Y15615D2*
Y14985D1*
Y15615D2*
X8131D1*
X8367Y14985D2*
X8131D1*
X3655Y24772D2*
D11*
X3419D1*
X3655Y25245D2*
X3419D1*
X964Y19564D2*
X728D1*
X964Y20036D2*
X728D1*
X4275Y7152D2*
D22*
X4669D1*
X4748D1*
Y7466D2*
X4669D1*
X4275D1*
X4748D2*
X4669Y7545D1*
X4748Y7152D2*
X4669Y7073D1*
Y7152D1*
Y7545D2*
Y7466D1*
X8775Y7152D2*
X9169D1*
X9248D1*
Y7466D2*
X9169D1*
X8775D1*
X9248D2*
X9169Y7545D1*
X9248Y7152D2*
X9169Y7073D1*
Y7152D1*
Y7545D2*
Y7466D1*
X6650Y7152D2*
X7044D1*
X7123D1*
Y7466D2*
X7044D1*
X6650D1*
X7123D2*
X7044Y7545D1*
X7123Y7152D2*
X7044Y7073D1*
Y7152D1*
Y7545D2*
Y7466D1*
X5291Y22535D2*
D10*
Y25488D1*
X6866D1*
Y22535D1*
X6472Y22142D1*
X5291Y22535D2*
X5685Y22142D1*
X6472D1*
X2424Y15453D2*
D24*
Y15953D1*
X2674Y16203D1*
X3174D2*
X3424Y15953D1*
X2674Y16203D2*
X2424Y16453D1*
Y16953D1*
X2674Y17203D1*
X3174D2*
X3424Y16953D1*
Y16453D1*
X3174Y16203D1*
X2674Y15203D2*
X3174D1*
X2424Y15453D2*
X2674Y15203D1*
X3174D2*
X3424Y15453D1*
Y15953D2*
Y15453D1*
X2674Y17203D2*
X3174D1*
X10570Y9460D2*
X10320Y9710D1*
Y10210D1*
X10570Y10460D1*
X10320Y10710D1*
Y11210D1*
X10570Y11460D1*
X10320Y11710D1*
Y12210D1*
X10570Y12460D1*
X10320Y12710D1*
Y13210D1*
X10570Y13460D1*
X10320Y13710D1*
Y14210D1*
X10570Y14460D1*
X10320Y14710D1*
Y15210D1*
X10570Y15460D1*
X11070D1*
X11320Y15210D1*
Y14710D1*
X11070Y14460D1*
X11320Y14210D1*
Y13710D1*
X11070Y13460D1*
X11320Y13210D1*
Y12710D1*
X11070Y12460D1*
X11320Y12210D1*
Y11710D1*
X11070Y11460D1*
X11320Y11210D1*
Y10710D1*
X11070Y10460D1*
X11320Y10210D1*
Y9710D1*
X11070Y9460D1*
X10570D1*
Y10460D2*
X11070D1*
X10570Y11460D2*
X11070D1*
X10570Y12460D2*
X11070D1*
X10570Y13460D2*
X11070D1*
X10570Y14460D2*
X11070D1*
X550Y14650D2*
Y15150D1*
X800Y15400D1*
X1300D2*
X1550Y15150D1*
X800Y13400D2*
X550Y13650D1*
Y14150D1*
X800Y14400D1*
X1300D2*
X1550Y14150D1*
Y13650D1*
X1300Y13400D1*
X550Y14650D2*
X800Y14400D1*
X1300D2*
X1550Y14650D1*
Y15150D2*
Y14650D1*
X550Y11650D2*
Y12150D1*
X800Y12400D1*
X1300D2*
X1550Y12150D1*
X800Y12400D2*
X550Y12650D1*
Y13150D1*
X800Y13400D1*
X1300D2*
X1550Y13150D1*
Y12650D1*
X1300Y12400D1*
X800Y11400D2*
X1300D1*
X550Y11650D2*
X800Y11400D1*
X1300D2*
X1550Y11650D1*
Y12150D2*
Y11650D1*
X800Y15400D2*
X1300D1*
X7916Y14217D2*
X7666Y13967D1*
Y13467D2*
X7916Y13217D1*
X7666Y12967D1*
Y12467D2*
X7916Y12217D1*
X7666Y11967D1*
Y11467D2*
X7916Y11217D1*
Y14217D2*
X9416D1*
X9666Y13967D1*
Y13467D1*
X9416Y13217D1*
X9666Y12967D1*
Y12467D1*
X9416Y12217D1*
X9666Y11967D1*
Y11467D1*
X9416Y11217D1*
Y13217D2*
X7916D1*
X9416Y12217D2*
X7916D1*
X9416Y11217D2*
X7916D1*
X7666Y11967D2*
Y11467D1*
Y12967D2*
Y12467D1*
Y13967D2*
Y13467D1*
X7534D2*
Y13967D1*
X7396Y5734D2*
X7896D1*
X8146Y5484D1*
Y4984D2*
X7896Y4734D1*
X6146Y5484D2*
X6396Y5734D1*
X6896D1*
X7146Y5484D1*
Y4984D2*
X6896Y4734D1*
X6396D1*
X6146Y4984D1*
X7396Y5734D2*
X7146Y5484D1*
Y4984D2*
X7396Y4734D1*
X7896D2*
X7396D1*
X4396Y5734D2*
X4896D1*
X5146Y5484D1*
Y4984D2*
X4896Y4734D1*
X5146Y5484D2*
X5396Y5734D1*
X5896D1*
X6146Y5484D1*
Y4984D2*
X5896Y4734D1*
X5396D1*
X5146Y4984D1*
X3146Y5484D2*
X3396Y5734D1*
X3896D1*
X4146Y5484D1*
Y4984D2*
X3896Y4734D1*
X3396D1*
X3146Y4984D1*
X4396Y5734D2*
X4146Y5484D1*
Y4984D2*
X4396Y4734D1*
X4896D2*
X4396D1*
X1396Y5734D2*
X1896D1*
X2146Y5484D1*
Y4984D2*
X1896Y4734D1*
X2146Y5484D2*
X2396Y5734D1*
X2896D1*
X3146Y5484D1*
Y4984D2*
X2896Y4734D1*
X2396D1*
X2146Y4984D1*
X1146Y5484D2*
Y4984D1*
X1396Y5734D2*
X1146Y5484D1*
Y4984D2*
X1396Y4734D1*
X1896D2*
X1396D1*
X8396Y5734D2*
X8896D1*
X9146Y5484D1*
Y4984D1*
X8896Y4734D1*
X8396Y5734D2*
X8146Y5484D1*
Y4984D2*
X8396Y4734D1*
X8896D2*
X8396D1*
X11320Y5510D2*
Y5010D1*
X11070Y4760D1*
X10570D2*
X10320Y5010D1*
X11070Y6760D2*
X11320Y6510D1*
Y6010D1*
X11070Y5760D1*
X10570D2*
X10320Y6010D1*
Y6510D1*
X10570Y6760D1*
X11320Y5510D2*
X11070Y5760D1*
X10570D2*
X10320Y5510D1*
Y5010D2*
Y5510D1*
X11320Y8510D2*
Y8010D1*
X11070Y7760D1*
X10570D2*
X10320Y8010D1*
X11070Y7760D2*
X11320Y7510D1*
Y7010D1*
X11070Y6760D1*
X10570D2*
X10320Y7010D1*
Y7510D1*
X10570Y7760D1*
X11070Y8760D2*
X10570D1*
X11320Y8510D2*
X11070Y8760D1*
X10570D2*
X10320Y8510D1*
Y8010D2*
Y8510D1*
X11070Y4760D2*
X10570D1*
X3170Y28309D2*
X3670D1*
X3920Y28059D1*
Y27559D2*
X3670Y27309D1*
X3920Y28059D2*
X4170Y28309D1*
X4670D1*
X4920Y28059D1*
Y27559D2*
X4670Y27309D1*
X4170D1*
X3920Y27559D1*
X2920Y28059D2*
Y27559D1*
X3170Y28309D2*
X2920Y28059D1*
Y27559D2*
X3170Y27309D1*
X3670D2*
X3170D1*
X4920Y28059D2*
Y27559D1*
X7571Y23442D2*
Y23942D1*
X7821Y24192D1*
X8321D2*
X8571Y23942D1*
X7821Y24192D2*
X7571Y24442D1*
Y24942D1*
X7821Y25192D1*
X8321D2*
X8571Y24942D1*
Y24442D1*
X8321Y24192D1*
X7821Y23192D2*
X8321D1*
X7571Y23442D2*
X7821Y23192D1*
X8321D2*
X8571Y23442D1*
Y23942D2*
Y23442D1*
X7821Y25192D2*
X8321D1*
X2990Y22102D2*
D10*
Y19503D1*
X4014Y22102D2*
X2990D1*
X4014Y19503D2*
X2990D1*
D27*
X2117Y22092D3*
X4065Y16465D2*
D11*
Y16702D1*
X4538Y16465D2*
Y16702D1*
X3036Y13519D2*
X2800D1*
X3036Y13991D2*
X2800D1*
X4684Y8073D2*
X4447D1*
X4684Y8545D2*
X4447D1*
X9184Y8073D2*
X8947D1*
X9184Y8545D2*
X8947D1*
X7059Y8073D2*
X6822D1*
X7059Y8545D2*
X6822D1*
X4274Y14011D2*
X4510D1*
X4274Y13539D2*
X4510D1*
X7268Y17029D2*
Y16793D1*
X6795Y17029D2*
Y16793D1*
X1786Y20936D2*
X2022D1*
X1786Y20464D2*
X2022D1*
X3115Y11143D2*
Y11380D1*
X3587Y11143D2*
Y11380D1*
X4414Y11154D2*
X4651D1*
X4414Y10682D2*
X4651D1*
X4781Y26295D2*
X5017D1*
X4781Y25823D2*
X5017D1*
X7859Y25915D2*
X8095D1*
X7859Y25442D2*
X8095D1*
X3406Y26295D2*
X3642D1*
X3406Y25823D2*
X3642D1*
X1851Y17500D2*
D24*
X1513D1*
Y18620D2*
X1851D1*
X2001Y18166D2*
Y17954D1*
X3034Y24076D2*
D10*
Y22895D1*
X3900Y24076D2*
Y22895D1*
X3034D2*
X3900D1*
X3034Y24076D2*
X3309D1*
X3624D2*
X3900D1*
X3309D2*
G03X3624Y24076I158J0D01*
G01*
X2575Y17623D2*
D50*
X2589Y17580D1*
X2632Y17551D1*
X2704Y17537D1*
X2747D1*
X2819Y17551D1*
X2862Y17580D1*
X2876Y17623D1*
Y17652D1*
X2862Y17695D1*
X2819Y17724D1*
X2747Y17738D1*
X2704D1*
X2632Y17724D1*
X2589Y17695D1*
X2575Y17652D1*
Y17623D1*
X2632Y17724D2*
X2819Y17551D1*
X2847Y17845D2*
X2862Y17831D1*
X2876Y17845D1*
X2862Y17860D1*
X2847Y17845D1*
X2632Y17952D2*
X2618Y17981D1*
X2575Y18024D1*
X2876D1*
X2675Y18117D2*
X2819D1*
X2861Y18131D1*
X2876Y18160D1*
Y18203D1*
X2861Y18232D1*
X2819Y18275D1*
X2675D2*
X2876D1*
X2574Y18554D2*
Y18367D1*
X2876D1*
X2718D2*
Y18482D1*
X4077Y10052D2*
X4105Y10066D1*
X4148Y10109D1*
Y9808D1*
X4327Y10109D2*
X4284Y10095D1*
X4255Y10052D1*
X4241Y9980D1*
Y9937D1*
X4255Y9865D1*
X4284Y9822D1*
X4327Y9808D1*
X4356D1*
X4399Y9822D1*
X4428Y9865D1*
X4442Y9937D1*
Y9980D1*
X4428Y10052D1*
X4399Y10095D1*
X4356Y10109D1*
X4327D1*
X4428Y10052D2*
X4255Y9865D1*
X4535Y10009D2*
Y9865D1*
X4549Y9823D1*
X4578Y9808D1*
X4621D1*
X4649Y9823D1*
X4693Y9865D1*
Y10009D2*
Y9808D1*
X4972Y10110D2*
X4785D1*
Y9808D1*
Y9966D2*
X4900D1*
X8577Y10052D2*
X8605Y10066D1*
X8648Y10109D1*
Y9808D1*
X8827Y10109D2*
X8784Y10095D1*
X8755Y10052D1*
X8741Y9980D1*
Y9937D1*
X8755Y9865D1*
X8784Y9822D1*
X8827Y9808D1*
X8856D1*
X8899Y9822D1*
X8928Y9865D1*
X8942Y9937D1*
Y9980D1*
X8928Y10052D1*
X8899Y10095D1*
X8856Y10109D1*
X8827D1*
X8928Y10052D2*
X8755Y9865D1*
X9035Y10009D2*
Y9865D1*
X9049Y9823D1*
X9078Y9808D1*
X9121D1*
X9149Y9823D1*
X9193Y9865D1*
Y10009D2*
Y9808D1*
X9472Y10110D2*
X9285D1*
Y9808D1*
Y9966D2*
X9400D1*
X6477Y10109D2*
X6434Y10095D1*
X6405Y10052D1*
X6391Y9980D1*
Y9937D1*
X6405Y9865D1*
X6434Y9822D1*
X6477Y9808D1*
X6506D1*
X6549Y9822D1*
X6577Y9865D1*
X6592Y9937D1*
Y9980D1*
X6577Y10052D1*
X6549Y10095D1*
X6506Y10109D1*
X6477D1*
X6577Y10052D2*
X6405Y9865D1*
X6699Y9837D2*
X6684Y9822D1*
X6699Y9808D1*
X6713Y9822D1*
X6699Y9837D1*
X6806Y10052D2*
X6835Y10066D1*
X6878Y10109D1*
Y9808D1*
X6970Y10009D2*
Y9865D1*
X6985Y9823D1*
X7014Y9808D1*
X7057D1*
X7085Y9823D1*
X7128Y9865D1*
Y10009D2*
Y9808D1*
X7408Y10110D2*
X7221D1*
Y9808D1*
Y9966D2*
X7336D1*
X3677Y17591D2*
X3662Y17619D1*
X3620Y17663D1*
X3921D1*
X3620Y17841D2*
X3634Y17798D1*
X3677Y17770D1*
X3749Y17755D1*
X3792D1*
X3863Y17770D1*
X3907Y17798D1*
X3921Y17841D1*
Y17870D1*
X3907Y17913D1*
X3863Y17942D1*
X3792Y17956D1*
X3749D1*
X3677Y17942D1*
X3634Y17913D1*
X3620Y17870D1*
Y17841D1*
X3677Y17942D2*
X3863Y17770D1*
X3720Y18049D2*
X3863D1*
X3906Y18063D1*
X3921Y18092D1*
Y18135D1*
X3906Y18164D1*
X3863Y18207D1*
X3720D2*
X3921D1*
X3619Y18486D2*
Y18299D1*
X3921D1*
X3763D2*
Y18414D1*
X7654Y16036D2*
X7683Y16051D1*
X7726Y16093D1*
Y15792D1*
X7905Y16093D2*
X7862Y16079D1*
X7833Y16036D1*
X7819Y15964D1*
Y15921D1*
X7833Y15850D1*
X7862Y15806D1*
X7905Y15792D1*
X7934D1*
X7977Y15806D1*
X8005Y15850D1*
X8020Y15921D1*
Y15964D1*
X8005Y16036D1*
X7977Y16079D1*
X7934Y16093D1*
X7905D1*
X8005Y16036D2*
X7833Y15850D1*
X8199Y16093D2*
X8156Y16079D1*
X8127Y16036D1*
X8113Y15964D1*
Y15921D1*
X8127Y15850D1*
X8156Y15806D1*
X8199Y15792D1*
X8227D1*
X8270Y15806D1*
X8299Y15850D1*
X8313Y15921D1*
Y15964D1*
X8299Y16036D1*
X8270Y16079D1*
X8227Y16093D1*
X8199D1*
X8299Y16036D2*
X8127Y15850D1*
X8406Y15993D2*
Y15850D1*
X8420Y15807D1*
X8449Y15792D1*
X8492D1*
X8521Y15807D1*
X8564Y15850D1*
Y15993D2*
Y15792D1*
X8843Y16094D2*
X8657D1*
Y15792D1*
Y15950D2*
X8771D1*
X3090Y25626D2*
X3119Y25641D1*
X3162Y25684D1*
Y25383D1*
X3340Y25684D2*
X3297Y25669D1*
X3269Y25626D1*
X3254Y25555D1*
Y25512D1*
X3269Y25440D1*
X3297Y25397D1*
X3340Y25383D1*
X3369D1*
X3412Y25397D1*
X3441Y25440D1*
X3455Y25512D1*
Y25555D1*
X3441Y25626D1*
X3412Y25669D1*
X3369Y25684D1*
X3340D1*
X3441Y25626D2*
X3269Y25440D1*
X3548Y25584D2*
Y25440D1*
X3562Y25397D1*
X3591Y25383D1*
X3634D1*
X3663Y25397D1*
X3706Y25440D1*
Y25584D2*
Y25383D1*
X3985Y25684D2*
X3798D1*
Y25383D1*
Y25540D2*
X3913D1*
X398Y20418D2*
X427Y20432D1*
X470Y20475D1*
Y20174D1*
X649Y20475D2*
X606Y20461D1*
X577Y20418D1*
X563Y20346D1*
Y20303D1*
X577Y20231D1*
X606Y20188D1*
X649Y20174D1*
X677D1*
X720Y20188D1*
X749Y20231D1*
X764Y20303D1*
Y20346D1*
X749Y20418D1*
X720Y20461D1*
X677Y20475D1*
X649D1*
X749Y20418D2*
X577Y20231D1*
X856Y20375D2*
Y20231D1*
X870Y20189D1*
X899Y20174D1*
X942D1*
X971Y20189D1*
X1014Y20231D1*
Y20375D2*
Y20174D1*
X1293Y20476D2*
X1107D1*
Y20174D1*
Y20332D2*
X1221D1*
X5824Y25927D2*
Y25626D1*
X5924D1*
X5968Y25641D1*
X5996Y25669D1*
X6011Y25698D1*
X6025Y25741D1*
Y25813D1*
X6011Y25856D1*
X5996Y25884D1*
X5968Y25913D1*
X5924Y25927D1*
X5824D1*
X6261Y25626D2*
Y25927D1*
X6118Y25727D1*
X6333D1*
X1984Y15491D2*
X2286D1*
Y15620D1*
X2271Y15663D1*
X2257Y15678D1*
X2229Y15692D1*
X2185D1*
X2157Y15678D1*
X2142Y15663D1*
X2128Y15620D1*
X2113Y15663D1*
X2099Y15678D1*
X2071Y15692D1*
X2042D1*
X2013Y15678D1*
X1999Y15663D1*
X1984Y15620D1*
Y15491D1*
X2128D2*
Y15620D1*
X2085Y15785D2*
X2229D1*
X2271Y15799D1*
X2286Y15828D1*
Y15871D1*
X2271Y15899D1*
X2229Y15942D1*
X2085D2*
X2286D1*
X2085Y16035D2*
Y16193D1*
X2286Y16035D1*
Y16193D1*
X2085Y16286D2*
Y16443D1*
X2286Y16286D1*
Y16443D1*
X2171Y16536D2*
Y16708D1*
X2142D1*
X2113Y16694D1*
X2099Y16680D1*
X2085Y16651D1*
Y16608D1*
X2099Y16579D1*
X2128Y16550D1*
X2171Y16536D1*
X2200D1*
X2243Y16550D1*
X2271Y16579D1*
X2286Y16608D1*
Y16651D1*
X2271Y16680D1*
X2243Y16708D1*
X2085Y16801D2*
X2286D1*
X2171D2*
X2128Y16815D1*
X2099Y16844D1*
X2085Y16873D1*
Y16916D1*
X9881Y11723D2*
X10182D1*
Y11823D1*
X10167Y11867D1*
X10139Y11895D1*
X10110Y11910D1*
X10067Y11924D1*
X9995D1*
X9952Y11910D1*
X9924Y11895D1*
X9895Y11867D1*
X9881Y11823D1*
Y11723D1*
Y12017D2*
X9895Y12031D1*
X9881Y12045D1*
X9866Y12031D1*
X9881Y12017D1*
X9981Y12031D2*
X10182D1*
X10024Y12296D2*
X9995Y12282D1*
X9981Y12238D1*
Y12195D1*
X9995Y12152D1*
X10024Y12138D1*
X10053Y12152D1*
X10067Y12181D1*
X10082Y12253D1*
X10096Y12282D1*
X10125Y12296D1*
X10139D1*
X10167Y12282D1*
X10182Y12238D1*
Y12195D1*
X10167Y12152D1*
X10139Y12138D1*
X9981Y12388D2*
X10282D1*
X10024D2*
X9996Y12417D1*
X9981Y12446D1*
Y12489D1*
X9996Y12518D1*
X10024Y12546D1*
X10067Y12561D1*
X10096D1*
X10139Y12546D1*
X10168Y12518D1*
X10182Y12489D1*
Y12446D1*
X10168Y12417D1*
X10139Y12388D1*
X9881Y12654D2*
X10182D1*
X9981Y12918D2*
X10182D1*
X10024D2*
X9995Y12890D1*
X9981Y12861D1*
Y12818D1*
X9995Y12789D1*
X10024Y12761D1*
X10067Y12746D1*
X10096D1*
X10139Y12761D1*
X10167Y12789D1*
X10182Y12818D1*
Y12861D1*
X10167Y12890D1*
X10139Y12918D1*
X9981Y13026D2*
X10182Y13111D1*
X10239Y13083D1*
X10268Y13054D1*
X10282Y13026D1*
Y13011D1*
X9981Y13198D2*
X10182Y13111D1*
X1695Y12935D2*
X1666Y12906D1*
X1652Y12863D1*
Y12806D1*
X1666Y12763D1*
X1695Y12734D1*
X1723D1*
X1752Y12748D1*
X1766Y12763D1*
X1781Y12791D1*
X1810Y12877D1*
X1824Y12906D1*
X1838Y12921D1*
X1867Y12935D1*
X1910D1*
X1939Y12906D1*
X1953Y12863D1*
Y12806D1*
X1939Y12763D1*
X1910Y12734D1*
X1652Y13027D2*
X1953D1*
X1652Y13228D2*
X1953D1*
X1795Y13027D2*
Y13228D1*
X1652Y13422D2*
X1953D1*
X1652Y13321D2*
Y13522D1*
X1724Y13629D2*
X1709D1*
X1681Y13644D1*
X1666Y13658D1*
X1652Y13687D1*
Y13744D1*
X1666Y13773D1*
X1681Y13787D1*
X1709Y13801D1*
X1738D1*
X1767Y13787D1*
X1810Y13758D1*
X1953Y13615D1*
Y13816D1*
X1752Y13908D2*
X1953Y14066D1*
X1752D2*
X1953Y13908D1*
X7396Y12001D2*
X7095Y11886D1*
X7396Y11771D1*
X7296Y11815D2*
Y11958D1*
X7095Y12094D2*
X7396Y12209D1*
X7095Y12323D1*
X7238Y12416D2*
Y12545D1*
X7224Y12588D1*
X7209Y12603D1*
X7181Y12617D1*
X7152D1*
X7123Y12603D1*
X7109Y12588D1*
X7095Y12545D1*
Y12416D1*
X7396D1*
X7238Y12516D2*
X7396Y12617D1*
X7446Y12710D2*
Y12982D1*
X7138Y13276D2*
X7109Y13247D1*
X7095Y13204D1*
Y13147D1*
X7109Y13104D1*
X7138Y13075D1*
X7166D1*
X7195Y13089D1*
X7209Y13104D1*
X7224Y13132D1*
X7252Y13218D1*
X7267Y13247D1*
X7281Y13261D1*
X7310Y13276D1*
X7353D1*
X7381Y13247D1*
X7396Y13204D1*
Y13147D1*
X7381Y13104D1*
X7353Y13075D1*
X7252Y13368D2*
Y13498D1*
X7238Y13540D1*
X7224Y13555D1*
X7195Y13569D1*
X7152D1*
X7123Y13555D1*
X7109Y13540D1*
X7095Y13498D1*
Y13368D1*
X7396D1*
X7095Y13662D2*
X7396D1*
X4272Y6173D2*
X4086D1*
Y5872D1*
X4272D1*
X4086Y6030D2*
X4201D1*
X4365Y6073D2*
X4523Y5872D1*
Y6073D2*
X4365Y5872D1*
X4616Y6073D2*
Y5771D1*
Y6030D2*
X4644Y6058D1*
X4673Y6073D1*
X4716D1*
X4745Y6058D1*
X4773Y6030D1*
X4788Y5987D1*
Y5958D1*
X4773Y5915D1*
X4745Y5886D1*
X4716Y5872D1*
X4673D1*
X4644Y5886D1*
X4616Y5915D1*
X5053Y6073D2*
Y5872D1*
Y6030D2*
X5024Y6059D1*
X4995Y6073D1*
X4953D1*
X4924Y6059D1*
X4895Y6030D1*
X4881Y5987D1*
Y5958D1*
X4895Y5915D1*
X4924Y5887D1*
X4953Y5872D1*
X4995D1*
X5024Y5887D1*
X5053Y5915D1*
X5145Y6073D2*
Y5872D1*
Y6016D2*
X5189Y6059D1*
X5217Y6073D1*
X5260D1*
X5289Y6059D1*
X5303Y6016D1*
Y5872D1*
X5554Y6030D2*
X5539Y6059D1*
X5496Y6073D1*
X5453D1*
X5410Y6059D1*
X5396Y6030D1*
X5410Y6001D1*
X5439Y5987D1*
X5511Y5972D1*
X5539Y5958D1*
X5554Y5929D1*
Y5915D1*
X5539Y5887D1*
X5496Y5872D1*
X5453D1*
X5410Y5887D1*
X5396Y5915D1*
X5646Y6173D2*
X5661Y6159D1*
X5675Y6173D1*
X5661Y6188D1*
X5646Y6173D1*
X5661Y6073D2*
Y5872D1*
X5839Y6073D2*
X5811Y6059D1*
X5782Y6030D1*
X5768Y5987D1*
Y5958D1*
X5782Y5915D1*
X5811Y5887D1*
X5839Y5872D1*
X5883D1*
X5911Y5887D1*
X5940Y5915D1*
X5955Y5958D1*
Y5987D1*
X5940Y6030D1*
X5911Y6059D1*
X5883Y6073D1*
X5839D1*
X6047D2*
Y5872D1*
Y6016D2*
X6090Y6059D1*
X6119Y6073D1*
X6162D1*
X6191Y6059D1*
X6205Y6016D1*
Y5872D1*
X9881Y5937D2*
X10182D1*
Y6066D1*
X10167Y6109D1*
X10153Y6124D1*
X10125Y6138D1*
X10082D1*
X10053Y6124D1*
X10038Y6109D1*
X10024Y6066D1*
X10010Y6109D1*
X9995Y6124D1*
X9967Y6138D1*
X9938D1*
X9909Y6124D1*
X9895Y6109D1*
X9881Y6066D1*
Y5937D1*
X10024D2*
Y6066D1*
X9981Y6230D2*
X10125D1*
X10167Y6245D1*
X10182Y6274D1*
Y6317D1*
X10167Y6345D1*
X10125Y6388D1*
X9981D2*
X10182D1*
X9881Y6524D2*
X10125D1*
X10167Y6538D1*
X10182Y6567D1*
Y6596D1*
X9981Y6481D2*
Y6581D1*
X9881Y6731D2*
X10125D1*
X10167Y6746D1*
X10182Y6774D1*
Y6803D1*
X9981Y6688D2*
Y6789D1*
Y6967D2*
X9995Y6939D1*
X10024Y6910D1*
X10067Y6896D1*
X10096D1*
X10139Y6910D1*
X10167Y6939D1*
X10182Y6967D1*
Y7010D1*
X10167Y7039D1*
X10139Y7068D1*
X10096Y7082D1*
X10067D1*
X10024Y7068D1*
X9995Y7039D1*
X9981Y7010D1*
Y6967D1*
Y7175D2*
X10182D1*
X10038D2*
X9995Y7218D1*
X9981Y7247D1*
Y7290D1*
X9995Y7319D1*
X10038Y7333D1*
X10182D1*
X10024Y7583D2*
X9995Y7569D1*
X9981Y7526D1*
Y7483D1*
X9995Y7440D1*
X10024Y7425D1*
X10053Y7440D1*
X10067Y7469D1*
X10082Y7540D1*
X10096Y7569D1*
X10125Y7583D1*
X10139D1*
X10167Y7569D1*
X10182Y7526D1*
Y7483D1*
X10167Y7440D1*
X10139Y7425D1*
X7203Y23499D2*
X7175Y23485D1*
X7146Y23456D1*
X7131Y23428D1*
Y23370D1*
X7146Y23341D1*
X7175Y23313D1*
X7203Y23298D1*
X7246Y23284D1*
X7318D1*
X7361Y23298D1*
X7390Y23313D1*
X7418Y23341D1*
X7433Y23370D1*
Y23428D1*
X7418Y23456D1*
X7390Y23485D1*
X7361Y23499D1*
X7131Y23592D2*
X7433D1*
X7289D2*
X7246Y23635D1*
X7232Y23664D1*
Y23707D1*
X7246Y23736D1*
X7289Y23750D1*
X7433D1*
X7246Y24015D2*
X7476D1*
X7519Y24000D1*
X7533Y23986D1*
X7548Y23957D1*
Y23914D1*
X7533Y23886D1*
X7289Y24015D2*
X7261Y23986D1*
X7246Y23957D1*
Y23914D1*
X7261Y23886D1*
X7289Y23857D1*
X7332Y23842D1*
X7361D1*
X7404Y23857D1*
X7433Y23886D1*
X7447Y23914D1*
Y23957D1*
X7433Y23986D1*
X7404Y24015D1*
X7131Y24399D2*
X7433D1*
Y24571D1*
X7318Y24663D2*
Y24836D1*
X7289D1*
X7260Y24821D1*
X7246Y24807D1*
X7232Y24778D1*
Y24735D1*
X7246Y24707D1*
X7275Y24678D1*
X7318Y24663D1*
X7347D1*
X7390Y24678D1*
X7418Y24707D1*
X7433Y24735D1*
Y24778D1*
X7418Y24807D1*
X7390Y24836D1*
X7131Y25100D2*
X7433D1*
X7275D2*
X7246Y25072D1*
X7232Y25043D1*
Y25000D1*
X7246Y24971D1*
X7275Y24942D1*
X7318Y24928D1*
X7347D1*
X7390Y24942D1*
X7418Y24971D1*
X7433Y25000D1*
Y25043D1*
X7418Y25072D1*
X7390Y25100D1*
X3360Y12190D2*
X3374Y12162D1*
X3402Y12133D1*
X3431Y12119D1*
X3474Y12104D1*
X3546D1*
X3589Y12119D1*
X3618Y12133D1*
X3647Y12162D1*
X3661Y12190D1*
Y12248D1*
X3647Y12277D1*
X3618Y12305D1*
X3589Y12319D1*
X3546Y12334D1*
X3474D1*
X3431Y12319D1*
X3402Y12305D1*
X3374Y12277D1*
X3360Y12248D1*
Y12190D1*
X3603Y12233D2*
X3690Y12319D1*
X3417Y12427D2*
X3403Y12455D1*
X3360Y12499D1*
X3661D1*
X8268Y17922D2*
X8240Y17908D1*
X8211Y17879D1*
X8197Y17850D1*
X8182Y17807D1*
Y17736D1*
X8197Y17692D1*
X8211Y17664D1*
X8240Y17635D1*
X8268Y17621D1*
X8326D1*
X8355Y17635D1*
X8383Y17664D1*
X8397Y17692D1*
X8412Y17736D1*
Y17807D1*
X8397Y17850D1*
X8383Y17879D1*
X8355Y17908D1*
X8326Y17922D1*
X8268D1*
X8311Y17678D2*
X8397Y17592D1*
X8519Y17850D2*
Y17864D1*
X8533Y17893D1*
X8548Y17907D1*
X8577Y17922D1*
X8634D1*
X8662Y17907D1*
X8677Y17893D1*
X8691Y17864D1*
Y17836D1*
X8677Y17807D1*
X8648Y17764D1*
X8505Y17620D1*
X8706D1*
X3684Y16276D2*
X3669Y16304D1*
X3626Y16348D1*
X3927D1*
X3626Y16526D2*
X3641Y16483D1*
X3684Y16454D1*
X3755Y16440D1*
X3798D1*
X3870Y16454D1*
X3913Y16483D1*
X3927Y16526D1*
Y16555D1*
X3913Y16598D1*
X3870Y16627D1*
X3798Y16641D1*
X3755D1*
X3684Y16627D1*
X3641Y16598D1*
X3626Y16555D1*
Y16526D1*
X3684Y16627D2*
X3870Y16454D1*
X3626Y16734D2*
X3927D1*
X3726Y16877D2*
X3870Y16734D1*
X3813Y16791D2*
X3927Y16892D1*
X2610Y14373D2*
X2639Y14388D1*
X2682Y14431D1*
Y14129D1*
X2861Y14431D2*
X2818Y14416D1*
X2789Y14373D1*
X2774Y14302D1*
Y14258D1*
X2789Y14187D1*
X2818Y14144D1*
X2861Y14129D1*
X2889D1*
X2932Y14144D1*
X2961Y14187D1*
X2975Y14258D1*
Y14302D1*
X2961Y14373D1*
X2932Y14416D1*
X2889Y14431D1*
X2861D1*
X2961Y14373D2*
X2789Y14187D1*
X3068Y14431D2*
Y14129D1*
X3212Y14330D2*
X3068Y14187D1*
X3125Y14244D2*
X3226Y14129D1*
X4330Y8683D2*
Y8984D1*
X4186Y8784D1*
X4401D1*
X4494Y8985D2*
Y8683D1*
X4637Y8884D2*
X4494Y8740D1*
X4551Y8798D2*
X4652Y8683D1*
X4802D2*
X4945Y8984D1*
X4744D1*
X8830Y8683D2*
Y8984D1*
X8686Y8784D1*
X8901D1*
X8994Y8985D2*
Y8683D1*
X9137Y8884D2*
X8994Y8740D1*
X9051Y8798D2*
X9152Y8683D1*
X9302D2*
X9445Y8984D1*
X9244D1*
X6705Y8683D2*
Y8984D1*
X6561Y8784D1*
X6776D1*
X6869Y8985D2*
Y8683D1*
X7012Y8884D2*
X6869Y8740D1*
X6926Y8798D2*
X7027Y8683D1*
X7177D2*
X7320Y8984D1*
X7119D1*
X4156Y14149D2*
Y14450D1*
X4012Y14249D1*
X4227D1*
X4320Y14450D2*
Y14149D1*
X4464Y14350D2*
X4320Y14206D1*
X4377Y14264D2*
X4478Y14149D1*
X4628D2*
X4771Y14450D1*
X4571D1*
X6414Y16603D2*
X6399Y16632D1*
X6356Y16675D1*
X6657D1*
X6356Y16854D2*
X6370Y16810D1*
X6414Y16782D1*
X6485Y16767D1*
X6528D1*
X6600Y16782D1*
X6643Y16810D1*
X6657Y16854D1*
Y16882D1*
X6643Y16925D1*
X6600Y16954D1*
X6528Y16968D1*
X6485D1*
X6414Y16954D1*
X6370Y16925D1*
X6356Y16882D1*
Y16854D1*
X6414Y16954D2*
X6600Y16782D1*
X6356Y17061D2*
X6657D1*
X6456Y17204D2*
X6600Y17061D1*
X6543Y17118D2*
X6657Y17219D1*
X1625Y21375D2*
X1482D1*
X1467Y21246D1*
X1482Y21260D1*
X1525Y21275D1*
X1567D1*
X1611Y21260D1*
X1639Y21232D1*
X1654Y21189D1*
Y21160D1*
X1639Y21117D1*
X1611Y21088D1*
X1567Y21074D1*
X1525D1*
X1482Y21088D1*
X1467Y21103D1*
X1453Y21131D1*
X1833Y21375D2*
X1789Y21361D1*
X1761Y21318D1*
X1746Y21246D1*
Y21203D1*
X1761Y21131D1*
X1789Y21088D1*
X1833Y21074D1*
X1861D1*
X1904Y21088D1*
X1933Y21131D1*
X1947Y21203D1*
Y21246D1*
X1933Y21318D1*
X1904Y21361D1*
X1861Y21375D1*
X1833D1*
X1933Y21318D2*
X1761Y21131D1*
X2040Y21275D2*
Y21074D1*
Y21218D2*
X2083Y21261D1*
X2112Y21275D1*
X2155D1*
X2184Y21261D1*
X2198Y21218D1*
Y21074D1*
Y21218D2*
X2241Y21261D1*
X2270Y21275D1*
X2312D1*
X2341Y21261D1*
X2356Y21218D1*
Y21074D1*
X2733Y10954D2*
X2719Y10982D1*
X2676Y11025D1*
X2977D1*
X2676Y11204D2*
X2690Y11161D1*
X2733Y11132D1*
X2805Y11118D1*
X2848D1*
X2920Y11132D1*
X2963Y11161D1*
X2977Y11204D1*
Y11233D1*
X2963Y11276D1*
X2920Y11304D1*
X2848Y11319D1*
X2805D1*
X2733Y11304D1*
X2690Y11276D1*
X2676Y11233D1*
Y11204D1*
X2733Y11304D2*
X2920Y11132D1*
X2675Y11412D2*
X2977D1*
X2776Y11555D2*
X2920Y11412D1*
X2862Y11469D2*
X2977Y11570D1*
X4224Y11536D2*
X4253Y11550D1*
X4296Y11593D1*
Y11292D1*
X4389Y11593D2*
Y11292D1*
X4533Y11493D2*
X4389Y11349D1*
X4446Y11407D2*
X4547Y11292D1*
X4812Y11593D2*
X4668D1*
X4654Y11464D1*
X4668Y11478D1*
X4712Y11493D1*
X4754D1*
X4797Y11478D1*
X4826Y11450D1*
X4841Y11407D1*
Y11378D1*
X4826Y11335D1*
X4797Y11306D1*
X4754Y11292D1*
X4712D1*
X4668Y11306D1*
X4654Y11321D1*
X4640Y11349D1*
X4541Y26663D2*
Y26677D1*
X4556Y26706D1*
X4570Y26720D1*
X4599Y26734D1*
X4656D1*
X4685Y26720D1*
X4699Y26706D1*
X4713Y26677D1*
Y26648D1*
X4699Y26619D1*
X4670Y26577D1*
X4527Y26433D1*
X4728D1*
X4835Y26663D2*
Y26677D1*
X4849Y26706D1*
X4863Y26720D1*
X4892Y26734D1*
X4950D1*
X4978Y26720D1*
X4992Y26706D1*
X5007Y26677D1*
Y26648D1*
X4992Y26619D1*
X4964Y26577D1*
X4820Y26433D1*
X5021D1*
X5114Y26735D2*
Y26433D1*
X5257Y26634D2*
X5114Y26490D1*
X5171Y26548D2*
X5272Y26433D1*
X7612Y26354D2*
X7770D1*
X7684Y26239D1*
X7727D1*
X7755Y26225D1*
X7770Y26210D1*
X7784Y26167D1*
Y26139D1*
X7770Y26096D1*
X7741Y26067D1*
X7698Y26053D1*
X7655D1*
X7612Y26067D1*
X7598Y26081D1*
X7583Y26110D1*
X7906Y26354D2*
X8063D1*
X7977Y26239D1*
X8020D1*
X8049Y26225D1*
X8063Y26210D1*
X8078Y26167D1*
Y26139D1*
X8063Y26096D1*
X8035Y26067D1*
X7992Y26053D1*
X7948D1*
X7906Y26067D1*
X7891Y26081D1*
X7877Y26110D1*
X8185Y26282D2*
Y26296D1*
X8199Y26325D1*
X8214Y26339D1*
X8242Y26354D1*
X8300D1*
X8328Y26339D1*
X8343Y26325D1*
X8357Y26296D1*
Y26268D1*
X8343Y26239D1*
X8314Y26196D1*
X8170Y26053D1*
X8371D1*
X3069Y26677D2*
X3098Y26691D1*
X3141Y26734D1*
Y26433D1*
X3320Y26734D2*
X3277Y26720D1*
X3248Y26677D1*
X3234Y26605D1*
Y26562D1*
X3248Y26490D1*
X3277Y26447D1*
X3320Y26433D1*
X3349D1*
X3392Y26447D1*
X3420Y26490D1*
X3435Y26562D1*
Y26605D1*
X3420Y26677D1*
X3392Y26720D1*
X3349Y26734D1*
X3320D1*
X3420Y26677D2*
X3248Y26490D1*
X3614Y26734D2*
X3571Y26720D1*
X3542Y26677D1*
X3528Y26605D1*
Y26562D1*
X3542Y26490D1*
X3571Y26447D1*
X3614Y26433D1*
X3642D1*
X3685Y26447D1*
X3714Y26490D1*
X3729Y26562D1*
Y26605D1*
X3714Y26677D1*
X3685Y26720D1*
X3642Y26734D1*
X3614D1*
X3714Y26677D2*
X3542Y26490D1*
X3821Y26735D2*
Y26433D1*
X3965Y26634D2*
X3821Y26490D1*
X3879Y26548D2*
X3979Y26433D1*
X719Y19059D2*
Y18758D1*
X618Y19059D2*
X819D1*
X912Y18901D2*
X1041D1*
X1084Y18916D1*
X1098Y18930D1*
X1113Y18959D1*
Y19002D1*
X1098Y19030D1*
X1084Y19045D1*
X1041Y19059D1*
X912D1*
Y18758D1*
X1406Y19016D2*
X1378Y19045D1*
X1335Y19059D1*
X1277D1*
X1234Y19045D1*
X1205Y19016D1*
Y18988D1*
X1220Y18959D1*
X1234Y18945D1*
X1263Y18930D1*
X1349Y18901D1*
X1378Y18887D1*
X1392Y18873D1*
X1406Y18844D1*
Y18801D1*
X1378Y18772D1*
X1335Y18758D1*
X1277D1*
X1234Y18772D1*
X1205Y18801D1*
X1556Y18758D2*
X1700Y19059D1*
X1499D1*
X1821D2*
X1979D1*
X1893Y18944D1*
X1936D1*
X1965Y18930D1*
X1979Y18916D1*
X1994Y18873D1*
Y18844D1*
X1979Y18801D1*
X1950Y18772D1*
X1907Y18758D1*
X1864D1*
X1821Y18772D1*
X1807Y18787D1*
X1793Y18815D1*
X2086Y19002D2*
X2115Y19016D1*
X2158Y19059D1*
Y18758D1*
X2280Y19059D2*
X2437D1*
X2351Y18944D1*
X2394D1*
X2423Y18930D1*
X2437Y18916D1*
X2452Y18873D1*
Y18844D1*
X2437Y18801D1*
X2409Y18772D1*
X2365Y18758D1*
X2322D1*
X2280Y18772D1*
X2265Y18787D1*
X2251Y18815D1*
X2573Y19059D2*
X2731D1*
X2645Y18944D1*
X2688D1*
X2716Y18930D1*
X2731Y18916D1*
X2745Y18873D1*
Y18844D1*
X2731Y18801D1*
X2702Y18772D1*
X2659Y18758D1*
X2616D1*
X2573Y18772D1*
X2559Y18787D1*
X2544Y18815D1*
X2547Y24214D2*
Y24516D1*
X2432Y24214D1*
X2318Y24516D1*
Y24214D1*
X2855Y24444D2*
X2841Y24473D1*
X2812Y24502D1*
X2783Y24516D1*
X2726D1*
X2697Y24502D1*
X2668Y24473D1*
X2654Y24444D1*
X2640Y24401D1*
Y24329D1*
X2654Y24286D1*
X2668Y24257D1*
X2697Y24229D1*
X2726Y24214D1*
X2783D1*
X2812Y24229D1*
X2841Y24257D1*
X2855Y24286D1*
X2947Y24358D2*
X3077D1*
X3120Y24372D1*
X3134Y24387D1*
X3148Y24415D1*
Y24458D1*
X3134Y24487D1*
X3120Y24502D1*
X3077Y24516D1*
X2947D1*
Y24214D1*
X3298D2*
X3442Y24515D1*
X3241D1*
X3564D2*
X3721D1*
X3635Y24401D1*
X3678D1*
X3707Y24386D1*
X3721Y24372D1*
X3736Y24329D1*
Y24301D1*
X3721Y24257D1*
X3693Y24229D1*
X3649Y24214D1*
X3606D1*
X3564Y24229D1*
X3549Y24243D1*
X3535Y24272D1*
X3900Y24515D2*
X3857Y24501D1*
X3843Y24473D1*
Y24444D1*
X3857Y24415D1*
X3886Y24401D1*
X3943Y24386D1*
X3986Y24372D1*
X4015Y24343D1*
X4029Y24315D1*
Y24272D1*
X4015Y24243D1*
X4000Y24229D1*
X3957Y24214D1*
X3900D1*
X3857Y24229D1*
X3843Y24243D1*
X3828Y24272D1*
Y24315D1*
X3843Y24343D1*
X3871Y24372D1*
X3914Y24386D1*
X3972Y24401D1*
X4000Y24415D1*
X4015Y24444D1*
Y24473D1*
X4000Y24501D1*
X3957Y24515D1*
X3900D1*
X4136Y24444D2*
Y24458D1*
X4150Y24487D1*
X4165Y24501D1*
X4194Y24515D1*
X4251D1*
X4279Y24501D1*
X4294Y24487D1*
X4308Y24458D1*
Y24430D1*
X4294Y24401D1*
X4265Y24358D1*
X4122Y24214D1*
X4323D1*
X4473D2*
X4616Y24515D1*
X4415D1*
X5405Y28098D2*
D51*
Y27581D1*
X5147Y27839D2*
X5664D1*
X2238Y27824D2*
X2569D1*
X9000Y23867D2*
D52*
Y23522D1*
X8828Y23694D2*
X9173D1*
X6469Y28126D2*
X6737D1*
X6469Y27724D1*
X6737D1*
X6861Y27877D2*
X7090D1*
Y27916D1*
X7071Y27954D1*
X7052Y27973D1*
X7014Y27992D1*
X6956D1*
X6918Y27973D1*
X6880Y27935D1*
X6861Y27877D1*
Y27839D1*
X6880Y27782D1*
X6918Y27744D1*
X6956Y27724D1*
X7014D1*
X7052Y27744D1*
X7090Y27782D1*
X7214Y28126D2*
Y27724D1*
Y27916D2*
X7271Y27973D1*
X7310Y27992D1*
X7367D1*
X7405Y27973D1*
X7424Y27916D1*
Y27724D1*
X7548Y27877D2*
X7777D1*
Y27916D1*
X7758Y27954D1*
X7739Y27973D1*
X7701Y27992D1*
X7643D1*
X7605Y27973D1*
X7567Y27935D1*
X7548Y27877D1*
Y27839D1*
X7567Y27782D1*
X7605Y27744D1*
X7643Y27724D1*
X7701D1*
X7739Y27744D1*
X7777Y27782D1*
X7958Y28126D2*
Y27801D1*
X7977Y27744D1*
X8016Y27724D1*
X8054D1*
X7901Y27992D2*
X8035D1*
X8177D2*
Y27724D1*
Y27916D2*
X8235Y27973D1*
X8273Y27992D1*
X8330D1*
X8369Y27973D1*
X8388Y27916D1*
Y27724D1*
X8511Y27877D2*
X8741D1*
Y27916D1*
X8721Y27954D1*
X8702Y27973D1*
X8664Y27992D1*
X8607D1*
X8569Y27973D1*
X8530Y27935D1*
X8511Y27877D1*
Y27839D1*
X8530Y27782D1*
X8569Y27744D1*
X8607Y27724D1*
X8664D1*
X8702Y27744D1*
X8741Y27782D1*
X8864Y27992D2*
Y27724D1*
Y27877D2*
X8883Y27935D1*
X8922Y27973D1*
X8960Y27992D1*
X9017D1*
X9798Y28069D2*
X9760Y28107D1*
X9702Y28126D1*
X9626D1*
X9568Y28107D1*
X9530Y28069D1*
Y28031D1*
X9549Y27992D1*
X9568Y27973D1*
X9606Y27954D1*
X9721Y27916D1*
X9760Y27897D1*
X9779Y27877D1*
X9798Y27839D1*
Y27782D1*
X9760Y27744D1*
X9702Y27724D1*
X9626D1*
X9568Y27744D1*
X9530Y27782D1*
X9921Y27877D2*
X10151D1*
Y27916D1*
X10132Y27954D1*
X10113Y27973D1*
X10074Y27992D1*
X10017D1*
X9979Y27973D1*
X9940Y27935D1*
X9921Y27877D1*
Y27839D1*
X9940Y27782D1*
X9979Y27744D1*
X10017Y27724D1*
X10074D1*
X10113Y27744D1*
X10151Y27782D1*
X10274Y27992D2*
Y27724D1*
Y27916D2*
X10332Y27973D1*
X10370Y27992D1*
X10427D1*
X10466Y27973D1*
X10485Y27916D1*
Y27724D1*
X10819Y27935D2*
X10800Y27973D1*
X10742Y27992D1*
X10685D1*
X10627Y27973D1*
X10608Y27935D1*
X10627Y27897D1*
X10666Y27877D1*
X10761Y27858D1*
X10800Y27839D1*
X10819Y27801D1*
Y27782D1*
X10800Y27744D1*
X10742Y27724D1*
X10685D1*
X10627Y27744D1*
X10608Y27782D1*
X11038Y27992D2*
X11000Y27973D1*
X10961Y27935D1*
X10942Y27877D1*
Y27839D1*
X10961Y27782D1*
X11000Y27744D1*
X11038Y27724D1*
X11095D1*
X11134Y27744D1*
X11172Y27782D1*
X11191Y27839D1*
Y27877D1*
X11172Y27935D1*
X11134Y27973D1*
X11095Y27992D1*
X11038D1*
X11315D2*
Y27724D1*
Y27877D2*
X11334Y27935D1*
X11372Y27973D1*
X11411Y27992D1*
X11468D1*
X10161Y27316D2*
D50*
X10290D1*
X10334Y27331D1*
X10348Y27345D1*
X10362Y27374D1*
Y27403D1*
X10348Y27431D1*
X10334Y27446D1*
X10290Y27460D1*
X10161D1*
Y27159D1*
X10262Y27316D2*
X10362Y27159D1*
X10455Y27273D2*
X10627D1*
Y27302D1*
X10613Y27331D1*
X10599Y27345D1*
X10570Y27360D1*
X10527D1*
X10498Y27345D1*
X10469Y27316D1*
X10455Y27273D1*
Y27245D1*
X10469Y27202D1*
X10498Y27173D1*
X10527Y27159D1*
X10570D1*
X10599Y27173D1*
X10627Y27202D1*
X10720Y27360D2*
X10806Y27159D1*
X10892Y27360D1*
X11276Y27460D2*
Y27159D1*
X11405D1*
X11449Y27173D1*
X11463Y27187D1*
X11477Y27216D1*
Y27259D1*
X11463Y27288D1*
X11449Y27302D1*
X11405Y27316D1*
X11449Y27331D1*
X11463Y27345D1*
X11477Y27374D1*
Y27403D1*
X11463Y27431D1*
X11449Y27446D1*
X11405Y27460D1*
X11276D1*
Y27316D2*
X11405D1*
X6500Y26921D2*
Y26620D1*
X6629D1*
X6672Y26635D1*
X6687Y26649D1*
X6701Y26677D1*
Y26720D1*
X6687Y26749D1*
X6672Y26764D1*
X6629Y26778D1*
X6672Y26792D1*
X6687Y26807D1*
X6701Y26835D1*
Y26864D1*
X6687Y26893D1*
X6672Y26907D1*
X6629Y26921D1*
X6500D1*
Y26778D2*
X6629D1*
X6966Y26821D2*
Y26620D1*
Y26778D2*
X6937Y26807D1*
X6908Y26821D1*
X6866D1*
X6837Y26807D1*
X6808Y26778D1*
X6794Y26735D1*
Y26706D1*
X6808Y26663D1*
X6837Y26635D1*
X6866Y26620D1*
X6908D1*
X6937Y26635D1*
X6966Y26663D1*
X7216Y26778D2*
X7202Y26807D1*
X7159Y26821D1*
X7116D1*
X7073Y26807D1*
X7058Y26778D1*
X7073Y26749D1*
X7101Y26735D1*
X7173Y26720D1*
X7202Y26706D1*
X7216Y26677D1*
Y26663D1*
X7202Y26635D1*
X7159Y26620D1*
X7116D1*
X7073Y26635D1*
X7058Y26663D1*
X7309Y26735D2*
X7481D1*
Y26764D1*
X7467Y26792D1*
X7452Y26807D1*
X7424Y26821D1*
X7380D1*
X7352Y26807D1*
X7323Y26778D1*
X7309Y26735D1*
Y26706D1*
X7323Y26663D1*
X7352Y26635D1*
X7380Y26620D1*
X7424D1*
X7452Y26635D1*
X7481Y26663D1*
X7746Y26921D2*
Y26620D1*
Y26778D2*
X7717Y26807D1*
X7688Y26821D1*
X7645D1*
X7617Y26807D1*
X7588Y26778D1*
X7574Y26735D1*
Y26706D1*
X7588Y26663D1*
X7617Y26635D1*
X7645Y26620D1*
X7688D1*
X7717Y26635D1*
X7746Y26663D1*
X8202Y26821D2*
X8173Y26807D1*
X8144Y26778D1*
X8130Y26735D1*
Y26706D1*
X8144Y26663D1*
X8173Y26635D1*
X8202Y26620D1*
X8245D1*
X8274Y26635D1*
X8302Y26663D1*
X8317Y26706D1*
Y26735D1*
X8302Y26778D1*
X8274Y26807D1*
X8245Y26821D1*
X8202D1*
X8409D2*
Y26620D1*
Y26764D2*
X8452Y26807D1*
X8481Y26821D1*
X8524D1*
X8553Y26807D1*
X8567Y26764D1*
Y26620D1*
X9181D2*
X9066Y26921D1*
X8951Y26620D1*
X8994Y26720D2*
X9138D1*
X9274Y26821D2*
Y26620D1*
Y26735D2*
X9288Y26778D1*
X9317Y26807D1*
X9346Y26821D1*
X9389D1*
X9654Y26921D2*
Y26620D1*
Y26778D2*
X9625Y26807D1*
X9596Y26821D1*
X9553D1*
X9525Y26807D1*
X9496Y26778D1*
X9481Y26735D1*
Y26706D1*
X9496Y26663D1*
X9525Y26635D1*
X9553Y26620D1*
X9596D1*
X9625Y26635D1*
X9654Y26663D1*
X9746Y26821D2*
Y26677D1*
X9761Y26635D1*
X9789Y26620D1*
X9832D1*
X9861Y26635D1*
X9904Y26677D1*
Y26821D2*
Y26620D1*
X9997Y26921D2*
X10011Y26907D1*
X10026Y26921D1*
X10011Y26936D1*
X9997Y26921D1*
X10011Y26821D2*
Y26620D1*
X10118Y26821D2*
Y26620D1*
Y26764D2*
X10161Y26807D1*
X10190Y26821D1*
X10233D1*
X10262Y26807D1*
X10276Y26764D1*
Y26620D1*
X10440Y26821D2*
X10412Y26807D1*
X10383Y26778D1*
X10369Y26735D1*
Y26706D1*
X10383Y26663D1*
X10412Y26635D1*
X10440Y26620D1*
X10483D1*
X10512Y26635D1*
X10541Y26663D1*
X10555Y26706D1*
Y26735D1*
X10541Y26778D1*
X10512Y26807D1*
X10483Y26821D1*
X10440D1*
X11126Y26921D2*
X10940D1*
Y26620D1*
Y26778D2*
X11054D1*
X11219Y26921D2*
X11233Y26907D1*
X11248Y26921D1*
X11233Y26936D1*
X11219Y26921D1*
X11233Y26821D2*
Y26620D1*
X11412Y26821D2*
X11384Y26807D1*
X11355Y26778D1*
X11340Y26735D1*
Y26706D1*
X11355Y26663D1*
X11384Y26635D1*
X11412Y26620D1*
X11455D1*
X11484Y26635D1*
X11513Y26663D1*
X11527Y26706D1*
Y26735D1*
X11513Y26778D1*
X11484Y26807D1*
X11455Y26821D1*
X11412D1*
X2200Y27164D2*
X2229Y27178D1*
X2272Y27221D1*
Y26920D1*
X2886D2*
X2771Y27221D1*
X2656Y26920D1*
X2699Y27020D2*
X2843D1*
X2979Y27121D2*
Y26920D1*
Y27064D2*
X3022Y27107D1*
X3051Y27121D1*
X3093D1*
X3122Y27107D1*
X3136Y27064D1*
Y26920D1*
Y27064D2*
X3180Y27107D1*
X3208Y27121D1*
X3251D1*
X3280Y27107D1*
X3295Y27064D1*
Y26920D1*
X3387Y27121D2*
Y26819D1*
Y27078D2*
X3416Y27106D1*
X3445Y27121D1*
X3488D1*
X3517Y27106D1*
X3545Y27078D1*
X3560Y27035D1*
Y27006D1*
X3545Y26963D1*
X3517Y26934D1*
X3488Y26920D1*
X3445D1*
X3416Y26934D1*
X3387Y26963D1*
X4145Y27221D2*
Y26920D1*
X3944Y27221D1*
Y26920D1*
X4309Y27121D2*
X4281Y27107D1*
X4252Y27078D1*
X4238Y27035D1*
Y27006D1*
X4252Y26963D1*
X4281Y26935D1*
X4309Y26920D1*
X4352D1*
X4381Y26935D1*
X4410Y26963D1*
X4424Y27006D1*
Y27035D1*
X4410Y27078D1*
X4381Y27107D1*
X4352Y27121D1*
X4309D1*
X4517D2*
Y26920D1*
Y27064D2*
X4560Y27107D1*
X4589Y27121D1*
X4632D1*
X4661Y27107D1*
X4675Y27064D1*
Y26920D1*
Y27064D2*
X4718Y27107D1*
X4747Y27121D1*
X4790D1*
X4818Y27107D1*
X4833Y27064D1*
Y26920D1*
X4926Y27221D2*
X4940Y27207D1*
X4954Y27221D1*
X4940Y27236D1*
X4926Y27221D1*
X4940Y27121D2*
Y26920D1*
X5047Y27121D2*
Y26920D1*
Y27064D2*
X5090Y27107D1*
X5119Y27121D1*
X5162D1*
X5191Y27107D1*
X5205Y27064D1*
Y26920D1*
X5470Y27121D2*
Y26920D1*
Y27078D2*
X5441Y27107D1*
X5412Y27121D1*
X5370D1*
X5341Y27107D1*
X5312Y27078D1*
X5298Y27035D1*
Y27006D1*
X5312Y26963D1*
X5341Y26935D1*
X5370Y26920D1*
X5412D1*
X5441Y26935D1*
X5470Y26963D1*
X5562Y27221D2*
Y26920D1*
X10080Y23233D2*
Y23391D1*
X10195Y23305D1*
Y23348D1*
X10209Y23376D1*
X10223Y23391D1*
X10266Y23405D1*
X10295D1*
X10338Y23391D1*
X10367Y23362D1*
X10381Y23319D1*
Y23276D1*
X10367Y23233D1*
X10352Y23219D1*
X10324Y23204D1*
X10352Y23512D2*
X10367Y23498D1*
X10381Y23512D1*
X10367Y23527D1*
X10352Y23512D1*
X10381Y23677D2*
X10080Y23820D1*
Y23619D1*
Y23913D2*
X10381Y24028D1*
X10080Y24142D1*
Y24527D2*
X10381D1*
Y24699D1*
X10080Y24791D2*
X10094Y24806D1*
X10080Y24820D1*
X10065Y24806D1*
X10080Y24791D1*
X10180Y24806D2*
X10381D1*
X10231Y24913D2*
Y25079D1*
X10080Y25171D2*
X10381D1*
X10180Y25336D2*
X10194Y25307D1*
X10223Y25278D1*
X10266Y25264D1*
X10295D1*
X10338Y25278D1*
X10367Y25307D1*
X10381Y25336D1*
Y25379D1*
X10367Y25407D1*
X10338Y25436D1*
X10295Y25451D1*
X10266D1*
X10223Y25436D1*
X10194Y25407D1*
X10180Y25379D1*
Y25336D1*
Y25543D2*
X10381D1*
X10238D2*
X10194Y25586D1*
X10180Y25615D1*
Y25658D1*
X10194Y25687D1*
X10238Y25701D1*
X10381D1*
X10695Y23247D2*
X10680Y23270D1*
X10637Y23304D1*
X10938D1*
Y23796D2*
X10637Y23704D1*
X10938Y23612D1*
X10838Y23646D2*
Y23761D1*
X10738Y23870D2*
X10938D1*
X10795D2*
X10752Y23904D1*
X10738Y23927D1*
Y23962D1*
X10752Y23985D1*
X10795Y23996D1*
X10938D1*
X10795D2*
X10752Y24030D1*
X10738Y24054D1*
Y24088D1*
X10752Y24111D1*
X10795Y24123D1*
X10938D1*
X10738Y24197D2*
X11039D1*
X10781D2*
X10752Y24220D1*
X10738Y24243D1*
Y24277D1*
X10752Y24300D1*
X10781Y24323D1*
X10824Y24335D1*
X10853D1*
X10895Y24323D1*
X10924Y24300D1*
X10938Y24277D1*
Y24243D1*
X10924Y24220D1*
X10895Y24197D1*
X10709Y24814D2*
X10680Y24803D1*
X10651Y24780D1*
X10637Y24757D1*
Y24711D1*
X10651Y24688D1*
X10680Y24665D1*
X10709Y24653D1*
X10752Y24642D1*
X10824D1*
X10867Y24653D1*
X10895Y24665D1*
X10924Y24688D1*
X10938Y24711D1*
Y24757D1*
X10924Y24780D1*
X10895Y24803D1*
X10867Y24814D1*
X10637Y24888D2*
X10938D1*
X10795D2*
X10752Y24923D1*
X10738Y24946D1*
Y24980D1*
X10752Y25003D1*
X10795Y25015D1*
X10938D1*
X10738Y25226D2*
X10938D1*
X10781D2*
X10752Y25204D1*
X10738Y25180D1*
Y25146D1*
X10752Y25123D1*
X10781Y25100D1*
X10824Y25089D1*
X10852D1*
X10895Y25100D1*
X10924Y25123D1*
X10938Y25146D1*
Y25180D1*
X10924Y25204D1*
X10895Y25226D1*
X10738Y25300D2*
X10938D1*
X10824D2*
X10781Y25312D1*
X10752Y25335D1*
X10738Y25358D1*
Y25393D1*
X10752Y25604D2*
X10982D1*
X11024Y25593D1*
X11039Y25581D1*
X11053Y25558D1*
Y25524D1*
X11039Y25501D1*
X10795Y25604D2*
X10766Y25581D1*
X10752Y25558D1*
Y25524D1*
X10766Y25501D1*
X10795Y25478D1*
X10838Y25467D1*
X10867D1*
X10910Y25478D1*
X10938Y25501D1*
X10953Y25524D1*
Y25558D1*
X10938Y25581D1*
X10910Y25604D1*
X10824Y25678D2*
Y25816D1*
X10795D1*
X10766Y25805D1*
X10752Y25793D1*
X10738Y25770D1*
Y25736D1*
X10752Y25713D1*
X10781Y25690D1*
X10824Y25678D1*
X10852D1*
X10895Y25690D1*
X10924Y25713D1*
X10938Y25736D1*
Y25770D1*
X10924Y25793D1*
X10895Y25816D1*
X2229Y17450D2*
Y17191D1*
X2100Y17320D2*
X2358D1*
M02*
