G04 DipTrace 2.4.0.2*
%INBottomSilk.GBO*%
%MOMM*%
%ADD10C,0.15*%
%ADD22C,0.2*%
%ADD101C,0.118*%
%ADD102C,0.196*%
%FSLAX53Y53*%
G04*
G71*
G90*
G75*
G01*
%LNBotSilk*%
%LPD*%
X28800Y66849D2*
D10*
X28000D1*
X6200Y16450D2*
X7000D1*
X17249Y-6600D2*
D22*
X27251D1*
X10000Y-250D2*
X17249Y-6600D1*
X34500Y-250D2*
X27251Y-6600D1*
X10000Y20250D2*
Y21001D1*
X34500Y20250D2*
Y21001D1*
X10000D2*
X34500D1*
X10000Y20250D2*
Y19701D1*
Y20250D2*
X12499D1*
Y19701D1*
Y400D2*
Y-250D1*
X10000D1*
Y400D1*
X32001Y20250D2*
Y19701D1*
Y20250D2*
X34500D1*
Y19701D1*
Y400D2*
Y-250D1*
X32001D1*
Y400D1*
X27251Y77100D2*
X17249D1*
X34500Y70750D2*
X27251Y77100D1*
X10000Y70750D2*
X17249Y77100D1*
X34500Y50250D2*
Y49499D1*
X10000Y50250D2*
Y49499D1*
X34500D2*
X10000D1*
X34500Y50250D2*
Y50799D1*
Y50250D2*
X32001D1*
Y50799D1*
Y70100D2*
Y70750D1*
X34500D1*
Y70100D1*
X12499Y50250D2*
Y50799D1*
Y50250D2*
X10000D1*
Y50799D1*
Y70100D2*
Y70750D1*
X12499D1*
Y70100D1*
X72000Y45450D2*
X37600D1*
X37650Y45200D2*
X37530Y401D1*
X38457Y389D2*
X38400Y44400D1*
X38600D2*
X72000D1*
X26966Y65931D2*
D101*
X26894Y65967D1*
X26820Y66040D1*
X26784Y66113D1*
Y66258D1*
X26820Y66332D1*
X26894Y66404D1*
X26966Y66441D1*
X27076Y66477D1*
X27258D1*
X27367Y66441D1*
X27440Y66404D1*
X27513Y66332D1*
X27550Y66258D1*
Y66113D1*
X27513Y66040D1*
X27440Y65967D1*
X27367Y65931D1*
X26785Y65622D2*
Y65222D1*
X27076Y65440D1*
Y65331D1*
X27113Y65258D1*
X27149Y65222D1*
X27258Y65185D1*
X27331D1*
X27440Y65222D1*
X27514Y65295D1*
X27550Y65404D1*
Y65514D1*
X27514Y65622D1*
X27476Y65658D1*
X27404Y65696D1*
X26785Y64731D2*
X26821Y64840D1*
X26931Y64914D1*
X27113Y64950D1*
X27222D1*
X27404Y64914D1*
X27514Y64840D1*
X27550Y64731D1*
Y64658D1*
X27514Y64549D1*
X27404Y64476D1*
X27222Y64439D1*
X27113D1*
X26931Y64476D1*
X26821Y64549D1*
X26785Y64658D1*
Y64731D1*
X26931Y64476D2*
X27404Y64914D1*
X26931Y64204D2*
X26894Y64131D1*
X26785Y64021D1*
X27550D1*
X5166Y18895D2*
X5094Y18931D1*
X5020Y19005D1*
X4984Y19077D1*
Y19223D1*
X5020Y19296D1*
X5094Y19368D1*
X5166Y19405D1*
X5276Y19442D1*
X5458D1*
X5567Y19405D1*
X5640Y19368D1*
X5713Y19296D1*
X5750Y19223D1*
Y19077D1*
X5713Y19005D1*
X5640Y18931D1*
X5567Y18895D1*
X4985Y18586D2*
Y18186D1*
X5276Y18405D1*
Y18295D1*
X5313Y18223D1*
X5349Y18186D1*
X5458Y18149D1*
X5531D1*
X5640Y18186D1*
X5714Y18259D1*
X5750Y18368D1*
Y18478D1*
X5714Y18586D1*
X5676Y18623D1*
X5604Y18660D1*
X4985Y17695D2*
X5021Y17805D1*
X5131Y17878D1*
X5313Y17914D1*
X5422D1*
X5604Y17878D1*
X5714Y17805D1*
X5750Y17695D1*
Y17623D1*
X5714Y17513D1*
X5604Y17441D1*
X5422Y17404D1*
X5313D1*
X5131Y17441D1*
X5021Y17513D1*
X4985Y17623D1*
Y17695D1*
X5131Y17441D2*
X5604Y17878D1*
X5167Y17131D2*
X5131D1*
X5057Y17095D1*
X5021Y17059D1*
X4985Y16985D1*
Y16840D1*
X5021Y16767D1*
X5057Y16731D1*
X5131Y16694D1*
X5203D1*
X5276Y16731D1*
X5385Y16804D1*
X5750Y17168D1*
Y16658D1*
X17960Y4366D2*
Y3819D1*
X17924Y3710D1*
X17850Y3637D1*
X17741Y3600D1*
X17669D1*
X17559Y3637D1*
X17486Y3710D1*
X17450Y3819D1*
Y4366D1*
X17141Y4365D2*
X16741D1*
X16959Y4074D1*
X16850D1*
X16777Y4037D1*
X16741Y4001D1*
X16704Y3892D1*
Y3819D1*
X16741Y3710D1*
X16813Y3636D1*
X16923Y3600D1*
X17032D1*
X17141Y3636D1*
X17177Y3674D1*
X17214Y3746D1*
X16250Y4365D2*
X16359Y4329D1*
X16432Y4219D1*
X16469Y4037D1*
Y3928D1*
X16432Y3746D1*
X16359Y3636D1*
X16250Y3600D1*
X16177D1*
X16068Y3636D1*
X15995Y3746D1*
X15958Y3928D1*
Y4037D1*
X15995Y4219D1*
X16068Y4329D1*
X16177Y4365D1*
X16250D1*
X15995Y4219D2*
X16432Y3746D1*
X15723Y4219D2*
X15650Y4256D1*
X15540Y4365D1*
Y3600D1*
X28824Y67716D2*
Y67169D1*
X28788Y67060D1*
X28714Y66987D1*
X28605Y66950D1*
X28532D1*
X28423Y66987D1*
X28350Y67060D1*
X28313Y67169D1*
Y67716D1*
X28005Y67715D2*
X27605D1*
X27823Y67424D1*
X27713D1*
X27641Y67387D1*
X27605Y67351D1*
X27568Y67242D1*
Y67169D1*
X27605Y67060D1*
X27677Y66986D1*
X27787Y66950D1*
X27896D1*
X28005Y66986D1*
X28041Y67024D1*
X28078Y67096D1*
X27113Y67715D2*
X27223Y67679D1*
X27296Y67569D1*
X27332Y67387D1*
Y67278D1*
X27296Y67096D1*
X27223Y66986D1*
X27113Y66950D1*
X27041D1*
X26931Y66986D1*
X26859Y67096D1*
X26822Y67278D1*
Y67387D1*
X26859Y67569D1*
X26931Y67679D1*
X27041Y67715D1*
X27113D1*
X26859Y67569D2*
X27296Y67096D1*
X26550Y67533D2*
Y67569D1*
X26513Y67643D1*
X26477Y67679D1*
X26404Y67715D1*
X26258D1*
X26186Y67679D1*
X26149Y67643D1*
X26112Y67569D1*
Y67497D1*
X26149Y67424D1*
X26222Y67315D1*
X26587Y66950D1*
X26076D1*
X18578Y2888D2*
D102*
X18274Y1612D1*
X17971Y2888D1*
X17667Y1612D1*
X17363Y2888D1*
X16971D2*
X16910Y2828D1*
X16848Y2888D1*
X16910Y2950D1*
X16971Y2888D1*
X16910Y2463D2*
Y1612D1*
X15666Y2888D2*
X16456D1*
Y1612D1*
Y2281D2*
X15971D1*
X15274Y2888D2*
X15213Y2828D1*
X15152Y2888D1*
X15213Y2950D1*
X15274Y2888D1*
X15213Y2463D2*
Y1612D1*
X29415Y69398D2*
X28565Y68122D1*
Y69398D2*
X29415Y68122D1*
X28173Y69398D2*
Y68122D1*
X27625D1*
X27443Y68184D1*
X27382Y68244D1*
X27322Y68365D1*
Y68548D1*
X27382Y68670D1*
X27443Y68730D1*
X27625Y68791D1*
X27443Y68852D1*
X27382Y68913D1*
X27322Y69033D1*
Y69156D1*
X27382Y69276D1*
X27443Y69338D1*
X27625Y69398D1*
X28173D1*
Y68791D2*
X27625D1*
X26930Y68608D2*
X26201D1*
Y68730D1*
X26261Y68852D1*
X26322Y68913D1*
X26444Y68973D1*
X26626D1*
X26747Y68913D1*
X26869Y68791D1*
X26930Y68608D1*
Y68487D1*
X26869Y68305D1*
X26747Y68184D1*
X26626Y68122D1*
X26444D1*
X26322Y68184D1*
X26201Y68305D1*
X25809Y68608D2*
X25080D1*
Y68730D1*
X25141Y68852D1*
X25201Y68913D1*
X25323Y68973D1*
X25506D1*
X25626Y68913D1*
X25749Y68791D1*
X25809Y68608D1*
Y68487D1*
X25749Y68305D1*
X25626Y68184D1*
X25506Y68122D1*
X25323D1*
X25201Y68184D1*
X25080Y68305D1*
M02*
