M48
METRIC,0000.00
T01C0.3
T02C0.5
T03C0.9
T04C1.2
T05C3.6
%
T01
X+003749Y+005825
X+003825Y+005825
X+003925Y+005825
X+004050Y+005825
X+004150Y+005825
X+004225Y+005825
X+004214Y+006375
X+004139Y+006375
X+004039Y+006375
X+003914Y+006375
X+003814Y+006375
X+003738Y+006375
X+003570Y+005837
X+003860Y+004600
X+004070Y+003740
X+004070Y+003240
X+004070Y+002740
X+004070Y+002240
X+004080Y+001746
X+003600Y+001640
X+003601Y+002017
X+003540Y+002480
X+003575Y+002865
X+003570Y+003480
X+003100Y+004125
X+002890Y+004045
X+002550Y+004130
X+002433Y+004161
X+002158Y+004153
X+002026Y+004110
X+001965Y+004165
X+001889Y+004130
X+001737Y+004136
X+001638Y+004090
X+001460Y+004160
X+001400Y+004070
X+001158Y+004044
X+001074Y+004219
X+001083Y+004300
X+001340Y+004490
X+001025Y+004750
X+000700Y+004620
X+000695Y+004345
X+000755Y+004265
X+000875Y+004035
X+000875Y+003900
X+001015Y+003900
X+000844Y+003687
X+000871Y+003561
X+000900Y+003495
X+000730Y+003340
X+000566Y+003244
X+000335Y+003056
X+000386Y+002995
X+000566Y+002804
X+000750Y+002610
X+000950Y+002510
X+001080Y+002510
X+001224Y+002568
X+001180Y+002810
X+001020Y+002940
X+001160Y+003040
X+001270Y+003110
X+001310Y+003010
X+001525Y+002940
X+001729Y+002666
X+001860Y+002403
X+002317Y+002577
X+002420Y+002550
X+002175Y+002950
X+002100Y+002920
X+001990Y+003145
X+002044Y+003754
X+001538Y+003672
X+001480Y+003772
X+001380Y+003630
X+001440Y+003560
X+000904Y+003147
X+000884Y+003048
X+000282Y+002728
X+000250Y+002200
X+000396Y+001628
X+000190Y+001284
X+000927Y+001542
X+001136Y+001540
X+001452Y+001497
X+001777Y+001497
X+002149Y+001976
X+002230Y+002050
X+002720Y+001900
X+002830Y+000480
X+002500Y+000370
X+002010Y+000250
X+000840Y+000220
X+000970Y+000790
X+001098Y+001950
X+000237Y+003763
X+000404Y+004036
X+001025Y+005400
X+001025Y+006050
X+000160Y+006050
X+000165Y+005923
X+002550Y+004620
X+004945Y+003486
X+005500Y+002740
X+004945Y+002486
X+004945Y+001486
X+005460Y+001600
X+005680Y+000940
X+004945Y+000486
X+004080Y+000740
X+004072Y+001233
X+003580Y+000480
X+004078Y+000232
T02
X+006080Y+004580
X+006080Y+004720
X+006075Y+004840
X+006000Y+004000
X+006000Y+003880
X+005860Y+003880
X+005860Y+004000
X+005840Y+003740
X+004575Y+004750
X+004575Y+004875
X+004575Y+005000
X+004874Y+005770
X+004360Y+005940
X+003320Y+006070
X+003410Y+004810
X+003550Y+004810
T03
X+004620Y+006520
X+004874Y+006520
X+005220Y+006520
X+002840Y+005440
X+002825Y+005099
X+002825Y+004845
X+002387Y+004750
X+002133Y+004750
X+001879Y+004750
X+001625Y+004750
X+001625Y+005150
X+001879Y+005150
X+002133Y+005150
X+002387Y+005150
X+002387Y+005550
X+002133Y+005550
X+001879Y+005550
X+001625Y+005550
X+001625Y+005950
X+001879Y+005950
X+002133Y+005950
X+002387Y+005950
X+002387Y+006350
X+002133Y+006350
X+001879Y+006350
X+001625Y+006350
X+001625Y+006750
X+001879Y+006750
X+002133Y+006750
X+002387Y+006750
X+002387Y+004350
X+002133Y+004350
X+001879Y+004350
X+001625Y+004350
X+002763Y+004350
X+003017Y+004350
X+003271Y+004350
X+003525Y+004350
X+002420Y+001960
X+002420Y+001620
X+002420Y+001366
X+002420Y+001112
X+002420Y+000858
X+006069Y+000821
X+006069Y+001075
X+006075Y+001492
X+006075Y+001746
X+006075Y+002000
X+006069Y+000567
T04
X+006675Y+005000
X+006675Y+005350
X+006680Y+004270
X+006680Y+003920
X+006680Y+003570
X+006680Y+003220
X+006680Y+002870
X+006680Y+002520
X+006680Y+002170
X+006680Y+001820
X+006680Y+001470
X+006680Y+001120
T05
X+000425Y+006625
X+000425Y+000425
X+006825Y+000425
X+006825Y+006625
T00
M30
