G04 DipTrace 2.4.0.2*
%INTopMask.GTS*%
%MOMM*%
%ADD30R,2.032X2.032*%
%ADD32C,2.032*%
%ADD55R,1.202X2.002*%
%ADD57R,2.002X2.502*%
%ADD59R,2.102X0.702*%
%ADD61R,0.402X1.702*%
%ADD63R,1.702X2.802*%
%ADD65R,1.702X0.402*%
%ADD67R,1.602X1.882*%
%ADD69R,1.702X3.502*%
%ADD71R,1.202X1.102*%
%ADD73R,0.752X1.152*%
%ADD75R,2.892X0.842*%
%ADD77C,1.602*%
%ADD81R,1.602X1.602*%
%ADD89R,3.912X4.342*%
%ADD91R,1.602X1.402*%
%ADD93R,1.102X1.202*%
%ADD95R,2.802X1.702*%
%ADD97R,4.602X4.602*%
%ADD99R,1.302X1.622*%
%FSLAX53Y53*%
G04*
G71*
G90*
G75*
G01*
%LNTopMask*%
%LPD*%
D99*
X60750Y52450D3*
X55550D3*
Y43710D3*
X60750D3*
D97*
X45750Y44450D3*
Y54450D3*
D95*
X46200Y62200D3*
Y59400D3*
D93*
X35700Y63400D3*
Y61700D3*
D95*
X32000Y50950D3*
Y48150D3*
D93*
X14518Y16468D3*
Y18168D3*
X17768Y16468D3*
Y18168D3*
X9268Y16468D3*
Y18168D3*
X11768Y16468D3*
Y18168D3*
X9500Y27786D3*
Y26086D3*
X10793Y27767D3*
Y26067D3*
X17720Y24029D3*
Y25729D3*
X21800Y28200D3*
Y26500D3*
D91*
X23200Y38900D3*
Y40800D3*
D93*
X21600Y38900D3*
Y40600D3*
X11700Y41700D3*
Y43400D3*
D91*
X13400Y41800D3*
Y43700D3*
D93*
X3000Y18000D3*
Y16300D3*
Y14500D3*
Y12800D3*
Y10950D3*
Y9250D3*
D89*
X60500Y57450D3*
Y63830D3*
D30*
X66750Y50000D3*
D32*
Y53500D3*
D81*
X46200Y65200D3*
D77*
X48740D3*
D81*
X28250Y48450D3*
D77*
Y50990D3*
D75*
X2386Y39534D3*
Y38264D3*
Y36994D3*
Y35724D3*
Y34454D3*
X6456D3*
Y35724D3*
Y36994D3*
Y38264D3*
Y39534D3*
D81*
X24200Y16200D3*
D77*
Y13660D3*
Y11120D3*
Y8580D3*
D81*
X35250Y43500D3*
D77*
X32710D3*
X30170D3*
X27630D3*
D30*
X66800Y39200D3*
D32*
Y42700D3*
D30*
Y32200D3*
D32*
Y35700D3*
D30*
Y25200D3*
D32*
Y28700D3*
D30*
Y18200D3*
D32*
Y21700D3*
D30*
Y11200D3*
D32*
Y14700D3*
D81*
X60750Y20000D3*
D77*
Y17460D3*
Y14920D3*
D81*
X60689Y10749D3*
D77*
Y8209D3*
Y5669D3*
D81*
X16250Y67500D3*
D77*
X18790D3*
X21330D3*
X23870D3*
D81*
X16250Y63500D3*
D77*
X18790D3*
X21330D3*
X23870D3*
D81*
X16250Y59500D3*
D77*
X18790D3*
X21330D3*
X23870D3*
D81*
X16250Y55500D3*
D77*
X18790D3*
X21330D3*
X23870D3*
D81*
X16250Y51500D3*
D77*
X18790D3*
X21330D3*
X23870D3*
D81*
X16250Y47500D3*
D77*
X18790D3*
X21330D3*
X23870D3*
D81*
X16250Y43500D3*
D77*
X18790D3*
X21330D3*
X23870D3*
G36*
X25884Y63323D2*
X28077Y65516D1*
X29316Y64277D1*
X27123Y62084D1*
X25884Y63323D1*
G37*
G36*
X31717Y57489D2*
X33911Y59683D1*
X35150Y58444D1*
X32956Y56250D1*
X31717Y57489D1*
G37*
D73*
X26900Y4800D3*
X25000D3*
X25950Y2500D3*
X21300D3*
X23200D3*
X22250Y4800D3*
D71*
X55550Y61950D3*
X53850D3*
X50450D3*
X48750D3*
Y59450D3*
X50450D3*
X39802Y56926D3*
X38102D3*
D93*
X15220Y25529D3*
Y23829D3*
D71*
X2150Y31500D3*
X3850D3*
X2150Y29000D3*
X3850D3*
X7350Y31500D3*
X5650D3*
X7350Y29000D3*
X5650D3*
D93*
X24200Y26500D3*
Y28200D3*
D71*
X30850Y39300D3*
X29150D3*
X30850Y36800D3*
X29150D3*
X30850Y34400D3*
X29150D3*
X30850Y32000D3*
X29150D3*
X30850Y29600D3*
X29150D3*
X30850Y27200D3*
X29150D3*
X30850Y24600D3*
X29150D3*
X30850Y22200D3*
X29150D3*
D93*
X5500Y16500D3*
Y18200D3*
Y13000D3*
Y14700D3*
Y9300D3*
Y11000D3*
D69*
X52500Y57950D3*
X56600D3*
D67*
X47200Y37400D3*
Y34860D3*
Y32320D3*
X56700D3*
Y34860D3*
Y37400D3*
X47200Y27400D3*
Y24860D3*
Y22320D3*
X56700D3*
Y24860D3*
Y27400D3*
X47200Y17400D3*
Y14860D3*
Y12320D3*
X56700D3*
Y14860D3*
Y17400D3*
X47200Y7400D3*
Y4860D3*
Y2320D3*
X56700D3*
Y4860D3*
Y7400D3*
X34200Y37400D3*
Y34860D3*
Y32320D3*
X43700D3*
Y34860D3*
Y37400D3*
X34200Y27400D3*
Y24860D3*
Y22320D3*
X43700D3*
Y24860D3*
Y27400D3*
X34200Y17400D3*
Y14860D3*
Y12320D3*
X43700D3*
Y14860D3*
Y17400D3*
X34200Y7400D3*
Y4860D3*
Y2320D3*
X43700D3*
Y4860D3*
Y7400D3*
G36*
X2881Y20238D2*
X2119D1*
Y21762D1*
X2881D1*
Y20238D1*
G37*
G36*
Y25318D2*
X2119D1*
Y26842D1*
X2881D1*
Y25318D1*
G37*
G36*
X6691Y20238D2*
X5929D1*
Y21762D1*
X6691D1*
Y20238D1*
G37*
G36*
Y25318D2*
X5929D1*
Y26842D1*
X6691D1*
Y25318D1*
G37*
D81*
X28400Y54400D3*
X24200Y19600D3*
X52200Y65200D3*
D65*
X42000Y59200D3*
Y59700D3*
Y60200D3*
Y60700D3*
Y61200D3*
Y61700D3*
Y62200D3*
Y62700D3*
X37600D3*
Y62200D3*
Y61700D3*
Y61200D3*
Y60700D3*
Y60200D3*
Y59700D3*
Y59200D3*
D63*
X39800Y60950D3*
D61*
X12250Y28000D3*
X12750D3*
X13250D3*
X13750D3*
X14250D3*
X14750D3*
X15250D3*
X15750D3*
X16250D3*
X16750D3*
X17250D3*
X17750D3*
X18250D3*
X18750D3*
X19250D3*
X19750D3*
D65*
X21700Y29950D3*
Y30450D3*
Y30950D3*
Y31450D3*
Y31950D3*
Y32450D3*
Y32950D3*
Y33450D3*
Y33950D3*
Y34450D3*
Y34950D3*
Y35450D3*
Y35950D3*
Y36450D3*
Y36950D3*
Y37450D3*
D61*
X19750Y39400D3*
X19250D3*
X18750D3*
X18250D3*
X17750D3*
X17250D3*
X16750D3*
X16250D3*
X15750D3*
X15250D3*
X14750D3*
X14250D3*
X13750D3*
X13250D3*
X12750D3*
X12250D3*
D65*
X10300Y37450D3*
Y36950D3*
Y36450D3*
Y35950D3*
Y35450D3*
Y34950D3*
Y34450D3*
Y33950D3*
Y33450D3*
Y32950D3*
Y32450D3*
Y31950D3*
Y31450D3*
Y30950D3*
Y30450D3*
Y29950D3*
D59*
X3100Y60500D3*
Y59230D3*
Y57960D3*
Y56690D3*
X8500D3*
Y57960D3*
Y59230D3*
Y60500D3*
X3100Y54000D3*
Y52730D3*
Y51460D3*
Y50190D3*
X8500D3*
Y51460D3*
Y52730D3*
Y54000D3*
X3100Y47500D3*
Y46230D3*
Y44960D3*
Y43690D3*
X8500D3*
Y44960D3*
Y46230D3*
Y47500D3*
D57*
X18220Y21029D3*
X14120D3*
D55*
X11720D3*
X9220D3*
M02*
