G04 DipTrace 2.3.0.1*
%INBottomSilk.gbr*%
%MOIN*%
%ADD34C,0.0046*%
%FSLAX44Y44*%
G04*
G70*
G90*
G75*
G01*
%LNBotSilk*%
%LPD*%
X1188Y1721D2*
D34*
X1030D1*
X1116Y1606D1*
X1073D1*
X1045Y1592D1*
X1030Y1578D1*
X1016Y1535D1*
Y1506D1*
X1030Y1463D1*
X1059Y1434D1*
X1102Y1420D1*
X1145D1*
X1188Y1434D1*
X1202Y1449D1*
X1217Y1477D1*
X923Y1721D2*
X808Y1420D1*
X694Y1721D1*
X572D2*
X415D1*
X500Y1606D1*
X457D1*
X429Y1592D1*
X415Y1578D1*
X400Y1535D1*
Y1506D1*
X415Y1463D1*
X443Y1434D1*
X486Y1420D1*
X529D1*
X572Y1434D1*
X586Y1449D1*
X601Y1477D1*
X3987Y1650D2*
X4001Y1678D1*
X4030Y1707D1*
X4059Y1721D1*
X4116D1*
X4145Y1707D1*
X4174Y1678D1*
X4188Y1650D1*
X4202Y1607D1*
Y1535D1*
X4188Y1492D1*
X4174Y1463D1*
X4145Y1435D1*
X4116Y1420D1*
X4059D1*
X4030Y1435D1*
X4001Y1463D1*
X3987Y1492D1*
Y1535D1*
X4059D1*
X3694Y1721D2*
Y1420D1*
X3895Y1721D1*
Y1420D1*
X3601Y1721D2*
Y1420D1*
X3500D1*
X3457Y1435D1*
X3429Y1463D1*
X3414Y1492D1*
X3400Y1535D1*
Y1607D1*
X3414Y1650D1*
X3429Y1678D1*
X3457Y1707D1*
X3500Y1721D1*
X3601D1*
X3016Y1678D2*
X3045Y1707D1*
X3088Y1721D1*
X3145D1*
X3188Y1707D1*
X3217Y1678D1*
Y1650D1*
X3202Y1621D1*
X3188Y1607D1*
X3160Y1592D1*
X3073Y1564D1*
X3045Y1549D1*
X3030Y1535D1*
X3016Y1506D1*
Y1463D1*
X3045Y1435D1*
X3088Y1420D1*
X3145D1*
X3188Y1435D1*
X3217Y1463D1*
X2923Y1721D2*
Y1420D1*
X2823D1*
X2780Y1435D1*
X2751Y1463D1*
X2737Y1492D1*
X2722Y1535D1*
Y1607D1*
X2737Y1650D1*
X2751Y1678D1*
X2780Y1707D1*
X2823Y1721D1*
X2923D1*
X2400Y1420D2*
X2515Y1721D1*
X2630Y1420D1*
X2587Y1520D2*
X2443D1*
X1973Y1678D2*
X2001Y1707D1*
X2044Y1721D1*
X2102D1*
X2145Y1707D1*
X2174Y1678D1*
Y1650D1*
X2159Y1621D1*
X2145Y1607D1*
X2116Y1592D1*
X2030Y1564D1*
X2001Y1549D1*
X1987Y1535D1*
X1973Y1506D1*
Y1463D1*
X2001Y1435D1*
X2044Y1420D1*
X2102D1*
X2145Y1435D1*
X2174Y1463D1*
X1665Y1650D2*
X1679Y1678D1*
X1708Y1707D1*
X1736Y1721D1*
X1794D1*
X1823Y1707D1*
X1851Y1678D1*
X1866Y1650D1*
X1880Y1607D1*
Y1535D1*
X1866Y1492D1*
X1851Y1463D1*
X1823Y1435D1*
X1794Y1420D1*
X1736D1*
X1708Y1435D1*
X1679Y1463D1*
X1665Y1492D1*
X1572Y1721D2*
Y1420D1*
X1400D1*
X4041Y4478D2*
X4070Y4507D1*
X4113Y4521D1*
X4170D1*
X4213Y4507D1*
X4242Y4478D1*
Y4450D1*
X4228Y4421D1*
X4213Y4407D1*
X4185Y4392D1*
X4099Y4364D1*
X4070Y4349D1*
X4056Y4335D1*
X4041Y4306D1*
Y4263D1*
X4070Y4235D1*
X4113Y4220D1*
X4170D1*
X4213Y4235D1*
X4242Y4263D1*
X3949Y4521D2*
Y4220D1*
X3748Y4521D2*
Y4220D1*
X3949Y4378D2*
X3748D1*
X3555Y4521D2*
Y4220D1*
X3655Y4521D2*
X3454D1*
X3347Y4449D2*
Y4464D1*
X3333Y4493D1*
X3318Y4507D1*
X3290Y4521D1*
X3232D1*
X3204Y4507D1*
X3189Y4493D1*
X3175Y4464D1*
Y4435D1*
X3189Y4406D1*
X3218Y4364D1*
X3362Y4220D1*
X3161D1*
X3068Y4421D2*
X2910Y4220D1*
Y4421D2*
X3068Y4220D1*
X2526Y4521D2*
Y4220D1*
X2397D1*
X2353Y4235D1*
X2339Y4249D1*
X2325Y4277D1*
Y4320D1*
X2339Y4349D1*
X2353Y4364D1*
X2397Y4378D1*
X2353Y4392D1*
X2339Y4407D1*
X2325Y4435D1*
Y4464D1*
X2339Y4493D1*
X2353Y4507D1*
X2397Y4521D1*
X2526D1*
Y4378D2*
X2397D1*
X2232Y4421D2*
Y4220D1*
Y4335D2*
X2218Y4378D1*
X2189Y4407D1*
X2160Y4421D1*
X2117D1*
X2025Y4335D2*
X1852D1*
Y4364D1*
X1867Y4392D1*
X1881Y4407D1*
X1910Y4421D1*
X1953D1*
X1981Y4407D1*
X2010Y4378D1*
X2025Y4335D1*
Y4306D1*
X2010Y4263D1*
X1981Y4235D1*
X1953Y4220D1*
X1910D1*
X1881Y4235D1*
X1852Y4263D1*
X1588Y4421D2*
Y4220D1*
Y4378D2*
X1616Y4407D1*
X1645Y4421D1*
X1688D1*
X1717Y4407D1*
X1745Y4378D1*
X1760Y4335D1*
Y4306D1*
X1745Y4263D1*
X1717Y4235D1*
X1688Y4220D1*
X1645D1*
X1616Y4235D1*
X1588Y4263D1*
X1495Y4521D2*
Y4220D1*
X1351Y4421D2*
X1495Y4277D1*
X1438Y4335D2*
X1337Y4220D1*
X1173Y4421D2*
X1201Y4407D1*
X1230Y4378D1*
X1245Y4335D1*
Y4306D1*
X1230Y4263D1*
X1201Y4235D1*
X1173Y4220D1*
X1130D1*
X1101Y4235D1*
X1072Y4263D1*
X1058Y4306D1*
Y4335D1*
X1072Y4378D1*
X1101Y4407D1*
X1130Y4421D1*
X1173D1*
X965D2*
Y4277D1*
X951Y4235D1*
X922Y4220D1*
X879D1*
X850Y4235D1*
X807Y4277D1*
Y4421D2*
Y4220D1*
X672Y4521D2*
Y4277D1*
X657Y4235D1*
X629Y4220D1*
X600D1*
X715Y4421D2*
X614D1*
M02*
