G04 DipTrace 2.3.0.1*
%INTopSilk.gbr*%
%MOIN*%
%ADD10C,0.01*%
%ADD34C,0.0046*%
%FSLAX44Y44*%
G04*
G70*
G90*
G75*
G01*
%LNTopSilk*%
%LPD*%
X2386Y3744D2*
D10*
Y4256D1*
X300Y1400D2*
Y400D1*
X4300Y1400D2*
X300D1*
X4300Y400D2*
X300D1*
X4300Y1400D2*
Y400D1*
X2673Y4734D2*
D34*
X2630Y4720D1*
X2601Y4677D1*
X2587Y4605D1*
Y4562D1*
X2601Y4491D1*
X2630Y4447D1*
X2673Y4433D1*
X2702D1*
X2745Y4447D1*
X2773Y4491D1*
X2788Y4562D1*
Y4605D1*
X2773Y4677D1*
X2745Y4720D1*
X2702Y4734D1*
X2673D1*
X2773Y4677D2*
X2601Y4491D1*
X2895Y4462D2*
X2880Y4447D1*
X2895Y4433D1*
X2909Y4447D1*
X2895Y4462D1*
X3002Y4677D2*
X3031Y4692D1*
X3074Y4734D1*
Y4433D1*
X3166Y4634D2*
Y4491D1*
X3181Y4448D1*
X3210Y4433D1*
X3253D1*
X3281Y4448D1*
X3324Y4491D1*
Y4634D2*
Y4433D1*
X3604Y4735D2*
X3417D1*
Y4433D1*
Y4591D2*
X3532D1*
X896Y3877D2*
X925Y3892D1*
X968Y3934D1*
Y3633D1*
X1147Y3934D2*
X1104Y3920D1*
X1075Y3877D1*
X1061Y3805D1*
Y3762D1*
X1075Y3691D1*
X1104Y3647D1*
X1147Y3633D1*
X1176D1*
X1219Y3647D1*
X1247Y3691D1*
X1262Y3762D1*
Y3805D1*
X1247Y3877D1*
X1219Y3920D1*
X1176Y3934D1*
X1147D1*
X1247Y3877D2*
X1075Y3691D1*
X1355Y3935D2*
Y3633D1*
X1556Y3935D2*
X1355Y3734D1*
X1426Y3806D2*
X1556Y3633D1*
X896Y2677D2*
X925Y2692D1*
X968Y2734D1*
Y2433D1*
X1147Y2734D2*
X1104Y2720D1*
X1075Y2677D1*
X1061Y2605D1*
Y2562D1*
X1075Y2491D1*
X1104Y2447D1*
X1147Y2433D1*
X1176D1*
X1219Y2447D1*
X1247Y2491D1*
X1262Y2562D1*
Y2605D1*
X1247Y2677D1*
X1219Y2720D1*
X1176Y2734D1*
X1147D1*
X1247Y2677D2*
X1075Y2491D1*
X1355Y2735D2*
Y2433D1*
X1556Y2735D2*
X1355Y2534D1*
X1426Y2606D2*
X1556Y2433D1*
X2523Y3262D2*
X2494Y3291D1*
X2451Y3305D1*
X2394D1*
X2351Y3291D1*
X2322Y3262D1*
Y3234D1*
X2336Y3205D1*
X2351Y3191D1*
X2379Y3176D1*
X2465Y3148D1*
X2494Y3133D1*
X2508Y3119D1*
X2523Y3090D1*
Y3047D1*
X2494Y3019D1*
X2451Y3004D1*
X2394D1*
X2351Y3019D1*
X2322Y3047D1*
X2615Y3305D2*
Y3004D1*
X2816Y3305D2*
Y3004D1*
X2615Y3162D2*
X2816D1*
X3009Y3305D2*
Y3004D1*
X2909Y3305D2*
X3110D1*
X3217Y3234D2*
Y3248D1*
X3231Y3277D1*
X3246Y3291D1*
X3275Y3305D1*
X3332D1*
X3360Y3291D1*
X3375Y3277D1*
X3389Y3248D1*
Y3219D1*
X3375Y3190D1*
X3346Y3148D1*
X3203Y3004D1*
X3404D1*
X3668Y3305D2*
X3525D1*
X3511Y3176D1*
X3525Y3190D1*
X3568Y3205D1*
X3611D1*
X3654Y3190D1*
X3683Y3162D1*
X3697Y3119D1*
Y3090D1*
X3683Y3047D1*
X3654Y3018D1*
X3611Y3004D1*
X3568D1*
X3525Y3018D1*
X3511Y3033D1*
X3496Y3061D1*
M02*
