G04 DipTrace 2.4.0.2*
%INBottomSilk.GBO*%
%MOMM*%
%ADD33C,0.118*%
%FSLAX53Y53*%
G04*
G71*
G90*
G75*
G01*
%LNBotSilk*%
%LPD*%
X36313Y-12700D2*
D33*
Y-13282D1*
X36349Y-13392D1*
X36386Y-13428D1*
X36458Y-13465D1*
X36532D1*
X36604Y-13428D1*
X36640Y-13392D1*
X36677Y-13282D1*
Y-13210D1*
X35895Y-12955D2*
X35968Y-12991D1*
X36041Y-13064D1*
X36077Y-13174D1*
Y-13246D1*
X36041Y-13356D1*
X35968Y-13428D1*
X35895Y-13465D1*
X35786D1*
X35712Y-13428D1*
X35640Y-13356D1*
X35603Y-13246D1*
Y-13174D1*
X35640Y-13064D1*
X35712Y-12991D1*
X35786Y-12955D1*
X35895D1*
X35368Y-12700D2*
Y-13465D1*
Y-13101D2*
X35258Y-12991D1*
X35185Y-12955D1*
X35075D1*
X35003Y-12991D1*
X34967Y-13101D1*
Y-13465D1*
X34731Y-12955D2*
Y-13465D1*
Y-13101D2*
X34622Y-12991D1*
X34549Y-12955D1*
X34440D1*
X34367Y-12991D1*
X34331Y-13101D1*
Y-13465D1*
X33355Y-12700D2*
X32844D1*
X33355Y-13465D1*
X32844D1*
X32609Y-13174D2*
X32172D1*
Y-13101D1*
X32208Y-13027D1*
X32244Y-12991D1*
X32317Y-12955D1*
X32427D1*
X32499Y-12991D1*
X32573Y-13064D1*
X32609Y-13174D1*
Y-13246D1*
X32573Y-13356D1*
X32499Y-13428D1*
X32427Y-13465D1*
X32317D1*
X32244Y-13428D1*
X32172Y-13356D1*
X31936Y-12700D2*
Y-13465D1*
Y-13101D2*
X31827Y-12991D1*
X31754Y-12955D1*
X31644D1*
X31572Y-12991D1*
X31535Y-13101D1*
Y-13465D1*
X31300Y-13174D2*
X30863D1*
Y-13101D1*
X30899Y-13027D1*
X30935Y-12991D1*
X31009Y-12955D1*
X31118D1*
X31191Y-12991D1*
X31264Y-13064D1*
X31300Y-13174D1*
Y-13246D1*
X31264Y-13356D1*
X31191Y-13428D1*
X31118Y-13465D1*
X31009D1*
X30935Y-13428D1*
X30863Y-13356D1*
X30518Y-12700D2*
Y-13320D1*
X30482Y-13428D1*
X30409Y-13465D1*
X30336D1*
X30628Y-12955D2*
X30372D1*
X30101D2*
Y-13465D1*
Y-13101D2*
X29991Y-12991D1*
X29918Y-12955D1*
X29810D1*
X29736Y-12991D1*
X29700Y-13101D1*
Y-13465D1*
X29465Y-13174D2*
X29028D1*
Y-13101D1*
X29064Y-13027D1*
X29100Y-12991D1*
X29173Y-12955D1*
X29283D1*
X29355Y-12991D1*
X29429Y-13064D1*
X29465Y-13174D1*
Y-13246D1*
X29429Y-13356D1*
X29355Y-13428D1*
X29283Y-13465D1*
X29173D1*
X29100Y-13428D1*
X29028Y-13356D1*
X28792Y-12955D2*
Y-13465D1*
Y-13174D2*
X28755Y-13064D1*
X28683Y-12991D1*
X28609Y-12955D1*
X28500D1*
X36797Y-14700D2*
X36614Y-15465D1*
X36432Y-14700D1*
X36250Y-15465D1*
X36068Y-14700D1*
X35395Y-14955D2*
Y-15465D1*
Y-15064D2*
X35468Y-14991D1*
X35541Y-14955D1*
X35650D1*
X35723Y-14991D1*
X35795Y-15064D1*
X35832Y-15174D1*
Y-15246D1*
X35795Y-15356D1*
X35723Y-15428D1*
X35650Y-15465D1*
X35541D1*
X35468Y-15428D1*
X35395Y-15356D1*
X35050Y-14700D2*
Y-15320D1*
X35014Y-15428D1*
X34941Y-15465D1*
X34868D1*
X35160Y-14955D2*
X34905D1*
X34633Y-15174D2*
X34196D1*
Y-15101D1*
X34232Y-15027D1*
X34268Y-14991D1*
X34342Y-14955D1*
X34451D1*
X34524Y-14991D1*
X34597Y-15064D1*
X34633Y-15174D1*
Y-15246D1*
X34597Y-15356D1*
X34524Y-15428D1*
X34451Y-15465D1*
X34342D1*
X34268Y-15428D1*
X34196Y-15356D1*
X33961Y-14955D2*
Y-15465D1*
Y-15174D2*
X33924Y-15064D1*
X33851Y-14991D1*
X33778Y-14955D1*
X33668D1*
X32182Y-14809D2*
X32254Y-14736D1*
X32364Y-14700D1*
X32510D1*
X32619Y-14736D1*
X32692Y-14809D1*
Y-14882D1*
X32655Y-14955D1*
X32619Y-14991D1*
X32547Y-15027D1*
X32328Y-15101D1*
X32254Y-15137D1*
X32218Y-15174D1*
X32182Y-15246D1*
Y-15356D1*
X32254Y-15428D1*
X32364Y-15465D1*
X32510D1*
X32619Y-15428D1*
X32692Y-15356D1*
X31947Y-15174D2*
X31510D1*
Y-15101D1*
X31546Y-15027D1*
X31582Y-14991D1*
X31655Y-14955D1*
X31765D1*
X31837Y-14991D1*
X31910Y-15064D1*
X31947Y-15174D1*
Y-15246D1*
X31910Y-15356D1*
X31837Y-15428D1*
X31765Y-15465D1*
X31655D1*
X31582Y-15428D1*
X31510Y-15356D1*
X31274Y-14955D2*
Y-15465D1*
Y-15101D2*
X31165Y-14991D1*
X31091Y-14955D1*
X30983D1*
X30910Y-14991D1*
X30873Y-15101D1*
Y-15465D1*
X30237Y-15064D2*
X30273Y-14991D1*
X30383Y-14955D1*
X30492D1*
X30602Y-14991D1*
X30638Y-15064D1*
X30602Y-15137D1*
X30529Y-15174D1*
X30347Y-15210D1*
X30273Y-15246D1*
X30237Y-15320D1*
Y-15356D1*
X30273Y-15428D1*
X30383Y-15465D1*
X30492D1*
X30602Y-15428D1*
X30638Y-15356D1*
X29820Y-14955D2*
X29892Y-14991D1*
X29966Y-15064D1*
X30002Y-15174D1*
Y-15246D1*
X29966Y-15356D1*
X29892Y-15428D1*
X29820Y-15465D1*
X29710D1*
X29637Y-15428D1*
X29565Y-15356D1*
X29528Y-15246D1*
Y-15174D1*
X29565Y-15064D1*
X29637Y-14991D1*
X29710Y-14955D1*
X29820D1*
X29292D2*
Y-15465D1*
Y-15174D2*
X29255Y-15064D1*
X29183Y-14991D1*
X29109Y-14955D1*
X29000D1*
X36665Y-17064D2*
X36337D1*
X36228Y-17027D1*
X36191Y-16991D1*
X36155Y-16919D1*
Y-16845D1*
X36191Y-16773D1*
X36228Y-16736D1*
X36337Y-16700D1*
X36665D1*
Y-17465D1*
X36410Y-17064D2*
X36155Y-17465D1*
X35919Y-17174D2*
X35482D1*
Y-17101D1*
X35518Y-17027D1*
X35555Y-16991D1*
X35628Y-16955D1*
X35737D1*
X35810Y-16991D1*
X35883Y-17064D1*
X35919Y-17174D1*
Y-17246D1*
X35883Y-17356D1*
X35810Y-17428D1*
X35737Y-17465D1*
X35628D1*
X35555Y-17428D1*
X35482Y-17356D1*
X35247Y-16955D2*
X35028Y-17465D1*
X34810Y-16955D1*
X33250Y-17465D2*
X33542Y-16700D1*
X33834Y-17465D1*
X33724Y-17210D2*
X33359D1*
X36176Y-20809D2*
X36248Y-20736D1*
X36358Y-20700D1*
X36504D1*
X36613Y-20736D1*
X36686Y-20809D1*
Y-20882D1*
X36649Y-20955D1*
X36613Y-20991D1*
X36541Y-21027D1*
X36322Y-21101D1*
X36248Y-21137D1*
X36212Y-21174D1*
X36176Y-21246D1*
Y-21356D1*
X36248Y-21428D1*
X36358Y-21465D1*
X36504D1*
X36613Y-21428D1*
X36686Y-21356D1*
X35941Y-20955D2*
Y-21320D1*
X35905Y-21428D1*
X35831Y-21465D1*
X35722D1*
X35649Y-21428D1*
X35540Y-21320D1*
Y-20955D2*
Y-21465D1*
X35304Y-20955D2*
Y-21720D1*
Y-21064D2*
X35231Y-20992D1*
X35159Y-20955D1*
X35049D1*
X34976Y-20992D1*
X34904Y-21064D1*
X34866Y-21174D1*
Y-21247D1*
X34904Y-21356D1*
X34976Y-21429D1*
X35049Y-21465D1*
X35159D1*
X35231Y-21429D1*
X35304Y-21356D1*
X34631Y-20955D2*
Y-21720D1*
Y-21064D2*
X34558Y-20992D1*
X34485Y-20955D1*
X34376D1*
X34303Y-20992D1*
X34230Y-21064D1*
X34193Y-21174D1*
Y-21247D1*
X34230Y-21356D1*
X34303Y-21429D1*
X34376Y-21465D1*
X34485D1*
X34558Y-21429D1*
X34631Y-21356D1*
X33958Y-20700D2*
Y-21465D1*
X33686Y-20955D2*
X33467Y-21465D1*
X33540Y-21611D1*
X33613Y-21684D1*
X33686Y-21720D1*
X33723D1*
X33248Y-20955D2*
X33467Y-21465D1*
X32272Y-20700D2*
X31981Y-21465D1*
X31690Y-20700D1*
X31272Y-20955D2*
X31345Y-20991D1*
X31418Y-21064D1*
X31454Y-21174D1*
Y-21246D1*
X31418Y-21356D1*
X31345Y-21428D1*
X31272Y-21465D1*
X31163D1*
X31090Y-21428D1*
X31017Y-21356D1*
X30980Y-21246D1*
Y-21174D1*
X31017Y-21064D1*
X31090Y-20991D1*
X31163Y-20955D1*
X31272D1*
X30745Y-20700D2*
Y-21465D1*
X30400Y-20700D2*
Y-21320D1*
X30364Y-21428D1*
X30290Y-21465D1*
X30218D1*
X30509Y-20955D2*
X30254D1*
X29546D2*
Y-21465D1*
Y-21064D2*
X29618Y-20991D1*
X29691Y-20955D1*
X29800D1*
X29873Y-20991D1*
X29946Y-21064D1*
X29983Y-21174D1*
Y-21246D1*
X29946Y-21356D1*
X29873Y-21428D1*
X29800Y-21465D1*
X29691D1*
X29618Y-21428D1*
X29546Y-21356D1*
X28873Y-20991D2*
Y-21575D1*
X28909Y-21683D1*
X28946Y-21720D1*
X29019Y-21757D1*
X29128D1*
X29201Y-21720D1*
X28873Y-21101D2*
X28946Y-21028D1*
X29019Y-20991D1*
X29128D1*
X29201Y-21028D1*
X29274Y-21101D1*
X29310Y-21210D1*
Y-21283D1*
X29274Y-21392D1*
X29201Y-21465D1*
X29128Y-21501D1*
X29019D1*
X28946Y-21465D1*
X28873Y-21392D1*
X28638Y-21174D2*
X28201D1*
Y-21101D1*
X28237Y-21027D1*
X28273Y-20991D1*
X28346Y-20955D1*
X28456D1*
X28528Y-20991D1*
X28602Y-21064D1*
X28638Y-21174D1*
Y-21246D1*
X28602Y-21356D1*
X28528Y-21428D1*
X28456Y-21465D1*
X28346D1*
X28273Y-21428D1*
X28201Y-21356D1*
X27188Y-20882D2*
Y-20846D1*
X27151Y-20773D1*
X27115Y-20737D1*
X27042Y-20700D1*
X26896D1*
X26824Y-20737D1*
X26788Y-20773D1*
X26750Y-20846D1*
Y-20919D1*
X26788Y-20992D1*
X26860Y-21101D1*
X27225Y-21465D1*
X26714D1*
X26443Y-21392D2*
X26479Y-21429D1*
X26443Y-21465D1*
X26406Y-21429D1*
X26443Y-21392D1*
X26170Y-20846D2*
X26097Y-20809D1*
X25988Y-20700D1*
Y-21465D1*
X25752Y-21083D2*
X25331D1*
X25023Y-20700D2*
X24622D1*
X24841Y-20992D1*
X24731D1*
X24659Y-21028D1*
X24622Y-21064D1*
X24585Y-21174D1*
Y-21246D1*
X24622Y-21356D1*
X24695Y-21429D1*
X24804Y-21465D1*
X24914D1*
X25023Y-21429D1*
X25059Y-21392D1*
X25096Y-21320D1*
X24314Y-21392D2*
X24350Y-21429D1*
X24314Y-21465D1*
X24277Y-21429D1*
X24314Y-21392D1*
X23604Y-20809D2*
X23641Y-20737D1*
X23750Y-20700D1*
X23823D1*
X23932Y-20737D1*
X24005Y-20846D1*
X24042Y-21028D1*
Y-21210D1*
X24005Y-21356D1*
X23932Y-21429D1*
X23823Y-21465D1*
X23786D1*
X23678Y-21429D1*
X23604Y-21356D1*
X23568Y-21246D1*
Y-21210D1*
X23604Y-21101D1*
X23678Y-21028D1*
X23786Y-20992D1*
X23823D1*
X23932Y-21028D1*
X24005Y-21101D1*
X24042Y-21210D1*
X23333Y-20700D2*
X23041Y-21465D1*
X22750Y-20700D1*
X48814Y-25559D2*
X48887Y-25486D1*
X48996Y-25450D1*
X49142D1*
X49251Y-25486D1*
X49325Y-25559D1*
Y-25632D1*
X49288Y-25705D1*
X49251Y-25741D1*
X49179Y-25777D1*
X48960Y-25851D1*
X48887Y-25887D1*
X48850Y-25924D1*
X48814Y-25996D1*
Y-26106D1*
X48887Y-26178D1*
X48996Y-26215D1*
X49142D1*
X49251Y-26178D1*
X49325Y-26106D1*
X48579Y-25924D2*
X48142D1*
Y-25851D1*
X48178Y-25777D1*
X48214Y-25741D1*
X48287Y-25705D1*
X48397D1*
X48469Y-25741D1*
X48543Y-25814D1*
X48579Y-25924D1*
Y-25996D1*
X48543Y-26106D1*
X48469Y-26178D1*
X48397Y-26215D1*
X48287D1*
X48214Y-26178D1*
X48142Y-26106D1*
X47906Y-25705D2*
Y-26215D1*
Y-25851D2*
X47797Y-25741D1*
X47724Y-25705D1*
X47615D1*
X47542Y-25741D1*
X47505Y-25851D1*
Y-26215D1*
X46869Y-25814D2*
X46905Y-25741D1*
X47015Y-25705D1*
X47124D1*
X47234Y-25741D1*
X47270Y-25814D1*
X47234Y-25887D1*
X47161Y-25924D1*
X46979Y-25960D1*
X46905Y-25996D1*
X46869Y-26070D1*
Y-26106D1*
X46905Y-26178D1*
X47015Y-26215D1*
X47124D1*
X47234Y-26178D1*
X47270Y-26106D1*
X46452Y-25705D2*
X46524Y-25741D1*
X46598Y-25814D1*
X46634Y-25924D1*
Y-25996D1*
X46598Y-26106D1*
X46524Y-26178D1*
X46452Y-26215D1*
X46342D1*
X46269Y-26178D1*
X46197Y-26106D1*
X46160Y-25996D1*
Y-25924D1*
X46197Y-25814D1*
X46269Y-25741D1*
X46342Y-25705D1*
X46452D1*
X45924D2*
Y-26215D1*
Y-25924D2*
X45887Y-25814D1*
X45815Y-25741D1*
X45742Y-25705D1*
X45632D1*
X44328Y-25505D2*
Y-26161D1*
X44656Y-25833D2*
X44000D1*
X48829Y-19309D2*
X48902Y-19236D1*
X49011Y-19200D1*
X49157D1*
X49266Y-19236D1*
X49340Y-19309D1*
Y-19382D1*
X49302Y-19455D1*
X49266Y-19491D1*
X49194Y-19527D1*
X48975Y-19601D1*
X48902Y-19637D1*
X48865Y-19674D1*
X48829Y-19746D1*
Y-19856D1*
X48902Y-19928D1*
X49011Y-19965D1*
X49157D1*
X49266Y-19928D1*
X49340Y-19856D1*
X48594Y-19674D2*
X48157D1*
Y-19601D1*
X48193Y-19527D1*
X48229Y-19491D1*
X48302Y-19455D1*
X48412D1*
X48484Y-19491D1*
X48558Y-19564D1*
X48594Y-19674D1*
Y-19746D1*
X48558Y-19856D1*
X48484Y-19928D1*
X48412Y-19965D1*
X48302D1*
X48229Y-19928D1*
X48157Y-19856D1*
X47921Y-19455D2*
Y-19965D1*
Y-19601D2*
X47812Y-19491D1*
X47739Y-19455D1*
X47630D1*
X47557Y-19491D1*
X47520Y-19601D1*
Y-19965D1*
X46884Y-19564D2*
X46920Y-19491D1*
X47030Y-19455D1*
X47139D1*
X47249Y-19491D1*
X47285Y-19564D1*
X47249Y-19637D1*
X47176Y-19674D1*
X46994Y-19710D1*
X46920Y-19746D1*
X46884Y-19820D1*
Y-19856D1*
X46920Y-19928D1*
X47030Y-19965D1*
X47139D1*
X47249Y-19928D1*
X47285Y-19856D1*
X46467Y-19455D2*
X46539Y-19491D1*
X46613Y-19564D1*
X46649Y-19674D1*
Y-19746D1*
X46613Y-19856D1*
X46539Y-19928D1*
X46467Y-19965D1*
X46357D1*
X46284Y-19928D1*
X46212Y-19856D1*
X46175Y-19746D1*
Y-19674D1*
X46212Y-19564D1*
X46284Y-19491D1*
X46357Y-19455D1*
X46467D1*
X45939D2*
Y-19965D1*
Y-19674D2*
X45902Y-19564D1*
X45830Y-19491D1*
X45757Y-19455D1*
X45647D1*
X44671Y-19583D2*
X44250D1*
X12329Y-25809D2*
X12402Y-25736D1*
X12511Y-25700D1*
X12657D1*
X12766Y-25736D1*
X12840Y-25809D1*
Y-25882D1*
X12802Y-25955D1*
X12766Y-25991D1*
X12694Y-26027D1*
X12475Y-26101D1*
X12402Y-26137D1*
X12365Y-26174D1*
X12329Y-26246D1*
Y-26356D1*
X12402Y-26428D1*
X12511Y-26465D1*
X12657D1*
X12766Y-26428D1*
X12840Y-26356D1*
X12094Y-26174D2*
X11657D1*
Y-26101D1*
X11693Y-26027D1*
X11729Y-25991D1*
X11802Y-25955D1*
X11912D1*
X11984Y-25991D1*
X12058Y-26064D1*
X12094Y-26174D1*
Y-26246D1*
X12058Y-26356D1*
X11984Y-26428D1*
X11912Y-26465D1*
X11802D1*
X11729Y-26428D1*
X11657Y-26356D1*
X11421Y-25955D2*
Y-26465D1*
Y-26101D2*
X11312Y-25991D1*
X11239Y-25955D1*
X11130D1*
X11057Y-25991D1*
X11020Y-26101D1*
Y-26465D1*
X10384Y-26064D2*
X10420Y-25991D1*
X10530Y-25955D1*
X10639D1*
X10749Y-25991D1*
X10785Y-26064D1*
X10749Y-26137D1*
X10676Y-26174D1*
X10494Y-26210D1*
X10420Y-26246D1*
X10384Y-26320D1*
Y-26356D1*
X10420Y-26428D1*
X10530Y-26465D1*
X10639D1*
X10749Y-26428D1*
X10785Y-26356D1*
X9967Y-25955D2*
X10039Y-25991D1*
X10113Y-26064D1*
X10149Y-26174D1*
Y-26246D1*
X10113Y-26356D1*
X10039Y-26428D1*
X9967Y-26465D1*
X9857D1*
X9784Y-26428D1*
X9712Y-26356D1*
X9675Y-26246D1*
Y-26174D1*
X9712Y-26064D1*
X9784Y-25991D1*
X9857Y-25955D1*
X9967D1*
X9439D2*
Y-26465D1*
Y-26174D2*
X9402Y-26064D1*
X9330Y-25991D1*
X9257Y-25955D1*
X9147D1*
X8171Y-26083D2*
X7750D1*
X43402Y-29450D2*
Y-30215D1*
X43073D1*
X42964Y-30178D1*
X42928Y-30142D1*
X42891Y-30070D1*
Y-29960D1*
X42928Y-29887D1*
X42964Y-29851D1*
X43073Y-29814D1*
X42964Y-29777D1*
X42928Y-29741D1*
X42891Y-29669D1*
Y-29595D1*
X42928Y-29523D1*
X42964Y-29486D1*
X43073Y-29450D1*
X43402D1*
Y-29814D2*
X43073D1*
X42328Y-29505D2*
Y-30161D1*
X42656Y-29833D2*
X42000D1*
X9902Y-13200D2*
Y-13965D1*
X9573D1*
X9464Y-13928D1*
X9428Y-13892D1*
X9391Y-13820D1*
Y-13710D1*
X9428Y-13637D1*
X9464Y-13601D1*
X9573Y-13564D1*
X9464Y-13527D1*
X9428Y-13491D1*
X9391Y-13419D1*
Y-13345D1*
X9428Y-13273D1*
X9464Y-13236D1*
X9573Y-13200D1*
X9902D1*
Y-13564D2*
X9573D1*
X8828Y-13255D2*
Y-13911D1*
X9156Y-13583D2*
X8500D1*
X9917Y-16950D2*
Y-17715D1*
X9588D1*
X9479Y-17678D1*
X9443Y-17642D1*
X9406Y-17570D1*
Y-17460D1*
X9443Y-17387D1*
X9479Y-17351D1*
X9588Y-17314D1*
X9479Y-17277D1*
X9443Y-17241D1*
X9406Y-17169D1*
Y-17095D1*
X9443Y-17023D1*
X9479Y-16986D1*
X9588Y-16950D1*
X9917D1*
Y-17314D2*
X9588D1*
X9171Y-17333D2*
X8750D1*
M02*
