G04 DipTrace 2.4.0.2*
%INlayer1.GTL*%
%MOMM*%
%ADD13C,0.2*%
%ADD14R,1.0X1.1*%
%ADD16R,1.05X0.65*%
%ADD18C,2.032*%
%ADD19R,2.032X2.032*%
%ADD20C,6.0*%
%FSLAX53Y53*%
G04*
G71*
G90*
G75*
G01*
%LNTop*%
%LPD*%
X23250Y-19950D2*
D13*
X26000D1*
X31000Y-22100D2*
X28100D1*
X26000Y-20000D1*
Y-19950D1*
X12000Y-17250D2*
X13500D1*
X16000Y-19750D1*
Y-22500D1*
Y-28500D1*
Y-29600D1*
X16099Y-29699D1*
X17601Y-31081D1*
X20386D1*
X20410Y-31105D1*
X24000Y-30700D2*
X22050D1*
X21750Y-31000D1*
X20515D1*
X20410Y-31105D1*
X31000Y-31000D2*
X29500Y-32500D1*
X17500D1*
X15200Y-30200D1*
Y-26800D1*
X14200Y-25800D1*
X11200D1*
X10500Y-25100D1*
Y-23500D1*
X11500Y-22500D1*
X16000D1*
X23250Y-19950D2*
Y-19750D1*
X23500Y-20000D1*
X22500D1*
X22000Y-20500D1*
Y-23500D1*
X17500Y-28000D1*
X16500D1*
X16000Y-28500D1*
X12000Y-13750D2*
X14000D1*
X14750Y-13000D1*
X17305D1*
X17410Y-13105D1*
X21105D1*
X22000Y-14000D1*
Y-18000D1*
X22250Y-18250D1*
X23250D1*
X26000D1*
X31000Y-29100D2*
X31850D1*
X32250Y-29500D1*
Y-31250D1*
X30500Y-33000D1*
X17200D1*
X14800Y-30600D1*
Y-27200D1*
X13800Y-26200D1*
X10800D1*
X9750Y-25150D1*
Y-20750D1*
Y-14500D1*
X10500Y-13750D1*
X12000D1*
Y-20750D2*
X9750D1*
X31000Y-24000D2*
X30247D1*
X28766Y-25481D1*
Y-29984D1*
X28700Y-30050D1*
X12000Y-24250D2*
Y-24200D1*
X14000D1*
X15600Y-25800D1*
Y-29800D1*
X17800Y-32000D1*
X25000D1*
X27000Y-30000D1*
X27094D1*
X28650D1*
X28700Y-30050D1*
X24000Y-29000D2*
X26094D1*
X27094Y-30000D1*
X17410Y-29105D2*
X22145D1*
X23250Y-28000D1*
Y-23750D1*
X23950Y-23050D1*
X28700D1*
X36450D1*
X37750Y-21750D1*
Y-16250D1*
X38800Y-15200D1*
X42315D1*
X42410Y-15105D1*
D14*
X26000Y-18250D3*
Y-19950D3*
X23250Y-18250D3*
Y-19950D3*
D16*
X31000Y-31000D3*
Y-29100D3*
X28700Y-30050D3*
D18*
X12000Y-13750D3*
D19*
Y-17250D3*
D18*
Y-20750D3*
Y-24250D3*
D20*
X47000Y-15000D3*
Y-30250D3*
X10000D3*
D16*
X31000Y-24000D3*
Y-22100D3*
X28700Y-23050D3*
D14*
X24000Y-30700D3*
Y-29000D3*
G36*
X19560Y-31530D2*
Y-30680D1*
X21260D1*
Y-31530D1*
X19560D1*
G37*
G36*
X16560Y-29530D2*
Y-28680D1*
X18260D1*
Y-29530D1*
X16560D1*
G37*
G36*
X19560Y-27530D2*
Y-26680D1*
X21260D1*
Y-27530D1*
X19560D1*
G37*
G36*
X16560Y-25530D2*
Y-24680D1*
X18260D1*
Y-25530D1*
X16560D1*
G37*
G36*
X19560Y-23530D2*
Y-22680D1*
X21260D1*
Y-23530D1*
X19560D1*
G37*
G36*
X16560Y-21530D2*
Y-20680D1*
X18260D1*
Y-21530D1*
X16560D1*
G37*
G36*
X19560Y-19530D2*
Y-18680D1*
X21260D1*
Y-19530D1*
X19560D1*
G37*
G36*
X16560Y-17530D2*
Y-16680D1*
X18260D1*
Y-17530D1*
X16560D1*
G37*
G36*
X19560Y-15530D2*
Y-14680D1*
X21260D1*
Y-15530D1*
X19560D1*
G37*
G36*
X16560Y-13530D2*
Y-12680D1*
X18260D1*
Y-13530D1*
X16560D1*
G37*
G36*
X41560Y-31530D2*
Y-30680D1*
X43260D1*
Y-31530D1*
X41560D1*
G37*
G36*
X38560Y-29530D2*
Y-28680D1*
X40260D1*
Y-29530D1*
X38560D1*
G37*
G36*
X41560Y-27530D2*
Y-26680D1*
X43260D1*
Y-27530D1*
X41560D1*
G37*
G36*
X38560Y-25530D2*
Y-24680D1*
X40260D1*
Y-25530D1*
X38560D1*
G37*
G36*
X41560Y-23530D2*
Y-22680D1*
X43260D1*
Y-23530D1*
X41560D1*
G37*
G36*
X38560Y-21530D2*
Y-20680D1*
X40260D1*
Y-21530D1*
X38560D1*
G37*
G36*
X41560Y-19530D2*
Y-18680D1*
X43260D1*
Y-19530D1*
X41560D1*
G37*
G36*
X38560Y-17530D2*
Y-16680D1*
X40260D1*
Y-17530D1*
X38560D1*
G37*
G36*
X41560Y-15530D2*
Y-14680D1*
X43260D1*
Y-15530D1*
X41560D1*
G37*
G36*
X38560Y-13530D2*
Y-12680D1*
X40260D1*
Y-13530D1*
X38560D1*
G37*
M02*
