G04 DipTrace 2.4.0.2*
%INTopMask.GTS*%
%MOMM*%
%ADD18C,2.032*%
%ADD19R,2.032X2.032*%
%ADD23C,6.102*%
%ADD29R,1.152X0.752*%
%ADD31R,1.102X1.202*%
%FSLAX53Y53*%
G04*
G71*
G90*
G75*
G01*
%LNTopMask*%
%LPD*%
D31*
X26000Y-18250D3*
Y-19950D3*
X23250Y-18250D3*
Y-19950D3*
D29*
X31000Y-31000D3*
Y-29100D3*
X28700Y-30050D3*
D18*
X12000Y-13750D3*
D19*
Y-17250D3*
D18*
Y-20750D3*
Y-24250D3*
D23*
X47000Y-15000D3*
Y-30250D3*
X10000D3*
D29*
X31000Y-24000D3*
Y-22100D3*
X28700Y-23050D3*
D31*
X24000Y-30700D3*
Y-29000D3*
G36*
X19560Y-31530D2*
Y-30680D1*
X21260D1*
Y-31530D1*
X19560D1*
G37*
G36*
X16560Y-29530D2*
Y-28680D1*
X18260D1*
Y-29530D1*
X16560D1*
G37*
G36*
X19560Y-27530D2*
Y-26680D1*
X21260D1*
Y-27530D1*
X19560D1*
G37*
G36*
X16560Y-25530D2*
Y-24680D1*
X18260D1*
Y-25530D1*
X16560D1*
G37*
G36*
X19560Y-23530D2*
Y-22680D1*
X21260D1*
Y-23530D1*
X19560D1*
G37*
G36*
X16560Y-21530D2*
Y-20680D1*
X18260D1*
Y-21530D1*
X16560D1*
G37*
G36*
X19560Y-19530D2*
Y-18680D1*
X21260D1*
Y-19530D1*
X19560D1*
G37*
G36*
X16560Y-17530D2*
Y-16680D1*
X18260D1*
Y-17530D1*
X16560D1*
G37*
G36*
X19560Y-15530D2*
Y-14680D1*
X21260D1*
Y-15530D1*
X19560D1*
G37*
G36*
X16560Y-13530D2*
Y-12680D1*
X18260D1*
Y-13530D1*
X16560D1*
G37*
G36*
X41560Y-31530D2*
Y-30680D1*
X43260D1*
Y-31530D1*
X41560D1*
G37*
G36*
X38560Y-29530D2*
Y-28680D1*
X40260D1*
Y-29530D1*
X38560D1*
G37*
G36*
X41560Y-27530D2*
Y-26680D1*
X43260D1*
Y-27530D1*
X41560D1*
G37*
G36*
X38560Y-25530D2*
Y-24680D1*
X40260D1*
Y-25530D1*
X38560D1*
G37*
G36*
X41560Y-23530D2*
Y-22680D1*
X43260D1*
Y-23530D1*
X41560D1*
G37*
G36*
X38560Y-21530D2*
Y-20680D1*
X40260D1*
Y-21530D1*
X38560D1*
G37*
G36*
X41560Y-19530D2*
Y-18680D1*
X43260D1*
Y-19530D1*
X41560D1*
G37*
G36*
X38560Y-17530D2*
Y-16680D1*
X40260D1*
Y-17530D1*
X38560D1*
G37*
G36*
X41560Y-15530D2*
Y-14680D1*
X43260D1*
Y-15530D1*
X41560D1*
G37*
G36*
X38560Y-13530D2*
Y-12680D1*
X40260D1*
Y-13530D1*
X38560D1*
G37*
M02*
