G04 DipTrace 2.4.0.2*
%INlayer3.G3L*%
%MOMM*%
%ADD10C,0.15*%
%ADD14C,1.0*%
%ADD19C,0.635*%
%ADD20C,0.33*%
%ADD30R,2.032X2.032*%
%ADD32C,2.032*%
%ADD33R,1.5X1.5*%
%ADD34C,1.5*%
%ADD48C,0.55*%
%ADD49C,0.75*%
%ADD101C,0.118*%
%FSLAX53Y53*%
G04*
G71*
G90*
G75*
G01*
%LNInner2*%
%LPD*%
X55000Y27400D2*
D14*
X53200D1*
X54600Y16000D2*
Y17400D1*
X53200D1*
X56800Y9400D2*
Y7400D1*
X57000D1*
X40700Y27400D2*
X40200D1*
X40700Y37400D2*
X40200D1*
X60750Y20000D2*
Y21231D1*
X60689Y10749D2*
Y11789D1*
X1900Y12835D2*
D10*
Y13200D1*
X8400Y2200D2*
X8900D1*
X10200Y29400D2*
X11300D1*
X11800Y28100D2*
Y28300D1*
X11000Y29100D1*
X18600Y24029D2*
Y25700D1*
X17286Y26665D2*
Y26686D1*
X16114D1*
X16100Y26700D1*
D48*
X55000Y27400D3*
X54600Y16000D3*
X56800Y9400D3*
X40700Y27400D3*
Y37400D3*
D49*
X48740Y57700D3*
D48*
X1900Y12835D3*
X8400Y2200D3*
X10200Y29400D3*
X11800Y28100D3*
X18600Y24029D3*
X14000Y40700D3*
X14600Y41600D3*
X23166Y25766D3*
X16382Y40896D3*
X17371Y41361D3*
X18891Y41300D3*
X19648Y41648D3*
X9500Y25100D3*
X10800D3*
X9274Y15424D3*
X11359Y15399D3*
X14522Y14968D3*
X17766D3*
X24326Y41611D3*
X21579Y41531D3*
X13400Y44900D3*
X10826Y43003D3*
D49*
X45750Y50000D3*
D48*
X49450Y34860D3*
Y24860D3*
Y14860D3*
Y4860D3*
X35800Y4800D3*
X36000Y16400D3*
X35400Y24800D3*
X35700Y34800D3*
X2500Y21997D3*
X11600Y30400D3*
X21000Y29200D3*
X10979Y19500D3*
X24200Y25500D3*
X17286Y26665D3*
D49*
X60750Y48400D3*
D48*
X10250Y60500D3*
Y54000D3*
Y47500D3*
X20258Y41095D3*
X13100Y30100D3*
X7000Y46200D3*
X6950Y43450D3*
X8709Y35613D3*
X7300Y33400D3*
X8439Y36871D3*
X7550Y42650D3*
X9000Y34950D3*
X8750Y39000D3*
Y40350D3*
X40779Y2320D3*
X9700Y7900D3*
X40723Y12326D3*
X40700Y22400D3*
Y32400D3*
X28300Y4800D3*
X20100Y2500D3*
D49*
X43600Y59400D3*
X33200Y60700D3*
D48*
X40800Y7400D3*
Y17460D3*
X25000Y3700D3*
X15250Y29400D3*
X7500Y26100D3*
X35703Y58369D3*
X15250Y29400D3*
X35703Y58369D3*
X28900Y40450D3*
X19900Y31450D3*
X14400Y35600D3*
X13800Y36300D3*
X14804Y37718D3*
X15377Y36725D3*
X31000Y41250D3*
X21750Y29500D3*
D49*
X60800Y45800D3*
Y47200D3*
X45750Y48750D3*
Y47500D3*
D48*
X37489Y58249D3*
X38250Y58250D3*
X39250D3*
X40500D3*
X41500D3*
X42250D3*
X37375Y63750D3*
D49*
X58400Y37400D3*
X58600Y38800D3*
Y40000D3*
D48*
X38136Y63751D3*
X39136D3*
X40386D3*
X41386D3*
X42136D3*
D49*
X34100Y48100D3*
X35500D3*
X60000Y40000D3*
Y38800D3*
D48*
X2817Y27280D3*
X2374Y37626D3*
X22300Y20500D3*
X4036Y40361D3*
X11580Y40437D3*
X3350Y30556D3*
X10742Y42189D3*
X20445Y37541D3*
X12240Y25679D3*
X5662Y28042D3*
Y32436D3*
X3858Y29947D3*
X3960Y16281D3*
X1600Y60500D3*
X9040Y31471D3*
X8837Y30480D3*
X1649Y59233D3*
X21486Y19761D3*
X25500Y41300D3*
Y46200D3*
X10150Y39000D3*
X12700Y31100D3*
X27200Y19000D3*
X36015Y20168D3*
X35750Y28650D3*
X38600Y46000D3*
X6909Y69051D2*
D19*
X65588D1*
X7454Y68419D2*
X14937D1*
X19698D2*
X20424D1*
X22238D2*
X22964D1*
X24778D2*
X65043D1*
X7811Y67787D2*
X14937D1*
X25145D2*
X64686D1*
X8030Y67156D2*
X14937D1*
X25135D2*
X64477D1*
X8129Y66524D2*
X14937D1*
X17565D2*
X17954D1*
X19628D2*
X20494D1*
X22168D2*
X23034D1*
X24708D2*
X47630D1*
X49850D2*
X64378D1*
X8119Y65892D2*
X44852D1*
X50347D2*
X50884D1*
X53512D2*
X64378D1*
X8000Y65261D2*
X44852D1*
X50485D2*
X50893D1*
X53512D2*
X64497D1*
X7772Y64629D2*
X14937D1*
X17565D2*
X18192D1*
X19380D2*
X20732D1*
X21920D2*
X23272D1*
X24460D2*
X44852D1*
X50396D2*
X50884D1*
X53512D2*
X64725D1*
X7395Y63997D2*
X14937D1*
X25075D2*
X36577D1*
X42935D2*
X44852D1*
X49989D2*
X50884D1*
X53512D2*
X65102D1*
X881Y63366D2*
X1682D1*
X6819D2*
X14937D1*
X25175D2*
X36636D1*
X42865D2*
X65678D1*
X70815D2*
X71621D1*
X881Y62734D2*
X2694D1*
X5807D2*
X14937D1*
X19837D2*
X20285D1*
X22377D2*
X22825D1*
X24917D2*
X66690D1*
X69813D2*
X71621D1*
X881Y62102D2*
X71621D1*
X881Y61471D2*
X32648D1*
X33747D2*
X71621D1*
X2354Y60839D2*
X9490D1*
X11006D2*
X32231D1*
X34164D2*
X71621D1*
X2374Y60207D2*
X9470D1*
X11026D2*
X14937D1*
X19876D2*
X20236D1*
X22416D2*
X22776D1*
X24956D2*
X32370D1*
X34035D2*
X43115D1*
X44086D2*
X71621D1*
X2404Y59576D2*
X14937D1*
X25175D2*
X42639D1*
X44562D2*
X71621D1*
X2424Y58944D2*
X14937D1*
X25046D2*
X35128D1*
X36287D2*
X37093D1*
X39651D2*
X40096D1*
X44453D2*
X48255D1*
X49225D2*
X71621D1*
X881Y58312D2*
X14937D1*
X17565D2*
X18341D1*
X19232D2*
X20881D1*
X21772D2*
X23421D1*
X24312D2*
X34870D1*
X43084D2*
X47511D1*
X49960D2*
X71621D1*
X881Y57681D2*
X35287D1*
X36119D2*
X36904D1*
X42836D2*
X47362D1*
X50118D2*
X71621D1*
X881Y57049D2*
X47541D1*
X49940D2*
X71621D1*
X881Y56417D2*
X14937D1*
X19698D2*
X20424D1*
X22238D2*
X22964D1*
X24778D2*
X48394D1*
X49073D2*
X71621D1*
X881Y55786D2*
X14937D1*
X25145D2*
X71621D1*
X881Y55154D2*
X14937D1*
X25135D2*
X27092D1*
X29709D2*
X65648D1*
X67849D2*
X71621D1*
X881Y54522D2*
X9619D1*
X10887D2*
X14937D1*
X17565D2*
X17954D1*
X19628D2*
X20494D1*
X22168D2*
X23034D1*
X24708D2*
X27092D1*
X29709D2*
X65023D1*
X68474D2*
X71621D1*
X881Y53891D2*
X9421D1*
X11076D2*
X27092D1*
X29709D2*
X64775D1*
X68732D2*
X71621D1*
X881Y53259D2*
X9966D1*
X10536D2*
X27092D1*
X29709D2*
X64745D1*
X68752D2*
X71621D1*
X881Y52627D2*
X14937D1*
X17565D2*
X18192D1*
X19390D2*
X20732D1*
X21930D2*
X23272D1*
X24470D2*
X64944D1*
X68563D2*
X71621D1*
X881Y51996D2*
X14937D1*
X25075D2*
X27379D1*
X29114D2*
X65440D1*
X68057D2*
X71621D1*
X881Y51364D2*
X14937D1*
X25175D2*
X26953D1*
X29550D2*
X64735D1*
X68771D2*
X71621D1*
X881Y50732D2*
X14937D1*
X19837D2*
X20285D1*
X22377D2*
X22825D1*
X24917D2*
X26923D1*
X29570D2*
X45209D1*
X46288D2*
X64735D1*
X68771D2*
X71621D1*
X881Y50101D2*
X27260D1*
X29243D2*
X44822D1*
X46675D2*
X64735D1*
X68771D2*
X71621D1*
X881Y49469D2*
X44991D1*
X46507D2*
X64735D1*
X68771D2*
X71621D1*
X881Y48837D2*
X33571D1*
X34630D2*
X34968D1*
X36029D2*
X44822D1*
X46685D2*
X59933D1*
X61568D2*
X64735D1*
X68771D2*
X71621D1*
X881Y48206D2*
X9877D1*
X10629D2*
X14937D1*
X19886D2*
X20236D1*
X22426D2*
X22776D1*
X24966D2*
X33174D1*
X36426D2*
X45001D1*
X46497D2*
X59834D1*
X61667D2*
X64735D1*
X68771D2*
X71621D1*
X881Y47574D2*
X9421D1*
X11086D2*
X14937D1*
X25175D2*
X33342D1*
X36257D2*
X44822D1*
X46685D2*
X59953D1*
X61648D2*
X71621D1*
X881Y46942D2*
X6722D1*
X7276D2*
X9649D1*
X10848D2*
X14937D1*
X25783D2*
X45011D1*
X46487D2*
X59903D1*
X61697D2*
X71621D1*
X881Y46311D2*
X6176D1*
X7831D2*
X14937D1*
X17565D2*
X18350D1*
X19232D2*
X20890D1*
X21772D2*
X23430D1*
X24312D2*
X24671D1*
X26326D2*
X37827D1*
X39373D2*
X60032D1*
X61568D2*
X71621D1*
X881Y45679D2*
X6365D1*
X7633D2*
X24869D1*
X26137D2*
X37123D1*
X881Y45047D2*
X12576D1*
X14221D2*
X37123D1*
X881Y44416D2*
X12735D1*
X14062D2*
X14937D1*
X19698D2*
X20424D1*
X22238D2*
X22964D1*
X24778D2*
X26715D1*
X28538D2*
X29255D1*
X31078D2*
X31795D1*
X36565D2*
X37123D1*
X881Y43784D2*
X6186D1*
X7712D2*
X14937D1*
X25145D2*
X26347D1*
X36565D2*
X37123D1*
X881Y43152D2*
X6176D1*
X8198D2*
X10006D1*
X11651D2*
X14937D1*
X25135D2*
X26367D1*
X36565D2*
X37123D1*
X881Y42521D2*
X6722D1*
X8377D2*
X10155D1*
X11492D2*
X14937D1*
X17565D2*
X17954D1*
X19628D2*
X20494D1*
X22168D2*
X23034D1*
X24708D2*
X26794D1*
X28469D2*
X29334D1*
X31009D2*
X31874D1*
X33549D2*
X33938D1*
X36565D2*
X37123D1*
X881Y41889D2*
X7357D1*
X7753D2*
X13816D1*
X15382D2*
X16743D1*
X18001D2*
X18331D1*
X20442D2*
X20831D1*
X22327D2*
X23540D1*
X26068D2*
X30505D1*
X31495D2*
X37123D1*
X881Y41257D2*
X13399D1*
X22367D2*
X23579D1*
X26336D2*
X30167D1*
X31832D2*
X37123D1*
X881Y40626D2*
X7962D1*
X9538D2*
X13171D1*
X14836D2*
X15592D1*
X17674D2*
X18450D1*
X20938D2*
X25058D1*
X25939D2*
X28084D1*
X29719D2*
X30485D1*
X31515D2*
X37123D1*
X881Y39994D2*
X8002D1*
X9498D2*
X13618D1*
X14380D2*
X28213D1*
X29590D2*
X37123D1*
X881Y39362D2*
X8002D1*
X10897D2*
X37123D1*
X881Y38731D2*
X7962D1*
X10937D2*
X37123D1*
X881Y38099D2*
X1702D1*
X3049D2*
X14064D1*
X15541D2*
X37123D1*
X881Y37467D2*
X1553D1*
X3198D2*
X7883D1*
X8992D2*
X14015D1*
X15650D2*
X37123D1*
X881Y36836D2*
X7605D1*
X9270D2*
X13181D1*
X16205D2*
X37123D1*
X881Y36204D2*
X7982D1*
X9270D2*
X12973D1*
X16007D2*
X37123D1*
X881Y35572D2*
X7873D1*
X9548D2*
X13479D1*
X15233D2*
X37123D1*
X881Y34941D2*
X8161D1*
X9835D2*
X13935D1*
X14866D2*
X34880D1*
X36525D2*
X37123D1*
X881Y34309D2*
X8508D1*
X9498D2*
X35039D1*
X36357D2*
X37123D1*
X881Y33677D2*
X6514D1*
X8089D2*
X37123D1*
X881Y33046D2*
X6553D1*
X8050D2*
X37123D1*
X881Y32414D2*
X37123D1*
X881Y31782D2*
X8270D1*
X9806D2*
X12278D1*
X13130D2*
X19144D1*
X20660D2*
X37123D1*
X881Y31151D2*
X8270D1*
X9806D2*
X11356D1*
X13536D2*
X19124D1*
X20680D2*
X37123D1*
X881Y30519D2*
X8002D1*
X9667D2*
X10770D1*
X13814D2*
X37123D1*
X881Y29887D2*
X8280D1*
X9399D2*
X10959D1*
X13903D2*
X14590D1*
X15918D2*
X20583D1*
X22486D2*
X37123D1*
X881Y29256D2*
X14431D1*
X16076D2*
X20166D1*
X22545D2*
X35208D1*
X36297D2*
X37123D1*
X881Y28624D2*
X20424D1*
X21583D2*
X34910D1*
X36585D2*
X37123D1*
X881Y27992D2*
X2456D1*
X3178D2*
X35277D1*
X36218D2*
X37123D1*
X881Y27361D2*
X1989D1*
X3644D2*
X16892D1*
X17684D2*
X37123D1*
X881Y26729D2*
X2208D1*
X3426D2*
X6990D1*
X8010D2*
X15463D1*
X18120D2*
X37123D1*
X881Y26097D2*
X6662D1*
X8337D2*
X16693D1*
X17872D2*
X22408D1*
X24758D2*
X37123D1*
X881Y25466D2*
X7000D1*
X8000D2*
X8756D1*
X11542D2*
X22389D1*
X25036D2*
X34950D1*
X35851D2*
X37123D1*
X881Y24834D2*
X8706D1*
X11592D2*
X23748D1*
X24659D2*
X34563D1*
X36238D2*
X37123D1*
X881Y24202D2*
X34851D1*
X35950D2*
X37123D1*
X881Y23571D2*
X37123D1*
X881Y22939D2*
X37123D1*
X881Y22307D2*
X1731D1*
X3267D2*
X37123D1*
X881Y21676D2*
X1731D1*
X3267D2*
X37123D1*
X881Y21044D2*
X37123D1*
X881Y20412D2*
X21010D1*
X21960D2*
X22885D1*
X25512D2*
X35218D1*
X881Y19781D2*
X10195D1*
X11760D2*
X20652D1*
X22317D2*
X22885D1*
X25512D2*
X35287D1*
X36744D2*
X37123D1*
X881Y19149D2*
X10224D1*
X11731D2*
X20950D1*
X22020D2*
X22885D1*
X25512D2*
X26377D1*
X28022D2*
X37123D1*
X881Y18517D2*
X22885D1*
X25512D2*
X26536D1*
X27864D2*
X37123D1*
X881Y17886D2*
X37123D1*
X881Y17254D2*
X22885D1*
X25512D2*
X37123D1*
X881Y16622D2*
X22885D1*
X25512D2*
X35198D1*
X36803D2*
X37128D1*
X881Y15991D2*
X8687D1*
X9865D2*
X10800D1*
X11919D2*
X22885D1*
X25512D2*
X35277D1*
X36714D2*
X37123D1*
X881Y15359D2*
X8438D1*
X10103D2*
X10529D1*
X12197D2*
X13796D1*
X15253D2*
X17041D1*
X18497D2*
X22885D1*
X25512D2*
X37123D1*
X881Y14727D2*
X8875D1*
X9667D2*
X10909D1*
X11800D2*
X13727D1*
X15322D2*
X16971D1*
X18567D2*
X23490D1*
X24907D2*
X37123D1*
X881Y14096D2*
X22964D1*
X25433D2*
X37123D1*
X881Y13464D2*
X22905D1*
X25492D2*
X37123D1*
X881Y12832D2*
X23202D1*
X25195D2*
X37123D1*
X881Y12201D2*
X23510D1*
X24887D2*
X37123D1*
X881Y11569D2*
X22974D1*
X25423D2*
X37123D1*
X881Y10937D2*
X22905D1*
X25502D2*
X37123D1*
X881Y10306D2*
X15017D1*
X21186D2*
X23192D1*
X25204D2*
X37123D1*
X881Y9674D2*
X15017D1*
X21186D2*
X23540D1*
X24867D2*
X37123D1*
X881Y9042D2*
X15017D1*
X21186D2*
X22974D1*
X25423D2*
X37123D1*
X881Y8411D2*
X9054D1*
X10342D2*
X15017D1*
X21186D2*
X22905D1*
X25502D2*
X37123D1*
X881Y7779D2*
X2723D1*
X5777D2*
X8875D1*
X10530D2*
X23182D1*
X25224D2*
X37123D1*
X881Y7147D2*
X1692D1*
X6799D2*
X9460D1*
X9940D2*
X37123D1*
X7385Y6516D2*
X37123D1*
X7772Y5884D2*
X37123D1*
X8000Y5252D2*
X27608D1*
X28985D2*
X35108D1*
X36486D2*
X37123D1*
X8119Y4621D2*
X27488D1*
X29114D2*
X34989D1*
X36615D2*
X37123D1*
X8129Y3989D2*
X24224D1*
X25780D2*
X37123D1*
X8030Y3357D2*
X24244D1*
X25760D2*
X37123D1*
X7821Y2726D2*
X19293D1*
X20898D2*
X37123D1*
X7464Y2094D2*
X19382D1*
X20819D2*
X37123D1*
X6928Y1462D2*
X37123D1*
X6016Y831D2*
X37123D1*
X8058Y65933D2*
X7953Y65307D1*
X7746Y64708D1*
X7442Y64151D1*
X7051Y63652D1*
X6583Y63224D1*
X6050Y62880D1*
X5468Y62628D1*
X4852Y62477D1*
X4219Y62429D1*
X3588Y62487D1*
X2974Y62648D1*
X2396Y62909D1*
X1869Y63262D1*
X1407Y63697D1*
X1024Y64202D1*
X819Y64576D1*
X818Y5934D1*
X1092Y6400D1*
X1491Y6893D1*
X1966Y7313D1*
X2504Y7649D1*
X3091Y7891D1*
X3709Y8032D1*
X4342Y8070D1*
X4973Y8002D1*
X5584Y7831D1*
X6158Y7561D1*
X6679Y7199D1*
X7133Y6757D1*
X7508Y6245D1*
X7794Y5679D1*
X7981Y5073D1*
X8066Y4444D1*
X8058Y3933D1*
X7953Y3307D1*
X7746Y2708D1*
X7442Y2151D1*
X7051Y1652D1*
X6583Y1224D1*
X6050Y880D1*
X5916Y815D1*
X37183Y818D1*
Y45500D1*
X37338Y45768D1*
X37500Y45817D1*
X37847D1*
X37835Y46112D1*
X37944Y46408D1*
X38161Y46636D1*
X38452Y46758D1*
X38767Y46755D1*
X39054Y46625D1*
X39266Y46392D1*
X39367Y46093D1*
X39373Y46000D1*
X39335Y45817D1*
X59933D1*
X59935Y45915D1*
X60032Y46215D1*
X60230Y46461D1*
X60290Y46496D1*
X60077Y46711D1*
X59950Y47000D1*
X59935Y47315D1*
X60032Y47615D1*
X60150Y47761D1*
X60027Y47911D1*
X59900Y48200D1*
X59885Y48515D1*
X59982Y48815D1*
X60180Y49061D1*
X60453Y49221D1*
X60765Y49273D1*
X61074Y49210D1*
X61341Y49042D1*
X61531Y48790D1*
X61623Y48400D1*
X61566Y48089D1*
X61407Y47828D1*
X61581Y47590D1*
X61673Y47200D1*
X61616Y46889D1*
X61452Y46620D1*
X61304Y46504D1*
X61391Y46442D1*
X61581Y46190D1*
X61672Y45819D1*
X71683Y45817D1*
Y64580D1*
X71442Y64151D1*
X71051Y63652D1*
X70583Y63224D1*
X70050Y62880D1*
X69468Y62628D1*
X68852Y62477D1*
X68219Y62429D1*
X67588Y62487D1*
X66974Y62648D1*
X66396Y62909D1*
X65869Y63262D1*
X65407Y63697D1*
X65024Y64202D1*
X64730Y64764D1*
X64533Y65367D1*
X64438Y65994D1*
X64448Y66628D1*
X64563Y67252D1*
X64780Y67848D1*
X65092Y68400D1*
X65491Y68893D1*
X65966Y69313D1*
X66504Y69649D1*
X66586Y69686D1*
X35170Y69683D1*
X5930D1*
X6426Y69391D1*
X6915Y68988D1*
X7332Y68509D1*
X7663Y67968D1*
X7900Y67380D1*
X8037Y66760D1*
X8071Y66250D1*
X8058Y65933D1*
X65114Y51954D2*
X65560D1*
X65261Y52235D1*
X65076Y52493D1*
X64935Y52777D1*
X64842Y53080D1*
X64799Y53395D1*
X64808Y53712D1*
X64868Y54023D1*
X64977Y54321D1*
X65133Y54597D1*
X65332Y54844D1*
X65568Y55056D1*
X65835Y55226D1*
X66127Y55352D1*
X66434Y55428D1*
X66750Y55454D1*
X67067Y55428D1*
X67374Y55351D1*
X67666Y55226D1*
X67933Y55055D1*
X68169Y54843D1*
X68367Y54596D1*
X68523Y54320D1*
X68633Y54022D1*
X68692Y53711D1*
X68704Y53500D1*
X68678Y53184D1*
X68602Y52876D1*
X68476Y52585D1*
X68305Y52318D1*
X68094Y52081D1*
X67931Y51951D1*
X68704Y51954D1*
Y48046D1*
X64796D1*
Y51954D1*
X65114D1*
X45230Y66488D2*
X47488D1*
Y66339D1*
X47824Y66617D1*
X48105Y66764D1*
X48409Y66855D1*
X48724Y66888D1*
X49040Y66861D1*
X49345Y66776D1*
X49629Y66635D1*
X49882Y66443D1*
X50094Y66208D1*
X50259Y65937D1*
X50370Y65640D1*
X50428Y65200D1*
X50398Y64884D1*
X50310Y64580D1*
X50166Y64297D1*
X49972Y64046D1*
X49735Y63836D1*
X49462Y63674D1*
X49164Y63566D1*
X48851Y63516D1*
X48534Y63525D1*
X48225Y63593D1*
X47933Y63718D1*
X47670Y63895D1*
X47494Y64069D1*
X47488Y63912D1*
X44912D1*
Y66488D1*
X45230D1*
X29499Y50676D2*
X29384Y50380D1*
X29201Y50122D1*
X28961Y49916D1*
X28677Y49775D1*
X28368Y49708D1*
X28051Y49718D1*
X27747Y49805D1*
X27473Y49963D1*
X27246Y50184D1*
X27079Y50454D1*
X26984Y50756D1*
X26965Y51072D1*
X27024Y51383D1*
X27157Y51670D1*
X27356Y51917D1*
X27609Y52107D1*
X27901Y52230D1*
X28214Y52277D1*
X28529Y52247D1*
X28828Y52141D1*
X29091Y51965D1*
X29304Y51731D1*
X29452Y51451D1*
X29529Y51144D1*
X29538Y50990D1*
X29499Y50676D1*
X23270Y17448D2*
X25448D1*
Y14952D1*
X22952D1*
Y17448D1*
X23270D1*
X25408Y13346D2*
X25290Y13052D1*
X25102Y12797D1*
X24855Y12598D1*
X24567Y12467D1*
X24255Y12413D1*
X23939Y12440D1*
X23641Y12545D1*
X23378Y12721D1*
X23168Y12958D1*
X23025Y13241D1*
X22957Y13550D1*
X22969Y13866D1*
X23061Y14170D1*
X23226Y14440D1*
X23454Y14660D1*
X23729Y14816D1*
X24035Y14897D1*
X24352Y14899D1*
X24659Y14820D1*
X24936Y14668D1*
X25166Y14450D1*
X25334Y14181D1*
X25428Y13879D1*
X25448Y13660D1*
X25408Y13346D1*
Y10806D2*
X25290Y10512D1*
X25102Y10257D1*
X24855Y10058D1*
X24567Y9927D1*
X24255Y9873D1*
X23939Y9900D1*
X23641Y10005D1*
X23378Y10181D1*
X23168Y10418D1*
X23025Y10701D1*
X22957Y11010D1*
X22969Y11326D1*
X23061Y11630D1*
X23226Y11900D1*
X23454Y12120D1*
X23729Y12276D1*
X24035Y12357D1*
X24352Y12359D1*
X24659Y12280D1*
X24936Y12128D1*
X25166Y11910D1*
X25334Y11641D1*
X25428Y11339D1*
X25448Y11120D1*
X25408Y10806D1*
Y8266D2*
X25290Y7972D1*
X25102Y7717D1*
X24855Y7518D1*
X24567Y7387D1*
X24255Y7333D1*
X23939Y7360D1*
X23641Y7465D1*
X23378Y7641D1*
X23168Y7878D1*
X23025Y8161D1*
X22957Y8470D1*
X22969Y8786D1*
X23061Y9090D1*
X23226Y9360D1*
X23454Y9580D1*
X23729Y9736D1*
X24035Y9817D1*
X24352Y9819D1*
X24659Y9740D1*
X24936Y9588D1*
X25166Y9370D1*
X25334Y9101D1*
X25428Y8799D1*
X25448Y8580D1*
X25408Y8266D1*
X34320Y44748D2*
X36498D1*
Y42252D1*
X34002D1*
Y44748D1*
X34320D1*
X33918Y43186D2*
X33800Y42892D1*
X33612Y42637D1*
X33365Y42438D1*
X33077Y42307D1*
X32765Y42253D1*
X32449Y42280D1*
X32151Y42385D1*
X31888Y42561D1*
X31678Y42798D1*
X31535Y43081D1*
X31467Y43390D1*
X31479Y43706D1*
X31571Y44010D1*
X31736Y44280D1*
X31964Y44500D1*
X32239Y44656D1*
X32545Y44737D1*
X32862Y44739D1*
X33169Y44660D1*
X33446Y44508D1*
X33676Y44290D1*
X33844Y44021D1*
X33938Y43719D1*
X33958Y43500D1*
X33918Y43186D1*
X31378D2*
X31260Y42892D1*
X31072Y42637D1*
X30825Y42438D1*
X30537Y42307D1*
X30225Y42253D1*
X29909Y42280D1*
X29611Y42385D1*
X29348Y42561D1*
X29138Y42798D1*
X28995Y43081D1*
X28927Y43390D1*
X28939Y43706D1*
X29031Y44010D1*
X29196Y44280D1*
X29424Y44500D1*
X29699Y44656D1*
X30005Y44737D1*
X30322Y44739D1*
X30629Y44660D1*
X30906Y44508D1*
X31136Y44290D1*
X31304Y44021D1*
X31398Y43719D1*
X31418Y43500D1*
X31378Y43186D1*
X28838D2*
X28720Y42892D1*
X28532Y42637D1*
X28285Y42438D1*
X27997Y42307D1*
X27685Y42253D1*
X27369Y42280D1*
X27071Y42385D1*
X26808Y42561D1*
X26598Y42798D1*
X26455Y43081D1*
X26387Y43390D1*
X26399Y43706D1*
X26491Y44010D1*
X26656Y44280D1*
X26884Y44500D1*
X27159Y44656D1*
X27465Y44737D1*
X27782Y44739D1*
X28089Y44660D1*
X28366Y44508D1*
X28596Y44290D1*
X28764Y44021D1*
X28858Y43719D1*
X28878Y43500D1*
X28838Y43186D1*
X15066Y68748D2*
X17498D1*
Y66252D1*
X15002D1*
Y68748D1*
X15066D1*
X19998Y67186D2*
X19880Y66892D1*
X19692Y66637D1*
X19445Y66438D1*
X19157Y66307D1*
X18845Y66253D1*
X18529Y66280D1*
X18231Y66385D1*
X17968Y66561D1*
X17758Y66798D1*
X17615Y67081D1*
X17547Y67390D1*
X17559Y67706D1*
X17651Y68010D1*
X17816Y68280D1*
X18044Y68500D1*
X18319Y68656D1*
X18625Y68737D1*
X18942Y68739D1*
X19249Y68660D1*
X19526Y68508D1*
X19756Y68290D1*
X19924Y68021D1*
X20018Y67719D1*
X20038Y67500D1*
X19998Y67186D1*
X22538D2*
X22420Y66892D1*
X22232Y66637D1*
X21985Y66438D1*
X21697Y66307D1*
X21385Y66253D1*
X21069Y66280D1*
X20771Y66385D1*
X20508Y66561D1*
X20298Y66798D1*
X20155Y67081D1*
X20087Y67390D1*
X20099Y67706D1*
X20191Y68010D1*
X20356Y68280D1*
X20584Y68500D1*
X20859Y68656D1*
X21165Y68737D1*
X21482Y68739D1*
X21789Y68660D1*
X22066Y68508D1*
X22296Y68290D1*
X22464Y68021D1*
X22558Y67719D1*
X22578Y67500D1*
X22538Y67186D1*
X25078D2*
X24960Y66892D1*
X24772Y66637D1*
X24525Y66438D1*
X24237Y66307D1*
X23925Y66253D1*
X23609Y66280D1*
X23311Y66385D1*
X23048Y66561D1*
X22838Y66798D1*
X22695Y67081D1*
X22627Y67390D1*
X22639Y67706D1*
X22731Y68010D1*
X22896Y68280D1*
X23124Y68500D1*
X23399Y68656D1*
X23705Y68737D1*
X24022Y68739D1*
X24329Y68660D1*
X24606Y68508D1*
X24836Y68290D1*
X25004Y68021D1*
X25098Y67719D1*
X25118Y67500D1*
X25078Y67186D1*
X15320Y64748D2*
X17498D1*
Y62252D1*
X15002D1*
Y64748D1*
X15320D1*
X19998Y63186D2*
X19880Y62892D1*
X19692Y62637D1*
X19445Y62438D1*
X19157Y62307D1*
X18845Y62253D1*
X18529Y62280D1*
X18231Y62385D1*
X17968Y62561D1*
X17758Y62798D1*
X17615Y63081D1*
X17547Y63390D1*
X17559Y63706D1*
X17651Y64010D1*
X17816Y64280D1*
X18044Y64500D1*
X18319Y64656D1*
X18625Y64737D1*
X18942Y64739D1*
X19249Y64660D1*
X19526Y64508D1*
X19756Y64290D1*
X19924Y64021D1*
X20018Y63719D1*
X20038Y63500D1*
X19998Y63186D1*
X22538D2*
X22420Y62892D1*
X22232Y62637D1*
X21985Y62438D1*
X21697Y62307D1*
X21385Y62253D1*
X21069Y62280D1*
X20771Y62385D1*
X20508Y62561D1*
X20298Y62798D1*
X20155Y63081D1*
X20087Y63390D1*
X20099Y63706D1*
X20191Y64010D1*
X20356Y64280D1*
X20584Y64500D1*
X20859Y64656D1*
X21165Y64737D1*
X21482Y64739D1*
X21789Y64660D1*
X22066Y64508D1*
X22296Y64290D1*
X22464Y64021D1*
X22558Y63719D1*
X22578Y63500D1*
X22538Y63186D1*
X25078D2*
X24960Y62892D1*
X24772Y62637D1*
X24525Y62438D1*
X24237Y62307D1*
X23925Y62253D1*
X23609Y62280D1*
X23311Y62385D1*
X23048Y62561D1*
X22838Y62798D1*
X22695Y63081D1*
X22627Y63390D1*
X22639Y63706D1*
X22731Y64010D1*
X22896Y64280D1*
X23124Y64500D1*
X23399Y64656D1*
X23705Y64737D1*
X24022Y64739D1*
X24329Y64660D1*
X24606Y64508D1*
X24836Y64290D1*
X25004Y64021D1*
X25098Y63719D1*
X25118Y63500D1*
X25078Y63186D1*
X15320Y60748D2*
X17498D1*
Y58252D1*
X15002D1*
Y60748D1*
X15320D1*
X19998Y59186D2*
X19880Y58892D1*
X19692Y58637D1*
X19445Y58438D1*
X19157Y58307D1*
X18845Y58253D1*
X18529Y58280D1*
X18231Y58385D1*
X17968Y58561D1*
X17758Y58798D1*
X17615Y59081D1*
X17547Y59390D1*
X17559Y59706D1*
X17651Y60010D1*
X17816Y60280D1*
X18044Y60500D1*
X18319Y60656D1*
X18625Y60737D1*
X18942Y60739D1*
X19249Y60660D1*
X19526Y60508D1*
X19756Y60290D1*
X19924Y60021D1*
X20018Y59719D1*
X20038Y59500D1*
X19998Y59186D1*
X22538D2*
X22420Y58892D1*
X22232Y58637D1*
X21985Y58438D1*
X21697Y58307D1*
X21385Y58253D1*
X21069Y58280D1*
X20771Y58385D1*
X20508Y58561D1*
X20298Y58798D1*
X20155Y59081D1*
X20087Y59390D1*
X20099Y59706D1*
X20191Y60010D1*
X20356Y60280D1*
X20584Y60500D1*
X20859Y60656D1*
X21165Y60737D1*
X21482Y60739D1*
X21789Y60660D1*
X22066Y60508D1*
X22296Y60290D1*
X22464Y60021D1*
X22558Y59719D1*
X22578Y59500D1*
X22538Y59186D1*
X25078D2*
X24960Y58892D1*
X24772Y58637D1*
X24525Y58438D1*
X24237Y58307D1*
X23925Y58253D1*
X23609Y58280D1*
X23311Y58385D1*
X23048Y58561D1*
X22838Y58798D1*
X22695Y59081D1*
X22627Y59390D1*
X22639Y59706D1*
X22731Y60010D1*
X22896Y60280D1*
X23124Y60500D1*
X23399Y60656D1*
X23705Y60737D1*
X24022Y60739D1*
X24329Y60660D1*
X24606Y60508D1*
X24836Y60290D1*
X25004Y60021D1*
X25098Y59719D1*
X25118Y59500D1*
X25078Y59186D1*
X15320Y56748D2*
X17498D1*
Y54252D1*
X15002D1*
Y56748D1*
X15320D1*
X19998Y55186D2*
X19880Y54892D1*
X19692Y54637D1*
X19445Y54438D1*
X19157Y54307D1*
X18845Y54253D1*
X18529Y54280D1*
X18231Y54385D1*
X17968Y54561D1*
X17758Y54798D1*
X17615Y55081D1*
X17547Y55390D1*
X17559Y55706D1*
X17651Y56010D1*
X17816Y56280D1*
X18044Y56500D1*
X18319Y56656D1*
X18625Y56737D1*
X18942Y56739D1*
X19249Y56660D1*
X19526Y56508D1*
X19756Y56290D1*
X19924Y56021D1*
X20018Y55719D1*
X20038Y55500D1*
X19998Y55186D1*
X22538D2*
X22420Y54892D1*
X22232Y54637D1*
X21985Y54438D1*
X21697Y54307D1*
X21385Y54253D1*
X21069Y54280D1*
X20771Y54385D1*
X20508Y54561D1*
X20298Y54798D1*
X20155Y55081D1*
X20087Y55390D1*
X20099Y55706D1*
X20191Y56010D1*
X20356Y56280D1*
X20584Y56500D1*
X20859Y56656D1*
X21165Y56737D1*
X21482Y56739D1*
X21789Y56660D1*
X22066Y56508D1*
X22296Y56290D1*
X22464Y56021D1*
X22558Y55719D1*
X22578Y55500D1*
X22538Y55186D1*
X25078D2*
X24960Y54892D1*
X24772Y54637D1*
X24525Y54438D1*
X24237Y54307D1*
X23925Y54253D1*
X23609Y54280D1*
X23311Y54385D1*
X23048Y54561D1*
X22838Y54798D1*
X22695Y55081D1*
X22627Y55390D1*
X22639Y55706D1*
X22731Y56010D1*
X22896Y56280D1*
X23124Y56500D1*
X23399Y56656D1*
X23705Y56737D1*
X24022Y56739D1*
X24329Y56660D1*
X24606Y56508D1*
X24836Y56290D1*
X25004Y56021D1*
X25098Y55719D1*
X25118Y55500D1*
X25078Y55186D1*
X15320Y52748D2*
X17498D1*
Y50252D1*
X15002D1*
Y52748D1*
X15320D1*
X19998Y51186D2*
X19880Y50892D1*
X19692Y50637D1*
X19445Y50438D1*
X19157Y50307D1*
X18845Y50253D1*
X18529Y50280D1*
X18231Y50385D1*
X17968Y50561D1*
X17758Y50798D1*
X17615Y51081D1*
X17547Y51390D1*
X17559Y51706D1*
X17651Y52010D1*
X17816Y52280D1*
X18044Y52500D1*
X18319Y52656D1*
X18625Y52737D1*
X18942Y52739D1*
X19249Y52660D1*
X19526Y52508D1*
X19756Y52290D1*
X19924Y52021D1*
X20018Y51719D1*
X20038Y51500D1*
X19998Y51186D1*
X22538D2*
X22420Y50892D1*
X22232Y50637D1*
X21985Y50438D1*
X21697Y50307D1*
X21385Y50253D1*
X21069Y50280D1*
X20771Y50385D1*
X20508Y50561D1*
X20298Y50798D1*
X20155Y51081D1*
X20087Y51390D1*
X20099Y51706D1*
X20191Y52010D1*
X20356Y52280D1*
X20584Y52500D1*
X20859Y52656D1*
X21165Y52737D1*
X21482Y52739D1*
X21789Y52660D1*
X22066Y52508D1*
X22296Y52290D1*
X22464Y52021D1*
X22558Y51719D1*
X22578Y51500D1*
X22538Y51186D1*
X25078D2*
X24960Y50892D1*
X24772Y50637D1*
X24525Y50438D1*
X24237Y50307D1*
X23925Y50253D1*
X23609Y50280D1*
X23311Y50385D1*
X23048Y50561D1*
X22838Y50798D1*
X22695Y51081D1*
X22627Y51390D1*
X22639Y51706D1*
X22731Y52010D1*
X22896Y52280D1*
X23124Y52500D1*
X23399Y52656D1*
X23705Y52737D1*
X24022Y52739D1*
X24329Y52660D1*
X24606Y52508D1*
X24836Y52290D1*
X25004Y52021D1*
X25098Y51719D1*
X25118Y51500D1*
X25078Y51186D1*
X15066Y48748D2*
X17498D1*
Y46252D1*
X15002D1*
Y48748D1*
X15066D1*
X20036Y47437D2*
X19998Y47186D1*
X19909Y46948D1*
X19775Y46733D1*
X19599Y46550D1*
X19391Y46406D1*
X19157Y46307D1*
X18908Y46258D1*
X18655Y46260D1*
X18407Y46312D1*
X18175Y46414D1*
X17968Y46561D1*
X17795Y46747D1*
X17663Y46963D1*
X17578Y47202D1*
X17543Y47453D1*
X17559Y47706D1*
X17627Y47951D1*
X17742Y48177D1*
X17900Y48375D1*
X18095Y48537D1*
X18319Y48656D1*
X18563Y48727D1*
X18815Y48748D1*
X19067Y48717D1*
X19307Y48636D1*
X19526Y48508D1*
X19715Y48338D1*
X19865Y48134D1*
X19971Y47903D1*
X20028Y47656D1*
X20036Y47437D1*
X22576D2*
X22538Y47186D1*
X22449Y46948D1*
X22315Y46733D1*
X22139Y46550D1*
X21931Y46406D1*
X21697Y46307D1*
X21448Y46258D1*
X21195Y46260D1*
X20947Y46312D1*
X20715Y46414D1*
X20508Y46561D1*
X20335Y46747D1*
X20203Y46963D1*
X20118Y47202D1*
X20083Y47453D1*
X20099Y47706D1*
X20167Y47951D1*
X20282Y48177D1*
X20440Y48375D1*
X20635Y48537D1*
X20859Y48656D1*
X21103Y48727D1*
X21355Y48748D1*
X21607Y48717D1*
X21847Y48636D1*
X22066Y48508D1*
X22255Y48338D1*
X22405Y48134D1*
X22511Y47903D1*
X22568Y47656D1*
X22576Y47437D1*
X25116D2*
X25078Y47186D1*
X24989Y46948D1*
X24855Y46733D1*
X24679Y46550D1*
X24471Y46406D1*
X24237Y46307D1*
X23988Y46258D1*
X23735Y46260D1*
X23487Y46312D1*
X23255Y46414D1*
X23048Y46561D1*
X22875Y46747D1*
X22743Y46963D1*
X22658Y47202D1*
X22623Y47453D1*
X22639Y47706D1*
X22707Y47951D1*
X22822Y48177D1*
X22980Y48375D1*
X23175Y48537D1*
X23399Y48656D1*
X23643Y48727D1*
X23895Y48748D1*
X24147Y48717D1*
X24387Y48636D1*
X24606Y48508D1*
X24795Y48338D1*
X24945Y48134D1*
X25051Y47903D1*
X25108Y47656D1*
X25116Y47437D1*
X15320Y44748D2*
X17498D1*
Y42252D1*
X15011D1*
X15266Y41992D1*
X15367Y41693D1*
X15373Y41600D1*
X15308Y41291D1*
X15126Y41034D1*
X14856Y40871D1*
X14749Y40857D1*
X14773Y40700D1*
X14708Y40391D1*
X14526Y40134D1*
X14256Y39971D1*
X13944Y39929D1*
X13641Y40016D1*
X13397Y40216D1*
X13254Y40497D1*
X13235Y40812D1*
X13344Y41108D1*
X13561Y41336D1*
X13843Y41455D1*
X13835Y41712D1*
X13944Y42008D1*
X14161Y42236D1*
X14452Y42358D1*
X14767Y42355D1*
X15002Y42262D1*
Y44748D1*
X15320D1*
X19998Y43186D2*
X19880Y42892D1*
X19692Y42637D1*
X19445Y42438D1*
X19157Y42307D1*
X18845Y42253D1*
X18529Y42280D1*
X18231Y42385D1*
X17968Y42561D1*
X17758Y42798D1*
X17615Y43081D1*
X17547Y43390D1*
X17559Y43706D1*
X17651Y44010D1*
X17816Y44280D1*
X18044Y44500D1*
X18319Y44656D1*
X18625Y44737D1*
X18942Y44739D1*
X19249Y44660D1*
X19526Y44508D1*
X19756Y44290D1*
X19924Y44021D1*
X20018Y43719D1*
X20038Y43500D1*
X19998Y43186D1*
X22538D2*
X22420Y42892D1*
X22232Y42637D1*
X21985Y42438D1*
X21648Y42299D1*
X21746Y42286D1*
X22033Y42157D1*
X22245Y41923D1*
X22346Y41624D1*
X22352Y41531D1*
X22287Y41223D1*
X22105Y40966D1*
X21835Y40802D1*
X21523Y40761D1*
X21220Y40847D1*
X21030Y41004D1*
X20966Y40786D1*
X20784Y40529D1*
X20514Y40366D1*
X20202Y40324D1*
X19899Y40411D1*
X19655Y40611D1*
X19525Y40866D1*
X19417Y40734D1*
X19147Y40571D1*
X18835Y40529D1*
X18532Y40616D1*
X18288Y40816D1*
X18145Y41097D1*
X18136Y41244D1*
X18079Y41053D1*
X17897Y40795D1*
X17627Y40632D1*
X17315Y40590D1*
X17116Y40647D1*
X16909Y40330D1*
X16639Y40167D1*
X16326Y40125D1*
X16023Y40211D1*
X15780Y40412D1*
X15637Y40693D1*
X15618Y41007D1*
X15726Y41303D1*
X15943Y41532D1*
X16234Y41654D1*
X16549Y41650D1*
X16648Y41606D1*
X16714Y41769D1*
X16932Y41997D1*
X17222Y42120D1*
X17538Y42116D1*
X17825Y41986D1*
X18037Y41753D1*
X18135Y41463D1*
X18234Y41708D1*
X18452Y41936D1*
X18743Y42058D1*
X18989Y42055D1*
X19210Y42284D1*
X19500Y42406D1*
X19815Y42402D1*
X20103Y42273D1*
X20315Y42039D1*
X20375Y41862D1*
X20712Y41720D1*
X20811Y41611D1*
X20923Y41939D1*
X21140Y42168D1*
X21349Y42255D1*
X21069Y42280D1*
X20771Y42385D1*
X20508Y42561D1*
X20298Y42798D1*
X20155Y43081D1*
X20087Y43390D1*
X20099Y43706D1*
X20191Y44010D1*
X20356Y44280D1*
X20584Y44500D1*
X20859Y44656D1*
X21165Y44737D1*
X21482Y44739D1*
X21789Y44660D1*
X22066Y44508D1*
X22296Y44290D1*
X22464Y44021D1*
X22558Y43719D1*
X22578Y43500D1*
X22538Y43186D1*
X25078D2*
X24960Y42892D1*
X24772Y42637D1*
X24525Y42438D1*
X24390Y42377D1*
X24493Y42366D1*
X24780Y42236D1*
X24992Y42003D1*
X25027Y41900D1*
X25061Y41936D1*
X25352Y42058D1*
X25667Y42055D1*
X25954Y41925D1*
X26166Y41692D1*
X26267Y41393D1*
X26273Y41300D1*
X26208Y40991D1*
X26026Y40734D1*
X25756Y40571D1*
X25444Y40529D1*
X25141Y40616D1*
X24897Y40816D1*
X24804Y41001D1*
X24582Y40882D1*
X24270Y40840D1*
X23966Y40927D1*
X23723Y41127D1*
X23580Y41408D1*
X23561Y41723D1*
X23669Y42019D1*
X23896Y42251D1*
X23609Y42280D1*
X23311Y42385D1*
X23048Y42561D1*
X22838Y42798D1*
X22695Y43081D1*
X22627Y43390D1*
X22639Y43706D1*
X22731Y44010D1*
X22896Y44280D1*
X23124Y44500D1*
X23399Y44656D1*
X23705Y44737D1*
X24022Y44739D1*
X24329Y44660D1*
X24606Y44508D1*
X24836Y44290D1*
X25004Y44021D1*
X25098Y43719D1*
X25118Y43500D1*
X25078Y43186D1*
X46566Y48439D2*
X46402Y48170D1*
X46347Y48127D1*
X46531Y47890D1*
X46623Y47500D1*
X46566Y47189D1*
X46402Y46920D1*
X46153Y46726D1*
X45851Y46633D1*
X45536Y46654D1*
X45249Y46786D1*
X45027Y47011D1*
X44900Y47300D1*
X44885Y47615D1*
X44982Y47915D1*
X45150Y48123D1*
X45027Y48261D1*
X44900Y48550D1*
X44885Y48865D1*
X44982Y49165D1*
X45150Y49373D1*
X45027Y49511D1*
X44900Y49800D1*
X44885Y50115D1*
X44982Y50415D1*
X45180Y50661D1*
X45453Y50821D1*
X45765Y50873D1*
X46074Y50810D1*
X46341Y50642D1*
X46531Y50390D1*
X46623Y50000D1*
X46566Y49689D1*
X46402Y49420D1*
X46347Y49377D1*
X46531Y49140D1*
X46623Y48750D1*
X46566Y48439D1*
X37855Y57586D2*
X37745Y57520D1*
X37433Y57478D1*
X37130Y57565D1*
X36886Y57765D1*
X36743Y58046D1*
X36724Y58361D1*
X36833Y58657D1*
X37050Y58885D1*
X37341Y59008D1*
X37656Y59004D1*
X37863Y58911D1*
X38102Y59008D1*
X38417Y59005D1*
X38704Y58875D1*
X38738Y58839D1*
X39102Y59008D1*
X39417Y59005D1*
X39704Y58875D1*
X39870Y58693D1*
X40061Y58886D1*
X40352Y59008D1*
X40667Y59005D1*
X40954Y58875D1*
X40988Y58839D1*
X41352Y59008D1*
X41667Y59005D1*
X41856Y58920D1*
X42102Y59008D1*
X42417Y59005D1*
X42704Y58875D1*
X42916Y58642D1*
X43017Y58343D1*
X43023Y58250D1*
X42958Y57941D1*
X42776Y57684D1*
X42506Y57521D1*
X42194Y57479D1*
X41883Y57572D1*
X41756Y57521D1*
X41444Y57479D1*
X41141Y57566D1*
X41011Y57672D1*
X40756Y57521D1*
X40444Y57479D1*
X40141Y57566D1*
X39897Y57766D1*
X39875Y57810D1*
X39776Y57684D1*
X39506Y57521D1*
X39194Y57479D1*
X38891Y57566D1*
X38761Y57672D1*
X38506Y57521D1*
X38194Y57479D1*
X37868Y57585D1*
X37741Y63087D2*
X37631Y63021D1*
X37319Y62979D1*
X37016Y63066D1*
X36772Y63266D1*
X36629Y63547D1*
X36610Y63862D1*
X36719Y64158D1*
X36936Y64386D1*
X37227Y64508D1*
X37542Y64505D1*
X37749Y64412D1*
X37988Y64509D1*
X38303Y64505D1*
X38590Y64376D1*
X38624Y64339D1*
X38988Y64509D1*
X39303Y64505D1*
X39590Y64376D1*
X39756Y64193D1*
X39947Y64387D1*
X40238Y64509D1*
X40553Y64505D1*
X40840Y64376D1*
X40874Y64339D1*
X41238Y64509D1*
X41553Y64505D1*
X41742Y64420D1*
X41988Y64509D1*
X42303Y64505D1*
X42590Y64376D1*
X42802Y64142D1*
X42903Y63844D1*
X42909Y63751D1*
X42844Y63442D1*
X42662Y63185D1*
X42392Y63022D1*
X42080Y62980D1*
X41769Y63073D1*
X41642Y63022D1*
X41330Y62980D1*
X41027Y63067D1*
X40897Y63173D1*
X40642Y63022D1*
X40330Y62980D1*
X40027Y63067D1*
X39783Y63267D1*
X39761Y63311D1*
X39662Y63185D1*
X39392Y63022D1*
X39080Y62980D1*
X38777Y63067D1*
X38647Y63173D1*
X38392Y63022D1*
X38080Y62980D1*
X37754Y63085D1*
X34798Y47595D2*
X34752Y47520D1*
X34503Y47326D1*
X34201Y47233D1*
X33886Y47254D1*
X33599Y47386D1*
X33377Y47611D1*
X33250Y47900D1*
X33235Y48215D1*
X33332Y48515D1*
X33530Y48761D1*
X33803Y48921D1*
X34115Y48973D1*
X34424Y48910D1*
X34691Y48742D1*
X34792Y48608D1*
X34930Y48761D1*
X35203Y48921D1*
X35515Y48973D1*
X35824Y48910D1*
X36091Y48742D1*
X36281Y48490D1*
X36373Y48100D1*
X36316Y47789D1*
X36152Y47520D1*
X35903Y47326D1*
X35601Y47233D1*
X35286Y47254D1*
X34999Y47386D1*
X34798Y47590D1*
X27470Y55648D2*
X29648D1*
Y53152D1*
X27152D1*
Y55648D1*
X27470D1*
X23270Y20848D2*
X25448D1*
Y18352D1*
X22952D1*
Y20848D1*
X23270D1*
X51270Y66448D2*
X53448D1*
Y63952D1*
X50952D1*
Y66448D1*
X51270D1*
X3525Y26971D2*
X3343Y26714D1*
X3073Y26551D1*
X2761Y26509D1*
X2458Y26595D1*
X2214Y26796D1*
X2071Y27077D1*
X2052Y27391D1*
X2161Y27687D1*
X2378Y27916D1*
X2669Y28038D1*
X2984Y28034D1*
X3271Y27905D1*
X3483Y27671D1*
X3584Y27373D1*
X3590Y27280D1*
X3525Y26971D1*
X3082Y37318D2*
X2900Y37061D1*
X2630Y36897D1*
X2318Y36856D1*
X2015Y36942D1*
X1771Y37143D1*
X1628Y37424D1*
X1609Y37738D1*
X1717Y38034D1*
X1935Y38263D1*
X2225Y38385D1*
X2541Y38381D1*
X2828Y38252D1*
X3040Y38018D1*
X3141Y37719D1*
X3147Y37626D1*
X3082Y37318D1*
X2308Y60191D2*
X2126Y59934D1*
X2050Y59888D1*
X2315Y59624D1*
X2416Y59326D1*
X2421Y59233D1*
X2357Y58924D1*
X2175Y58667D1*
X1905Y58504D1*
X1593Y58462D1*
X1289Y58549D1*
X1046Y58749D1*
X903Y59030D1*
X884Y59345D1*
X992Y59641D1*
X1189Y59847D1*
X997Y60016D1*
X854Y60297D1*
X835Y60612D1*
X944Y60908D1*
X1161Y61136D1*
X1452Y61258D1*
X1767Y61255D1*
X2054Y61125D1*
X2266Y60892D1*
X2367Y60593D1*
X2373Y60500D1*
X2308Y60191D1*
X9748Y31162D2*
X9566Y30905D1*
X9507Y30869D1*
X9604Y30573D1*
X9610Y30480D1*
X9545Y30171D1*
X9363Y29914D1*
X9093Y29751D1*
X8781Y29709D1*
X8478Y29796D1*
X8234Y29996D1*
X8091Y30277D1*
X8072Y30592D1*
X8180Y30888D1*
X8364Y31080D1*
X8294Y31268D1*
X8275Y31582D1*
X8384Y31878D1*
X8601Y32107D1*
X8892Y32229D1*
X9207Y32225D1*
X9494Y32096D1*
X9706Y31862D1*
X9807Y31564D1*
X9813Y31471D1*
X9748Y31162D1*
X22194Y19453D2*
X22012Y19195D1*
X21742Y19032D1*
X21430Y18990D1*
X21127Y19077D1*
X20883Y19277D1*
X20740Y19558D1*
X20721Y19873D1*
X20830Y20169D1*
X21047Y20397D1*
X21338Y20520D1*
X21653Y20516D1*
X21940Y20386D1*
X22152Y20153D1*
X22253Y19854D1*
X22259Y19761D1*
X22194Y19453D1*
X26208Y45891D2*
X26026Y45634D1*
X25756Y45471D1*
X25444Y45429D1*
X25141Y45516D1*
X24897Y45716D1*
X24754Y45997D1*
X24735Y46312D1*
X24844Y46608D1*
X25061Y46836D1*
X25352Y46958D1*
X25667Y46955D1*
X25954Y46825D1*
X26166Y46592D1*
X26267Y46293D1*
X26273Y46200D1*
X26208Y45891D1*
X10858Y38691D2*
X10676Y38434D1*
X10406Y38271D1*
X10094Y38229D1*
X9791Y38316D1*
X9547Y38516D1*
X9462Y38683D1*
X9276Y38434D1*
X9006Y38271D1*
X8694Y38229D1*
X8391Y38316D1*
X8147Y38516D1*
X8004Y38797D1*
X7985Y39112D1*
X8094Y39408D1*
X8311Y39636D1*
X8393Y39670D1*
X8147Y39866D1*
X8004Y40147D1*
X7985Y40462D1*
X8094Y40758D1*
X8311Y40986D1*
X8602Y41108D1*
X8917Y41105D1*
X9204Y40975D1*
X9416Y40742D1*
X9517Y40443D1*
X9523Y40350D1*
X9458Y40041D1*
X9276Y39784D1*
X9116Y39687D1*
X9204Y39625D1*
X9416Y39392D1*
X9445Y39308D1*
X9494Y39408D1*
X9711Y39636D1*
X10002Y39758D1*
X10317Y39755D1*
X10604Y39625D1*
X10816Y39392D1*
X10917Y39093D1*
X10923Y39000D1*
X10858Y38691D1*
X11943Y31084D2*
X11935Y31212D1*
X12044Y31508D1*
X12261Y31736D1*
X12552Y31858D1*
X12867Y31855D1*
X13154Y31725D1*
X13366Y31492D1*
X13467Y31193D1*
X13473Y31100D1*
X13411Y30801D1*
X13554Y30725D1*
X13766Y30492D1*
X13867Y30193D1*
X13873Y30100D1*
X13808Y29791D1*
X13626Y29534D1*
X13356Y29371D1*
X13044Y29329D1*
X12741Y29416D1*
X12497Y29616D1*
X12354Y29897D1*
X12338Y30163D1*
X12126Y29834D1*
X11856Y29671D1*
X11544Y29629D1*
X11241Y29716D1*
X10997Y29916D1*
X10854Y30197D1*
X10835Y30512D1*
X10944Y30808D1*
X11161Y31036D1*
X11452Y31158D1*
X11767Y31155D1*
X11920Y31086D1*
X27908Y18691D2*
X27726Y18434D1*
X27456Y18271D1*
X27144Y18229D1*
X26841Y18316D1*
X26597Y18516D1*
X26454Y18797D1*
X26435Y19112D1*
X26544Y19408D1*
X26761Y19636D1*
X27052Y19758D1*
X27367Y19755D1*
X27654Y19625D1*
X27866Y19392D1*
X27967Y19093D1*
X27973Y19000D1*
X27908Y18691D1*
X36723Y19859D2*
X36541Y19602D1*
X36271Y19439D1*
X35959Y19397D1*
X35656Y19483D1*
X35412Y19684D1*
X35269Y19965D1*
X35250Y20279D1*
X35358Y20575D1*
X35576Y20804D1*
X35866Y20926D1*
X36182Y20922D1*
X36469Y20793D1*
X36681Y20559D1*
X36782Y20261D1*
X36788Y20168D1*
X36723Y19859D1*
X36458Y28341D2*
X36276Y28084D1*
X36006Y27921D1*
X35694Y27879D1*
X35391Y27966D1*
X35147Y28166D1*
X35004Y28447D1*
X34985Y28762D1*
X35094Y29058D1*
X35311Y29286D1*
X35602Y29408D1*
X35917Y29405D1*
X36204Y29275D1*
X36416Y29042D1*
X36517Y28743D1*
X36523Y28650D1*
X36458Y28341D1*
X15397Y10620D2*
X21121D1*
Y7779D1*
X15079D1*
Y10620D1*
X15397D1*
X50015Y57386D2*
X49902Y57089D1*
X49722Y56829D1*
X49485Y56619D1*
X49204Y56472D1*
X48897Y56397D1*
X48580D1*
X48273Y56473D1*
X47992Y56621D1*
X47756Y56831D1*
X47576Y57092D1*
X47465Y57389D1*
X47427Y57703D1*
X47466Y58018D1*
X47579Y58313D1*
X47760Y58574D1*
X47998Y58783D1*
X48279Y58929D1*
X48586Y59004D1*
X48903Y59003D1*
X49210Y58926D1*
X49490Y58777D1*
X49726Y58566D1*
X49905Y58305D1*
X50016Y58008D1*
X50053Y57700D1*
X50015Y57386D1*
X23532Y25103D2*
X23423Y25037D1*
X23110Y24995D1*
X22807Y25082D1*
X22563Y25282D1*
X22420Y25563D1*
X22401Y25878D1*
X22510Y26174D1*
X22727Y26402D1*
X23018Y26525D1*
X23333Y26521D1*
X23620Y26391D1*
X23826Y26165D1*
X24052Y26258D1*
X24367Y26255D1*
X24654Y26125D1*
X24866Y25892D1*
X24967Y25593D1*
X24973Y25500D1*
X24908Y25191D1*
X24726Y24934D1*
X24456Y24771D1*
X24144Y24729D1*
X23841Y24816D1*
X23597Y25016D1*
X23557Y25095D1*
X10146Y24703D2*
X10026Y24534D1*
X9756Y24371D1*
X9444Y24329D1*
X9141Y24416D1*
X8897Y24616D1*
X8754Y24897D1*
X8735Y25212D1*
X8844Y25508D1*
X9061Y25736D1*
X9352Y25858D1*
X9667Y25855D1*
X9954Y25725D1*
X10146Y25513D1*
X10361Y25736D1*
X10652Y25858D1*
X10967Y25855D1*
X11254Y25725D1*
X11466Y25492D1*
X11567Y25193D1*
X11573Y25100D1*
X11508Y24791D1*
X11326Y24534D1*
X11056Y24371D1*
X10744Y24329D1*
X10441Y24416D1*
X10197Y24616D1*
X10157Y24695D1*
X9983Y15116D2*
X9801Y14858D1*
X9531Y14695D1*
X9218Y14654D1*
X8915Y14740D1*
X8672Y14940D1*
X8529Y15221D1*
X8510Y15536D1*
X8618Y15832D1*
X8836Y16060D1*
X9126Y16183D1*
X9441Y16179D1*
X9729Y16049D1*
X9941Y15816D1*
X10042Y15517D1*
X10047Y15424D1*
X9983Y15116D1*
X12068Y15090D2*
X11886Y14833D1*
X11616Y14670D1*
X11303Y14628D1*
X11000Y14715D1*
X10757Y14915D1*
X10614Y15196D1*
X10595Y15511D1*
X10703Y15807D1*
X10921Y16035D1*
X11211Y16157D1*
X11526Y16153D1*
X11814Y16024D1*
X12026Y15790D1*
X12127Y15492D1*
X12132Y15399D1*
X12068Y15090D1*
X15231Y14660D2*
X15049Y14402D1*
X14779Y14239D1*
X14466Y14197D1*
X14163Y14284D1*
X13920Y14484D1*
X13777Y14765D1*
X13758Y15080D1*
X13866Y15376D1*
X14084Y15604D1*
X14374Y15727D1*
X14689Y15723D1*
X14977Y15593D1*
X15189Y15360D1*
X15290Y15061D1*
X15295Y14968D1*
X15231Y14660D1*
X18475D2*
X18292Y14402D1*
X18023Y14239D1*
X17710Y14197D1*
X17407Y14284D1*
X17164Y14484D1*
X17021Y14765D1*
X17002Y15080D1*
X17110Y15376D1*
X17327Y15604D1*
X17618Y15727D1*
X17933Y15723D1*
X18221Y15593D1*
X18432Y15360D1*
X18533Y15061D1*
X18539Y14968D1*
X18475Y14660D1*
X14108Y44591D2*
X13926Y44334D1*
X13656Y44171D1*
X13344Y44129D1*
X13041Y44216D1*
X12797Y44416D1*
X12654Y44697D1*
X12635Y45012D1*
X12744Y45308D1*
X12961Y45536D1*
X13252Y45658D1*
X13567Y45655D1*
X13854Y45525D1*
X14066Y45292D1*
X14167Y44993D1*
X14173Y44900D1*
X14108Y44591D1*
X11535Y42694D2*
X11353Y42437D1*
X11083Y42274D1*
X10770Y42232D1*
X10467Y42319D1*
X10224Y42519D1*
X10081Y42800D1*
X10062Y43115D1*
X10170Y43411D1*
X10388Y43639D1*
X10678Y43761D1*
X10993Y43757D1*
X11281Y43628D1*
X11493Y43394D1*
X11594Y43096D1*
X11599Y43003D1*
X11535Y42694D1*
X36508Y4491D2*
X36326Y4234D1*
X36056Y4071D1*
X35744Y4029D1*
X35441Y4116D1*
X35197Y4316D1*
X35054Y4597D1*
X35035Y4912D1*
X35144Y5208D1*
X35361Y5436D1*
X35652Y5558D1*
X35967Y5555D1*
X36254Y5425D1*
X36466Y5192D1*
X36567Y4893D1*
X36573Y4800D1*
X36508Y4491D1*
X36708Y16091D2*
X36526Y15834D1*
X36256Y15671D1*
X35944Y15629D1*
X35641Y15716D1*
X35397Y15916D1*
X35254Y16197D1*
X35235Y16512D1*
X35344Y16808D1*
X35561Y17036D1*
X35852Y17158D1*
X36167Y17155D1*
X36454Y17025D1*
X36666Y16792D1*
X36767Y16493D1*
X36773Y16400D1*
X36708Y16091D1*
X36108Y24491D2*
X35926Y24234D1*
X35656Y24071D1*
X35344Y24029D1*
X35041Y24116D1*
X34797Y24316D1*
X34654Y24597D1*
X34635Y24912D1*
X34744Y25208D1*
X34961Y25436D1*
X35252Y25558D1*
X35567Y25555D1*
X35854Y25425D1*
X36066Y25192D1*
X36167Y24893D1*
X36173Y24800D1*
X36108Y24491D1*
X36408Y34491D2*
X36226Y34234D1*
X35956Y34071D1*
X35644Y34029D1*
X35341Y34116D1*
X35097Y34316D1*
X34954Y34597D1*
X34935Y34912D1*
X35044Y35208D1*
X35261Y35436D1*
X35552Y35558D1*
X35867Y35555D1*
X36154Y35425D1*
X36366Y35192D1*
X36467Y34893D1*
X36473Y34800D1*
X36408Y34491D1*
X3208Y21689D2*
X3026Y21431D1*
X2756Y21268D1*
X2444Y21227D1*
X2141Y21313D1*
X1897Y21514D1*
X1754Y21794D1*
X1735Y22109D1*
X1844Y22405D1*
X2061Y22633D1*
X2352Y22756D1*
X2667Y22752D1*
X2954Y22622D1*
X3166Y22389D1*
X3267Y22090D1*
X3273Y21997D1*
X3208Y21689D1*
X21600Y28739D2*
X21526Y28634D1*
X21256Y28471D1*
X20944Y28429D1*
X20641Y28516D1*
X20397Y28716D1*
X20254Y28997D1*
X20235Y29312D1*
X20344Y29608D1*
X20561Y29836D1*
X20852Y29958D1*
X21118Y29955D1*
X21311Y30136D1*
X21602Y30258D1*
X21917Y30255D1*
X22204Y30125D1*
X22416Y29892D1*
X22517Y29593D1*
X22523Y29500D1*
X22458Y29191D1*
X22276Y28934D1*
X22006Y28771D1*
X21694Y28729D1*
X21628Y28748D1*
X11688Y19191D2*
X11505Y18934D1*
X11235Y18771D1*
X10923Y18729D1*
X10620Y18816D1*
X10376Y19016D1*
X10233Y19297D1*
X10214Y19612D1*
X10323Y19908D1*
X10540Y20136D1*
X10831Y20258D1*
X11146Y20255D1*
X11433Y20125D1*
X11645Y19892D1*
X11746Y19593D1*
X11752Y19500D1*
X11688Y19191D1*
X16740Y26113D2*
X16114D1*
X15806Y26206D1*
X15695Y26295D1*
X15542Y26569D1*
X15557Y26882D1*
X15734Y27141D1*
X16021Y27267D1*
X16799Y27259D1*
X16847Y27301D1*
X17138Y27423D1*
X17453Y27419D1*
X17740Y27290D1*
X17952Y27056D1*
X18053Y26758D1*
X18059Y26665D1*
X17994Y26356D1*
X17812Y26099D1*
X17542Y25936D1*
X17230Y25894D1*
X16927Y25981D1*
X16767Y26112D1*
X10958Y60191D2*
X10776Y59934D1*
X10506Y59771D1*
X10194Y59729D1*
X9891Y59816D1*
X9647Y60016D1*
X9504Y60297D1*
X9485Y60612D1*
X9594Y60908D1*
X9811Y61136D1*
X10102Y61258D1*
X10417Y61255D1*
X10704Y61125D1*
X10916Y60892D1*
X11017Y60593D1*
X11023Y60500D1*
X10958Y60191D1*
Y53691D2*
X10776Y53434D1*
X10506Y53271D1*
X10194Y53229D1*
X9891Y53316D1*
X9647Y53516D1*
X9504Y53797D1*
X9485Y54112D1*
X9594Y54408D1*
X9811Y54636D1*
X10102Y54758D1*
X10417Y54755D1*
X10704Y54625D1*
X10916Y54392D1*
X11017Y54093D1*
X11023Y54000D1*
X10958Y53691D1*
Y47191D2*
X10776Y46934D1*
X10506Y46771D1*
X10194Y46729D1*
X9891Y46816D1*
X9647Y47016D1*
X9504Y47297D1*
X9485Y47612D1*
X9594Y47908D1*
X9811Y48136D1*
X10102Y48258D1*
X10417Y48255D1*
X10704Y48125D1*
X10916Y47892D1*
X11017Y47593D1*
X11023Y47500D1*
X10958Y47191D1*
X7708Y45891D2*
X7526Y45634D1*
X7256Y45471D1*
X6944Y45429D1*
X6641Y45516D1*
X6397Y45716D1*
X6254Y45997D1*
X6235Y46312D1*
X6344Y46608D1*
X6561Y46836D1*
X6852Y46958D1*
X7167Y46955D1*
X7454Y46825D1*
X7666Y46592D1*
X7767Y46293D1*
X7773Y46200D1*
X7708Y45891D1*
X6771Y42714D2*
X6591Y42766D1*
X6347Y42966D1*
X6204Y43247D1*
X6185Y43562D1*
X6294Y43858D1*
X6511Y44086D1*
X6802Y44208D1*
X7117Y44205D1*
X7404Y44075D1*
X7616Y43842D1*
X7717Y43543D1*
X7713Y43402D1*
X8004Y43275D1*
X8216Y43042D1*
X8317Y42743D1*
X8323Y42650D1*
X8258Y42341D1*
X8076Y42084D1*
X7806Y41921D1*
X7494Y41879D1*
X7191Y41966D1*
X6947Y42166D1*
X6804Y42447D1*
X6789Y42693D1*
X8235Y35023D2*
X8106Y35129D1*
X7963Y35410D1*
X7944Y35725D1*
X8052Y36021D1*
X8168Y36142D1*
X8079Y36186D1*
X7836Y36387D1*
X7693Y36668D1*
X7674Y36982D1*
X7782Y37279D1*
X8000Y37507D1*
X8290Y37629D1*
X8606Y37625D1*
X8893Y37496D1*
X9105Y37262D1*
X9206Y36964D1*
X9211Y36871D1*
X9147Y36562D1*
X8982Y36329D1*
X9163Y36238D1*
X9375Y36005D1*
X9476Y35706D1*
X9471Y35565D1*
X9666Y35342D1*
X9767Y35043D1*
X9773Y34950D1*
X9708Y34641D1*
X9526Y34384D1*
X9256Y34221D1*
X8944Y34179D1*
X8641Y34266D1*
X8397Y34466D1*
X8254Y34747D1*
X8239Y34993D1*
X8008Y33091D2*
X7826Y32834D1*
X7556Y32671D1*
X7244Y32629D1*
X6941Y32716D1*
X6697Y32916D1*
X6554Y33197D1*
X6535Y33512D1*
X6644Y33808D1*
X6861Y34036D1*
X7152Y34158D1*
X7467Y34155D1*
X7754Y34025D1*
X7966Y33792D1*
X8067Y33493D1*
X8073Y33400D1*
X8008Y33091D1*
X10408Y7591D2*
X10226Y7334D1*
X9956Y7171D1*
X9644Y7129D1*
X9341Y7216D1*
X9097Y7416D1*
X8954Y7697D1*
X8935Y8012D1*
X9044Y8308D1*
X9261Y8536D1*
X9552Y8658D1*
X9867Y8655D1*
X10154Y8525D1*
X10366Y8292D1*
X10467Y7993D1*
X10473Y7900D1*
X10408Y7591D1*
X29008Y4491D2*
X28826Y4234D1*
X28556Y4071D1*
X28244Y4029D1*
X27941Y4116D1*
X27697Y4316D1*
X27554Y4597D1*
X27535Y4912D1*
X27644Y5208D1*
X27861Y5436D1*
X28152Y5558D1*
X28467Y5555D1*
X28754Y5425D1*
X28966Y5192D1*
X29067Y4893D1*
X29073Y4800D1*
X29008Y4491D1*
X20808Y2191D2*
X20626Y1934D1*
X20356Y1771D1*
X20044Y1729D1*
X19741Y1816D1*
X19497Y2016D1*
X19354Y2297D1*
X19335Y2612D1*
X19444Y2908D1*
X19661Y3136D1*
X19952Y3258D1*
X20267Y3255D1*
X20554Y3125D1*
X20766Y2892D1*
X20867Y2593D1*
X20873Y2500D1*
X20808Y2191D1*
X44458Y59089D2*
X44301Y58815D1*
X44059Y58611D1*
X43763Y58502D1*
X43447Y58500D1*
X43149Y58606D1*
X42906Y58807D1*
X42745Y59079D1*
X42687Y59390D1*
X42738Y59702D1*
X42893Y59977D1*
X43132Y60184D1*
X43427Y60296D1*
X43743Y60302D1*
X44042Y60199D1*
X44288Y60000D1*
X44451Y59730D1*
X44513Y59400D1*
X44458Y59089D1*
X34058Y60389D2*
X33901Y60115D1*
X33659Y59911D1*
X33363Y59802D1*
X33047Y59800D1*
X32749Y59906D1*
X32506Y60107D1*
X32345Y60379D1*
X32287Y60690D1*
X32338Y61002D1*
X32493Y61277D1*
X32732Y61484D1*
X33027Y61596D1*
X33343Y61602D1*
X33642Y61499D1*
X33888Y61300D1*
X34051Y61030D1*
X34113Y60700D1*
X34058Y60389D1*
X25708Y3391D2*
X25526Y3134D1*
X25256Y2971D1*
X24944Y2929D1*
X24641Y3016D1*
X24397Y3216D1*
X24254Y3497D1*
X24235Y3812D1*
X24344Y4108D1*
X24561Y4336D1*
X24852Y4458D1*
X25167Y4455D1*
X25454Y4325D1*
X25666Y4092D1*
X25767Y3793D1*
X25773Y3700D1*
X25708Y3391D1*
X15958Y29091D2*
X15776Y28834D1*
X15506Y28671D1*
X15194Y28629D1*
X14891Y28716D1*
X14647Y28916D1*
X14504Y29197D1*
X14485Y29512D1*
X14594Y29808D1*
X14811Y30036D1*
X15102Y30158D1*
X15417Y30155D1*
X15704Y30025D1*
X15916Y29792D1*
X16017Y29493D1*
X16023Y29400D1*
X15958Y29091D1*
X8208Y25791D2*
X8026Y25534D1*
X7756Y25371D1*
X7444Y25329D1*
X7141Y25416D1*
X6897Y25616D1*
X6754Y25897D1*
X6735Y26212D1*
X6844Y26508D1*
X7061Y26736D1*
X7352Y26858D1*
X7667Y26855D1*
X7954Y26725D1*
X8166Y26492D1*
X8267Y26193D1*
X8273Y26100D1*
X8208Y25791D1*
X36412Y58061D2*
X36230Y57803D1*
X35960Y57640D1*
X35647Y57598D1*
X35344Y57685D1*
X35101Y57885D1*
X34958Y58166D1*
X34939Y58481D1*
X35047Y58777D1*
X35264Y59005D1*
X35555Y59128D1*
X35870Y59124D1*
X36158Y58994D1*
X36370Y58761D1*
X36471Y58462D1*
X36476Y58369D1*
X36412Y58061D1*
X15958Y29091D2*
X15776Y28834D1*
X15506Y28671D1*
X15194Y28629D1*
X14891Y28716D1*
X14647Y28916D1*
X14504Y29197D1*
X14485Y29512D1*
X14594Y29808D1*
X14811Y30036D1*
X15102Y30158D1*
X15417Y30155D1*
X15704Y30025D1*
X15916Y29792D1*
X16017Y29493D1*
X16023Y29400D1*
X15958Y29091D1*
X36412Y58061D2*
X36230Y57803D1*
X35960Y57640D1*
X35647Y57598D1*
X35344Y57685D1*
X35101Y57885D1*
X34958Y58166D1*
X34939Y58481D1*
X35047Y58777D1*
X35264Y59005D1*
X35555Y59128D1*
X35870Y59124D1*
X36158Y58994D1*
X36370Y58761D1*
X36471Y58462D1*
X36476Y58369D1*
X36412Y58061D1*
X29608Y40141D2*
X29426Y39884D1*
X29156Y39721D1*
X28844Y39679D1*
X28541Y39766D1*
X28297Y39966D1*
X28154Y40247D1*
X28135Y40562D1*
X28244Y40858D1*
X28461Y41086D1*
X28752Y41208D1*
X29067Y41205D1*
X29354Y41075D1*
X29566Y40842D1*
X29667Y40543D1*
X29673Y40450D1*
X29608Y40141D1*
X20608Y31141D2*
X20426Y30884D1*
X20156Y30721D1*
X19844Y30679D1*
X19541Y30766D1*
X19297Y30966D1*
X19154Y31247D1*
X19135Y31562D1*
X19244Y31858D1*
X19461Y32086D1*
X19752Y32208D1*
X20067Y32205D1*
X20354Y32075D1*
X20566Y31842D1*
X20667Y31543D1*
X20673Y31450D1*
X20608Y31141D1*
X15108Y35291D2*
X14926Y35034D1*
X14656Y34871D1*
X14344Y34829D1*
X14041Y34916D1*
X13797Y35116D1*
X13654Y35397D1*
X13645Y35545D1*
X13441Y35616D1*
X13197Y35816D1*
X13054Y36097D1*
X13035Y36412D1*
X13144Y36708D1*
X13361Y36936D1*
X13652Y37058D1*
X13967Y37055D1*
X14254Y36925D1*
X14466Y36692D1*
X14569Y36355D1*
X14632Y36522D1*
X14613Y36837D1*
X14657Y36957D1*
X14445Y37034D1*
X14202Y37234D1*
X14059Y37515D1*
X14040Y37830D1*
X14148Y38126D1*
X14365Y38354D1*
X14656Y38477D1*
X14971Y38473D1*
X15259Y38343D1*
X15471Y38110D1*
X15572Y37811D1*
X15577Y37718D1*
X15527Y37477D1*
X15832Y37350D1*
X16044Y37117D1*
X16145Y36818D1*
X16150Y36725D1*
X16086Y36416D1*
X15904Y36159D1*
X15634Y35996D1*
X15321Y35954D1*
X15047Y36033D1*
X15167Y35693D1*
X15173Y35600D1*
X15108Y35291D1*
X31708Y40941D2*
X31526Y40684D1*
X31256Y40521D1*
X30944Y40479D1*
X30641Y40566D1*
X30397Y40766D1*
X30254Y41047D1*
X30235Y41362D1*
X30344Y41658D1*
X30561Y41886D1*
X30852Y42008D1*
X31167Y42005D1*
X31454Y41875D1*
X31666Y41642D1*
X31767Y41343D1*
X31773Y41250D1*
X31708Y40941D1*
X15003Y68747D2*
D20*
X17497Y66253D1*
Y68747D2*
X15003Y66253D1*
Y48747D2*
X17497Y46253D1*
Y48747D2*
X15003Y46253D1*
X17909Y48381D2*
X19671Y46619D1*
Y48381D2*
X17909Y46619D1*
X20449Y48381D2*
X22211Y46619D1*
Y48381D2*
X20449Y46619D1*
X22989Y48381D2*
X24751Y46619D1*
Y48381D2*
X22989Y46619D1*
X38875Y43551D2*
D19*
X64972D1*
X68631D2*
X71123D1*
X38875Y42919D2*
X64793D1*
X68810D2*
X71123D1*
X38875Y42288D2*
X64823D1*
X68780D2*
X71123D1*
X38875Y41656D2*
X65081D1*
X68522D2*
X71123D1*
X38875Y41024D2*
X64773D1*
X68819D2*
X71123D1*
X38875Y40393D2*
X64773D1*
X68819D2*
X71133D1*
X38865Y39761D2*
X64773D1*
X68819D2*
X71133D1*
X38865Y39129D2*
X64773D1*
X68819D2*
X71133D1*
X38865Y38498D2*
X64773D1*
X68819D2*
X71133D1*
X38865Y37866D2*
X64773D1*
X68819D2*
X71133D1*
X38865Y37234D2*
X65517D1*
X68085D2*
X71133D1*
X38865Y36602D2*
X65002D1*
X68601D2*
X71133D1*
X38865Y35971D2*
X48829D1*
X50067D2*
X64793D1*
X68800D2*
X71143D1*
X38855Y35339D2*
X48243D1*
X50662D2*
X64813D1*
X68790D2*
X71143D1*
X38855Y34708D2*
X48154D1*
X50742D2*
X65051D1*
X68552D2*
X71143D1*
X38855Y34076D2*
X48422D1*
X50474D2*
X64773D1*
X68819D2*
X71143D1*
X38855Y33444D2*
X39959D1*
X41435D2*
X64773D1*
X68819D2*
X71143D1*
X38855Y32812D2*
X39463D1*
X41931D2*
X64773D1*
X68819D2*
X71143D1*
X38855Y32181D2*
X39413D1*
X41991D2*
X64773D1*
X68819D2*
X71143D1*
X38855Y31549D2*
X39731D1*
X41673D2*
X64773D1*
X68819D2*
X71153D1*
X38845Y30918D2*
X64773D1*
X68819D2*
X71153D1*
X38845Y30286D2*
X64773D1*
X68819D2*
X71153D1*
X38845Y29654D2*
X65021D1*
X68571D2*
X71153D1*
X38845Y29022D2*
X64803D1*
X68800D2*
X71153D1*
X38845Y28391D2*
X64803D1*
X68800D2*
X71153D1*
X38845Y27759D2*
X65021D1*
X68581D2*
X71153D1*
X38845Y27127D2*
X64773D1*
X68819D2*
X71163D1*
X38836Y26496D2*
X64773D1*
X68819D2*
X71163D1*
X38836Y25864D2*
X48650D1*
X50246D2*
X64773D1*
X68819D2*
X71163D1*
X38836Y25232D2*
X48204D1*
X50702D2*
X64773D1*
X68819D2*
X71163D1*
X38836Y24601D2*
X48174D1*
X50732D2*
X64773D1*
X68819D2*
X71163D1*
X38836Y23969D2*
X48521D1*
X50385D2*
X64773D1*
X68819D2*
X71163D1*
X38836Y23337D2*
X39820D1*
X41584D2*
X64773D1*
X68819D2*
X71163D1*
X38826Y22706D2*
X39433D1*
X41971D2*
X65051D1*
X68542D2*
X71173D1*
X38826Y22074D2*
X39433D1*
X41961D2*
X64813D1*
X68790D2*
X71173D1*
X38826Y21442D2*
X39840D1*
X41554D2*
X58999D1*
X62509D2*
X64793D1*
X68810D2*
X71173D1*
X38826Y20811D2*
X58999D1*
X62509D2*
X64992D1*
X68611D2*
X71173D1*
X38826Y20179D2*
X58999D1*
X62509D2*
X65498D1*
X68095D2*
X71173D1*
X38826Y19547D2*
X58999D1*
X62509D2*
X64773D1*
X68819D2*
X71173D1*
X38826Y18916D2*
X58999D1*
X62509D2*
X64773D1*
X68819D2*
X71173D1*
X38816Y18284D2*
X39810D1*
X41792D2*
X59207D1*
X62291D2*
X64773D1*
X68819D2*
X71183D1*
X38816Y17652D2*
X39512D1*
X42090D2*
X59009D1*
X62499D2*
X64773D1*
X68819D2*
X71183D1*
X38816Y17021D2*
X39572D1*
X42030D2*
X59048D1*
X62450D2*
X64773D1*
X68819D2*
X71183D1*
X38816Y16389D2*
X40108D1*
X41495D2*
X59376D1*
X62122D2*
X64773D1*
X68819D2*
X71183D1*
X38816Y15757D2*
X48531D1*
X50375D2*
X59217D1*
X62281D2*
X65091D1*
X68512D2*
X71183D1*
X38816Y15126D2*
X48174D1*
X50732D2*
X59009D1*
X62489D2*
X64823D1*
X68780D2*
X71183D1*
X38816Y14494D2*
X48204D1*
X50702D2*
X59048D1*
X62450D2*
X64793D1*
X68810D2*
X71193D1*
X38806Y13863D2*
X48650D1*
X50256D2*
X59366D1*
X62132D2*
X64962D1*
X68631D2*
X71193D1*
X38806Y13231D2*
X39810D1*
X41634D2*
X65438D1*
X68155D2*
X71193D1*
X38806Y12599D2*
X39443D1*
X42001D2*
X64773D1*
X68819D2*
X71193D1*
X38806Y11968D2*
X39473D1*
X41981D2*
X58929D1*
X62440D2*
X64773D1*
X68819D2*
X71193D1*
X38806Y11336D2*
X39909D1*
X41534D2*
X58929D1*
X62440D2*
X64773D1*
X68819D2*
X71193D1*
X38806Y10704D2*
X58929D1*
X62440D2*
X64773D1*
X68819D2*
X71193D1*
X38806Y10073D2*
X58929D1*
X62440D2*
X64773D1*
X68819D2*
X71203D1*
X38796Y9441D2*
X58929D1*
X62440D2*
X64773D1*
X68819D2*
X71203D1*
X38796Y8809D2*
X59038D1*
X62331D2*
X71203D1*
X38796Y8178D2*
X39770D1*
X41832D2*
X58929D1*
X62440D2*
X71203D1*
X38796Y7546D2*
X39502D1*
X42100D2*
X59068D1*
X62311D2*
X66252D1*
X70248D2*
X71203D1*
X38796Y6914D2*
X39592D1*
X42011D2*
X59475D1*
X61894D2*
X65448D1*
X38796Y6283D2*
X40197D1*
X41405D2*
X59048D1*
X62331D2*
X64952D1*
X38796Y5651D2*
X48432D1*
X50474D2*
X58929D1*
X62440D2*
X64634D1*
X38786Y5019D2*
X48154D1*
X50742D2*
X59058D1*
X62311D2*
X64446D1*
X38786Y4388D2*
X48234D1*
X50662D2*
X59515D1*
X61854D2*
X64367D1*
X38786Y3756D2*
X48819D1*
X50087D2*
X64396D1*
X38786Y3124D2*
X39770D1*
X41792D2*
X64535D1*
X38786Y2493D2*
X39482D1*
X42070D2*
X64793D1*
X38786Y1861D2*
X39562D1*
X42001D2*
X65210D1*
X65801Y1320D2*
X65407Y1697D1*
X65024Y2202D1*
X64730Y2764D1*
X64533Y3367D1*
X64438Y3994D1*
X64448Y4628D1*
X64563Y5252D1*
X64780Y5848D1*
X65092Y6400D1*
X65491Y6893D1*
X65966Y7313D1*
X66504Y7649D1*
X67091Y7891D1*
X67709Y8032D1*
X68342Y8070D1*
X68973Y8002D1*
X69584Y7831D1*
X70158Y7561D1*
X70679Y7199D1*
X71133Y6757D1*
X71276Y6579D1*
X71261Y10524D1*
X71183Y44183D1*
X68077D1*
X68405Y43823D1*
X68565Y43549D1*
X68679Y43253D1*
X68744Y42943D1*
X68759Y42700D1*
X68733Y42384D1*
X68657Y42076D1*
X68532Y41785D1*
X68361Y41517D1*
X68150Y41281D1*
X68016Y41159D1*
X68759D1*
Y37241D1*
X68015D1*
X68203Y37067D1*
X68405Y36823D1*
X68565Y36549D1*
X68679Y36253D1*
X68744Y35943D1*
X68759Y35700D1*
X68733Y35384D1*
X68657Y35076D1*
X68532Y34785D1*
X68361Y34517D1*
X68150Y34281D1*
X68016Y34159D1*
X68759D1*
Y30241D1*
X68015D1*
X68203Y30067D1*
X68405Y29823D1*
X68565Y29549D1*
X68679Y29253D1*
X68744Y28943D1*
X68759Y28700D1*
X68733Y28384D1*
X68657Y28076D1*
X68532Y27785D1*
X68361Y27517D1*
X68150Y27281D1*
X68016Y27159D1*
X68759D1*
Y23241D1*
X68015D1*
X68203Y23067D1*
X68405Y22823D1*
X68565Y22549D1*
X68679Y22253D1*
X68744Y21943D1*
X68759Y21700D1*
X68733Y21384D1*
X68657Y21076D1*
X68532Y20785D1*
X68361Y20517D1*
X68150Y20281D1*
X68016Y20159D1*
X68759D1*
Y16241D1*
X68015D1*
X68203Y16067D1*
X68405Y15823D1*
X68565Y15549D1*
X68679Y15253D1*
X68744Y14943D1*
X68759Y14700D1*
X68733Y14384D1*
X68657Y14076D1*
X68532Y13785D1*
X68361Y13517D1*
X68150Y13281D1*
X68016Y13159D1*
X68759D1*
Y9241D1*
X64841D1*
Y13159D1*
X65585D1*
X65315Y13423D1*
X65128Y13679D1*
X64985Y13962D1*
X64890Y14265D1*
X64845Y14579D1*
X64851Y14896D1*
X64908Y15208D1*
X65015Y15506D1*
X65168Y15784D1*
X65364Y16033D1*
X65584Y16241D1*
X64841D1*
Y20159D1*
X65585D1*
X65315Y20423D1*
X65128Y20679D1*
X64985Y20962D1*
X64890Y21265D1*
X64845Y21579D1*
X64851Y21896D1*
X64908Y22208D1*
X65015Y22506D1*
X65168Y22784D1*
X65364Y23033D1*
X65584Y23241D1*
X64841D1*
Y27159D1*
X65585D1*
X65315Y27423D1*
X65128Y27679D1*
X64985Y27962D1*
X64890Y28265D1*
X64845Y28579D1*
X64851Y28896D1*
X64908Y29208D1*
X65015Y29506D1*
X65168Y29784D1*
X65364Y30033D1*
X65584Y30241D1*
X64841D1*
Y34159D1*
X65585D1*
X65315Y34423D1*
X65128Y34679D1*
X64985Y34962D1*
X64890Y35265D1*
X64845Y35579D1*
X64851Y35896D1*
X64908Y36208D1*
X65015Y36506D1*
X65168Y36784D1*
X65364Y37033D1*
X65584Y37241D1*
X64841D1*
Y41159D1*
X65585D1*
X65315Y41423D1*
X65128Y41679D1*
X64985Y41962D1*
X64890Y42265D1*
X64845Y42579D1*
X64851Y42896D1*
X64908Y43208D1*
X65015Y43506D1*
X65168Y43784D1*
X65364Y44033D1*
X65533Y44187D1*
X56577Y44183D1*
X38817Y44182D1*
X38718Y1309D1*
X40037Y1318D1*
X39745Y1632D1*
X39604Y1915D1*
X39540Y2225D1*
X39556Y2542D1*
X39652Y2843D1*
X39821Y3111D1*
X40052Y3328D1*
X40330Y3479D1*
X40638Y3555D1*
X40954Y3551D1*
X41259Y3466D1*
X41534Y3308D1*
X41759Y3085D1*
X41920Y2813D1*
X42008Y2509D1*
X42022Y2320D1*
X41982Y2006D1*
X41864Y1712D1*
X41675Y1458D1*
X41497Y1316D1*
X65794Y1318D1*
X59121Y21693D2*
X62443D1*
Y18307D1*
X62215D1*
X62376Y17931D1*
X62443Y17460D1*
X62413Y17144D1*
X62325Y16840D1*
X62182Y16557D1*
X61988Y16306D1*
X61875Y16185D1*
X62091Y15954D1*
X62260Y15685D1*
X62376Y15391D1*
X62443Y14920D1*
X62413Y14604D1*
X62325Y14300D1*
X62182Y14017D1*
X61988Y13766D1*
X61752Y13555D1*
X61479Y13392D1*
X61182Y13283D1*
X60869Y13231D1*
X60552Y13239D1*
X60242Y13305D1*
X59950Y13428D1*
X59686Y13603D1*
X59459Y13825D1*
X59277Y14085D1*
X59148Y14374D1*
X59074Y14682D1*
X59059Y14999D1*
X59103Y15313D1*
X59205Y15613D1*
X59362Y15889D1*
X59636Y16187D1*
X59459Y16365D1*
X59277Y16625D1*
X59148Y16914D1*
X59074Y17222D1*
X59059Y17539D1*
X59103Y17853D1*
X59205Y18153D1*
X59289Y18300D1*
X59057Y18307D1*
Y21693D1*
X59121D1*
X59059Y12442D2*
X62381D1*
Y9056D1*
X62153D1*
X62315Y8679D1*
X62381Y8209D1*
X62352Y7893D1*
X62264Y7588D1*
X62121Y7306D1*
X61927Y7054D1*
X61813Y6934D1*
X62029Y6702D1*
X62199Y6434D1*
X62315Y6139D1*
X62381Y5669D1*
X62352Y5353D1*
X62264Y5048D1*
X62121Y4766D1*
X61927Y4514D1*
X61690Y4304D1*
X61418Y4141D1*
X61120Y4032D1*
X60808Y3980D1*
X60491Y3987D1*
X60181Y4054D1*
X59889Y4177D1*
X59624Y4352D1*
X59398Y4574D1*
X59216Y4833D1*
X59086Y5123D1*
X59012Y5431D1*
X58998Y5748D1*
X59042Y6062D1*
X59144Y6362D1*
X59300Y6638D1*
X59575Y6936D1*
X59398Y7114D1*
X59216Y7373D1*
X59086Y7663D1*
X59012Y7971D1*
X58998Y8288D1*
X59042Y8602D1*
X59144Y8902D1*
X59227Y9048D1*
X58996Y9056D1*
Y12442D1*
X59059D1*
X50653Y34546D2*
X50534Y34252D1*
X50345Y33998D1*
X50099Y33800D1*
X49810Y33670D1*
X49497Y33618D1*
X49182Y33646D1*
X48884Y33753D1*
X48623Y33932D1*
X48415Y34172D1*
X48275Y34455D1*
X48211Y34765D1*
X48227Y35082D1*
X48323Y35383D1*
X48492Y35651D1*
X48723Y35868D1*
X49001Y36019D1*
X49308Y36095D1*
X49625Y36091D1*
X49930Y36006D1*
X50204Y35848D1*
X50429Y35625D1*
X50591Y35353D1*
X50679Y35049D1*
X50693Y34860D1*
X50653Y34546D1*
Y24546D2*
X50534Y24252D1*
X50345Y23998D1*
X50099Y23800D1*
X49810Y23670D1*
X49497Y23618D1*
X49182Y23646D1*
X48884Y23753D1*
X48623Y23932D1*
X48415Y24172D1*
X48275Y24455D1*
X48211Y24765D1*
X48227Y25082D1*
X48323Y25383D1*
X48492Y25651D1*
X48723Y25868D1*
X49001Y26019D1*
X49308Y26095D1*
X49625Y26091D1*
X49930Y26006D1*
X50204Y25848D1*
X50429Y25625D1*
X50591Y25353D1*
X50679Y25049D1*
X50693Y24860D1*
X50653Y24546D1*
Y14546D2*
X50534Y14252D1*
X50345Y13998D1*
X50099Y13800D1*
X49810Y13670D1*
X49497Y13618D1*
X49182Y13646D1*
X48884Y13753D1*
X48623Y13932D1*
X48415Y14172D1*
X48275Y14455D1*
X48211Y14765D1*
X48227Y15082D1*
X48323Y15383D1*
X48492Y15651D1*
X48723Y15868D1*
X49001Y16019D1*
X49308Y16095D1*
X49625Y16091D1*
X49930Y16006D1*
X50204Y15848D1*
X50429Y15625D1*
X50591Y15353D1*
X50679Y15049D1*
X50693Y14860D1*
X50653Y14546D1*
Y4546D2*
X50534Y4252D1*
X50345Y3998D1*
X50099Y3800D1*
X49810Y3670D1*
X49497Y3618D1*
X49182Y3646D1*
X48884Y3753D1*
X48623Y3932D1*
X48415Y4172D1*
X48275Y4455D1*
X48211Y4765D1*
X48227Y5082D1*
X48323Y5383D1*
X48492Y5651D1*
X48723Y5868D1*
X49001Y6019D1*
X49308Y6095D1*
X49625Y6091D1*
X49930Y6006D1*
X50204Y5848D1*
X50429Y5625D1*
X50591Y5353D1*
X50679Y5049D1*
X50693Y4860D1*
X50653Y4546D1*
X41925Y12012D2*
X41807Y11718D1*
X41618Y11464D1*
X41371Y11266D1*
X41082Y11136D1*
X40770Y11084D1*
X40455Y11113D1*
X40157Y11220D1*
X39895Y11399D1*
X39688Y11638D1*
X39548Y11921D1*
X39483Y12232D1*
X39500Y12548D1*
X39595Y12850D1*
X39764Y13117D1*
X39995Y13334D1*
X40274Y13485D1*
X40581Y13561D1*
X40898Y13557D1*
X41203Y13473D1*
X41477Y13314D1*
X41702Y13091D1*
X41864Y12819D1*
X41951Y12515D1*
X41966Y12326D1*
X41925Y12012D1*
X41903Y22086D2*
X41784Y21792D1*
X41595Y21538D1*
X41349Y21340D1*
X41060Y21210D1*
X40747Y21158D1*
X40432Y21186D1*
X40134Y21293D1*
X39873Y21472D1*
X39665Y21712D1*
X39525Y21995D1*
X39461Y22305D1*
X39477Y22622D1*
X39573Y22923D1*
X39742Y23191D1*
X39973Y23408D1*
X40251Y23559D1*
X40558Y23635D1*
X40875Y23631D1*
X41180Y23546D1*
X41454Y23388D1*
X41679Y23165D1*
X41841Y22893D1*
X41929Y22589D1*
X41943Y22400D1*
X41903Y22086D1*
Y32086D2*
X41784Y31792D1*
X41595Y31538D1*
X41349Y31340D1*
X41060Y31210D1*
X40747Y31158D1*
X40432Y31186D1*
X40134Y31293D1*
X39873Y31472D1*
X39665Y31712D1*
X39525Y31995D1*
X39461Y32305D1*
X39477Y32622D1*
X39573Y32923D1*
X39742Y33191D1*
X39973Y33408D1*
X40251Y33559D1*
X40558Y33635D1*
X40875Y33631D1*
X41180Y33546D1*
X41454Y33388D1*
X41679Y33165D1*
X41841Y32893D1*
X41929Y32589D1*
X41943Y32400D1*
X41903Y32086D1*
X42003Y7086D2*
X41884Y6792D1*
X41695Y6538D1*
X41449Y6340D1*
X41160Y6210D1*
X40847Y6158D1*
X40532Y6186D1*
X40234Y6293D1*
X39973Y6472D1*
X39765Y6712D1*
X39625Y6995D1*
X39561Y7305D1*
X39577Y7622D1*
X39673Y7923D1*
X39842Y8191D1*
X40073Y8408D1*
X40351Y8559D1*
X40658Y8635D1*
X40975Y8631D1*
X41280Y8546D1*
X41554Y8388D1*
X41779Y8165D1*
X41941Y7893D1*
X42029Y7589D1*
X42043Y7400D1*
X42003Y7086D1*
Y17146D2*
X41884Y16852D1*
X41695Y16598D1*
X41449Y16400D1*
X41160Y16270D1*
X40847Y16218D1*
X40532Y16246D1*
X40234Y16353D1*
X39973Y16532D1*
X39765Y16772D1*
X39625Y17055D1*
X39561Y17365D1*
X39577Y17682D1*
X39673Y17983D1*
X39842Y18251D1*
X40073Y18468D1*
X40351Y18619D1*
X40658Y18695D1*
X40975Y18691D1*
X41280Y18606D1*
X41554Y18448D1*
X41779Y18225D1*
X41941Y17953D1*
X42029Y17649D1*
X42043Y17460D1*
X42003Y17146D1*
X59058Y21692D2*
D20*
X62442Y18308D1*
Y21692D2*
X59058Y18308D1*
X58997Y12441D2*
X62381Y9057D1*
Y12441D2*
X58997Y9057D1*
D30*
X66750Y50000D3*
D32*
Y53500D3*
D33*
X46200Y65200D3*
D34*
X48740D3*
D33*
X28250Y48450D3*
D34*
Y50990D3*
D33*
X24200Y16200D3*
D34*
Y13660D3*
Y11120D3*
Y8580D3*
D33*
X35250Y43500D3*
D34*
X32710D3*
X30170D3*
X27630D3*
D30*
X66800Y39200D3*
D32*
Y42700D3*
D30*
Y32200D3*
D32*
Y35700D3*
D30*
Y25200D3*
D32*
Y28700D3*
D30*
Y18200D3*
D32*
Y21700D3*
D30*
Y11200D3*
D32*
Y14700D3*
D33*
X60750Y20000D3*
D34*
Y17460D3*
Y14920D3*
D33*
X60689Y10749D3*
D34*
Y8209D3*
Y5669D3*
D33*
X16250Y67500D3*
D34*
X18790D3*
X21330D3*
X23870D3*
D33*
X16250Y63500D3*
D34*
X18790D3*
X21330D3*
X23870D3*
D33*
X16250Y59500D3*
D34*
X18790D3*
X21330D3*
X23870D3*
D33*
X16250Y55500D3*
D34*
X18790D3*
X21330D3*
X23870D3*
D33*
X16250Y51500D3*
D34*
X18790D3*
X21330D3*
X23870D3*
D33*
X16250Y47500D3*
D34*
X18790D3*
X21330D3*
X23870D3*
D33*
X16250Y43500D3*
D34*
X18790D3*
X21330D3*
X23870D3*
D33*
X28400Y54400D3*
X24200Y19600D3*
X52200Y65200D3*
X18937Y8794D2*
D101*
X18537D1*
X18755Y9085D1*
X18646D1*
X18573Y9121D1*
X18537Y9158D1*
X18500Y9267D1*
Y9340D1*
X18537Y9449D1*
X18610Y9522D1*
X18719Y9559D1*
X18829D1*
X18937Y9522D1*
X18973Y9485D1*
X19010Y9413D1*
M02*
