G04 DipTrace 2.4.0.2*
%INTopSilk.GTO*%
%MOMM*%
%ADD10C,0.15*%
%ADD14C,1.0*%
%ADD21C,0.033*%
%ADD22C,0.2*%
%ADD36O,0.391X0.392*%
%ADD43C,0.399*%
%ADD101C,0.118*%
%ADD102C,0.196*%
%ADD103C,0.157*%
%FSLAX53Y53*%
G04*
G71*
G90*
G75*
G01*
%LNTopSilk*%
%LPD*%
X62150Y45080D2*
D10*
X54150D1*
Y51080D1*
X62150D1*
Y45080D1*
X54650D2*
Y51080D1*
X39250Y42950D2*
Y53949D1*
X41249Y55950D2*
X42750D1*
X39250Y42950D2*
X42750D1*
X48750D2*
X52250D1*
Y53949D1*
X50251Y55950D2*
X48750D1*
G36*
X39250Y44450D2*
X43751D1*
D1*
X39250D1*
G37*
G36*
Y42950D2*
X42750D1*
Y45449D1*
X39250D1*
Y42950D1*
G37*
G36*
X48750D2*
X52250D1*
Y45449D1*
X48750D1*
Y42950D1*
G37*
X39250Y53949D2*
D10*
X41249Y55950D1*
X50251D2*
X52250Y53949D1*
X44950Y60910D2*
X47450D1*
X44950Y61099D2*
X47450D1*
X44950D2*
Y60501D1*
X47450Y61099D2*
Y60501D1*
X35300Y64349D2*
X36100D1*
X30750Y49660D2*
X33250D1*
X30750Y49849D2*
X33250D1*
X30750D2*
Y49251D1*
X33250Y49849D2*
Y49251D1*
X14918Y15519D2*
X14118D1*
X18168D2*
X17368D1*
X9668D2*
X8868D1*
X12168D2*
X11368D1*
X9100Y28734D2*
X9900D1*
X10393Y28716D2*
X11193D1*
X18120Y23081D2*
X17320D1*
X21400Y29149D2*
X22200D1*
X23849Y37850D2*
X22550D1*
X22000Y37951D2*
X21200D1*
X12100Y40751D2*
X11300D1*
X14050Y40750D2*
X12751D1*
X2600Y18850D2*
X3400D1*
X2600Y15350D2*
X3400D1*
X2600Y11800D2*
X3400D1*
X58000Y55640D2*
Y65640D1*
X63000Y55640D2*
Y65640D1*
X63350Y48250D2*
D22*
Y55250D1*
X69550D1*
X70350D1*
Y48250D1*
X69550D1*
X63350D1*
X69550Y55250D2*
Y48250D1*
X50010Y63930D2*
D10*
Y66470D1*
X44930Y63930D2*
X50010D1*
X44930D2*
Y66470D1*
X50010D1*
X29520Y52260D2*
X26980D1*
X29520Y47180D2*
Y52260D1*
Y47180D2*
X26980D1*
Y52260D1*
G36*
X6921Y40494D2*
X1421D1*
Y40244D1*
X6921D1*
Y40494D1*
G37*
D14*
X2921Y40994D3*
G36*
X6921Y33743D2*
X1421D1*
Y33494D1*
X6921D1*
Y33743D1*
G37*
X22930Y7310D2*
D10*
X25470D1*
X22930Y17470D2*
Y7310D1*
X25470Y17470D2*
Y7310D1*
X22930Y17470D2*
X25470D1*
X26360Y44770D2*
Y42230D1*
X36520Y44770D2*
X26360D1*
X36520Y42230D2*
X26360D1*
X36520Y44770D2*
Y42230D1*
X63400Y37450D2*
D22*
Y44450D1*
X69600D1*
X70400D1*
Y37450D1*
X69600D1*
X63400D1*
X69600Y44450D2*
Y37450D1*
X63400Y30450D2*
Y37450D1*
X69600D1*
X70400D1*
Y30450D1*
X69600D1*
X63400D1*
X69600Y37450D2*
Y30450D1*
X63400Y23450D2*
Y30450D1*
X69600D1*
X70400D1*
Y23450D1*
X69600D1*
X63400D1*
X69600Y30450D2*
Y23450D1*
X63400Y16450D2*
Y23450D1*
X69600D1*
X70400D1*
Y16450D1*
X69600D1*
X63400D1*
X69600Y23450D2*
Y16450D1*
X63400Y9450D2*
Y16450D1*
X69600D1*
X70400D1*
Y9450D1*
X69600D1*
X63400D1*
X69600Y16450D2*
Y9450D1*
X59480Y21270D2*
D10*
X62020D1*
Y13650D1*
X59480D2*
X62020D1*
X59480Y21270D2*
Y13650D1*
X59419Y12019D2*
X61959D1*
Y4399D1*
X59419D2*
X61959D1*
X59419Y12019D2*
Y4399D1*
X25140Y66230D2*
Y68770D1*
X14980Y66230D2*
X25140D1*
X14980Y68770D2*
X25140D1*
X14980Y66230D2*
Y68770D1*
X25140Y62230D2*
Y64770D1*
X14980Y62230D2*
X25140D1*
X14980Y64770D2*
X25140D1*
X14980Y62230D2*
Y64770D1*
X25140Y58230D2*
Y60770D1*
X14980Y58230D2*
X25140D1*
X14980Y60770D2*
X25140D1*
X14980Y58230D2*
Y60770D1*
X25140Y54230D2*
Y56770D1*
X14980Y54230D2*
X25140D1*
X14980Y56770D2*
X25140D1*
X14980Y54230D2*
Y56770D1*
X25140Y50230D2*
Y52770D1*
X14980Y50230D2*
X25140D1*
X14980Y52770D2*
X25140D1*
X14980Y50230D2*
Y52770D1*
X25140Y46230D2*
Y48770D1*
X14980Y46230D2*
X25140D1*
X14980Y48770D2*
X25140D1*
X14980Y46230D2*
Y48770D1*
X25140Y42230D2*
Y44770D1*
X14980Y42230D2*
X25140D1*
X14980Y44770D2*
X25140D1*
X14980Y42230D2*
Y44770D1*
X26274Y62297D2*
Y56641D1*
X31931D1*
X34759Y59469D2*
Y65126D1*
X29103D1*
D36*
X27684Y5174D3*
X27450Y3900D2*
D10*
X24450D1*
Y3400D1*
X27450D1*
Y3900D1*
D36*
X20516Y2126D3*
X20750Y3400D2*
D10*
X23750D1*
Y3900D1*
X20750D1*
Y3400D1*
X53598Y56350D2*
X55502D1*
X53598Y59550D2*
X55502D1*
X55450Y38860D2*
X48450D1*
Y30860D1*
X55450D1*
Y38860D1*
D14*
X49450Y37860D3*
X55450Y28860D2*
D10*
X48450D1*
Y20860D1*
X55450D1*
Y28860D1*
D14*
X49450Y27860D3*
X55450Y18860D2*
D10*
X48450D1*
Y10860D1*
X55450D1*
Y18860D1*
D14*
X49450Y17860D3*
X55450Y8860D2*
D10*
X48450D1*
Y860D1*
X55450D1*
Y8860D1*
D14*
X49450Y7860D3*
X42450Y38860D2*
D10*
X35450D1*
Y30860D1*
X42450D1*
Y38860D1*
D14*
X36450Y37860D3*
X42450Y28860D2*
D10*
X35450D1*
Y20860D1*
X42450D1*
Y28860D1*
D14*
X36450Y27860D3*
X42450Y18860D2*
D10*
X35450D1*
Y10860D1*
X42450D1*
Y18860D1*
D14*
X36450Y17860D3*
X42450Y8860D2*
D10*
X35450D1*
Y860D1*
X42450D1*
Y8860D1*
D14*
X36450Y7860D3*
X5645Y21000D2*
D22*
X3135D1*
X1865Y22000D2*
Y25080D1*
X3165Y26080D2*
X5645D1*
X6945Y25080D2*
Y22000D1*
X3135Y23540D2*
X3138Y23629D1*
X3147Y23717D1*
X3163Y23804D1*
X3184Y23890D1*
X3212Y23974D1*
X3245Y24057D1*
X3284Y24136D1*
X3328Y24213D1*
X3378Y24286D1*
X3432Y24356D1*
X3491Y24422D1*
X3555Y24484D1*
X3623Y24541D1*
X3695Y24593D1*
X3770Y24640D1*
X3848Y24681D1*
X3929Y24717D1*
X4013Y24748D1*
X4098Y24772D1*
X4184Y24791D1*
X4272Y24803D1*
X4361Y24809D1*
X4449D1*
X4538Y24803D1*
X4626Y24791D1*
X4712Y24772D1*
X4797Y24748D1*
X4881Y24717D1*
X4962Y24681D1*
X5040Y24640D1*
X5115Y24593D1*
X5187Y24541D1*
X5255Y24484D1*
X5319Y24422D1*
X5378Y24356D1*
X5432Y24286D1*
X5482Y24213D1*
X5526Y24136D1*
X5565Y24057D1*
X5598Y23974D1*
X5626Y23890D1*
X5647Y23804D1*
X5663Y23717D1*
X5672Y23629D1*
X5675Y23540D1*
X5672Y23451D1*
X5663Y23363D1*
X5647Y23276D1*
X5626Y23190D1*
X5598Y23106D1*
X5565Y23023D1*
X5526Y22944D1*
X5482Y22867D1*
X5432Y22794D1*
X5378Y22724D1*
X5319Y22658D1*
X5255Y22596D1*
X5187Y22539D1*
X5115Y22487D1*
X5040Y22440D1*
X4962Y22399D1*
X4881Y22363D1*
X4797Y22332D1*
X4712Y22308D1*
X4626Y22289D1*
X4538Y22277D1*
X4449Y22271D1*
X4361D1*
X4272Y22277D1*
X4184Y22289D1*
X4098Y22308D1*
X4013Y22332D1*
X3929Y22363D1*
X3848Y22399D1*
X3770Y22440D1*
X3695Y22487D1*
X3623Y22539D1*
X3555Y22596D1*
X3491Y22658D1*
X3432Y22724D1*
X3378Y22794D1*
X3328Y22867D1*
X3284Y22944D1*
X3245Y23023D1*
X3212Y23106D1*
X3184Y23190D1*
X3163Y23276D1*
X3147Y23363D1*
X3138Y23451D1*
X3135Y23540D1*
X29800Y52999D2*
D10*
X27000D1*
Y55800D2*
Y52999D1*
X29800Y55800D2*
X27000D1*
X29800D2*
Y52999D1*
X22800Y21001D2*
X25600D1*
Y18200D2*
Y21001D1*
X22800Y18200D2*
X25600D1*
X22800D2*
Y21001D1*
X50799Y63800D2*
Y66600D1*
X53600D2*
X50799D1*
X53600Y63800D2*
Y66600D1*
Y63800D2*
X50799D1*
X40900Y58950D2*
Y62950D1*
X38700D2*
Y58950D1*
X40900Y62950D2*
X38700D1*
X40900Y58950D2*
X40200D1*
X39400D2*
X38700D1*
X40200D2*
G03X39400Y58950I-400J0D01*
G01*
X11499Y29199D2*
X20501D1*
Y38201D1*
X11499D1*
Y29199D1*
G36*
D2*
X12300D1*
X11499Y30000D1*
Y29199D1*
G37*
D43*
X11549Y28000D3*
X4500Y61095D2*
D10*
Y56095D1*
X7100Y61095D2*
Y56095D1*
X4500D2*
X7100D1*
X5300Y61095D2*
X4500D1*
X6300D2*
X7100D1*
X5300D2*
G03X6300Y61095I500J0D01*
G01*
X4500Y54595D2*
Y49595D1*
X7100Y54595D2*
Y49595D1*
X4500D2*
X7100D1*
X5300Y54595D2*
X4500D1*
X6300D2*
X7100D1*
X5300D2*
G03X6300Y54595I500J0D01*
G01*
X4500Y48095D2*
Y43095D1*
X7100Y48095D2*
Y43095D1*
X4500D2*
X7100D1*
X5300Y48095D2*
X4500D1*
X6300D2*
X7100D1*
X5300D2*
G03X6300Y48095I500J0D01*
G01*
X18770Y19429D2*
X13570D1*
X18770Y22629D2*
X13570D1*
X10720Y20029D2*
X10220D1*
Y22029D1*
X10720D1*
Y20029D1*
X45250Y68250D2*
D21*
X50000D1*
Y66750D1*
X45250D1*
Y68250D1*
X25500Y51250D2*
X26875D1*
Y48000D1*
X25500D1*
Y51250D1*
X57625Y21000D2*
X59125D1*
Y17500D1*
X57625D1*
Y21000D1*
Y17250D2*
X59125D1*
Y14000D1*
X57625D1*
Y17250D1*
Y11750D2*
X59125D1*
Y8250D1*
X57625D1*
Y11750D1*
Y8000D2*
X59125D1*
Y4750D1*
X57625D1*
Y8000D1*
X56567Y54326D2*
D101*
Y53560D1*
X56896D1*
X57005Y53597D1*
X57041Y53634D1*
X57078Y53706D1*
Y53815D1*
X57041Y53889D1*
X57005Y53925D1*
X56896Y53961D1*
X57005Y53998D1*
X57041Y54034D1*
X57078Y54107D1*
Y54180D1*
X57041Y54253D1*
X57005Y54290D1*
X56896Y54326D1*
X56567D1*
Y53961D2*
X56896D1*
X57313D2*
X57641D1*
X57750Y53998D1*
X57787Y54034D1*
X57823Y54107D1*
Y54180D1*
X57787Y54253D1*
X57750Y54290D1*
X57641Y54326D1*
X57313D1*
Y53560D1*
X57568Y53961D2*
X57823Y53560D1*
X58059Y54179D2*
X58132Y54216D1*
X58241Y54325D1*
Y53560D1*
X58696Y54325D2*
X58586Y54289D1*
X58513Y54179D1*
X58477Y53997D1*
Y53888D1*
X58513Y53706D1*
X58586Y53596D1*
X58696Y53560D1*
X58768D1*
X58878Y53596D1*
X58950Y53706D1*
X58987Y53888D1*
Y53997D1*
X58950Y54179D1*
X58878Y54289D1*
X58768Y54325D1*
X58696D1*
X58950Y54179D2*
X58513Y53706D1*
X59441Y54325D2*
X59332Y54289D1*
X59259Y54179D1*
X59222Y53997D1*
Y53888D1*
X59259Y53706D1*
X59332Y53596D1*
X59441Y53560D1*
X59514D1*
X59623Y53596D1*
X59696Y53706D1*
X59733Y53888D1*
Y53997D1*
X59696Y54179D1*
X59623Y54289D1*
X59514Y54325D1*
X59441D1*
X59696Y54179D2*
X59259Y53706D1*
X45069Y57634D2*
X45032Y57706D1*
X44959Y57780D1*
X44887Y57816D1*
X44741D1*
X44668Y57780D1*
X44595Y57706D1*
X44558Y57634D1*
X44522Y57524D1*
Y57342D1*
X44558Y57233D1*
X44595Y57160D1*
X44668Y57087D1*
X44741Y57050D1*
X44887D1*
X44959Y57087D1*
X45032Y57160D1*
X45069Y57233D1*
X45304Y57669D2*
X45377Y57706D1*
X45487Y57815D1*
Y57050D1*
X45941Y57815D2*
X45831Y57779D1*
X45758Y57669D1*
X45722Y57487D1*
Y57378D1*
X45758Y57196D1*
X45831Y57086D1*
X45941Y57050D1*
X46013D1*
X46123Y57086D1*
X46195Y57196D1*
X46232Y57378D1*
Y57487D1*
X46195Y57669D1*
X46123Y57779D1*
X46013Y57815D1*
X45941D1*
X46195Y57669D2*
X45758Y57196D1*
X46687Y57815D2*
X46577Y57779D1*
X46504Y57669D1*
X46468Y57487D1*
Y57378D1*
X46504Y57196D1*
X46577Y57086D1*
X46687Y57050D1*
X46759D1*
X46869Y57086D1*
X46941Y57196D1*
X46978Y57378D1*
Y57487D1*
X46941Y57669D1*
X46869Y57779D1*
X46759Y57815D1*
X46687D1*
X46941Y57669D2*
X46504Y57196D1*
X43916Y60282D2*
X43844Y60246D1*
X43770Y60173D1*
X43734Y60100D1*
Y59955D1*
X43770Y59881D1*
X43844Y59809D1*
X43916Y59772D1*
X44026Y59736D1*
X44208D1*
X44317Y59772D1*
X44390Y59809D1*
X44463Y59881D1*
X44500Y59955D1*
Y60100D1*
X44463Y60173D1*
X44390Y60246D1*
X44317Y60282D1*
X43881Y60518D2*
X43844Y60591D1*
X43735Y60700D1*
X44500D1*
X43735Y61155D2*
X43771Y61045D1*
X43881Y60972D1*
X44063Y60936D1*
X44172D1*
X44354Y60972D1*
X44464Y61045D1*
X44500Y61155D1*
Y61227D1*
X44464Y61337D1*
X44354Y61409D1*
X44172Y61446D1*
X44063D1*
X43881Y61409D1*
X43771Y61337D1*
X43735Y61227D1*
Y61155D1*
X43881Y61409D2*
X44354Y60972D1*
X43881Y61681D2*
X43844Y61755D1*
X43735Y61864D1*
X44500D1*
X35566Y65468D2*
X35494Y65432D1*
X35420Y65358D1*
X35384Y65286D1*
Y65140D1*
X35420Y65067D1*
X35494Y64995D1*
X35566Y64957D1*
X35676Y64921D1*
X35858D1*
X35967Y64957D1*
X36040Y64995D1*
X36113Y65067D1*
X36150Y65140D1*
Y65286D1*
X36113Y65358D1*
X36040Y65432D1*
X35967Y65468D1*
X35531Y65703D2*
X35494Y65777D1*
X35385Y65886D1*
X36150D1*
X35385Y66340D2*
X35421Y66231D1*
X35531Y66158D1*
X35713Y66121D1*
X35822D1*
X36004Y66158D1*
X36114Y66231D1*
X36150Y66340D1*
Y66413D1*
X36114Y66522D1*
X36004Y66595D1*
X35822Y66632D1*
X35713D1*
X35531Y66595D1*
X35421Y66522D1*
X35385Y66413D1*
Y66340D1*
X35531Y66595D2*
X36004Y66158D1*
X35567Y66904D2*
X35531D1*
X35457Y66940D1*
X35421Y66977D1*
X35385Y67050D1*
Y67196D1*
X35421Y67268D1*
X35457Y67304D1*
X35531Y67341D1*
X35603D1*
X35676Y67304D1*
X35785Y67232D1*
X36150Y66867D1*
Y67377D1*
X33913Y49468D2*
X33840Y49432D1*
X33767Y49359D1*
X33731Y49286D1*
Y49140D1*
X33767Y49067D1*
X33840Y48995D1*
X33913Y48958D1*
X34022Y48921D1*
X34205D1*
X34314Y48958D1*
X34387Y48995D1*
X34460Y49067D1*
X34497Y49140D1*
Y49286D1*
X34460Y49359D1*
X34387Y49432D1*
X34314Y49468D1*
X33878Y49703D2*
X33840Y49777D1*
X33732Y49886D1*
X34497D1*
X33732Y50340D2*
X33768Y50231D1*
X33878Y50158D1*
X34059Y50121D1*
X34169D1*
X34351Y50158D1*
X34460Y50231D1*
X34497Y50340D1*
Y50413D1*
X34460Y50522D1*
X34351Y50595D1*
X34169Y50632D1*
X34059D1*
X33878Y50595D1*
X33768Y50522D1*
X33732Y50413D1*
Y50340D1*
X33878Y50595D2*
X34351Y50158D1*
X33732Y50941D2*
Y51341D1*
X34023Y51122D1*
Y51232D1*
X34059Y51304D1*
X34096Y51341D1*
X34205Y51378D1*
X34278D1*
X34387Y51341D1*
X34460Y51268D1*
X34497Y51159D1*
Y51049D1*
X34460Y50941D1*
X34423Y50904D1*
X34351Y50867D1*
X13084Y16437D2*
X13012Y16401D1*
X12938Y16328D1*
X12902Y16255D1*
Y16110D1*
X12938Y16036D1*
X13012Y15964D1*
X13084Y15927D1*
X13194Y15891D1*
X13376D1*
X13485Y15927D1*
X13558Y15964D1*
X13631Y16036D1*
X13668Y16110D1*
Y16255D1*
X13631Y16328D1*
X13558Y16401D1*
X13485Y16437D1*
X13085Y16710D2*
X13049D1*
X12975Y16746D1*
X12939Y16782D1*
X12903Y16855D1*
Y17001D1*
X12939Y17074D1*
X12975Y17110D1*
X13049Y17147D1*
X13121D1*
X13194Y17110D1*
X13303Y17037D1*
X13668Y16673D1*
Y17183D1*
X12903Y17637D2*
X12939Y17528D1*
X13049Y17455D1*
X13231Y17418D1*
X13340D1*
X13522Y17455D1*
X13632Y17528D1*
X13668Y17637D1*
Y17710D1*
X13632Y17819D1*
X13522Y17892D1*
X13340Y17929D1*
X13231D1*
X13049Y17892D1*
X12939Y17819D1*
X12903Y17710D1*
Y17637D1*
X13049Y17892D2*
X13522Y17455D1*
X13049Y18164D2*
X13012Y18237D1*
X12903Y18347D1*
X13668D1*
X16334Y16274D2*
X16262Y16237D1*
X16188Y16164D1*
X16152Y16092D1*
Y15946D1*
X16188Y15873D1*
X16262Y15800D1*
X16334Y15763D1*
X16444Y15727D1*
X16626D1*
X16735Y15763D1*
X16808Y15800D1*
X16881Y15873D1*
X16918Y15946D1*
Y16092D1*
X16881Y16164D1*
X16808Y16237D1*
X16735Y16274D1*
X16335Y16546D2*
X16299D1*
X16225Y16582D1*
X16189Y16618D1*
X16153Y16692D1*
Y16837D1*
X16189Y16910D1*
X16225Y16946D1*
X16299Y16983D1*
X16371D1*
X16444Y16946D1*
X16553Y16874D1*
X16918Y16509D1*
Y17019D1*
X16153Y17474D2*
X16189Y17364D1*
X16299Y17291D1*
X16481Y17255D1*
X16590D1*
X16772Y17291D1*
X16882Y17364D1*
X16918Y17474D1*
Y17546D1*
X16882Y17656D1*
X16772Y17728D1*
X16590Y17765D1*
X16481D1*
X16299Y17728D1*
X16189Y17656D1*
X16153Y17546D1*
Y17474D1*
X16299Y17728D2*
X16772Y17291D1*
X16335Y18037D2*
X16299D1*
X16225Y18074D1*
X16189Y18110D1*
X16153Y18183D1*
Y18329D1*
X16189Y18401D1*
X16225Y18437D1*
X16299Y18475D1*
X16371D1*
X16444Y18437D1*
X16553Y18365D1*
X16918Y18000D1*
Y18511D1*
X7834Y16274D2*
X7762Y16237D1*
X7688Y16164D1*
X7652Y16092D1*
Y15946D1*
X7688Y15873D1*
X7762Y15800D1*
X7834Y15763D1*
X7944Y15727D1*
X8126D1*
X8235Y15763D1*
X8308Y15800D1*
X8381Y15873D1*
X8418Y15946D1*
Y16092D1*
X8381Y16164D1*
X8308Y16237D1*
X8235Y16274D1*
X7835Y16546D2*
X7799D1*
X7725Y16582D1*
X7689Y16618D1*
X7653Y16692D1*
Y16837D1*
X7689Y16910D1*
X7725Y16946D1*
X7799Y16983D1*
X7871D1*
X7944Y16946D1*
X8053Y16874D1*
X8418Y16509D1*
Y17019D1*
X7653Y17474D2*
X7689Y17364D1*
X7799Y17291D1*
X7981Y17255D1*
X8090D1*
X8272Y17291D1*
X8382Y17364D1*
X8418Y17474D1*
Y17546D1*
X8382Y17656D1*
X8272Y17728D1*
X8090Y17765D1*
X7981D1*
X7799Y17728D1*
X7689Y17656D1*
X7653Y17546D1*
Y17474D1*
X7799Y17728D2*
X8272Y17291D1*
X7653Y18074D2*
Y18474D1*
X7944Y18256D1*
Y18365D1*
X7981Y18437D1*
X8017Y18474D1*
X8126Y18511D1*
X8199D1*
X8308Y18474D1*
X8382Y18401D1*
X8418Y18292D1*
Y18182D1*
X8382Y18074D1*
X8344Y18037D1*
X8272Y18000D1*
X10334Y16255D2*
X10262Y16219D1*
X10188Y16146D1*
X10152Y16074D1*
Y15928D1*
X10188Y15855D1*
X10262Y15782D1*
X10334Y15745D1*
X10444Y15709D1*
X10626D1*
X10735Y15745D1*
X10808Y15782D1*
X10881Y15855D1*
X10918Y15928D1*
Y16074D1*
X10881Y16146D1*
X10808Y16219D1*
X10735Y16255D1*
X10335Y16528D2*
X10299D1*
X10225Y16564D1*
X10189Y16600D1*
X10153Y16674D1*
Y16819D1*
X10189Y16892D1*
X10225Y16928D1*
X10299Y16965D1*
X10371D1*
X10444Y16928D1*
X10553Y16855D1*
X10918Y16491D1*
Y17001D1*
X10153Y17455D2*
X10189Y17346D1*
X10299Y17273D1*
X10481Y17236D1*
X10590D1*
X10772Y17273D1*
X10882Y17346D1*
X10918Y17455D1*
Y17528D1*
X10882Y17637D1*
X10772Y17710D1*
X10590Y17747D1*
X10481D1*
X10299Y17710D1*
X10189Y17637D1*
X10153Y17528D1*
Y17455D1*
X10299Y17710D2*
X10772Y17273D1*
X10918Y18347D2*
X10153D1*
X10663Y17982D1*
Y18529D1*
X8166Y26190D2*
X8094Y26153D1*
X8020Y26080D1*
X7984Y26008D1*
Y25862D1*
X8020Y25789D1*
X8094Y25716D1*
X8166Y25679D1*
X8276Y25643D1*
X8458D1*
X8567Y25679D1*
X8640Y25716D1*
X8713Y25789D1*
X8750Y25862D1*
Y26008D1*
X8713Y26080D1*
X8640Y26153D1*
X8567Y26190D1*
X8167Y26462D2*
X8131D1*
X8057Y26498D1*
X8021Y26534D1*
X7985Y26608D1*
Y26753D1*
X8021Y26826D1*
X8057Y26862D1*
X8131Y26899D1*
X8203D1*
X8276Y26862D1*
X8385Y26790D1*
X8750Y26425D1*
Y26935D1*
X7985Y27390D2*
X8021Y27280D1*
X8131Y27207D1*
X8313Y27171D1*
X8422D1*
X8604Y27207D1*
X8714Y27280D1*
X8750Y27390D1*
Y27462D1*
X8714Y27572D1*
X8604Y27644D1*
X8422Y27681D1*
X8313D1*
X8131Y27644D1*
X8021Y27572D1*
X7985Y27462D1*
Y27390D1*
X8131Y27644D2*
X8604Y27207D1*
X7985Y28354D2*
Y27990D1*
X8313Y27954D1*
X8276Y27990D1*
X8239Y28099D1*
Y28208D1*
X8276Y28317D1*
X8349Y28391D1*
X8458Y28427D1*
X8531D1*
X8640Y28391D1*
X8714Y28317D1*
X8750Y28208D1*
Y28099D1*
X8714Y27990D1*
X8676Y27954D1*
X8604Y27916D1*
X11759Y24890D2*
X11687Y24854D1*
X11613Y24780D1*
X11577Y24708D1*
Y24562D1*
X11613Y24489D1*
X11687Y24416D1*
X11759Y24379D1*
X11869Y24343D1*
X12051D1*
X12160Y24379D1*
X12233Y24416D1*
X12306Y24489D1*
X12343Y24562D1*
Y24708D1*
X12306Y24780D1*
X12233Y24854D1*
X12160Y24890D1*
X11760Y25162D2*
X11724D1*
X11650Y25198D1*
X11614Y25235D1*
X11578Y25308D1*
Y25454D1*
X11614Y25526D1*
X11650Y25562D1*
X11724Y25599D1*
X11796D1*
X11869Y25562D1*
X11978Y25490D1*
X12343Y25125D1*
Y25636D1*
X11578Y26090D2*
X11614Y25980D1*
X11724Y25907D1*
X11906Y25871D1*
X12015D1*
X12197Y25907D1*
X12307Y25980D1*
X12343Y26090D1*
Y26162D1*
X12307Y26272D1*
X12197Y26344D1*
X12015Y26381D1*
X11906D1*
X11724Y26344D1*
X11614Y26272D1*
X11578Y26162D1*
Y26090D1*
X11724Y26344D2*
X12197Y25907D1*
X11687Y27054D2*
X11614Y27018D1*
X11578Y26908D1*
Y26836D1*
X11614Y26726D1*
X11724Y26653D1*
X11906Y26617D1*
X12088D1*
X12233Y26653D1*
X12307Y26726D1*
X12343Y26836D1*
Y26872D1*
X12307Y26980D1*
X12233Y27054D1*
X12124Y27090D1*
X12088D1*
X11978Y27054D1*
X11906Y26980D1*
X11869Y26872D1*
Y26836D1*
X11906Y26726D1*
X11978Y26653D1*
X12088Y26617D1*
X16286Y23835D2*
X16214Y23799D1*
X16140Y23725D1*
X16104Y23653D1*
Y23507D1*
X16140Y23434D1*
X16214Y23361D1*
X16286Y23324D1*
X16396Y23288D1*
X16578D1*
X16687Y23324D1*
X16760Y23361D1*
X16833Y23434D1*
X16870Y23507D1*
Y23653D1*
X16833Y23725D1*
X16760Y23799D1*
X16687Y23835D1*
X16287Y24107D2*
X16251D1*
X16177Y24143D1*
X16141Y24180D1*
X16105Y24253D1*
Y24399D1*
X16141Y24471D1*
X16177Y24507D1*
X16251Y24544D1*
X16323D1*
X16396Y24507D1*
X16505Y24435D1*
X16870Y24070D1*
Y24581D1*
X16105Y25035D2*
X16141Y24925D1*
X16251Y24852D1*
X16433Y24816D1*
X16542D1*
X16724Y24852D1*
X16834Y24925D1*
X16870Y25035D1*
Y25107D1*
X16834Y25217D1*
X16724Y25289D1*
X16542Y25326D1*
X16433D1*
X16251Y25289D1*
X16141Y25217D1*
X16105Y25107D1*
Y25035D1*
X16251Y25289D2*
X16724Y24852D1*
X16870Y25707D2*
X16105Y26072D1*
Y25562D1*
X20366Y26705D2*
X20294Y26668D1*
X20220Y26595D1*
X20184Y26523D1*
Y26377D1*
X20220Y26304D1*
X20294Y26231D1*
X20366Y26194D1*
X20476Y26158D1*
X20658D1*
X20767Y26194D1*
X20840Y26231D1*
X20913Y26304D1*
X20950Y26377D1*
Y26523D1*
X20913Y26595D1*
X20840Y26668D1*
X20767Y26705D1*
X20367Y26977D2*
X20331D1*
X20257Y27013D1*
X20221Y27049D1*
X20185Y27123D1*
Y27268D1*
X20221Y27341D1*
X20257Y27377D1*
X20331Y27414D1*
X20403D1*
X20476Y27377D1*
X20585Y27305D1*
X20950Y26940D1*
Y27450D1*
X20185Y27905D2*
X20221Y27795D1*
X20331Y27722D1*
X20513Y27686D1*
X20622D1*
X20804Y27722D1*
X20914Y27795D1*
X20950Y27905D1*
Y27977D1*
X20914Y28086D1*
X20804Y28159D1*
X20622Y28196D1*
X20513D1*
X20331Y28159D1*
X20221Y28086D1*
X20185Y27977D1*
Y27905D1*
X20331Y28159D2*
X20804Y27722D1*
X20185Y28613D2*
X20221Y28505D1*
X20294Y28467D1*
X20367D1*
X20439Y28505D1*
X20476Y28577D1*
X20513Y28723D1*
X20549Y28832D1*
X20622Y28905D1*
X20695Y28941D1*
X20804D1*
X20876Y28905D1*
X20914Y28868D1*
X20950Y28759D1*
Y28613D1*
X20914Y28505D1*
X20876Y28467D1*
X20804Y28431D1*
X20695D1*
X20622Y28467D1*
X20549Y28541D1*
X20513Y28649D1*
X20476Y28795D1*
X20439Y28868D1*
X20367Y28905D1*
X20294D1*
X20221Y28868D1*
X20185Y28759D1*
Y28613D1*
X20372Y39025D2*
X20299Y38989D1*
X20226Y38916D1*
X20190Y38844D1*
Y38698D1*
X20226Y38625D1*
X20299Y38552D1*
X20372Y38515D1*
X20481Y38479D1*
X20664D1*
X20773Y38515D1*
X20846Y38552D1*
X20918Y38625D1*
X20955Y38698D1*
Y38844D1*
X20918Y38916D1*
X20846Y38989D1*
X20773Y39025D1*
X20372Y39298D2*
X20336D1*
X20263Y39334D1*
X20227Y39370D1*
X20191Y39444D1*
Y39589D1*
X20227Y39662D1*
X20263Y39698D1*
X20336Y39735D1*
X20409D1*
X20482Y39698D1*
X20591Y39625D1*
X20955Y39261D1*
Y39771D1*
X20191Y40226D2*
X20227Y40116D1*
X20336Y40043D1*
X20518Y40007D1*
X20628D1*
X20810Y40043D1*
X20919Y40116D1*
X20955Y40226D1*
Y40298D1*
X20919Y40407D1*
X20810Y40480D1*
X20628Y40517D1*
X20518D1*
X20336Y40480D1*
X20227Y40407D1*
X20191Y40298D1*
Y40226D1*
X20336Y40480D2*
X20810Y40043D1*
X20445Y41226D2*
X20554Y41189D1*
X20628Y41117D1*
X20664Y41007D1*
Y40971D1*
X20628Y40862D1*
X20554Y40789D1*
X20445Y40752D1*
X20409D1*
X20299Y40789D1*
X20227Y40862D1*
X20191Y40971D1*
Y41007D1*
X20227Y41117D1*
X20299Y41189D1*
X20445Y41226D1*
X20628D1*
X20810Y41189D1*
X20919Y41117D1*
X20955Y41007D1*
Y40935D1*
X20919Y40826D1*
X20846Y40789D1*
X24366Y39069D2*
X24294Y39033D1*
X24220Y38960D1*
X24184Y38887D1*
Y38742D1*
X24220Y38668D1*
X24294Y38596D1*
X24366Y38559D1*
X24476Y38523D1*
X24658D1*
X24767Y38559D1*
X24840Y38596D1*
X24913Y38668D1*
X24950Y38742D1*
Y38887D1*
X24913Y38960D1*
X24840Y39033D1*
X24767Y39069D1*
X24367Y39342D2*
X24331D1*
X24257Y39378D1*
X24221Y39414D1*
X24185Y39487D1*
Y39633D1*
X24221Y39705D1*
X24257Y39742D1*
X24331Y39779D1*
X24403D1*
X24476Y39742D1*
X24585Y39669D1*
X24950Y39304D1*
Y39815D1*
X24331Y40050D2*
X24294Y40124D1*
X24185Y40233D1*
X24950D1*
X24185Y40687D2*
X24221Y40578D1*
X24331Y40505D1*
X24513Y40468D1*
X24622D1*
X24804Y40505D1*
X24914Y40578D1*
X24950Y40687D1*
Y40760D1*
X24914Y40869D1*
X24804Y40942D1*
X24622Y40979D1*
X24513D1*
X24331Y40942D1*
X24221Y40869D1*
X24185Y40760D1*
Y40687D1*
X24331Y40942D2*
X24804Y40505D1*
X11505Y44819D2*
X11432Y44783D1*
X11359Y44710D1*
X11323Y44637D1*
Y44491D1*
X11359Y44418D1*
X11432Y44346D1*
X11505Y44309D1*
X11614Y44272D1*
X11797D1*
X11906Y44309D1*
X11979Y44346D1*
X12051Y44418D1*
X12089Y44491D1*
Y44637D1*
X12051Y44710D1*
X11979Y44783D1*
X11906Y44819D1*
X11506Y45091D2*
X11469D1*
X11396Y45128D1*
X11360Y45164D1*
X11324Y45237D1*
Y45383D1*
X11360Y45455D1*
X11396Y45492D1*
X11469Y45529D1*
X11542D1*
X11615Y45492D1*
X11724Y45419D1*
X12089Y45054D1*
Y45565D1*
X11469Y45800D2*
X11432Y45873D1*
X11324Y45983D1*
X12089D1*
X11469Y46218D2*
X11432Y46291D1*
X11324Y46401D1*
X12089D1*
X13165Y45196D2*
X13092Y45159D1*
X13019Y45086D1*
X12983Y45014D1*
Y44868D1*
X13019Y44795D1*
X13092Y44722D1*
X13165Y44685D1*
X13274Y44649D1*
X13457D1*
X13566Y44685D1*
X13639Y44722D1*
X13711Y44795D1*
X13748Y44868D1*
Y45014D1*
X13711Y45086D1*
X13639Y45159D1*
X13566Y45196D1*
X13165Y45468D2*
X13129D1*
X13056Y45504D1*
X13020Y45540D1*
X12984Y45614D1*
Y45759D1*
X13020Y45832D1*
X13056Y45868D1*
X13129Y45905D1*
X13202D1*
X13275Y45868D1*
X13384Y45796D1*
X13748Y45431D1*
Y45941D1*
X13129Y46177D2*
X13092Y46250D1*
X12984Y46359D1*
X13748D1*
X13165Y46632D2*
X13129D1*
X13056Y46668D1*
X13020Y46704D1*
X12984Y46778D1*
Y46923D1*
X13020Y46996D1*
X13056Y47032D1*
X13129Y47069D1*
X13202D1*
X13275Y47032D1*
X13384Y46959D1*
X13748Y46595D1*
Y47105D1*
X1384Y16090D2*
X2150D1*
Y16345D1*
X2113Y16455D1*
X2040Y16528D1*
X1967Y16564D1*
X1858Y16600D1*
X1676D1*
X1566Y16564D1*
X1494Y16528D1*
X1420Y16455D1*
X1384Y16345D1*
Y16090D1*
X1385Y17273D2*
Y16909D1*
X1713Y16873D1*
X1676Y16909D1*
X1639Y17019D1*
Y17127D1*
X1676Y17237D1*
X1749Y17310D1*
X1858Y17346D1*
X1931D1*
X2040Y17310D1*
X2114Y17237D1*
X2150Y17127D1*
Y17019D1*
X2114Y16909D1*
X2076Y16873D1*
X2004Y16836D1*
X1385Y17800D2*
X1421Y17691D1*
X1531Y17618D1*
X1713Y17581D1*
X1822D1*
X2004Y17618D1*
X2114Y17691D1*
X2150Y17800D1*
Y17873D1*
X2114Y17982D1*
X2004Y18055D1*
X1822Y18092D1*
X1713D1*
X1531Y18055D1*
X1421Y17982D1*
X1385Y17873D1*
Y17800D1*
X1531Y18055D2*
X2004Y17618D1*
X1531Y18327D2*
X1494Y18400D1*
X1385Y18510D1*
X2150D1*
X1384Y12426D2*
X2150D1*
Y12681D1*
X2113Y12791D1*
X2040Y12864D1*
X1967Y12900D1*
X1858Y12937D1*
X1676D1*
X1566Y12900D1*
X1494Y12864D1*
X1420Y12791D1*
X1384Y12681D1*
Y12426D1*
X1385Y13609D2*
Y13245D1*
X1713Y13209D1*
X1676Y13245D1*
X1639Y13355D1*
Y13463D1*
X1676Y13573D1*
X1749Y13646D1*
X1858Y13682D1*
X1931D1*
X2040Y13646D1*
X2114Y13573D1*
X2150Y13463D1*
Y13355D1*
X2114Y13245D1*
X2076Y13209D1*
X2004Y13172D1*
X1385Y14137D2*
X1421Y14027D1*
X1531Y13954D1*
X1713Y13918D1*
X1822D1*
X2004Y13954D1*
X2114Y14027D1*
X2150Y14137D1*
Y14209D1*
X2114Y14319D1*
X2004Y14391D1*
X1822Y14428D1*
X1713D1*
X1531Y14391D1*
X1421Y14319D1*
X1385Y14209D1*
Y14137D1*
X1531Y14391D2*
X2004Y13954D1*
X1567Y14700D2*
X1531D1*
X1457Y14737D1*
X1421Y14773D1*
X1385Y14846D1*
Y14992D1*
X1421Y15064D1*
X1457Y15101D1*
X1531Y15138D1*
X1603D1*
X1676Y15101D1*
X1785Y15028D1*
X2150Y14663D1*
Y15174D1*
X1384Y8876D2*
X2150D1*
Y9131D1*
X2113Y9241D1*
X2040Y9314D1*
X1967Y9350D1*
X1858Y9387D1*
X1676D1*
X1566Y9350D1*
X1494Y9314D1*
X1420Y9241D1*
X1384Y9131D1*
Y8876D1*
X1385Y10059D2*
Y9695D1*
X1713Y9659D1*
X1676Y9695D1*
X1639Y9805D1*
Y9913D1*
X1676Y10023D1*
X1749Y10096D1*
X1858Y10132D1*
X1931D1*
X2040Y10096D1*
X2114Y10023D1*
X2150Y9913D1*
Y9805D1*
X2114Y9695D1*
X2076Y9659D1*
X2004Y9622D1*
X1385Y10587D2*
X1421Y10477D1*
X1531Y10404D1*
X1713Y10368D1*
X1822D1*
X2004Y10404D1*
X2114Y10477D1*
X2150Y10587D1*
Y10659D1*
X2114Y10769D1*
X2004Y10841D1*
X1822Y10878D1*
X1713D1*
X1531Y10841D1*
X1421Y10769D1*
X1385Y10659D1*
Y10587D1*
X1531Y10841D2*
X2004Y10404D1*
X1385Y11187D2*
Y11587D1*
X1676Y11369D1*
Y11478D1*
X1713Y11551D1*
X1749Y11587D1*
X1858Y11624D1*
X1931D1*
X2040Y11587D1*
X2114Y11514D1*
X2150Y11405D1*
Y11295D1*
X2114Y11187D1*
X2076Y11150D1*
X2004Y11113D1*
X59782Y67066D2*
X59308D1*
Y66300D1*
Y66701D2*
X59600D1*
X60018Y66919D2*
X60091Y66956D1*
X60200Y67065D1*
Y66300D1*
X60655Y67065D2*
X60545Y67029D1*
X60472Y66919D1*
X60436Y66737D1*
Y66628D1*
X60472Y66446D1*
X60545Y66336D1*
X60655Y66300D1*
X60727D1*
X60837Y66336D1*
X60909Y66446D1*
X60946Y66628D1*
Y66737D1*
X60909Y66919D1*
X60837Y67029D1*
X60727Y67065D1*
X60655D1*
X60909Y66919D2*
X60472Y66446D1*
X61400Y67065D2*
X61291Y67029D1*
X61218Y66919D1*
X61181Y66737D1*
Y66628D1*
X61218Y66446D1*
X61291Y66336D1*
X61400Y66300D1*
X61473D1*
X61582Y66336D1*
X61655Y66446D1*
X61692Y66628D1*
Y66737D1*
X61655Y66919D1*
X61582Y67029D1*
X61473Y67065D1*
X61400D1*
X61655Y66919D2*
X61218Y66446D1*
X66078Y56766D2*
Y56183D1*
X66041Y56074D1*
X66004Y56037D1*
X65932Y56000D1*
X65859D1*
X65786Y56037D1*
X65750Y56074D1*
X65713Y56183D1*
Y56255D1*
X66313Y56619D2*
X66386Y56656D1*
X66496Y56765D1*
Y56000D1*
X66950Y56765D2*
X66840Y56729D1*
X66767Y56619D1*
X66731Y56437D1*
Y56328D1*
X66767Y56146D1*
X66840Y56036D1*
X66950Y56000D1*
X67022D1*
X67132Y56036D1*
X67204Y56146D1*
X67241Y56328D1*
Y56437D1*
X67204Y56619D1*
X67132Y56729D1*
X67022Y56765D1*
X66950D1*
X67204Y56619D2*
X66767Y56146D1*
X67696Y56765D2*
X67586Y56729D1*
X67513Y56619D1*
X67477Y56437D1*
Y56328D1*
X67513Y56146D1*
X67586Y56036D1*
X67696Y56000D1*
X67768D1*
X67878Y56036D1*
X67950Y56146D1*
X67987Y56328D1*
Y56437D1*
X67950Y56619D1*
X67878Y56729D1*
X67768Y56765D1*
X67696D1*
X67950Y56619D2*
X67513Y56146D1*
X42893Y65457D2*
Y64875D1*
X42857Y64765D1*
X42820Y64729D1*
X42747Y64692D1*
X42674D1*
X42602Y64729D1*
X42566Y64765D1*
X42528Y64875D1*
Y64947D1*
X43129Y65311D2*
X43202Y65348D1*
X43311Y65457D1*
Y64692D1*
X43766Y65457D2*
X43656Y65420D1*
X43583Y65311D1*
X43547Y65129D1*
Y65019D1*
X43583Y64837D1*
X43656Y64728D1*
X43766Y64692D1*
X43838D1*
X43948Y64728D1*
X44020Y64837D1*
X44057Y65019D1*
Y65129D1*
X44020Y65311D1*
X43948Y65420D1*
X43838Y65457D1*
X43766D1*
X44020Y65311D2*
X43583Y64837D1*
X44292Y65311D2*
X44366Y65348D1*
X44475Y65457D1*
Y64692D1*
X27458Y46836D2*
Y46253D1*
X27421Y46144D1*
X27384Y46107D1*
X27312Y46070D1*
X27239D1*
X27166Y46107D1*
X27130Y46144D1*
X27093Y46253D1*
Y46325D1*
X27693Y46689D2*
X27766Y46726D1*
X27876Y46835D1*
Y46070D1*
X28330Y46835D2*
X28220Y46799D1*
X28147Y46689D1*
X28111Y46507D1*
Y46398D1*
X28147Y46216D1*
X28220Y46106D1*
X28330Y46070D1*
X28402D1*
X28512Y46106D1*
X28584Y46216D1*
X28621Y46398D1*
Y46507D1*
X28584Y46689D1*
X28512Y46799D1*
X28402Y46835D1*
X28330D1*
X28584Y46689D2*
X28147Y46216D1*
X28894Y46653D2*
Y46689D1*
X28930Y46763D1*
X28966Y46799D1*
X29039Y46835D1*
X29185D1*
X29258Y46799D1*
X29294Y46763D1*
X29331Y46689D1*
Y46617D1*
X29294Y46544D1*
X29221Y46435D1*
X28857Y46070D1*
X29367D1*
X3649Y42610D2*
Y42027D1*
X3612Y41917D1*
X3575Y41881D1*
X3503Y41844D1*
X3430D1*
X3357Y41881D1*
X3321Y41917D1*
X3284Y42027D1*
Y42099D1*
X3921Y42427D2*
Y42463D1*
X3957Y42536D1*
X3993Y42573D1*
X4067Y42609D1*
X4212D1*
X4285Y42573D1*
X4321Y42536D1*
X4358Y42463D1*
Y42391D1*
X4321Y42317D1*
X4249Y42209D1*
X3884Y41844D1*
X4394D1*
X4849Y42609D2*
X4739Y42573D1*
X4666Y42463D1*
X4630Y42281D1*
Y42172D1*
X4666Y41990D1*
X4739Y41880D1*
X4849Y41844D1*
X4921D1*
X5031Y41880D1*
X5103Y41990D1*
X5140Y42172D1*
Y42281D1*
X5103Y42463D1*
X5031Y42573D1*
X4921Y42609D1*
X4849D1*
X5103Y42463D2*
X4666Y41990D1*
X5375Y42463D2*
X5449Y42500D1*
X5558Y42609D1*
Y41844D1*
X21814Y8118D2*
X22397D1*
X22506Y8081D1*
X22543Y8044D1*
X22580Y7972D1*
Y7899D1*
X22543Y7826D1*
X22506Y7790D1*
X22397Y7753D1*
X22325D1*
X21815Y8426D2*
Y8826D1*
X22106Y8608D1*
Y8718D1*
X22143Y8790D1*
X22179Y8826D1*
X22288Y8863D1*
X22361D1*
X22470Y8826D1*
X22544Y8754D1*
X22580Y8644D1*
Y8535D1*
X22544Y8426D1*
X22506Y8390D1*
X22434Y8353D1*
X21815Y9318D2*
X21851Y9208D1*
X21961Y9135D1*
X22143Y9099D1*
X22252D1*
X22434Y9135D1*
X22544Y9208D1*
X22580Y9318D1*
Y9390D1*
X22544Y9500D1*
X22434Y9572D1*
X22252Y9609D1*
X22143D1*
X21961Y9572D1*
X21851Y9500D1*
X21815Y9390D1*
Y9318D1*
X21961Y9572D2*
X22434Y9135D1*
X21961Y9844D2*
X21924Y9918D1*
X21815Y10027D1*
X22580D1*
X34004Y41886D2*
Y41303D1*
X33968Y41194D1*
X33930Y41157D1*
X33858Y41120D1*
X33785D1*
X33712Y41157D1*
X33676Y41194D1*
X33639Y41303D1*
Y41375D1*
X34312Y41885D2*
X34712D1*
X34494Y41594D1*
X34604D1*
X34676Y41557D1*
X34712Y41521D1*
X34749Y41412D1*
Y41339D1*
X34712Y41230D1*
X34640Y41156D1*
X34530Y41120D1*
X34421D1*
X34312Y41156D1*
X34276Y41194D1*
X34239Y41266D1*
X35204Y41885D2*
X35094Y41849D1*
X35021Y41739D1*
X34985Y41557D1*
Y41448D1*
X35021Y41266D1*
X35094Y41156D1*
X35204Y41120D1*
X35276D1*
X35386Y41156D1*
X35458Y41266D1*
X35495Y41448D1*
Y41557D1*
X35458Y41739D1*
X35386Y41849D1*
X35276Y41885D1*
X35204D1*
X35458Y41739D2*
X35021Y41266D1*
X35768Y41703D2*
Y41739D1*
X35804Y41813D1*
X35840Y41849D1*
X35913Y41885D1*
X36059D1*
X36131Y41849D1*
X36168Y41813D1*
X36205Y41739D1*
Y41667D1*
X36168Y41594D1*
X36095Y41485D1*
X35731Y41120D1*
X36241D1*
X62284Y40159D2*
X62867D1*
X62976Y40123D1*
X63013Y40086D1*
X63050Y40014D1*
Y39940D1*
X63013Y39868D1*
X62976Y39832D1*
X62867Y39795D1*
X62795D1*
X63050Y40759D2*
X62285D1*
X62795Y40395D1*
Y40941D1*
X62285Y41396D2*
X62321Y41286D1*
X62431Y41213D1*
X62613Y41177D1*
X62722D1*
X62904Y41213D1*
X63014Y41286D1*
X63050Y41396D1*
Y41468D1*
X63014Y41578D1*
X62904Y41650D1*
X62722Y41687D1*
X62613D1*
X62431Y41650D1*
X62321Y41578D1*
X62285Y41468D1*
Y41396D1*
X62431Y41650D2*
X62904Y41213D1*
X62431Y41922D2*
X62394Y41996D1*
X62285Y42105D1*
X63050D1*
X62284Y32996D2*
X62867D1*
X62976Y32959D1*
X63013Y32922D1*
X63050Y32850D1*
Y32777D1*
X63013Y32704D1*
X62976Y32668D1*
X62867Y32631D1*
X62795D1*
X63050Y33596D2*
X62285D1*
X62795Y33231D1*
Y33778D1*
X62285Y34232D2*
X62321Y34122D1*
X62431Y34049D1*
X62613Y34013D1*
X62722D1*
X62904Y34049D1*
X63014Y34122D1*
X63050Y34232D1*
Y34304D1*
X63014Y34414D1*
X62904Y34486D1*
X62722Y34523D1*
X62613D1*
X62431Y34486D1*
X62321Y34414D1*
X62285Y34304D1*
Y34232D1*
X62431Y34486D2*
X62904Y34049D1*
X62467Y34796D2*
X62431D1*
X62357Y34832D1*
X62321Y34868D1*
X62285Y34941D1*
Y35087D1*
X62321Y35160D1*
X62357Y35196D1*
X62431Y35233D1*
X62503D1*
X62576Y35196D1*
X62685Y35123D1*
X63050Y34759D1*
Y35269D1*
X62284Y25996D2*
X62867D1*
X62976Y25959D1*
X63013Y25922D1*
X63050Y25850D1*
Y25777D1*
X63013Y25704D1*
X62976Y25668D1*
X62867Y25631D1*
X62795D1*
X63050Y26596D2*
X62285D1*
X62795Y26231D1*
Y26778D1*
X62285Y27232D2*
X62321Y27122D1*
X62431Y27049D1*
X62613Y27013D1*
X62722D1*
X62904Y27049D1*
X63014Y27122D1*
X63050Y27232D1*
Y27304D1*
X63014Y27414D1*
X62904Y27486D1*
X62722Y27523D1*
X62613D1*
X62431Y27486D1*
X62321Y27414D1*
X62285Y27304D1*
Y27232D1*
X62431Y27486D2*
X62904Y27049D1*
X62285Y27832D2*
Y28232D1*
X62576Y28014D1*
Y28123D1*
X62613Y28196D1*
X62649Y28232D1*
X62758Y28269D1*
X62831D1*
X62940Y28232D1*
X63014Y28160D1*
X63050Y28050D1*
Y27941D1*
X63014Y27832D1*
X62976Y27796D1*
X62904Y27759D1*
X62284Y18978D2*
X62867D1*
X62976Y18941D1*
X63013Y18904D1*
X63050Y18832D1*
Y18759D1*
X63013Y18686D1*
X62976Y18650D1*
X62867Y18613D1*
X62795D1*
X63050Y19578D2*
X62285D1*
X62795Y19213D1*
Y19759D1*
X62285Y20214D2*
X62321Y20104D1*
X62431Y20031D1*
X62613Y19995D1*
X62722D1*
X62904Y20031D1*
X63014Y20104D1*
X63050Y20214D1*
Y20286D1*
X63014Y20396D1*
X62904Y20468D1*
X62722Y20505D1*
X62613D1*
X62431Y20468D1*
X62321Y20396D1*
X62285Y20286D1*
Y20214D1*
X62431Y20468D2*
X62904Y20031D1*
X63050Y21105D2*
X62285D1*
X62795Y20741D1*
Y21287D1*
X62284Y12146D2*
X62867D1*
X62976Y12109D1*
X63013Y12072D1*
X63050Y12000D1*
Y11927D1*
X63013Y11854D1*
X62976Y11818D1*
X62867Y11781D1*
X62795D1*
X63050Y12746D2*
X62285D1*
X62795Y12381D1*
Y12928D1*
X62285Y13382D2*
X62321Y13272D1*
X62431Y13199D1*
X62613Y13163D1*
X62722D1*
X62904Y13199D1*
X63014Y13272D1*
X63050Y13382D1*
Y13454D1*
X63014Y13564D1*
X62904Y13636D1*
X62722Y13673D1*
X62613D1*
X62431Y13636D1*
X62321Y13564D1*
X62285Y13454D1*
Y13382D1*
X62431Y13636D2*
X62904Y13199D1*
X62285Y14346D2*
Y13982D1*
X62613Y13946D1*
X62576Y13982D1*
X62539Y14091D1*
Y14200D1*
X62576Y14310D1*
X62649Y14383D1*
X62758Y14419D1*
X62831D1*
X62940Y14383D1*
X63014Y14310D1*
X63050Y14200D1*
Y14091D1*
X63014Y13982D1*
X62976Y13946D1*
X62904Y13909D1*
X60364Y22024D2*
X60947D1*
X61056Y21988D1*
X61093Y21951D1*
X61130Y21878D1*
Y21805D1*
X61093Y21733D1*
X61056Y21697D1*
X60947Y21659D1*
X60875D1*
X61130Y22624D2*
X60365D1*
X60875Y22259D1*
Y22806D1*
X60365Y23260D2*
X60401Y23151D1*
X60511Y23078D1*
X60693Y23041D1*
X60802D1*
X60984Y23078D1*
X61094Y23151D1*
X61130Y23260D1*
Y23333D1*
X61094Y23442D1*
X60984Y23515D1*
X60802Y23552D1*
X60693D1*
X60511Y23515D1*
X60401Y23442D1*
X60365Y23333D1*
Y23260D1*
X60511Y23515D2*
X60984Y23078D1*
X60474Y24224D2*
X60401Y24188D1*
X60365Y24079D1*
Y24006D1*
X60401Y23897D1*
X60511Y23823D1*
X60693Y23787D1*
X60875D1*
X61020Y23823D1*
X61094Y23897D1*
X61130Y24006D1*
Y24042D1*
X61094Y24151D1*
X61020Y24224D1*
X60911Y24261D1*
X60875D1*
X60765Y24224D1*
X60693Y24151D1*
X60656Y24042D1*
Y24006D1*
X60693Y23897D1*
X60765Y23823D1*
X60875Y23787D1*
X60303Y1754D2*
X60886D1*
X60995Y1718D1*
X61031Y1681D1*
X61068Y1609D1*
Y1535D1*
X61031Y1463D1*
X60995Y1427D1*
X60886Y1390D1*
X60813D1*
X61068Y2354D2*
X60304D1*
X60813Y1990D1*
Y2536D1*
X60304Y2991D2*
X60340Y2881D1*
X60449Y2808D1*
X60631Y2772D1*
X60741D1*
X60923Y2808D1*
X61032Y2881D1*
X61068Y2991D1*
Y3063D1*
X61032Y3173D1*
X60923Y3245D1*
X60741Y3282D1*
X60631D1*
X60449Y3245D1*
X60340Y3173D1*
X60304Y3063D1*
Y2991D1*
X60449Y3245D2*
X60923Y2808D1*
X61068Y3663D2*
X60304Y4028D1*
Y3517D1*
X12288Y67886D2*
Y67303D1*
X12251Y67194D1*
X12214Y67157D1*
X12142Y67120D1*
X12069D1*
X11996Y67157D1*
X11960Y67194D1*
X11923Y67303D1*
Y67375D1*
X12960Y67885D2*
X12596D1*
X12560Y67557D1*
X12596Y67594D1*
X12706Y67631D1*
X12814D1*
X12924Y67594D1*
X12997Y67521D1*
X13033Y67412D1*
Y67339D1*
X12997Y67230D1*
X12924Y67156D1*
X12814Y67120D1*
X12706D1*
X12596Y67156D1*
X12560Y67194D1*
X12523Y67266D1*
X13488Y67885D2*
X13378Y67849D1*
X13305Y67739D1*
X13269Y67557D1*
Y67448D1*
X13305Y67266D1*
X13378Y67156D1*
X13488Y67120D1*
X13560D1*
X13670Y67156D1*
X13742Y67266D1*
X13779Y67448D1*
Y67557D1*
X13742Y67739D1*
X13670Y67849D1*
X13560Y67885D1*
X13488D1*
X13742Y67739D2*
X13305Y67266D1*
X14014Y67739D2*
X14088Y67776D1*
X14197Y67885D1*
Y67120D1*
X12124Y63886D2*
Y63303D1*
X12088Y63194D1*
X12050Y63157D1*
X11978Y63120D1*
X11905D1*
X11832Y63157D1*
X11796Y63194D1*
X11759Y63303D1*
Y63375D1*
X12796Y63885D2*
X12432D1*
X12396Y63557D1*
X12432Y63594D1*
X12542Y63631D1*
X12650D1*
X12760Y63594D1*
X12833Y63521D1*
X12869Y63412D1*
Y63339D1*
X12833Y63230D1*
X12760Y63156D1*
X12650Y63120D1*
X12542D1*
X12432Y63156D1*
X12396Y63194D1*
X12359Y63266D1*
X13324Y63885D2*
X13214Y63849D1*
X13141Y63739D1*
X13105Y63557D1*
Y63448D1*
X13141Y63266D1*
X13214Y63156D1*
X13324Y63120D1*
X13396D1*
X13506Y63156D1*
X13578Y63266D1*
X13615Y63448D1*
Y63557D1*
X13578Y63739D1*
X13506Y63849D1*
X13396Y63885D1*
X13324D1*
X13578Y63739D2*
X13141Y63266D1*
X13888Y63703D2*
Y63739D1*
X13924Y63813D1*
X13960Y63849D1*
X14033Y63885D1*
X14179D1*
X14251Y63849D1*
X14288Y63813D1*
X14325Y63739D1*
Y63667D1*
X14288Y63594D1*
X14215Y63485D1*
X13851Y63120D1*
X14361D1*
X12124Y59886D2*
Y59303D1*
X12088Y59194D1*
X12050Y59157D1*
X11978Y59120D1*
X11905D1*
X11832Y59157D1*
X11796Y59194D1*
X11759Y59303D1*
Y59375D1*
X12796Y59885D2*
X12432D1*
X12396Y59557D1*
X12432Y59594D1*
X12542Y59631D1*
X12650D1*
X12760Y59594D1*
X12833Y59521D1*
X12869Y59412D1*
Y59339D1*
X12833Y59230D1*
X12760Y59156D1*
X12650Y59120D1*
X12542D1*
X12432Y59156D1*
X12396Y59194D1*
X12359Y59266D1*
X13324Y59885D2*
X13214Y59849D1*
X13141Y59739D1*
X13105Y59557D1*
Y59448D1*
X13141Y59266D1*
X13214Y59156D1*
X13324Y59120D1*
X13396D1*
X13506Y59156D1*
X13578Y59266D1*
X13615Y59448D1*
Y59557D1*
X13578Y59739D1*
X13506Y59849D1*
X13396Y59885D1*
X13324D1*
X13578Y59739D2*
X13141Y59266D1*
X13924Y59885D2*
X14324D1*
X14106Y59594D1*
X14215D1*
X14288Y59557D1*
X14324Y59521D1*
X14361Y59412D1*
Y59339D1*
X14324Y59230D1*
X14251Y59156D1*
X14142Y59120D1*
X14032D1*
X13924Y59156D1*
X13888Y59194D1*
X13851Y59266D1*
X12106Y55886D2*
Y55303D1*
X12069Y55194D1*
X12032Y55157D1*
X11960Y55120D1*
X11887D1*
X11814Y55157D1*
X11778Y55194D1*
X11741Y55303D1*
Y55375D1*
X12778Y55885D2*
X12414D1*
X12378Y55557D1*
X12414Y55594D1*
X12524Y55631D1*
X12632D1*
X12742Y55594D1*
X12815Y55521D1*
X12851Y55412D1*
Y55339D1*
X12815Y55230D1*
X12742Y55156D1*
X12632Y55120D1*
X12524D1*
X12414Y55156D1*
X12378Y55194D1*
X12341Y55266D1*
X13306Y55885D2*
X13196Y55849D1*
X13123Y55739D1*
X13087Y55557D1*
Y55448D1*
X13123Y55266D1*
X13196Y55156D1*
X13306Y55120D1*
X13378D1*
X13488Y55156D1*
X13560Y55266D1*
X13597Y55448D1*
Y55557D1*
X13560Y55739D1*
X13488Y55849D1*
X13378Y55885D1*
X13306D1*
X13560Y55739D2*
X13123Y55266D1*
X14197Y55120D2*
Y55885D1*
X13832Y55375D1*
X14379D1*
X12124Y51886D2*
Y51303D1*
X12088Y51194D1*
X12050Y51157D1*
X11978Y51120D1*
X11905D1*
X11832Y51157D1*
X11796Y51194D1*
X11759Y51303D1*
Y51375D1*
X12796Y51885D2*
X12432D1*
X12396Y51557D1*
X12432Y51594D1*
X12542Y51631D1*
X12650D1*
X12760Y51594D1*
X12833Y51521D1*
X12869Y51412D1*
Y51339D1*
X12833Y51230D1*
X12760Y51156D1*
X12650Y51120D1*
X12542D1*
X12432Y51156D1*
X12396Y51194D1*
X12359Y51266D1*
X13324Y51885D2*
X13214Y51849D1*
X13141Y51739D1*
X13105Y51557D1*
Y51448D1*
X13141Y51266D1*
X13214Y51156D1*
X13324Y51120D1*
X13396D1*
X13506Y51156D1*
X13578Y51266D1*
X13615Y51448D1*
Y51557D1*
X13578Y51739D1*
X13506Y51849D1*
X13396Y51885D1*
X13324D1*
X13578Y51739D2*
X13141Y51266D1*
X14288Y51885D2*
X13924D1*
X13888Y51557D1*
X13924Y51594D1*
X14033Y51631D1*
X14142D1*
X14251Y51594D1*
X14325Y51521D1*
X14361Y51412D1*
Y51339D1*
X14325Y51230D1*
X14251Y51156D1*
X14142Y51120D1*
X14033D1*
X13924Y51156D1*
X13888Y51194D1*
X13851Y51266D1*
X12142Y47886D2*
Y47303D1*
X12106Y47194D1*
X12069Y47157D1*
X11997Y47120D1*
X11923D1*
X11851Y47157D1*
X11815Y47194D1*
X11778Y47303D1*
Y47375D1*
X12815Y47885D2*
X12451D1*
X12415Y47557D1*
X12451Y47594D1*
X12560Y47631D1*
X12669D1*
X12779Y47594D1*
X12852Y47521D1*
X12888Y47412D1*
Y47339D1*
X12852Y47230D1*
X12779Y47156D1*
X12669Y47120D1*
X12560D1*
X12451Y47156D1*
X12415Y47194D1*
X12378Y47266D1*
X13342Y47885D2*
X13233Y47849D1*
X13160Y47739D1*
X13123Y47557D1*
Y47448D1*
X13160Y47266D1*
X13233Y47156D1*
X13342Y47120D1*
X13415D1*
X13524Y47156D1*
X13597Y47266D1*
X13634Y47448D1*
Y47557D1*
X13597Y47739D1*
X13524Y47849D1*
X13415Y47885D1*
X13342D1*
X13597Y47739D2*
X13160Y47266D1*
X14306Y47776D2*
X14270Y47849D1*
X14160Y47885D1*
X14088D1*
X13979Y47849D1*
X13905Y47739D1*
X13869Y47557D1*
Y47375D1*
X13905Y47230D1*
X13979Y47156D1*
X14088Y47120D1*
X14124D1*
X14233Y47156D1*
X14306Y47230D1*
X14342Y47339D1*
Y47375D1*
X14306Y47485D1*
X14233Y47557D1*
X14124Y47594D1*
X14088D1*
X13979Y47557D1*
X13905Y47485D1*
X13869Y47375D1*
X25318Y42692D2*
X25901D1*
X26010Y42655D1*
X26047Y42618D1*
X26084Y42546D1*
Y42473D1*
X26047Y42400D1*
X26010Y42364D1*
X25901Y42327D1*
X25828D1*
X25319Y43364D2*
Y43000D1*
X25647Y42964D1*
X25610Y43000D1*
X25573Y43110D1*
Y43218D1*
X25610Y43328D1*
X25683Y43401D1*
X25792Y43437D1*
X25865D1*
X25974Y43401D1*
X26047Y43328D1*
X26084Y43218D1*
Y43110D1*
X26047Y43000D1*
X26010Y42964D1*
X25938Y42927D1*
X25319Y43892D2*
X25355Y43782D1*
X25465Y43709D1*
X25647Y43673D1*
X25756D1*
X25938Y43709D1*
X26047Y43782D1*
X26084Y43892D1*
Y43964D1*
X26047Y44074D1*
X25938Y44146D1*
X25756Y44183D1*
X25647D1*
X25465Y44146D1*
X25355Y44074D1*
X25319Y43964D1*
Y43892D1*
X25465Y44146D2*
X25938Y43709D1*
X26084Y44564D2*
X25319Y44929D1*
Y44418D1*
X29343Y66560D2*
Y65794D1*
X29781D1*
X30016Y66413D2*
X30089Y66450D1*
X30199Y66559D1*
Y65794D1*
X30653Y66559D2*
X30543Y66523D1*
X30470Y66413D1*
X30434Y66231D1*
Y66122D1*
X30470Y65940D1*
X30543Y65830D1*
X30653Y65794D1*
X30725D1*
X30835Y65830D1*
X30907Y65940D1*
X30944Y66122D1*
Y66231D1*
X30907Y66413D1*
X30835Y66523D1*
X30725Y66559D1*
X30653D1*
X30907Y66413D2*
X30470Y65940D1*
X31399Y66559D2*
X31289Y66523D1*
X31216Y66413D1*
X31180Y66231D1*
Y66122D1*
X31216Y65940D1*
X31289Y65830D1*
X31399Y65794D1*
X31471D1*
X31581Y65830D1*
X31653Y65940D1*
X31690Y66122D1*
Y66231D1*
X31653Y66413D1*
X31581Y66523D1*
X31471Y66559D1*
X31399D1*
X31653Y66413D2*
X31216Y65940D1*
X25137Y6485D2*
X25065Y6450D1*
X24991Y6377D1*
X24955Y6303D1*
X24918Y6194D1*
Y6012D1*
X24955Y5903D1*
X24991Y5830D1*
X25065Y5757D1*
X25137Y5721D1*
X25283D1*
X25356Y5757D1*
X25428Y5830D1*
X25465Y5903D1*
X25502Y6012D1*
Y6194D1*
X25465Y6303D1*
X25428Y6377D1*
X25356Y6450D1*
X25283Y6485D1*
X25137D1*
X25246Y5866D2*
X25465Y5647D1*
X25810Y6485D2*
X26210D1*
X25992Y6193D1*
X26102D1*
X26174Y6157D1*
X26210Y6121D1*
X26247Y6011D1*
Y5939D1*
X26210Y5829D1*
X26138Y5756D1*
X26028Y5720D1*
X25919D1*
X25810Y5756D1*
X25774Y5793D1*
X25737Y5865D1*
X26702Y6485D2*
X26592Y6448D1*
X26519Y6339D1*
X26483Y6157D1*
Y6047D1*
X26519Y5865D1*
X26592Y5756D1*
X26702Y5720D1*
X26774D1*
X26884Y5756D1*
X26956Y5865D1*
X26993Y6047D1*
Y6157D1*
X26956Y6339D1*
X26884Y6448D1*
X26774Y6485D1*
X26702D1*
X26956Y6339D2*
X26519Y5865D1*
X27228Y6339D2*
X27302Y6376D1*
X27411Y6485D1*
Y5720D1*
X20844Y6441D2*
X20772Y6406D1*
X20698Y6332D1*
X20662Y6259D1*
X20625Y6149D1*
Y5968D1*
X20662Y5858D1*
X20698Y5786D1*
X20772Y5712D1*
X20844Y5676D1*
X20990D1*
X21063Y5712D1*
X21135Y5786D1*
X21172Y5858D1*
X21209Y5968D1*
Y6149D1*
X21172Y6259D1*
X21135Y6332D1*
X21063Y6406D1*
X20990Y6441D1*
X20844D1*
X20953Y5822D2*
X21172Y5603D1*
X21517Y6440D2*
X21917D1*
X21699Y6149D1*
X21809D1*
X21881Y6112D1*
X21917Y6076D1*
X21954Y5967D1*
Y5894D1*
X21917Y5785D1*
X21845Y5711D1*
X21735Y5675D1*
X21626D1*
X21517Y5711D1*
X21481Y5749D1*
X21444Y5821D1*
X22409Y6440D2*
X22299Y6404D1*
X22226Y6294D1*
X22190Y6112D1*
Y6003D1*
X22226Y5821D1*
X22299Y5711D1*
X22409Y5675D1*
X22481D1*
X22591Y5711D1*
X22663Y5821D1*
X22700Y6003D1*
Y6112D1*
X22663Y6294D1*
X22591Y6404D1*
X22481Y6440D1*
X22409D1*
X22663Y6294D2*
X22226Y5821D1*
X22972Y6258D2*
Y6294D1*
X23009Y6368D1*
X23045Y6404D1*
X23118Y6440D1*
X23264D1*
X23336Y6404D1*
X23373Y6368D1*
X23410Y6294D1*
Y6222D1*
X23373Y6149D1*
X23300Y6040D1*
X22935Y5675D1*
X23446D1*
X53490Y63201D2*
X53818D1*
X53927Y63238D1*
X53964Y63274D1*
X54000Y63347D1*
Y63420D1*
X53964Y63493D1*
X53927Y63530D1*
X53818Y63566D1*
X53490D1*
Y62800D1*
X53745Y63201D2*
X54000Y62800D1*
X54236Y63419D2*
X54309Y63456D1*
X54419Y63565D1*
Y62800D1*
X54873Y63565D2*
X54763Y63529D1*
X54690Y63419D1*
X54654Y63237D1*
Y63128D1*
X54690Y62946D1*
X54763Y62836D1*
X54873Y62800D1*
X54945D1*
X55055Y62836D1*
X55127Y62946D1*
X55164Y63128D1*
Y63237D1*
X55127Y63419D1*
X55055Y63529D1*
X54945Y63565D1*
X54873D1*
X55127Y63419D2*
X54690Y62946D1*
X55619Y63565D2*
X55509Y63529D1*
X55436Y63419D1*
X55400Y63237D1*
Y63128D1*
X55436Y62946D1*
X55509Y62836D1*
X55619Y62800D1*
X55691D1*
X55800Y62836D1*
X55873Y62946D1*
X55910Y63128D1*
Y63237D1*
X55873Y63419D1*
X55800Y63529D1*
X55691Y63565D1*
X55619D1*
X55873Y63419D2*
X55436Y62946D1*
X48554Y63201D2*
X48881D1*
X48991Y63238D1*
X49028Y63274D1*
X49064Y63347D1*
Y63420D1*
X49028Y63493D1*
X48991Y63530D1*
X48881Y63566D1*
X48554D1*
Y62800D1*
X48809Y63201D2*
X49064Y62800D1*
X49300Y63419D2*
X49373Y63456D1*
X49482Y63565D1*
Y62800D1*
X49937Y63565D2*
X49827Y63529D1*
X49754Y63419D1*
X49718Y63237D1*
Y63128D1*
X49754Y62946D1*
X49827Y62836D1*
X49937Y62800D1*
X50009D1*
X50119Y62836D1*
X50191Y62946D1*
X50228Y63128D1*
Y63237D1*
X50191Y63419D1*
X50119Y63529D1*
X50009Y63565D1*
X49937D1*
X50191Y63419D2*
X49754Y62946D1*
X50463Y63419D2*
X50537Y63456D1*
X50646Y63565D1*
Y62800D1*
X48390Y60701D2*
X48718D1*
X48827Y60738D1*
X48864Y60774D1*
X48900Y60847D1*
Y60920D1*
X48864Y60993D1*
X48827Y61030D1*
X48718Y61066D1*
X48390D1*
Y60300D1*
X48645Y60701D2*
X48900Y60300D1*
X49136Y60919D2*
X49209Y60956D1*
X49319Y61065D1*
Y60300D1*
X49773Y61065D2*
X49663Y61029D1*
X49590Y60919D1*
X49554Y60737D1*
Y60628D1*
X49590Y60446D1*
X49663Y60336D1*
X49773Y60300D1*
X49845D1*
X49955Y60336D1*
X50027Y60446D1*
X50064Y60628D1*
Y60737D1*
X50027Y60919D1*
X49955Y61029D1*
X49845Y61065D1*
X49773D1*
X50027Y60919D2*
X49590Y60446D1*
X50337Y60883D2*
Y60919D1*
X50373Y60993D1*
X50409Y61029D1*
X50482Y61065D1*
X50628D1*
X50700Y61029D1*
X50737Y60993D1*
X50774Y60919D1*
Y60847D1*
X50737Y60774D1*
X50664Y60665D1*
X50300Y60300D1*
X50810D1*
X37742Y55802D2*
X38070D1*
X38179Y55840D1*
X38216Y55876D1*
X38253Y55948D1*
Y56021D1*
X38216Y56094D1*
X38179Y56131D1*
X38070Y56167D1*
X37742D1*
Y55402D1*
X37997Y55802D2*
X38253Y55402D1*
X38488Y56021D2*
X38561Y56058D1*
X38671Y56166D1*
Y55402D1*
X39125Y56166D2*
X39016Y56130D1*
X38942Y56021D1*
X38906Y55839D1*
Y55729D1*
X38942Y55547D1*
X39016Y55438D1*
X39125Y55402D1*
X39198D1*
X39307Y55438D1*
X39379Y55547D1*
X39417Y55729D1*
Y55839D1*
X39379Y56021D1*
X39307Y56130D1*
X39198Y56166D1*
X39125D1*
X39379Y56021D2*
X38942Y55547D1*
X39725Y56166D2*
X40125D1*
X39907Y55875D1*
X40017D1*
X40089Y55839D1*
X40125Y55802D1*
X40162Y55693D1*
Y55621D1*
X40125Y55511D1*
X40053Y55438D1*
X39943Y55402D1*
X39834D1*
X39725Y55438D1*
X39689Y55475D1*
X39652Y55547D1*
X13969Y23469D2*
Y23797D1*
X13932Y23907D1*
X13896Y23944D1*
X13823Y23980D1*
X13750D1*
X13677Y23944D1*
X13640Y23907D1*
X13604Y23797D1*
Y23469D1*
X14370D1*
X13969Y23725D2*
X14370Y23980D1*
X13787Y24252D2*
X13751D1*
X13677Y24288D1*
X13641Y24325D1*
X13605Y24398D1*
Y24544D1*
X13641Y24616D1*
X13677Y24652D1*
X13751Y24689D1*
X13823D1*
X13896Y24652D1*
X14005Y24580D1*
X14370Y24215D1*
Y24726D1*
X13605Y25180D2*
X13641Y25070D1*
X13751Y24997D1*
X13933Y24961D1*
X14042D1*
X14224Y24997D1*
X14334Y25070D1*
X14370Y25180D1*
Y25252D1*
X14334Y25362D1*
X14224Y25434D1*
X14042Y25471D1*
X13933D1*
X13751Y25434D1*
X13641Y25362D1*
X13605Y25252D1*
Y25180D1*
X13751Y25434D2*
X14224Y24997D1*
X13751Y25707D2*
X13714Y25780D1*
X13605Y25889D1*
X14370D1*
X1626Y32751D2*
X1954D1*
X2063Y32788D1*
X2100Y32824D1*
X2137Y32897D1*
Y32970D1*
X2100Y33043D1*
X2063Y33080D1*
X1954Y33116D1*
X1626D1*
Y32350D1*
X1881Y32751D2*
X2137Y32350D1*
X2409Y32933D2*
Y32969D1*
X2445Y33043D1*
X2481Y33079D1*
X2555Y33115D1*
X2700D1*
X2773Y33079D1*
X2809Y33043D1*
X2846Y32969D1*
Y32897D1*
X2809Y32824D1*
X2737Y32715D1*
X2372Y32350D1*
X2882D1*
X3337Y33115D2*
X3227Y33079D1*
X3154Y32969D1*
X3118Y32787D1*
Y32678D1*
X3154Y32496D1*
X3227Y32386D1*
X3337Y32350D1*
X3409D1*
X3519Y32386D1*
X3591Y32496D1*
X3628Y32678D1*
Y32787D1*
X3591Y32969D1*
X3519Y33079D1*
X3409Y33115D1*
X3337D1*
X3591Y32969D2*
X3154Y32496D1*
X3900Y32933D2*
Y32969D1*
X3937Y33043D1*
X3973Y33079D1*
X4046Y33115D1*
X4192D1*
X4264Y33079D1*
X4301Y33043D1*
X4338Y32969D1*
Y32897D1*
X4301Y32824D1*
X4228Y32715D1*
X3863Y32350D1*
X4374D1*
X1626Y30251D2*
X1954D1*
X2063Y30288D1*
X2100Y30324D1*
X2137Y30397D1*
Y30470D1*
X2100Y30543D1*
X2063Y30580D1*
X1954Y30616D1*
X1626D1*
Y29850D1*
X1881Y30251D2*
X2137Y29850D1*
X2409Y30433D2*
Y30469D1*
X2445Y30543D1*
X2481Y30579D1*
X2555Y30615D1*
X2700D1*
X2773Y30579D1*
X2809Y30543D1*
X2846Y30469D1*
Y30397D1*
X2809Y30324D1*
X2737Y30215D1*
X2372Y29850D1*
X2882D1*
X3337Y30615D2*
X3227Y30579D1*
X3154Y30469D1*
X3118Y30287D1*
Y30178D1*
X3154Y29996D1*
X3227Y29886D1*
X3337Y29850D1*
X3409D1*
X3519Y29886D1*
X3591Y29996D1*
X3628Y30178D1*
Y30287D1*
X3591Y30469D1*
X3519Y30579D1*
X3409Y30615D1*
X3337D1*
X3591Y30469D2*
X3154Y29996D1*
X3937Y30615D2*
X4337D1*
X4119Y30324D1*
X4228D1*
X4301Y30287D1*
X4337Y30251D1*
X4374Y30142D1*
Y30069D1*
X4337Y29960D1*
X4264Y29886D1*
X4155Y29850D1*
X4045D1*
X3937Y29886D1*
X3900Y29924D1*
X3863Y29996D1*
X5108Y32751D2*
X5436D1*
X5545Y32788D1*
X5582Y32824D1*
X5619Y32897D1*
Y32970D1*
X5582Y33043D1*
X5545Y33080D1*
X5436Y33116D1*
X5108D1*
Y32350D1*
X5363Y32751D2*
X5619Y32350D1*
X5891Y32933D2*
Y32969D1*
X5927Y33043D1*
X5963Y33079D1*
X6037Y33115D1*
X6182D1*
X6255Y33079D1*
X6291Y33043D1*
X6328Y32969D1*
Y32897D1*
X6291Y32824D1*
X6219Y32715D1*
X5854Y32350D1*
X6364D1*
X6819Y33115D2*
X6709Y33079D1*
X6636Y32969D1*
X6600Y32787D1*
Y32678D1*
X6636Y32496D1*
X6709Y32386D1*
X6819Y32350D1*
X6891D1*
X7000Y32386D1*
X7073Y32496D1*
X7110Y32678D1*
Y32787D1*
X7073Y32969D1*
X7000Y33079D1*
X6891Y33115D1*
X6819D1*
X7073Y32969D2*
X6636Y32496D1*
X7710Y32350D2*
Y33115D1*
X7345Y32605D1*
X7892D1*
X5126Y30251D2*
X5454D1*
X5563Y30288D1*
X5600Y30324D1*
X5637Y30397D1*
Y30470D1*
X5600Y30543D1*
X5563Y30580D1*
X5454Y30616D1*
X5126D1*
Y29850D1*
X5381Y30251D2*
X5637Y29850D1*
X5909Y30433D2*
Y30469D1*
X5945Y30543D1*
X5981Y30579D1*
X6055Y30615D1*
X6200D1*
X6273Y30579D1*
X6309Y30543D1*
X6346Y30469D1*
Y30397D1*
X6309Y30324D1*
X6237Y30215D1*
X5872Y29850D1*
X6382D1*
X6837Y30615D2*
X6727Y30579D1*
X6654Y30469D1*
X6618Y30287D1*
Y30178D1*
X6654Y29996D1*
X6727Y29886D1*
X6837Y29850D1*
X6909D1*
X7019Y29886D1*
X7091Y29996D1*
X7128Y30178D1*
Y30287D1*
X7091Y30469D1*
X7019Y30579D1*
X6909Y30615D1*
X6837D1*
X7091Y30469D2*
X6654Y29996D1*
X7801Y30615D2*
X7437D1*
X7400Y30287D1*
X7437Y30324D1*
X7546Y30361D1*
X7655D1*
X7764Y30324D1*
X7838Y30251D1*
X7874Y30142D1*
Y30069D1*
X7838Y29960D1*
X7764Y29886D1*
X7655Y29850D1*
X7546D1*
X7437Y29886D1*
X7400Y29924D1*
X7363Y29996D1*
X22949Y26140D2*
Y26468D1*
X22912Y26577D1*
X22876Y26614D1*
X22803Y26650D1*
X22730D1*
X22657Y26614D1*
X22620Y26577D1*
X22584Y26468D1*
Y26140D1*
X23350D1*
X22949Y26395D2*
X23350Y26650D1*
X22585Y26959D2*
Y27359D1*
X22876Y27141D1*
Y27250D1*
X22913Y27323D1*
X22949Y27359D1*
X23058Y27396D1*
X23131D1*
X23240Y27359D1*
X23314Y27287D1*
X23350Y27177D1*
Y27068D1*
X23314Y26959D1*
X23276Y26923D1*
X23204Y26886D1*
X22585Y27850D2*
X22621Y27741D1*
X22731Y27668D1*
X22913Y27631D1*
X23022D1*
X23204Y27668D1*
X23314Y27741D1*
X23350Y27850D1*
Y27923D1*
X23314Y28032D1*
X23204Y28105D1*
X23022Y28142D1*
X22913D1*
X22731Y28105D1*
X22621Y28032D1*
X22585Y27923D1*
Y27850D1*
X22731Y28105D2*
X23204Y27668D1*
X22731Y28377D2*
X22694Y28450D1*
X22585Y28560D1*
X23350D1*
X28772Y40551D2*
X29100D1*
X29209Y40588D1*
X29246Y40624D1*
X29282Y40697D1*
Y40770D1*
X29246Y40843D1*
X29209Y40880D1*
X29100Y40916D1*
X28772D1*
Y40150D1*
X29027Y40551D2*
X29282Y40150D1*
X29882D2*
Y40915D1*
X29518Y40405D1*
X30064D1*
X30519Y40915D2*
X30409Y40879D1*
X30336Y40769D1*
X30300Y40587D1*
Y40478D1*
X30336Y40296D1*
X30409Y40186D1*
X30519Y40150D1*
X30591D1*
X30701Y40186D1*
X30773Y40296D1*
X30810Y40478D1*
Y40587D1*
X30773Y40769D1*
X30701Y40879D1*
X30591Y40915D1*
X30519D1*
X30773Y40769D2*
X30336Y40296D1*
X31045Y40769D2*
X31119Y40806D1*
X31228Y40915D1*
Y40150D1*
X28608Y38051D2*
X28936D1*
X29045Y38088D1*
X29082Y38124D1*
X29119Y38197D1*
Y38270D1*
X29082Y38343D1*
X29045Y38380D1*
X28936Y38416D1*
X28608D1*
Y37650D1*
X28863Y38051D2*
X29119Y37650D1*
X29719D2*
Y38415D1*
X29354Y37905D1*
X29900D1*
X30355Y38415D2*
X30245Y38379D1*
X30172Y38269D1*
X30136Y38087D1*
Y37978D1*
X30172Y37796D1*
X30245Y37686D1*
X30355Y37650D1*
X30427D1*
X30537Y37686D1*
X30609Y37796D1*
X30646Y37978D1*
Y38087D1*
X30609Y38269D1*
X30537Y38379D1*
X30427Y38415D1*
X30355D1*
X30609Y38269D2*
X30172Y37796D1*
X30919Y38233D2*
Y38269D1*
X30955Y38343D1*
X30991Y38379D1*
X31064Y38415D1*
X31210D1*
X31282Y38379D1*
X31319Y38343D1*
X31356Y38269D1*
Y38197D1*
X31319Y38124D1*
X31246Y38015D1*
X30881Y37650D1*
X31392D1*
X28608Y35651D2*
X28936D1*
X29045Y35688D1*
X29082Y35724D1*
X29119Y35797D1*
Y35870D1*
X29082Y35943D1*
X29045Y35980D1*
X28936Y36016D1*
X28608D1*
Y35250D1*
X28863Y35651D2*
X29119Y35250D1*
X29719D2*
Y36015D1*
X29354Y35505D1*
X29900D1*
X30355Y36015D2*
X30245Y35979D1*
X30172Y35869D1*
X30136Y35687D1*
Y35578D1*
X30172Y35396D1*
X30245Y35286D1*
X30355Y35250D1*
X30427D1*
X30537Y35286D1*
X30609Y35396D1*
X30646Y35578D1*
Y35687D1*
X30609Y35869D1*
X30537Y35979D1*
X30427Y36015D1*
X30355D1*
X30609Y35869D2*
X30172Y35396D1*
X30955Y36015D2*
X31355D1*
X31137Y35724D1*
X31246D1*
X31319Y35687D1*
X31355Y35651D1*
X31392Y35542D1*
Y35469D1*
X31355Y35360D1*
X31282Y35286D1*
X31173Y35250D1*
X31063D1*
X30955Y35286D1*
X30919Y35324D1*
X30881Y35396D1*
X28590Y33251D2*
X28918D1*
X29027Y33288D1*
X29064Y33324D1*
X29100Y33397D1*
Y33470D1*
X29064Y33543D1*
X29027Y33580D1*
X28918Y33616D1*
X28590D1*
Y32850D1*
X28845Y33251D2*
X29100Y32850D1*
X29700D2*
Y33615D1*
X29336Y33105D1*
X29882D1*
X30337Y33615D2*
X30227Y33579D1*
X30154Y33469D1*
X30118Y33287D1*
Y33178D1*
X30154Y32996D1*
X30227Y32886D1*
X30337Y32850D1*
X30409D1*
X30519Y32886D1*
X30591Y32996D1*
X30628Y33178D1*
Y33287D1*
X30591Y33469D1*
X30519Y33579D1*
X30409Y33615D1*
X30337D1*
X30591Y33469D2*
X30154Y32996D1*
X31228Y32850D2*
Y33615D1*
X30863Y33105D1*
X31410D1*
X28608Y30851D2*
X28936D1*
X29045Y30888D1*
X29082Y30924D1*
X29119Y30997D1*
Y31070D1*
X29082Y31143D1*
X29045Y31180D1*
X28936Y31216D1*
X28608D1*
Y30450D1*
X28863Y30851D2*
X29119Y30450D1*
X29719D2*
Y31215D1*
X29354Y30705D1*
X29900D1*
X30355Y31215D2*
X30245Y31179D1*
X30172Y31069D1*
X30136Y30887D1*
Y30778D1*
X30172Y30596D1*
X30245Y30486D1*
X30355Y30450D1*
X30427D1*
X30537Y30486D1*
X30609Y30596D1*
X30646Y30778D1*
Y30887D1*
X30609Y31069D1*
X30537Y31179D1*
X30427Y31215D1*
X30355D1*
X30609Y31069D2*
X30172Y30596D1*
X31319Y31215D2*
X30955D1*
X30919Y30887D1*
X30955Y30924D1*
X31064Y30961D1*
X31173D1*
X31282Y30924D1*
X31356Y30851D1*
X31392Y30742D1*
Y30669D1*
X31356Y30560D1*
X31282Y30486D1*
X31173Y30450D1*
X31064D1*
X30955Y30486D1*
X30919Y30524D1*
X30881Y30596D1*
X28627Y28451D2*
X28954D1*
X29064Y28488D1*
X29101Y28524D1*
X29137Y28597D1*
Y28670D1*
X29101Y28743D1*
X29064Y28780D1*
X28954Y28816D1*
X28627D1*
Y28050D1*
X28882Y28451D2*
X29137Y28050D1*
X29737D2*
Y28815D1*
X29372Y28305D1*
X29919D1*
X30373Y28815D2*
X30264Y28779D1*
X30191Y28669D1*
X30154Y28487D1*
Y28378D1*
X30191Y28196D1*
X30264Y28086D1*
X30373Y28050D1*
X30446D1*
X30555Y28086D1*
X30628Y28196D1*
X30665Y28378D1*
Y28487D1*
X30628Y28669D1*
X30555Y28779D1*
X30446Y28815D1*
X30373D1*
X30628Y28669D2*
X30191Y28196D1*
X31337Y28706D2*
X31301Y28779D1*
X31191Y28815D1*
X31119D1*
X31010Y28779D1*
X30936Y28669D1*
X30900Y28487D1*
Y28305D1*
X30936Y28160D1*
X31010Y28086D1*
X31119Y28050D1*
X31155D1*
X31264Y28086D1*
X31337Y28160D1*
X31373Y28269D1*
Y28305D1*
X31337Y28415D1*
X31264Y28487D1*
X31155Y28524D1*
X31119D1*
X31010Y28487D1*
X30936Y28415D1*
X30900Y28305D1*
X28608Y25851D2*
X28936D1*
X29045Y25888D1*
X29082Y25924D1*
X29119Y25997D1*
Y26070D1*
X29082Y26143D1*
X29045Y26180D1*
X28936Y26216D1*
X28608D1*
Y25450D1*
X28863Y25851D2*
X29119Y25450D1*
X29719D2*
Y26215D1*
X29354Y25705D1*
X29900D1*
X30355Y26215D2*
X30245Y26179D1*
X30172Y26069D1*
X30136Y25887D1*
Y25778D1*
X30172Y25596D1*
X30245Y25486D1*
X30355Y25450D1*
X30427D1*
X30537Y25486D1*
X30609Y25596D1*
X30646Y25778D1*
Y25887D1*
X30609Y26069D1*
X30537Y26179D1*
X30427Y26215D1*
X30355D1*
X30609Y26069D2*
X30172Y25596D1*
X31027Y25450D2*
X31392Y26215D1*
X30881D1*
X28608Y23451D2*
X28936D1*
X29046Y23488D1*
X29083Y23524D1*
X29119Y23597D1*
Y23670D1*
X29083Y23743D1*
X29046Y23780D1*
X28936Y23816D1*
X28608D1*
Y23050D1*
X28864Y23451D2*
X29119Y23050D1*
X29719D2*
Y23815D1*
X29354Y23305D1*
X29901D1*
X30355Y23815D2*
X30246Y23779D1*
X30172Y23669D1*
X30136Y23487D1*
Y23378D1*
X30172Y23196D1*
X30246Y23086D1*
X30355Y23050D1*
X30428D1*
X30537Y23086D1*
X30610Y23196D1*
X30647Y23378D1*
Y23487D1*
X30610Y23669D1*
X30537Y23779D1*
X30428Y23815D1*
X30355D1*
X30610Y23669D2*
X30172Y23196D1*
X31064Y23815D2*
X30955Y23779D1*
X30918Y23706D1*
Y23633D1*
X30955Y23561D1*
X31028Y23524D1*
X31173Y23487D1*
X31283Y23451D1*
X31355Y23378D1*
X31392Y23305D1*
Y23196D1*
X31355Y23124D1*
X31319Y23086D1*
X31210Y23050D1*
X31064D1*
X30955Y23086D1*
X30918Y23124D1*
X30882Y23196D1*
Y23305D1*
X30918Y23378D1*
X30991Y23451D1*
X31100Y23487D1*
X31246Y23524D1*
X31319Y23561D1*
X31355Y23633D1*
Y23706D1*
X31319Y23779D1*
X31210Y23815D1*
X31064D1*
X4249Y16140D2*
Y16468D1*
X4212Y16577D1*
X4176Y16614D1*
X4103Y16650D1*
X4030D1*
X3957Y16614D1*
X3920Y16577D1*
X3884Y16468D1*
Y16140D1*
X4650D1*
X4249Y16395D2*
X4650Y16650D1*
X3885Y17323D2*
Y16959D1*
X4213Y16923D1*
X4176Y16959D1*
X4139Y17069D1*
Y17177D1*
X4176Y17287D1*
X4249Y17360D1*
X4358Y17396D1*
X4431D1*
X4540Y17360D1*
X4614Y17287D1*
X4650Y17177D1*
Y17069D1*
X4614Y16959D1*
X4576Y16923D1*
X4504Y16886D1*
X3885Y17850D2*
X3921Y17741D1*
X4031Y17668D1*
X4213Y17631D1*
X4322D1*
X4504Y17668D1*
X4614Y17741D1*
X4650Y17850D1*
Y17923D1*
X4614Y18032D1*
X4504Y18105D1*
X4322Y18142D1*
X4213D1*
X4031Y18105D1*
X3921Y18032D1*
X3885Y17923D1*
Y17850D1*
X4031Y18105D2*
X4504Y17668D1*
X4031Y18377D2*
X3994Y18450D1*
X3885Y18560D1*
X4650D1*
X4249Y12476D2*
Y12804D1*
X4212Y12913D1*
X4176Y12950D1*
X4103Y12987D1*
X4030D1*
X3957Y12950D1*
X3920Y12913D1*
X3884Y12804D1*
Y12476D1*
X4650D1*
X4249Y12731D2*
X4650Y12987D1*
X3885Y13659D2*
Y13295D1*
X4213Y13259D1*
X4176Y13295D1*
X4139Y13405D1*
Y13513D1*
X4176Y13623D1*
X4249Y13696D1*
X4358Y13732D1*
X4431D1*
X4540Y13696D1*
X4614Y13623D1*
X4650Y13513D1*
Y13405D1*
X4614Y13295D1*
X4576Y13259D1*
X4504Y13222D1*
X3885Y14187D2*
X3921Y14077D1*
X4031Y14004D1*
X4213Y13968D1*
X4322D1*
X4504Y14004D1*
X4614Y14077D1*
X4650Y14187D1*
Y14259D1*
X4614Y14369D1*
X4504Y14441D1*
X4322Y14478D1*
X4213D1*
X4031Y14441D1*
X3921Y14369D1*
X3885Y14259D1*
Y14187D1*
X4031Y14441D2*
X4504Y14004D1*
X4067Y14750D2*
X4031D1*
X3957Y14787D1*
X3921Y14823D1*
X3885Y14896D1*
Y15042D1*
X3921Y15114D1*
X3957Y15151D1*
X4031Y15188D1*
X4103D1*
X4176Y15151D1*
X4285Y15078D1*
X4650Y14713D1*
Y15224D1*
X4249Y8776D2*
Y9104D1*
X4212Y9213D1*
X4176Y9250D1*
X4103Y9287D1*
X4030D1*
X3957Y9250D1*
X3920Y9213D1*
X3884Y9104D1*
Y8776D1*
X4650D1*
X4249Y9031D2*
X4650Y9287D1*
X3885Y9959D2*
Y9595D1*
X4213Y9559D1*
X4176Y9595D1*
X4139Y9705D1*
Y9813D1*
X4176Y9923D1*
X4249Y9996D1*
X4358Y10032D1*
X4431D1*
X4540Y9996D1*
X4614Y9923D1*
X4650Y9813D1*
Y9705D1*
X4614Y9595D1*
X4576Y9559D1*
X4504Y9522D1*
X3885Y10487D2*
X3921Y10377D1*
X4031Y10304D1*
X4213Y10268D1*
X4322D1*
X4504Y10304D1*
X4614Y10377D1*
X4650Y10487D1*
Y10559D1*
X4614Y10669D1*
X4504Y10741D1*
X4322Y10778D1*
X4213D1*
X4031Y10741D1*
X3921Y10669D1*
X3885Y10559D1*
Y10487D1*
X4031Y10741D2*
X4504Y10304D1*
X3885Y11087D2*
Y11487D1*
X4176Y11269D1*
Y11378D1*
X4213Y11451D1*
X4249Y11487D1*
X4358Y11524D1*
X4431D1*
X4540Y11487D1*
X4614Y11414D1*
X4650Y11305D1*
Y11195D1*
X4614Y11087D1*
X4576Y11050D1*
X4504Y11013D1*
X52931Y60401D2*
X53259D1*
X53368Y60438D1*
X53405Y60474D1*
X53441Y60547D1*
Y60620D1*
X53405Y60693D1*
X53368Y60730D1*
X53259Y60766D1*
X52931D1*
Y60000D1*
X53186Y60401D2*
X53441Y60000D1*
X53677Y60766D2*
X53968Y60000D1*
X54260Y60766D1*
X54495Y60619D2*
X54568Y60656D1*
X54678Y60765D1*
Y60000D1*
X55132Y60765D2*
X55022Y60729D1*
X54949Y60619D1*
X54913Y60437D1*
Y60328D1*
X54949Y60146D1*
X55022Y60036D1*
X55132Y60000D1*
X55204D1*
X55314Y60036D1*
X55386Y60146D1*
X55423Y60328D1*
Y60437D1*
X55386Y60619D1*
X55314Y60729D1*
X55204Y60765D1*
X55132D1*
X55386Y60619D2*
X54949Y60146D1*
X55878Y60765D2*
X55768Y60729D1*
X55695Y60619D1*
X55659Y60437D1*
Y60328D1*
X55695Y60146D1*
X55768Y60036D1*
X55878Y60000D1*
X55950D1*
X56060Y60036D1*
X56132Y60146D1*
X56169Y60328D1*
Y60437D1*
X56132Y60619D1*
X56060Y60729D1*
X55950Y60765D1*
X55878D1*
X56132Y60619D2*
X55695Y60146D1*
X50313Y39611D2*
X50640D1*
X50750Y39648D1*
X50787Y39684D1*
X50823Y39757D1*
Y39830D1*
X50787Y39903D1*
X50750Y39940D1*
X50640Y39976D1*
X50313D1*
Y39210D1*
X50568Y39611D2*
X50823Y39210D1*
X51059Y39976D2*
X51350Y39611D1*
Y39210D1*
X51641Y39976D2*
X51350Y39611D1*
X52241Y39210D2*
Y39975D1*
X51877Y39465D1*
X52423D1*
X52878Y39975D2*
X52768Y39939D1*
X52695Y39829D1*
X52659Y39647D1*
Y39538D1*
X52695Y39356D1*
X52768Y39246D1*
X52878Y39210D1*
X52950D1*
X53060Y39246D1*
X53132Y39356D1*
X53169Y39538D1*
Y39647D1*
X53132Y39829D1*
X53060Y39939D1*
X52950Y39975D1*
X52878D1*
X53132Y39829D2*
X52695Y39356D1*
X53404Y39829D2*
X53478Y39866D1*
X53587Y39975D1*
Y39210D1*
X50149Y29611D2*
X50477D1*
X50586Y29648D1*
X50623Y29684D1*
X50659Y29757D1*
Y29830D1*
X50623Y29903D1*
X50586Y29940D1*
X50477Y29976D1*
X50149D1*
Y29210D1*
X50404Y29611D2*
X50659Y29210D1*
X50895Y29976D2*
X51186Y29611D1*
Y29210D1*
X51478Y29976D2*
X51186Y29611D1*
X52078Y29210D2*
Y29975D1*
X51713Y29465D1*
X52260D1*
X52714Y29975D2*
X52604Y29939D1*
X52531Y29829D1*
X52495Y29647D1*
Y29538D1*
X52531Y29356D1*
X52604Y29246D1*
X52714Y29210D1*
X52786D1*
X52896Y29246D1*
X52968Y29356D1*
X53005Y29538D1*
Y29647D1*
X52968Y29829D1*
X52896Y29939D1*
X52786Y29975D1*
X52714D1*
X52968Y29829D2*
X52531Y29356D1*
X53278Y29793D2*
Y29829D1*
X53314Y29903D1*
X53350Y29939D1*
X53423Y29975D1*
X53569D1*
X53642Y29939D1*
X53678Y29903D1*
X53715Y29829D1*
Y29757D1*
X53678Y29684D1*
X53605Y29575D1*
X53241Y29210D1*
X53751D1*
X50149Y19611D2*
X50477D1*
X50586Y19648D1*
X50623Y19684D1*
X50659Y19757D1*
Y19830D1*
X50623Y19903D1*
X50586Y19940D1*
X50477Y19976D1*
X50149D1*
Y19210D1*
X50404Y19611D2*
X50659Y19210D1*
X50895Y19976D2*
X51186Y19611D1*
Y19210D1*
X51478Y19976D2*
X51186Y19611D1*
X52078Y19210D2*
Y19975D1*
X51713Y19465D1*
X52260D1*
X52714Y19975D2*
X52604Y19939D1*
X52531Y19829D1*
X52495Y19647D1*
Y19538D1*
X52531Y19356D1*
X52604Y19246D1*
X52714Y19210D1*
X52786D1*
X52896Y19246D1*
X52968Y19356D1*
X53005Y19538D1*
Y19647D1*
X52968Y19829D1*
X52896Y19939D1*
X52786Y19975D1*
X52714D1*
X52968Y19829D2*
X52531Y19356D1*
X53314Y19975D2*
X53714D1*
X53496Y19684D1*
X53605D1*
X53678Y19647D1*
X53714Y19611D1*
X53751Y19502D1*
Y19429D1*
X53714Y19320D1*
X53642Y19246D1*
X53532Y19210D1*
X53423D1*
X53314Y19246D1*
X53278Y19284D1*
X53241Y19356D1*
X50131Y9611D2*
X50459D1*
X50568Y9648D1*
X50605Y9684D1*
X50641Y9757D1*
Y9830D1*
X50605Y9903D1*
X50568Y9940D1*
X50459Y9976D1*
X50131D1*
Y9210D1*
X50386Y9611D2*
X50641Y9210D1*
X50877Y9976D2*
X51168Y9611D1*
Y9210D1*
X51459Y9976D2*
X51168Y9611D1*
X52059Y9210D2*
Y9975D1*
X51695Y9465D1*
X52241D1*
X52696Y9975D2*
X52586Y9939D1*
X52513Y9829D1*
X52477Y9647D1*
Y9538D1*
X52513Y9356D1*
X52586Y9246D1*
X52696Y9210D1*
X52768D1*
X52878Y9246D1*
X52950Y9356D1*
X52987Y9538D1*
Y9647D1*
X52950Y9829D1*
X52878Y9939D1*
X52768Y9975D1*
X52696D1*
X52950Y9829D2*
X52513Y9356D1*
X53587Y9210D2*
Y9975D1*
X53222Y9465D1*
X53769D1*
X37149Y39611D2*
X37477D1*
X37586Y39648D1*
X37623Y39684D1*
X37659Y39757D1*
Y39830D1*
X37623Y39903D1*
X37586Y39940D1*
X37477Y39976D1*
X37149D1*
Y39210D1*
X37404Y39611D2*
X37659Y39210D1*
X37895Y39976D2*
X38186Y39611D1*
Y39210D1*
X38478Y39976D2*
X38186Y39611D1*
X39078Y39210D2*
Y39975D1*
X38713Y39465D1*
X39260D1*
X39714Y39975D2*
X39604Y39939D1*
X39531Y39829D1*
X39495Y39647D1*
Y39538D1*
X39531Y39356D1*
X39604Y39246D1*
X39714Y39210D1*
X39786D1*
X39896Y39246D1*
X39968Y39356D1*
X40005Y39538D1*
Y39647D1*
X39968Y39829D1*
X39896Y39939D1*
X39786Y39975D1*
X39714D1*
X39968Y39829D2*
X39531Y39356D1*
X40678Y39975D2*
X40314D1*
X40278Y39647D1*
X40314Y39684D1*
X40423Y39721D1*
X40532D1*
X40642Y39684D1*
X40715Y39611D1*
X40751Y39502D1*
Y39429D1*
X40715Y39320D1*
X40642Y39246D1*
X40532Y39210D1*
X40423D1*
X40314Y39246D1*
X40278Y39284D1*
X40241Y39356D1*
X37168Y29611D2*
X37495D1*
X37605Y29648D1*
X37642Y29684D1*
X37678Y29757D1*
Y29830D1*
X37642Y29903D1*
X37605Y29940D1*
X37495Y29976D1*
X37168D1*
Y29210D1*
X37423Y29611D2*
X37678Y29210D1*
X37913Y29976D2*
X38205Y29611D1*
Y29210D1*
X38496Y29976D2*
X38205Y29611D1*
X39096Y29210D2*
Y29975D1*
X38731Y29465D1*
X39278D1*
X39732Y29975D2*
X39623Y29939D1*
X39550Y29829D1*
X39513Y29647D1*
Y29538D1*
X39550Y29356D1*
X39623Y29246D1*
X39732Y29210D1*
X39805D1*
X39914Y29246D1*
X39987Y29356D1*
X40024Y29538D1*
Y29647D1*
X39987Y29829D1*
X39914Y29939D1*
X39805Y29975D1*
X39732D1*
X39987Y29829D2*
X39550Y29356D1*
X40696Y29866D2*
X40660Y29939D1*
X40551Y29975D1*
X40478D1*
X40369Y29939D1*
X40295Y29829D1*
X40259Y29647D1*
Y29465D1*
X40295Y29320D1*
X40369Y29246D1*
X40478Y29210D1*
X40514D1*
X40623Y29246D1*
X40696Y29320D1*
X40732Y29429D1*
Y29465D1*
X40696Y29575D1*
X40623Y29647D1*
X40514Y29684D1*
X40478D1*
X40369Y29647D1*
X40295Y29575D1*
X40259Y29465D1*
X37149Y19611D2*
X37477D1*
X37586Y19648D1*
X37623Y19684D1*
X37659Y19757D1*
Y19830D1*
X37623Y19903D1*
X37586Y19940D1*
X37477Y19976D1*
X37149D1*
Y19210D1*
X37404Y19611D2*
X37659Y19210D1*
X37895Y19976D2*
X38186Y19611D1*
Y19210D1*
X38478Y19976D2*
X38186Y19611D1*
X39078Y19210D2*
Y19975D1*
X38713Y19465D1*
X39260D1*
X39714Y19975D2*
X39604Y19939D1*
X39531Y19829D1*
X39495Y19647D1*
Y19538D1*
X39531Y19356D1*
X39604Y19246D1*
X39714Y19210D1*
X39786D1*
X39896Y19246D1*
X39968Y19356D1*
X40005Y19538D1*
Y19647D1*
X39968Y19829D1*
X39896Y19939D1*
X39786Y19975D1*
X39714D1*
X39968Y19829D2*
X39531Y19356D1*
X40386Y19210D2*
X40751Y19975D1*
X40241D1*
X37149Y9611D2*
X37477D1*
X37587Y9648D1*
X37624Y9684D1*
X37660Y9757D1*
Y9830D1*
X37624Y9903D1*
X37587Y9940D1*
X37477Y9976D1*
X37149D1*
Y9210D1*
X37405Y9611D2*
X37660Y9210D1*
X37895Y9976D2*
X38187Y9611D1*
Y9210D1*
X38478Y9976D2*
X38187Y9611D1*
X39078Y9210D2*
Y9975D1*
X38713Y9465D1*
X39260D1*
X39714Y9975D2*
X39605Y9939D1*
X39531Y9829D1*
X39495Y9647D1*
Y9538D1*
X39531Y9356D1*
X39605Y9246D1*
X39714Y9210D1*
X39787D1*
X39896Y9246D1*
X39969Y9356D1*
X40006Y9538D1*
Y9647D1*
X39969Y9829D1*
X39896Y9939D1*
X39787Y9975D1*
X39714D1*
X39969Y9829D2*
X39531Y9356D1*
X40423Y9975D2*
X40314Y9939D1*
X40277Y9866D1*
Y9793D1*
X40314Y9721D1*
X40387Y9684D1*
X40532Y9647D1*
X40642Y9611D1*
X40714Y9538D1*
X40751Y9465D1*
Y9356D1*
X40714Y9284D1*
X40678Y9246D1*
X40569Y9210D1*
X40423D1*
X40314Y9246D1*
X40277Y9284D1*
X40241Y9356D1*
Y9465D1*
X40277Y9538D1*
X40350Y9611D1*
X40459Y9647D1*
X40605Y9684D1*
X40678Y9721D1*
X40714Y9793D1*
Y9866D1*
X40678Y9939D1*
X40569Y9975D1*
X40423D1*
X1114Y21830D2*
Y22158D1*
X1077Y22268D1*
X1041Y22305D1*
X968Y22341D1*
X895D1*
X822Y22305D1*
X785Y22268D1*
X749Y22158D1*
Y21830D1*
X1515D1*
X1114Y22086D2*
X1515Y22341D1*
X749Y23049D2*
Y22576D1*
X1515D1*
Y23049D1*
X1114Y22576D2*
Y22868D1*
X859Y23795D2*
X785Y23723D1*
X749Y23613D1*
Y23468D1*
X785Y23358D1*
X859Y23285D1*
X931D1*
X1004Y23322D1*
X1041Y23358D1*
X1077Y23431D1*
X1150Y23650D1*
X1186Y23723D1*
X1223Y23759D1*
X1296Y23795D1*
X1405D1*
X1478Y23723D1*
X1515Y23613D1*
Y23468D1*
X1478Y23358D1*
X1405Y23285D1*
X749Y24504D2*
Y24031D1*
X1515D1*
Y24504D1*
X1114Y24031D2*
Y24322D1*
X749Y24994D2*
X1515D1*
X749Y24739D2*
Y25250D1*
X26066Y53927D2*
X25994Y53891D1*
X25920Y53817D1*
X25884Y53745D1*
Y53599D1*
X25920Y53526D1*
X25994Y53454D1*
X26066Y53416D1*
X26176Y53380D1*
X26358D1*
X26467Y53416D1*
X26540Y53454D1*
X26613Y53526D1*
X26650Y53599D1*
Y53745D1*
X26613Y53817D1*
X26540Y53891D1*
X26467Y53927D1*
X26358D1*
Y53745D1*
X25884Y54673D2*
X26650D1*
X25884Y54162D1*
X26650D1*
X25884Y54908D2*
X26650D1*
Y55163D1*
X26613Y55273D1*
X26540Y55346D1*
X26467Y55382D1*
X26358Y55418D1*
X26176D1*
X26066Y55382D1*
X25994Y55346D1*
X25920Y55273D1*
X25884Y55163D1*
Y54908D1*
X21866Y19128D2*
X21794Y19092D1*
X21720Y19019D1*
X21684Y18946D1*
Y18801D1*
X21720Y18727D1*
X21794Y18655D1*
X21866Y18618D1*
X21976Y18582D1*
X22158D1*
X22267Y18618D1*
X22340Y18655D1*
X22413Y18727D1*
X22450Y18801D1*
Y18946D1*
X22413Y19019D1*
X22340Y19092D1*
X22267Y19128D1*
X22158D1*
Y18946D1*
X21684Y19874D2*
X22450D1*
X21684Y19364D1*
X22450D1*
X21684Y20109D2*
X22450D1*
Y20365D1*
X22413Y20474D1*
X22340Y20547D1*
X22267Y20584D1*
X22158Y20620D1*
X21976D1*
X21866Y20584D1*
X21794Y20547D1*
X21720Y20474D1*
X21684Y20365D1*
Y20109D1*
X51727Y67534D2*
X51691Y67606D1*
X51617Y67680D1*
X51545Y67716D1*
X51399D1*
X51326Y67680D1*
X51254Y67606D1*
X51216Y67534D1*
X51180Y67424D1*
Y67242D1*
X51216Y67133D1*
X51254Y67060D1*
X51326Y66987D1*
X51399Y66950D1*
X51545D1*
X51617Y66987D1*
X51691Y67060D1*
X51727Y67133D1*
Y67242D1*
X51545D1*
X52473Y67716D2*
Y66950D1*
X51962Y67716D1*
Y66950D1*
X52708Y67716D2*
Y66950D1*
X52963D1*
X53073Y66987D1*
X53146Y67060D1*
X53182Y67133D1*
X53218Y67242D1*
Y67424D1*
X53182Y67534D1*
X53146Y67606D1*
X53073Y67680D1*
X52963Y67716D1*
X52708D1*
X38590Y65316D2*
Y64769D1*
X38626Y64660D1*
X38700Y64588D1*
X38809Y64550D1*
X38881D1*
X38991Y64588D1*
X39064Y64660D1*
X39100Y64769D1*
Y65316D1*
X39336Y65170D2*
X39409Y65207D1*
X39519Y65315D1*
Y64550D1*
X39973Y65315D2*
X39863Y65279D1*
X39790Y65170D1*
X39754Y64988D1*
Y64878D1*
X39790Y64696D1*
X39863Y64587D1*
X39973Y64550D1*
X40045D1*
X40155Y64587D1*
X40227Y64696D1*
X40264Y64878D1*
Y64988D1*
X40227Y65170D1*
X40155Y65279D1*
X40045Y65315D1*
X39973D1*
X40227Y65170D2*
X39790Y64696D1*
X40719Y65315D2*
X40609Y65279D1*
X40536Y65170D1*
X40500Y64988D1*
Y64878D1*
X40536Y64696D1*
X40609Y64587D1*
X40719Y64550D1*
X40791D1*
X40900Y64587D1*
X40973Y64696D1*
X41010Y64878D1*
Y64988D1*
X40973Y65170D1*
X40900Y65279D1*
X40791Y65315D1*
X40719D1*
X40973Y65170D2*
X40536Y64696D1*
X23440Y35866D2*
Y35319D1*
X23476Y35210D1*
X23550Y35137D1*
X23659Y35100D1*
X23731D1*
X23841Y35137D1*
X23914Y35210D1*
X23950Y35319D1*
Y35866D1*
X24223Y35683D2*
Y35719D1*
X24259Y35793D1*
X24295Y35829D1*
X24369Y35865D1*
X24514D1*
X24587Y35829D1*
X24623Y35793D1*
X24660Y35719D1*
Y35647D1*
X24623Y35574D1*
X24550Y35465D1*
X24186Y35100D1*
X24696D1*
X25150Y35865D2*
X25041Y35829D1*
X24968Y35719D1*
X24931Y35537D1*
Y35428D1*
X24968Y35246D1*
X25041Y35136D1*
X25150Y35100D1*
X25223D1*
X25332Y35136D1*
X25405Y35246D1*
X25442Y35428D1*
Y35537D1*
X25405Y35719D1*
X25332Y35829D1*
X25223Y35865D1*
X25150D1*
X25405Y35719D2*
X24968Y35246D1*
X25677Y35719D2*
X25750Y35756D1*
X25860Y35865D1*
Y35100D1*
X4590Y62211D2*
Y61664D1*
X4626Y61555D1*
X4700Y61482D1*
X4809Y61445D1*
X4881D1*
X4991Y61482D1*
X5064Y61555D1*
X5100Y61664D1*
Y62211D1*
X5773Y62210D2*
X5409D1*
X5373Y61882D1*
X5409Y61919D1*
X5519Y61956D1*
X5627D1*
X5737Y61919D1*
X5810Y61846D1*
X5846Y61737D1*
Y61664D1*
X5810Y61555D1*
X5737Y61482D1*
X5627Y61445D1*
X5519D1*
X5409Y61482D1*
X5373Y61519D1*
X5336Y61591D1*
X6300Y62210D2*
X6191Y62174D1*
X6118Y62064D1*
X6081Y61882D1*
Y61773D1*
X6118Y61591D1*
X6191Y61482D1*
X6300Y61445D1*
X6373D1*
X6482Y61482D1*
X6555Y61591D1*
X6592Y61773D1*
Y61882D1*
X6555Y62064D1*
X6482Y62174D1*
X6373Y62210D1*
X6300D1*
X6555Y62064D2*
X6118Y61591D1*
X6827Y62064D2*
X6900Y62101D1*
X7010Y62210D1*
Y61445D1*
X4426Y55711D2*
Y55164D1*
X4462Y55055D1*
X4536Y54982D1*
X4645Y54945D1*
X4718D1*
X4827Y54982D1*
X4900Y55055D1*
X4937Y55164D1*
Y55711D1*
X5609Y55710D2*
X5245D1*
X5209Y55382D1*
X5245Y55419D1*
X5355Y55456D1*
X5463D1*
X5573Y55419D1*
X5646Y55346D1*
X5682Y55237D1*
Y55164D1*
X5646Y55055D1*
X5573Y54982D1*
X5463Y54945D1*
X5355D1*
X5245Y54982D1*
X5209Y55019D1*
X5172Y55091D1*
X6137Y55710D2*
X6027Y55674D1*
X5954Y55564D1*
X5918Y55382D1*
Y55273D1*
X5954Y55091D1*
X6027Y54982D1*
X6137Y54945D1*
X6209D1*
X6319Y54982D1*
X6391Y55091D1*
X6428Y55273D1*
Y55382D1*
X6391Y55564D1*
X6319Y55674D1*
X6209Y55710D1*
X6137D1*
X6391Y55564D2*
X5954Y55091D1*
X6700Y55528D2*
Y55564D1*
X6737Y55638D1*
X6773Y55674D1*
X6846Y55710D1*
X6992D1*
X7064Y55674D1*
X7101Y55638D1*
X7138Y55564D1*
Y55492D1*
X7101Y55419D1*
X7028Y55310D1*
X6663Y54945D1*
X7174D1*
X4426Y49211D2*
Y48664D1*
X4462Y48555D1*
X4536Y48482D1*
X4645Y48445D1*
X4718D1*
X4827Y48482D1*
X4900Y48555D1*
X4937Y48664D1*
Y49211D1*
X5609Y49210D2*
X5245D1*
X5209Y48882D1*
X5245Y48919D1*
X5355Y48956D1*
X5463D1*
X5573Y48919D1*
X5646Y48846D1*
X5682Y48737D1*
Y48664D1*
X5646Y48555D1*
X5573Y48482D1*
X5463Y48445D1*
X5355D1*
X5245Y48482D1*
X5209Y48519D1*
X5172Y48591D1*
X6137Y49210D2*
X6027Y49174D1*
X5954Y49064D1*
X5918Y48882D1*
Y48773D1*
X5954Y48591D1*
X6027Y48482D1*
X6137Y48445D1*
X6209D1*
X6319Y48482D1*
X6391Y48591D1*
X6428Y48773D1*
Y48882D1*
X6391Y49064D1*
X6319Y49174D1*
X6209Y49210D1*
X6137D1*
X6391Y49064D2*
X5954Y48591D1*
X6737Y49210D2*
X7137D1*
X6919Y48919D1*
X7028D1*
X7101Y48882D1*
X7137Y48846D1*
X7174Y48737D1*
Y48664D1*
X7137Y48555D1*
X7064Y48482D1*
X6955Y48445D1*
X6845D1*
X6737Y48482D1*
X6700Y48519D1*
X6663Y48591D1*
X15733Y19764D2*
X16098Y20055D1*
X16499D1*
X15733Y20347D2*
X16098Y20055D1*
X15916Y20619D2*
X15880D1*
X15806Y20655D1*
X15770Y20692D1*
X15734Y20765D1*
Y20911D1*
X15770Y20983D1*
X15806Y21019D1*
X15880Y21056D1*
X15952D1*
X16025Y21019D1*
X16134Y20947D1*
X16499Y20582D1*
Y21092D1*
X15734Y21547D2*
X15770Y21437D1*
X15880Y21364D1*
X16061Y21328D1*
X16171D1*
X16353Y21364D1*
X16462Y21437D1*
X16499Y21547D1*
Y21619D1*
X16462Y21729D1*
X16353Y21801D1*
X16171Y21838D1*
X16061D1*
X15880Y21801D1*
X15770Y21729D1*
X15734Y21619D1*
Y21547D1*
X15880Y21801D2*
X16353Y21364D1*
X15880Y22073D2*
X15842Y22147D1*
X15734Y22256D1*
X16499D1*
X9060Y23145D2*
X9351Y22781D1*
Y22380D1*
X9643Y23145D2*
X9351Y22781D1*
X9915Y22963D2*
Y22999D1*
X9951Y23072D1*
X9988Y23108D1*
X10061Y23145D1*
X10207D1*
X10279Y23108D1*
X10315Y23072D1*
X10352Y22999D1*
Y22926D1*
X10315Y22853D1*
X10243Y22744D1*
X9878Y22380D1*
X10389D1*
X10843Y23145D2*
X10733Y23108D1*
X10660Y22999D1*
X10624Y22817D1*
Y22707D1*
X10660Y22525D1*
X10733Y22416D1*
X10843Y22380D1*
X10915D1*
X11025Y22416D1*
X11097Y22525D1*
X11134Y22707D1*
Y22817D1*
X11097Y22999D1*
X11025Y23108D1*
X10915Y23145D1*
X10843D1*
X11097Y22999D2*
X10660Y22525D1*
X11407Y22963D2*
Y22999D1*
X11443Y23072D1*
X11479Y23108D1*
X11552Y23145D1*
X11698D1*
X11771Y23108D1*
X11807Y23072D1*
X11844Y22999D1*
Y22926D1*
X11807Y22853D1*
X11734Y22744D1*
X11370Y22380D1*
X11880D1*
X71057Y42298D2*
D102*
X70995Y42420D1*
X70814Y42603D1*
X72088D1*
X71053Y38717D2*
X70993D1*
X70871Y38778D1*
X70811Y38838D1*
X70750Y38960D1*
Y39203D1*
X70811Y39324D1*
X70871Y39384D1*
X70993Y39446D1*
X71114D1*
X71236Y39384D1*
X71417Y39264D1*
X72025Y38656D1*
Y39506D1*
X70750Y35278D2*
Y35945D1*
X71236Y35581D1*
Y35764D1*
X71296Y35884D1*
X71357Y35945D1*
X71539Y36006D1*
X71660D1*
X71842Y35945D1*
X71965Y35824D1*
X72025Y35641D1*
Y35459D1*
X71965Y35278D1*
X71903Y35217D1*
X71782Y35156D1*
X72043Y32245D2*
X70768D1*
X71618Y31638D1*
Y32549D1*
X70750Y28884D2*
Y28278D1*
X71296Y28217D1*
X71236Y28278D1*
X71174Y28460D1*
Y28641D1*
X71236Y28824D1*
X71357Y28946D1*
X71539Y29006D1*
X71660D1*
X71842Y28946D1*
X71965Y28824D1*
X72025Y28641D1*
Y28460D1*
X71965Y28278D1*
X71903Y28217D1*
X71782Y28156D1*
X70913Y25403D2*
X70792Y25342D1*
X70732Y25160D1*
Y25039D1*
X70792Y24857D1*
X70975Y24735D1*
X71278Y24674D1*
X71581D1*
X71824Y24735D1*
X71946Y24857D1*
X72006Y25039D1*
Y25100D1*
X71946Y25281D1*
X71824Y25403D1*
X71641Y25463D1*
X71581D1*
X71398Y25403D1*
X71278Y25281D1*
X71217Y25100D1*
Y25039D1*
X71278Y24857D1*
X71398Y24735D1*
X71581Y24674D1*
X72025Y21399D2*
X70750Y22006D1*
Y21156D1*
Y14459D2*
X70810Y14278D1*
X70931Y14216D1*
X71053D1*
X71174Y14278D1*
X71235Y14399D1*
X71296Y14642D1*
X71356Y14824D1*
X71478Y14945D1*
X71599Y15005D1*
X71782D1*
X71902Y14945D1*
X71964Y14885D1*
X72024Y14702D1*
Y14459D1*
X71964Y14278D1*
X71902Y14216D1*
X71782Y14156D1*
X71599D1*
X71478Y14216D1*
X71356Y14339D1*
X71296Y14520D1*
X71235Y14763D1*
X71174Y14885D1*
X71053Y14945D1*
X70931D1*
X70810Y14885D1*
X70750Y14702D1*
Y14459D1*
X70972Y52382D2*
X70912D1*
X70790Y52443D1*
X70729Y52503D1*
X70669Y52625D1*
Y52868D1*
X70729Y52989D1*
X70790Y53049D1*
X70912Y53111D1*
X71033D1*
X71155Y53049D1*
X71336Y52928D1*
X71944Y52321D1*
Y53171D1*
Y54171D2*
X70669D1*
X71518Y53563D1*
Y54475D1*
X70668Y54867D2*
X71944Y55352D1*
X70668Y55838D1*
X71944Y57203D2*
X70668Y56716D1*
X71944Y56230D1*
X71518Y56413D2*
Y57021D1*
X70971Y58506D2*
X70850Y58446D1*
X70728Y58324D1*
X70668Y58203D1*
Y57960D1*
X70728Y57838D1*
X70850Y57717D1*
X70971Y57656D1*
X71153Y57595D1*
X71458D1*
X71639Y57656D1*
X71761Y57717D1*
X71882Y57838D1*
X71944Y57960D1*
Y58203D1*
X71882Y58324D1*
X71761Y58446D1*
X71639Y58506D1*
X70947Y47755D2*
X70826Y47695D1*
X70704Y47573D1*
X70644Y47452D1*
Y47209D1*
X70704Y47087D1*
X70826Y46966D1*
X70947Y46905D1*
X71130Y46844D1*
X71434D1*
X71615Y46905D1*
X71737Y46966D1*
X71858Y47087D1*
X71920Y47209D1*
Y47452D1*
X71858Y47573D1*
X71737Y47695D1*
X71615Y47755D1*
X70644Y48513D2*
X70704Y48390D1*
X70826Y48270D1*
X70947Y48208D1*
X71130Y48148D1*
X71434D1*
X71615Y48208D1*
X71737Y48270D1*
X71858Y48390D1*
X71920Y48513D1*
Y48755D1*
X71858Y48876D1*
X71737Y48998D1*
X71615Y49059D1*
X71434Y49119D1*
X71130D1*
X70947Y49059D1*
X70826Y48998D1*
X70704Y48876D1*
X70644Y48755D1*
Y48513D1*
X71920Y50483D2*
X70644D1*
X71920Y49997D1*
X70644Y49511D1*
X71920D1*
X45787Y67618D2*
D101*
Y67654D1*
X45823Y67727D1*
X45859Y67763D1*
X45933Y67800D1*
X46078D1*
X46151Y67763D1*
X46187Y67727D1*
X46224Y67654D1*
Y67581D1*
X46187Y67508D1*
X46115Y67399D1*
X45750Y67035D1*
X46260D1*
X46860D2*
Y67800D1*
X46496Y67290D1*
X47042D1*
X47278Y67800D2*
X47569Y67035D1*
X47861Y67800D1*
X48096D2*
Y67035D1*
X48351D1*
X48461Y67072D1*
X48534Y67144D1*
X48570Y67218D1*
X48606Y67326D1*
Y67509D1*
X48570Y67618D1*
X48534Y67691D1*
X48461Y67764D1*
X48351Y67800D1*
X48096D1*
X49388Y67618D2*
X49352Y67691D1*
X49279Y67764D1*
X49206Y67800D1*
X49061D1*
X48987Y67764D1*
X48915Y67691D1*
X48878Y67618D1*
X48842Y67509D1*
Y67326D1*
X48878Y67218D1*
X48915Y67144D1*
X48987Y67072D1*
X49061Y67035D1*
X49206D1*
X49279Y67072D1*
X49352Y67144D1*
X49388Y67218D1*
X25764Y48503D2*
Y48904D1*
X26055Y48685D1*
Y48795D1*
X26091Y48867D1*
X26127Y48904D1*
X26237Y48941D1*
X26309D1*
X26419Y48904D1*
X26492Y48831D1*
X26528Y48722D1*
Y48612D1*
X26492Y48503D1*
X26455Y48467D1*
X26383Y48430D1*
X26455Y49212D2*
X26492Y49176D1*
X26528Y49212D1*
X26492Y49249D1*
X26455Y49212D1*
X25764Y49558D2*
Y49958D1*
X26055Y49740D1*
Y49849D1*
X26091Y49922D1*
X26127Y49958D1*
X26237Y49995D1*
X26309D1*
X26419Y49958D1*
X26492Y49885D1*
X26528Y49776D1*
Y49666D1*
X26492Y49558D1*
X26455Y49522D1*
X26383Y49484D1*
X25763Y50230D2*
X26528Y50522D1*
X25763Y50813D1*
X19547Y45618D2*
X19510Y45691D1*
X19437Y45764D1*
X19365Y45800D1*
X19219D1*
X19146Y45764D1*
X19073Y45691D1*
X19036Y45618D1*
X19000Y45509D1*
Y45326D1*
X19036Y45218D1*
X19073Y45144D1*
X19146Y45072D1*
X19219Y45035D1*
X19365D1*
X19437Y45072D1*
X19510Y45144D1*
X19547Y45218D1*
Y45326D1*
X19365D1*
X20292Y45800D2*
Y45035D1*
X19782Y45800D1*
Y45035D1*
X20528Y45800D2*
Y45035D1*
X20783D1*
X20892Y45072D1*
X20966Y45144D1*
X21002Y45218D1*
X21038Y45326D1*
Y45509D1*
X21002Y45618D1*
X20966Y45691D1*
X20892Y45764D1*
X20783Y45800D1*
X20528D1*
X19073Y49800D2*
X19473D1*
X19255Y49508D1*
X19365D1*
X19437Y49472D1*
X19473Y49436D1*
X19510Y49326D1*
Y49254D1*
X19473Y49144D1*
X19401Y49071D1*
X19291Y49035D1*
X19182D1*
X19073Y49071D1*
X19037Y49108D1*
X19000Y49180D1*
X19782Y49108D2*
X19746Y49071D1*
X19782Y49035D1*
X19819Y49071D1*
X19782Y49108D1*
X20128Y49800D2*
X20528D1*
X20310Y49508D1*
X20419D1*
X20491Y49472D1*
X20528Y49436D1*
X20565Y49326D1*
Y49254D1*
X20528Y49144D1*
X20455Y49071D1*
X20346Y49035D1*
X20236D1*
X20128Y49071D1*
X20091Y49108D1*
X20054Y49180D1*
X20800Y49800D2*
X21091Y49035D1*
X21383Y49800D1*
X15073Y69800D2*
X15473D1*
X15255Y69508D1*
X15365D1*
X15437Y69472D1*
X15473Y69436D1*
X15510Y69326D1*
Y69254D1*
X15473Y69144D1*
X15401Y69071D1*
X15291Y69035D1*
X15182D1*
X15073Y69071D1*
X15037Y69108D1*
X15000Y69180D1*
X15746Y69800D2*
X16037Y69035D1*
X16329Y69800D1*
X16637D2*
X17037D1*
X16819Y69508D1*
X16929D1*
X17001Y69472D1*
X17037Y69436D1*
X17074Y69326D1*
Y69254D1*
X17037Y69144D1*
X16965Y69071D1*
X16855Y69035D1*
X16746D1*
X16637Y69071D1*
X16601Y69108D1*
X16564Y69180D1*
X18547Y69618D2*
X18510Y69691D1*
X18437Y69764D1*
X18365Y69800D1*
X18219D1*
X18146Y69764D1*
X18073Y69691D1*
X18036Y69618D1*
X18000Y69509D1*
Y69326D1*
X18036Y69218D1*
X18073Y69144D1*
X18146Y69072D1*
X18219Y69035D1*
X18365D1*
X18437Y69072D1*
X18510Y69144D1*
X18547Y69218D1*
Y69326D1*
X18365D1*
X19292Y69800D2*
Y69035D1*
X18782Y69800D1*
Y69035D1*
X19528Y69800D2*
Y69035D1*
X19783D1*
X19892Y69072D1*
X19966Y69144D1*
X20002Y69218D1*
X20038Y69326D1*
Y69509D1*
X20002Y69618D1*
X19966Y69691D1*
X19892Y69764D1*
X19783Y69800D1*
X19528D1*
X21010Y69691D2*
X20938Y69764D1*
X20828Y69800D1*
X20683D1*
X20573Y69764D1*
X20500Y69691D1*
Y69618D1*
X20537Y69545D1*
X20573Y69509D1*
X20646Y69473D1*
X20865Y69399D1*
X20938Y69363D1*
X20974Y69326D1*
X21010Y69254D1*
Y69144D1*
X20938Y69072D1*
X20828Y69035D1*
X20683D1*
X20573Y69072D1*
X20500Y69144D1*
X21792Y69618D2*
X21756Y69691D1*
X21683Y69764D1*
X21610Y69800D1*
X21465D1*
X21391Y69764D1*
X21319Y69691D1*
X21282Y69618D1*
X21246Y69509D1*
Y69326D1*
X21282Y69218D1*
X21319Y69144D1*
X21391Y69072D1*
X21465Y69035D1*
X21610D1*
X21683Y69072D1*
X21756Y69144D1*
X21792Y69218D1*
X22028Y69800D2*
Y69035D1*
X22538Y69800D2*
X22028Y69290D1*
X22210Y69473D2*
X22538Y69035D1*
X24010Y69691D2*
X23938Y69764D1*
X23828Y69800D1*
X23683D1*
X23573Y69764D1*
X23500Y69691D1*
Y69618D1*
X23537Y69545D1*
X23573Y69509D1*
X23646Y69473D1*
X23865Y69399D1*
X23938Y69363D1*
X23974Y69326D1*
X24010Y69254D1*
Y69144D1*
X23938Y69072D1*
X23828Y69035D1*
X23683D1*
X23573Y69072D1*
X23500Y69144D1*
X24246Y69800D2*
Y69035D1*
X24501D1*
X24610Y69072D1*
X24684Y69144D1*
X24720Y69218D1*
X24756Y69326D1*
Y69509D1*
X24720Y69618D1*
X24684Y69691D1*
X24610Y69764D1*
X24501Y69800D1*
X24246D1*
X25575Y69035D2*
X25283Y69800D1*
X24991Y69035D1*
X25101Y69290D2*
X25466D1*
X25500Y67800D2*
Y67035D1*
X25772Y67618D2*
Y67654D1*
X25809Y67727D1*
X25845Y67763D1*
X25918Y67800D1*
X26064D1*
X26136Y67763D1*
X26172Y67727D1*
X26210Y67654D1*
Y67581D1*
X26172Y67508D1*
X26100Y67399D1*
X25735Y67035D1*
X26246D1*
X27028Y67618D2*
X26991Y67691D1*
X26918Y67764D1*
X26846Y67800D1*
X26700D1*
X26627Y67764D1*
X26554Y67691D1*
X26517Y67618D1*
X26481Y67509D1*
Y67326D1*
X26517Y67218D1*
X26554Y67144D1*
X26627Y67072D1*
X26700Y67035D1*
X26846D1*
X26918Y67072D1*
X26991Y67144D1*
X27028Y67218D1*
X15010Y65691D2*
X14938Y65764D1*
X14828Y65800D1*
X14683D1*
X14573Y65764D1*
X14500Y65691D1*
Y65618D1*
X14537Y65545D1*
X14573Y65509D1*
X14646Y65473D1*
X14865Y65399D1*
X14938Y65363D1*
X14974Y65326D1*
X15010Y65254D1*
Y65144D1*
X14938Y65072D1*
X14828Y65035D1*
X14683D1*
X14573Y65072D1*
X14500Y65144D1*
X15792Y65618D2*
X15756Y65691D1*
X15683Y65764D1*
X15610Y65800D1*
X15465D1*
X15391Y65764D1*
X15319Y65691D1*
X15282Y65618D1*
X15246Y65509D1*
Y65326D1*
X15282Y65218D1*
X15319Y65144D1*
X15391Y65072D1*
X15465Y65035D1*
X15610D1*
X15683Y65072D1*
X15756Y65144D1*
X15792Y65218D1*
X16028Y65800D2*
Y65035D1*
X16538Y65800D2*
X16028Y65290D1*
X16210Y65473D2*
X16538Y65035D1*
X18010Y65691D2*
X17938Y65764D1*
X17828Y65800D1*
X17683D1*
X17573Y65764D1*
X17500Y65691D1*
Y65618D1*
X17537Y65545D1*
X17573Y65509D1*
X17646Y65473D1*
X17865Y65399D1*
X17938Y65363D1*
X17974Y65326D1*
X18010Y65254D1*
Y65144D1*
X17938Y65072D1*
X17828Y65035D1*
X17683D1*
X17573Y65072D1*
X17500Y65144D1*
X18719Y65800D2*
X18246D1*
Y65035D1*
X18719D1*
X18246Y65436D2*
X18537D1*
X18954Y65800D2*
Y65035D1*
X19392D1*
X20583D2*
Y65800D1*
X20291Y65035D1*
X20000Y65800D1*
Y65035D1*
X21037Y65800D2*
X20964Y65764D1*
X20891Y65691D1*
X20854Y65618D1*
X20818Y65509D1*
Y65326D1*
X20854Y65218D1*
X20891Y65144D1*
X20964Y65072D1*
X21037Y65035D1*
X21183D1*
X21255Y65072D1*
X21329Y65144D1*
X21365Y65218D1*
X21401Y65326D1*
Y65509D1*
X21365Y65618D1*
X21329Y65691D1*
X21255Y65764D1*
X21183Y65800D1*
X21037D1*
X22147Y65691D2*
X22074Y65764D1*
X21965Y65800D1*
X21819D1*
X21710Y65764D1*
X21636Y65691D1*
Y65618D1*
X21673Y65545D1*
X21710Y65509D1*
X21782Y65473D1*
X22001Y65399D1*
X22074Y65363D1*
X22111Y65326D1*
X22147Y65254D1*
Y65144D1*
X22074Y65072D1*
X21965Y65035D1*
X21819D1*
X21710Y65072D1*
X21636Y65144D1*
X22382Y65800D2*
Y65035D1*
X23583D2*
Y65800D1*
X23291Y65035D1*
X23000Y65800D1*
Y65035D1*
X23818Y65800D2*
Y65035D1*
X24564Y65691D2*
X24491Y65764D1*
X24382Y65800D1*
X24236D1*
X24127Y65764D1*
X24053Y65691D1*
Y65618D1*
X24091Y65545D1*
X24127Y65509D1*
X24199Y65473D1*
X24418Y65399D1*
X24491Y65363D1*
X24528Y65326D1*
X24564Y65254D1*
Y65144D1*
X24491Y65072D1*
X24382Y65035D1*
X24236D1*
X24127Y65072D1*
X24053Y65144D1*
X25018Y65800D2*
X24945Y65764D1*
X24872Y65691D1*
X24835Y65618D1*
X24799Y65509D1*
Y65326D1*
X24835Y65218D1*
X24872Y65144D1*
X24945Y65072D1*
X25018Y65035D1*
X25164D1*
X25236Y65072D1*
X25310Y65144D1*
X25346Y65218D1*
X25382Y65326D1*
Y65509D1*
X25346Y65618D1*
X25310Y65691D1*
X25236Y65764D1*
X25164Y65800D1*
X25018D1*
X15000Y61399D2*
X15328D1*
X15437Y61436D1*
X15474Y61473D1*
X15510Y61545D1*
Y61655D1*
X15474Y61727D1*
X15437Y61764D1*
X15328Y61800D1*
X15000D1*
Y61035D1*
X16329D2*
X16037Y61800D1*
X15746Y61035D1*
X15855Y61290D2*
X16220D1*
X16747Y61800D2*
X16638Y61763D1*
X16601Y61691D1*
Y61618D1*
X16638Y61545D1*
X16710Y61508D1*
X16856Y61472D1*
X16966Y61436D1*
X17038Y61362D1*
X17074Y61290D1*
Y61180D1*
X17038Y61108D1*
X17002Y61071D1*
X16892Y61035D1*
X16747D1*
X16638Y61071D1*
X16601Y61108D1*
X16565Y61180D1*
Y61290D1*
X16601Y61362D1*
X16674Y61436D1*
X16783Y61472D1*
X16929Y61508D1*
X17002Y61545D1*
X17038Y61618D1*
Y61691D1*
X17002Y61763D1*
X16892Y61800D1*
X16747D1*
X18000Y61399D2*
X18328D1*
X18437Y61436D1*
X18474Y61473D1*
X18510Y61545D1*
Y61655D1*
X18474Y61727D1*
X18437Y61764D1*
X18328Y61800D1*
X18000D1*
Y61035D1*
X19292Y61618D2*
X19256Y61691D1*
X19183Y61764D1*
X19110Y61800D1*
X18965D1*
X18891Y61764D1*
X18819Y61691D1*
X18782Y61618D1*
X18746Y61509D1*
Y61326D1*
X18782Y61218D1*
X18819Y61144D1*
X18891Y61072D1*
X18965Y61035D1*
X19110D1*
X19183Y61072D1*
X19256Y61144D1*
X19292Y61218D1*
X20002Y61545D2*
X19965Y61436D1*
X19892Y61362D1*
X19783Y61326D1*
X19747D1*
X19637Y61362D1*
X19565Y61436D1*
X19528Y61545D1*
Y61581D1*
X19565Y61691D1*
X19637Y61763D1*
X19747Y61800D1*
X19783D1*
X19892Y61763D1*
X19965Y61691D1*
X20002Y61545D1*
Y61362D1*
X19965Y61180D1*
X19892Y61071D1*
X19783Y61035D1*
X19710D1*
X19601Y61071D1*
X19565Y61144D1*
X20500Y61399D2*
X20828D1*
X20937Y61436D1*
X20974Y61473D1*
X21010Y61545D1*
Y61655D1*
X20974Y61727D1*
X20937Y61764D1*
X20828Y61800D1*
X20500D1*
Y61035D1*
X21792Y61618D2*
X21756Y61691D1*
X21683Y61764D1*
X21610Y61800D1*
X21465D1*
X21391Y61764D1*
X21319Y61691D1*
X21282Y61618D1*
X21246Y61509D1*
Y61326D1*
X21282Y61218D1*
X21319Y61144D1*
X21391Y61072D1*
X21465Y61035D1*
X21610D1*
X21683Y61072D1*
X21756Y61144D1*
X21792Y61218D1*
X22210Y61800D2*
X22101Y61763D1*
X22064Y61691D1*
Y61618D1*
X22101Y61545D1*
X22173Y61508D1*
X22319Y61472D1*
X22429Y61436D1*
X22501Y61362D1*
X22537Y61290D1*
Y61180D1*
X22501Y61108D1*
X22465Y61071D1*
X22355Y61035D1*
X22210D1*
X22101Y61071D1*
X22064Y61108D1*
X22028Y61180D1*
Y61290D1*
X22064Y61362D1*
X22137Y61436D1*
X22246Y61472D1*
X22392Y61508D1*
X22465Y61545D1*
X22501Y61618D1*
Y61691D1*
X22465Y61763D1*
X22355Y61800D1*
X22210D1*
X23500Y61399D2*
X23828D1*
X23937Y61436D1*
X23974Y61473D1*
X24010Y61545D1*
Y61655D1*
X23974Y61727D1*
X23937Y61764D1*
X23828Y61800D1*
X23500D1*
Y61035D1*
X24792Y61618D2*
X24756Y61691D1*
X24683Y61764D1*
X24610Y61800D1*
X24465D1*
X24391Y61764D1*
X24319Y61691D1*
X24282Y61618D1*
X24246Y61509D1*
Y61326D1*
X24282Y61218D1*
X24319Y61144D1*
X24391Y61072D1*
X24465Y61035D1*
X24610D1*
X24683Y61072D1*
X24756Y61144D1*
X24792Y61218D1*
X25173Y61035D2*
X25538Y61800D1*
X25028D1*
X14500Y57399D2*
X14828D1*
X14937Y57436D1*
X14974Y57473D1*
X15010Y57545D1*
Y57655D1*
X14974Y57727D1*
X14937Y57764D1*
X14828Y57800D1*
X14500D1*
Y57035D1*
X15792Y57618D2*
X15756Y57691D1*
X15683Y57764D1*
X15610Y57800D1*
X15465D1*
X15391Y57764D1*
X15319Y57691D1*
X15282Y57618D1*
X15246Y57509D1*
Y57326D1*
X15282Y57218D1*
X15319Y57144D1*
X15391Y57072D1*
X15465Y57035D1*
X15610D1*
X15683Y57072D1*
X15756Y57144D1*
X15792Y57218D1*
X16465Y57691D2*
X16429Y57763D1*
X16319Y57800D1*
X16247D1*
X16137Y57763D1*
X16064Y57654D1*
X16028Y57472D1*
Y57290D1*
X16064Y57144D1*
X16137Y57071D1*
X16247Y57035D1*
X16283D1*
X16392Y57071D1*
X16465Y57144D1*
X16501Y57254D1*
Y57290D1*
X16465Y57399D1*
X16392Y57472D1*
X16283Y57508D1*
X16247D1*
X16137Y57472D1*
X16064Y57399D1*
X16028Y57290D1*
X17000Y57399D2*
X17328D1*
X17437Y57436D1*
X17474Y57473D1*
X17510Y57545D1*
Y57655D1*
X17474Y57727D1*
X17437Y57764D1*
X17328Y57800D1*
X17000D1*
Y57035D1*
X17746Y57800D2*
Y57035D1*
X18074D1*
X18184Y57072D1*
X18220Y57108D1*
X18256Y57180D1*
Y57290D1*
X18220Y57363D1*
X18184Y57399D1*
X18074Y57436D1*
X18184Y57473D1*
X18220Y57509D1*
X18256Y57581D1*
Y57655D1*
X18220Y57727D1*
X18184Y57764D1*
X18074Y57800D1*
X17746D1*
Y57436D2*
X18074D1*
X18491Y57654D2*
X18565Y57691D1*
X18674Y57800D1*
Y57035D1*
X19347Y57800D2*
X18983D1*
X18947Y57472D1*
X18983Y57508D1*
X19092Y57545D1*
X19201D1*
X19310Y57508D1*
X19384Y57436D1*
X19420Y57326D1*
Y57254D1*
X19384Y57144D1*
X19310Y57071D1*
X19201Y57035D1*
X19092D1*
X18983Y57071D1*
X18947Y57108D1*
X18910Y57180D1*
X20500Y57399D2*
X20828D1*
X20937Y57436D1*
X20974Y57473D1*
X21010Y57545D1*
Y57655D1*
X20974Y57727D1*
X20937Y57764D1*
X20828Y57800D1*
X20500D1*
Y57035D1*
X21246Y57800D2*
Y57035D1*
X21574D1*
X21684Y57072D1*
X21720Y57108D1*
X21756Y57180D1*
Y57290D1*
X21720Y57363D1*
X21684Y57399D1*
X21574Y57436D1*
X21684Y57473D1*
X21720Y57509D1*
X21756Y57581D1*
Y57655D1*
X21720Y57727D1*
X21684Y57764D1*
X21574Y57800D1*
X21246D1*
Y57436D2*
X21574D1*
X21991Y57654D2*
X22065Y57691D1*
X22174Y57800D1*
Y57035D1*
X22774D2*
Y57800D1*
X22410Y57290D1*
X22956D1*
X23500Y57399D2*
X23828D1*
X23937Y57436D1*
X23974Y57473D1*
X24010Y57545D1*
Y57655D1*
X23974Y57727D1*
X23937Y57764D1*
X23828Y57800D1*
X23500D1*
Y57035D1*
X24246Y57800D2*
Y57035D1*
X24574D1*
X24684Y57072D1*
X24720Y57108D1*
X24756Y57180D1*
Y57290D1*
X24720Y57363D1*
X24684Y57399D1*
X24574Y57436D1*
X24684Y57473D1*
X24720Y57509D1*
X24756Y57581D1*
Y57655D1*
X24720Y57727D1*
X24684Y57764D1*
X24574Y57800D1*
X24246D1*
Y57436D2*
X24574D1*
X24991Y57654D2*
X25065Y57691D1*
X25174Y57800D1*
Y57035D1*
X25483Y57800D2*
X25883D1*
X25665Y57508D1*
X25774D1*
X25847Y57472D1*
X25883Y57436D1*
X25920Y57326D1*
Y57254D1*
X25883Y57144D1*
X25810Y57071D1*
X25701Y57035D1*
X25591D1*
X25483Y57071D1*
X25447Y57108D1*
X25410Y57180D1*
X14500Y53399D2*
X14828D1*
X14937Y53436D1*
X14974Y53473D1*
X15010Y53545D1*
Y53655D1*
X14974Y53727D1*
X14937Y53764D1*
X14828Y53800D1*
X14500D1*
Y53035D1*
X15792Y53618D2*
X15756Y53691D1*
X15683Y53764D1*
X15610Y53800D1*
X15465D1*
X15391Y53764D1*
X15319Y53691D1*
X15282Y53618D1*
X15246Y53509D1*
Y53326D1*
X15282Y53218D1*
X15319Y53144D1*
X15391Y53072D1*
X15465Y53035D1*
X15610D1*
X15683Y53072D1*
X15756Y53144D1*
X15792Y53218D1*
X16101Y53800D2*
X16501D1*
X16283Y53508D1*
X16392D1*
X16465Y53472D1*
X16501Y53436D1*
X16538Y53326D1*
Y53254D1*
X16501Y53144D1*
X16429Y53071D1*
X16319Y53035D1*
X16210D1*
X16101Y53071D1*
X16065Y53108D1*
X16028Y53180D1*
X17000Y53399D2*
X17328D1*
X17437Y53436D1*
X17474Y53473D1*
X17510Y53545D1*
Y53655D1*
X17474Y53727D1*
X17437Y53764D1*
X17328Y53800D1*
X17000D1*
Y53035D1*
X18292Y53618D2*
X18256Y53691D1*
X18183Y53764D1*
X18110Y53800D1*
X17965D1*
X17891Y53764D1*
X17819Y53691D1*
X17782Y53618D1*
X17746Y53509D1*
Y53326D1*
X17782Y53218D1*
X17819Y53144D1*
X17891Y53072D1*
X17965Y53035D1*
X18110D1*
X18183Y53072D1*
X18256Y53144D1*
X18292Y53218D1*
X18528Y53654D2*
X18601Y53691D1*
X18710Y53800D1*
Y53035D1*
X19165Y53800D2*
X19055Y53763D1*
X18982Y53654D1*
X18946Y53472D1*
Y53362D1*
X18982Y53180D1*
X19055Y53071D1*
X19165Y53035D1*
X19237D1*
X19347Y53071D1*
X19419Y53180D1*
X19456Y53362D1*
Y53472D1*
X19419Y53654D1*
X19347Y53763D1*
X19237Y53800D1*
X19165D1*
X19419Y53654D2*
X18982Y53180D1*
X20000Y53399D2*
X20328D1*
X20437Y53436D1*
X20474Y53473D1*
X20510Y53545D1*
Y53655D1*
X20474Y53727D1*
X20437Y53764D1*
X20328Y53800D1*
X20000D1*
Y53035D1*
X21292Y53618D2*
X21256Y53691D1*
X21183Y53764D1*
X21110Y53800D1*
X20965D1*
X20891Y53764D1*
X20819Y53691D1*
X20782Y53618D1*
X20746Y53509D1*
Y53326D1*
X20782Y53218D1*
X20819Y53144D1*
X20891Y53072D1*
X20965Y53035D1*
X21110D1*
X21183Y53072D1*
X21256Y53144D1*
X21292Y53218D1*
X21528Y53654D2*
X21601Y53691D1*
X21710Y53800D1*
Y53035D1*
X21946Y53654D2*
X22019Y53691D1*
X22129Y53800D1*
Y53035D1*
X23000Y53399D2*
X23328D1*
X23437Y53436D1*
X23474Y53473D1*
X23510Y53545D1*
Y53655D1*
X23474Y53727D1*
X23437Y53764D1*
X23328Y53800D1*
X23000D1*
Y53035D1*
X24292Y53618D2*
X24256Y53691D1*
X24183Y53764D1*
X24110Y53800D1*
X23965D1*
X23891Y53764D1*
X23819Y53691D1*
X23782Y53618D1*
X23746Y53509D1*
Y53326D1*
X23782Y53218D1*
X23819Y53144D1*
X23891Y53072D1*
X23965Y53035D1*
X24110D1*
X24183Y53072D1*
X24256Y53144D1*
X24292Y53218D1*
X24528Y53654D2*
X24601Y53691D1*
X24710Y53800D1*
Y53035D1*
X24983Y53618D2*
Y53654D1*
X25019Y53727D1*
X25055Y53763D1*
X25129Y53800D1*
X25274D1*
X25347Y53763D1*
X25383Y53727D1*
X25420Y53654D1*
Y53581D1*
X25383Y53508D1*
X25310Y53399D1*
X24946Y53035D1*
X25456D1*
X26000Y45436D2*
X26328D1*
X26437Y45473D1*
X26474Y45509D1*
X26510Y45581D1*
Y45655D1*
X26474Y45727D1*
X26437Y45764D1*
X26328Y45800D1*
X26000D1*
Y45035D1*
X26255Y45436D2*
X26510Y45035D1*
X27001Y45800D2*
Y45035D1*
X26746Y45800D2*
X27256D1*
X28002Y45691D2*
X27929Y45764D1*
X27820Y45800D1*
X27674D1*
X27565Y45764D1*
X27491Y45691D1*
Y45618D1*
X27529Y45545D1*
X27565Y45509D1*
X27637Y45473D1*
X27856Y45399D1*
X27929Y45363D1*
X27966Y45326D1*
X28002Y45254D1*
Y45144D1*
X27929Y45072D1*
X27820Y45035D1*
X27674D1*
X27565Y45072D1*
X27491Y45144D1*
X29547Y45618D2*
X29510Y45691D1*
X29437Y45764D1*
X29365Y45800D1*
X29219D1*
X29146Y45764D1*
X29073Y45691D1*
X29036Y45618D1*
X29000Y45509D1*
Y45326D1*
X29036Y45218D1*
X29073Y45144D1*
X29146Y45072D1*
X29219Y45035D1*
X29365D1*
X29437Y45072D1*
X29510Y45144D1*
X29547Y45218D1*
X30037Y45800D2*
Y45035D1*
X29782Y45800D2*
X30292D1*
X31038Y45691D2*
X30966Y45764D1*
X30856Y45800D1*
X30710D1*
X30601Y45764D1*
X30528Y45691D1*
Y45618D1*
X30565Y45545D1*
X30601Y45509D1*
X30673Y45473D1*
X30892Y45399D1*
X30966Y45363D1*
X31002Y45326D1*
X31038Y45254D1*
Y45144D1*
X30966Y45072D1*
X30856Y45035D1*
X30710D1*
X30601Y45072D1*
X30528Y45144D1*
X32255Y45800D2*
Y45035D1*
X32000Y45800D2*
X32510D1*
X32746D2*
X33256Y45035D1*
Y45800D2*
X32746Y45035D1*
X34500Y45436D2*
X34828D1*
X34937Y45473D1*
X34974Y45509D1*
X35010Y45581D1*
Y45655D1*
X34974Y45727D1*
X34937Y45764D1*
X34828Y45800D1*
X34500D1*
Y45035D1*
X34755Y45436D2*
X35010Y45035D1*
X35246Y45800D2*
X35756Y45035D1*
Y45800D2*
X35246Y45035D1*
X31500Y46800D2*
Y46254D1*
X31536Y46144D1*
X31609Y46072D1*
X31719Y46035D1*
X31791D1*
X31901Y46072D1*
X31974Y46144D1*
X32010Y46254D1*
Y46800D1*
X32756Y46691D2*
X32684Y46764D1*
X32574Y46800D1*
X32429D1*
X32319Y46764D1*
X32246Y46691D1*
Y46618D1*
X32283Y46545D1*
X32319Y46509D1*
X32391Y46473D1*
X32610Y46399D1*
X32684Y46363D1*
X32720Y46326D1*
X32756Y46254D1*
Y46144D1*
X32684Y46072D1*
X32574Y46035D1*
X32429D1*
X32319Y46072D1*
X32246Y46144D1*
X33575Y46035D2*
X33283Y46800D1*
X32991Y46035D1*
X33101Y46290D2*
X33466D1*
X33810Y46436D2*
X34138D1*
X34248Y46473D1*
X34285Y46509D1*
X34321Y46581D1*
Y46655D1*
X34285Y46727D1*
X34248Y46764D1*
X34138Y46800D1*
X33810D1*
Y46035D1*
X34066Y46436D2*
X34321Y46035D1*
X34811Y46800D2*
Y46035D1*
X34556Y46800D2*
X35067D1*
X35339Y46618D2*
Y46654D1*
X35375Y46727D1*
X35411Y46763D1*
X35485Y46800D1*
X35630D1*
X35703Y46763D1*
X35739Y46727D1*
X35776Y46654D1*
Y46581D1*
X35739Y46508D1*
X35667Y46399D1*
X35302Y46035D1*
X35812D1*
X26000Y15936D2*
X26328D1*
X26437Y15973D1*
X26474Y16009D1*
X26510Y16081D1*
Y16155D1*
X26474Y16227D1*
X26437Y16264D1*
X26328Y16300D1*
X26000D1*
Y15535D1*
X26255Y15936D2*
X26510Y15535D1*
X26746Y16300D2*
X27256Y15535D1*
Y16300D2*
X26746Y15535D1*
X26255Y14300D2*
Y13535D1*
X26000Y14300D2*
X26510D1*
X26746D2*
X27256Y13535D1*
Y14300D2*
X26746Y13535D1*
X26547Y11618D2*
X26510Y11691D1*
X26437Y11764D1*
X26365Y11800D1*
X26219D1*
X26146Y11764D1*
X26073Y11691D1*
X26036Y11618D1*
X26000Y11509D1*
Y11326D1*
X26036Y11218D1*
X26073Y11144D1*
X26146Y11072D1*
X26219Y11035D1*
X26365D1*
X26437Y11072D1*
X26510Y11144D1*
X26547Y11218D1*
X27037Y11800D2*
Y11035D1*
X26782Y11800D2*
X27292D1*
X28038Y11691D2*
X27966Y11764D1*
X27856Y11800D1*
X27710D1*
X27601Y11764D1*
X27528Y11691D1*
Y11618D1*
X27565Y11545D1*
X27601Y11509D1*
X27673Y11473D1*
X27892Y11399D1*
X27966Y11363D1*
X28002Y11326D1*
X28038Y11254D1*
Y11144D1*
X27966Y11072D1*
X27856Y11035D1*
X27710D1*
X27601Y11072D1*
X27528Y11144D1*
X26000Y8436D2*
X26328D1*
X26437Y8473D1*
X26474Y8509D1*
X26510Y8581D1*
Y8655D1*
X26474Y8727D1*
X26437Y8764D1*
X26328Y8800D1*
X26000D1*
Y8035D1*
X26255Y8436D2*
X26510Y8035D1*
X27001Y8800D2*
Y8035D1*
X26746Y8800D2*
X27256D1*
X28002Y8691D2*
X27929Y8764D1*
X27820Y8800D1*
X27674D1*
X27565Y8764D1*
X27491Y8691D1*
Y8618D1*
X27529Y8545D1*
X27565Y8509D1*
X27637Y8473D1*
X27856Y8399D1*
X27929Y8363D1*
X27966Y8326D1*
X28002Y8254D1*
Y8144D1*
X27929Y8072D1*
X27820Y8035D1*
X27674D1*
X27565Y8072D1*
X27491Y8144D1*
X21564Y12879D2*
X22110D1*
X22220Y12916D1*
X22292Y12989D1*
X22329Y13098D1*
Y13171D1*
X22292Y13280D1*
X22220Y13354D1*
X22110Y13390D1*
X21564D1*
X21673Y14135D2*
X21600Y14063D1*
X21564Y13954D1*
Y13808D1*
X21600Y13698D1*
X21673Y13625D1*
X21746D1*
X21819Y13662D1*
X21855Y13698D1*
X21891Y13771D1*
X21965Y13990D1*
X22001Y14063D1*
X22038Y14099D1*
X22110Y14135D1*
X22220D1*
X22292Y14063D1*
X22329Y13954D1*
Y13808D1*
X22292Y13698D1*
X22220Y13625D1*
X22329Y14954D2*
X21564Y14662D1*
X22329Y14371D1*
X22074Y14480D2*
Y14845D1*
X21928Y15190D2*
Y15517D1*
X21891Y15627D1*
X21855Y15664D1*
X21783Y15700D1*
X21709D1*
X21637Y15664D1*
X21600Y15627D1*
X21564Y15517D1*
Y15190D1*
X22329D1*
X21928Y15445D2*
X22329Y15700D1*
X21564Y16191D2*
X22329D1*
X21564Y15936D2*
Y16446D1*
X21710Y16681D2*
X21673Y16755D1*
X21564Y16864D1*
X22329D1*
X9365Y6800D2*
Y6218D1*
X9328Y6108D1*
X9291Y6072D1*
X9219Y6035D1*
X9146D1*
X9073Y6072D1*
X9037Y6108D1*
X9000Y6218D1*
Y6290D1*
X9782Y6545D2*
X9710Y6509D1*
X9636Y6436D1*
X9600Y6326D1*
Y6254D1*
X9636Y6144D1*
X9710Y6072D1*
X9782Y6035D1*
X9891D1*
X9965Y6072D1*
X10037Y6144D1*
X10074Y6254D1*
Y6326D1*
X10037Y6436D1*
X9965Y6509D1*
X9891Y6545D1*
X9782D1*
X10310Y6800D2*
Y6035D1*
Y6399D2*
X10419Y6509D1*
X10492Y6545D1*
X10602D1*
X10674Y6509D1*
X10710Y6399D1*
Y6035D1*
X10946Y6545D2*
Y6035D1*
Y6399D2*
X11055Y6509D1*
X11129Y6545D1*
X11237D1*
X11310Y6509D1*
X11347Y6399D1*
Y6035D1*
X12323Y6800D2*
X12833D1*
X12323Y6035D1*
X12833D1*
X13068Y6326D2*
X13506D1*
Y6399D1*
X13469Y6473D1*
X13433Y6509D1*
X13360Y6545D1*
X13250D1*
X13178Y6509D1*
X13105Y6436D1*
X13068Y6326D1*
Y6254D1*
X13105Y6144D1*
X13178Y6072D1*
X13250Y6035D1*
X13360D1*
X13433Y6072D1*
X13506Y6144D1*
X13741Y6800D2*
Y6035D1*
Y6399D2*
X13850Y6509D1*
X13924Y6545D1*
X14033D1*
X14106Y6509D1*
X14142Y6399D1*
Y6035D1*
X14377Y6326D2*
X14814D1*
Y6399D1*
X14778Y6473D1*
X14742Y6509D1*
X14669Y6545D1*
X14559D1*
X14487Y6509D1*
X14413Y6436D1*
X14377Y6326D1*
Y6254D1*
X14413Y6144D1*
X14487Y6072D1*
X14559Y6035D1*
X14669D1*
X14742Y6072D1*
X14814Y6144D1*
X15159Y6800D2*
Y6180D1*
X15195Y6072D1*
X15269Y6035D1*
X15341D1*
X15050Y6545D2*
X15305D1*
X15576D2*
Y6035D1*
Y6399D2*
X15686Y6509D1*
X15759Y6545D1*
X15868D1*
X15941Y6509D1*
X15977Y6399D1*
Y6035D1*
X16212Y6326D2*
X16650D1*
Y6399D1*
X16613Y6473D1*
X16577Y6509D1*
X16504Y6545D1*
X16394D1*
X16322Y6509D1*
X16249Y6436D1*
X16212Y6326D1*
Y6254D1*
X16249Y6144D1*
X16322Y6072D1*
X16394Y6035D1*
X16504D1*
X16577Y6072D1*
X16650Y6144D1*
X16885Y6545D2*
Y6035D1*
Y6326D2*
X16922Y6436D1*
X16994Y6509D1*
X17068Y6545D1*
X17177D1*
X9000Y5300D2*
Y4535D1*
X9510Y5300D2*
Y4535D1*
X9000Y4936D2*
X9510D1*
X9928Y5045D2*
X9855Y5009D1*
X9782Y4936D1*
X9746Y4826D1*
Y4754D1*
X9782Y4644D1*
X9855Y4572D1*
X9928Y4535D1*
X10037D1*
X10110Y4572D1*
X10183Y4644D1*
X10220Y4754D1*
Y4826D1*
X10183Y4936D1*
X10110Y5009D1*
X10037Y5045D1*
X9928D1*
X10455D2*
Y4535D1*
Y4899D2*
X10565Y5009D1*
X10638Y5045D1*
X10747D1*
X10820Y5009D1*
X10856Y4899D1*
Y4535D1*
Y4899D2*
X10966Y5009D1*
X11039Y5045D1*
X11148D1*
X11221Y5009D1*
X11258Y4899D1*
Y4535D1*
X11493Y4826D2*
X11930D1*
Y4899D1*
X11894Y4973D1*
X11858Y5009D1*
X11785Y5045D1*
X11675D1*
X11603Y5009D1*
X11529Y4936D1*
X11493Y4826D1*
Y4754D1*
X11529Y4644D1*
X11603Y4572D1*
X11675Y4535D1*
X11785D1*
X11858Y4572D1*
X11930Y4644D1*
X13490Y4535D2*
X13198Y5300D1*
X12906Y4535D1*
X13016Y4790D2*
X13381D1*
X13725Y5045D2*
Y4680D1*
X13762Y4572D1*
X13835Y4535D1*
X13944D1*
X14017Y4572D1*
X14126Y4680D1*
Y5045D2*
Y4535D1*
X14471Y5300D2*
Y4680D1*
X14507Y4572D1*
X14581Y4535D1*
X14653D1*
X14362Y5045D2*
X14617D1*
X15070D2*
X14998Y5009D1*
X14925Y4936D1*
X14888Y4826D1*
Y4754D1*
X14925Y4644D1*
X14998Y4572D1*
X15070Y4535D1*
X15180D1*
X15253Y4572D1*
X15326Y4644D1*
X15363Y4754D1*
Y4826D1*
X15326Y4936D1*
X15253Y5009D1*
X15180Y5045D1*
X15070D1*
X15598D2*
Y4535D1*
Y4899D2*
X15707Y5009D1*
X15781Y5045D1*
X15889D1*
X15963Y5009D1*
X15999Y4899D1*
Y4535D1*
Y4899D2*
X16108Y5009D1*
X16182Y5045D1*
X16290D1*
X16364Y5009D1*
X16401Y4899D1*
Y4535D1*
X17073Y5045D2*
Y4535D1*
Y4936D2*
X17001Y5009D1*
X16927Y5045D1*
X16819D1*
X16745Y5009D1*
X16673Y4936D1*
X16636Y4826D1*
Y4754D1*
X16673Y4644D1*
X16745Y4572D1*
X16819Y4535D1*
X16927D1*
X17001Y4572D1*
X17073Y4644D1*
X17418Y5300D2*
Y4680D1*
X17454Y4572D1*
X17527Y4535D1*
X17600D1*
X17308Y5045D2*
X17564D1*
X17835Y5300D2*
X17871Y5264D1*
X17908Y5300D1*
X17871Y5337D1*
X17835Y5300D1*
X17871Y5045D2*
Y4535D1*
X18326Y5045D2*
X18253Y5009D1*
X18180Y4936D1*
X18144Y4826D1*
Y4754D1*
X18180Y4644D1*
X18253Y4572D1*
X18326Y4535D1*
X18435D1*
X18508Y4572D1*
X18581Y4644D1*
X18618Y4754D1*
Y4826D1*
X18581Y4936D1*
X18508Y5009D1*
X18435Y5045D1*
X18326D1*
X18853D2*
Y4535D1*
Y4899D2*
X18963Y5009D1*
X19036Y5045D1*
X19145D1*
X19218Y5009D1*
X19254Y4899D1*
Y4535D1*
X9000Y1936D2*
X9328D1*
X9437Y1973D1*
X9474Y2009D1*
X9510Y2081D1*
Y2155D1*
X9474Y2227D1*
X9437Y2264D1*
X9328Y2300D1*
X9000D1*
Y1535D1*
X9255Y1936D2*
X9510Y1535D1*
X9746Y1826D2*
X10183D1*
Y1899D1*
X10147Y1973D1*
X10110Y2009D1*
X10037Y2045D1*
X9928D1*
X9855Y2009D1*
X9782Y1936D1*
X9746Y1826D1*
Y1754D1*
X9782Y1644D1*
X9855Y1572D1*
X9928Y1535D1*
X10037D1*
X10110Y1572D1*
X10183Y1644D1*
X10418Y2045D2*
X10637Y1535D1*
X10855Y2045D1*
X12415Y1535D2*
X12123Y2300D1*
X11831Y1535D1*
X11941Y1790D2*
X12306D1*
X9510Y3691D2*
X9438Y3764D1*
X9328Y3800D1*
X9183D1*
X9073Y3764D1*
X9000Y3691D1*
Y3618D1*
X9037Y3545D1*
X9073Y3509D1*
X9146Y3473D1*
X9365Y3399D1*
X9438Y3363D1*
X9474Y3326D1*
X9510Y3254D1*
Y3144D1*
X9438Y3072D1*
X9328Y3035D1*
X9183D1*
X9073Y3072D1*
X9000Y3144D1*
X9746Y3326D2*
X10183D1*
Y3399D1*
X10147Y3473D1*
X10110Y3509D1*
X10037Y3545D1*
X9928D1*
X9855Y3509D1*
X9782Y3436D1*
X9746Y3326D1*
Y3254D1*
X9782Y3144D1*
X9855Y3072D1*
X9928Y3035D1*
X10037D1*
X10110Y3072D1*
X10183Y3144D1*
X10418Y3545D2*
Y3035D1*
Y3326D2*
X10455Y3436D1*
X10528Y3509D1*
X10601Y3545D1*
X10710D1*
X10946D2*
X11165Y3035D1*
X11383Y3545D1*
X11618Y3326D2*
X12055D1*
Y3399D1*
X12019Y3473D1*
X11983Y3509D1*
X11910Y3545D1*
X11800D1*
X11728Y3509D1*
X11654Y3436D1*
X11618Y3326D1*
Y3254D1*
X11654Y3144D1*
X11728Y3072D1*
X11800Y3035D1*
X11910D1*
X11983Y3072D1*
X12055Y3144D1*
X12291Y3545D2*
Y3035D1*
Y3326D2*
X12328Y3436D1*
X12400Y3509D1*
X12473Y3545D1*
X12583D1*
X14142Y3035D2*
Y3800D1*
X13850Y3035D1*
X13559Y3800D1*
Y3035D1*
X14559Y3545D2*
X14487Y3509D1*
X14413Y3436D1*
X14377Y3326D1*
Y3254D1*
X14413Y3144D1*
X14487Y3072D1*
X14559Y3035D1*
X14669D1*
X14742Y3072D1*
X14814Y3144D1*
X14851Y3254D1*
Y3326D1*
X14814Y3436D1*
X14742Y3509D1*
X14669Y3545D1*
X14559D1*
X15524Y3800D2*
Y3035D1*
Y3436D2*
X15451Y3509D1*
X15378Y3545D1*
X15269D1*
X15196Y3509D1*
X15123Y3436D1*
X15087Y3326D1*
Y3254D1*
X15123Y3144D1*
X15196Y3072D1*
X15269Y3035D1*
X15378D1*
X15451Y3072D1*
X15524Y3144D1*
X15759Y3545D2*
Y3180D1*
X15795Y3072D1*
X15869Y3035D1*
X15978D1*
X16050Y3072D1*
X16160Y3180D1*
Y3545D2*
Y3035D1*
X16395Y3800D2*
Y3035D1*
X16631Y3326D2*
X17068D1*
Y3399D1*
X17032Y3473D1*
X16995Y3509D1*
X16922Y3545D1*
X16813D1*
X16740Y3509D1*
X16667Y3436D1*
X16631Y3326D1*
Y3254D1*
X16667Y3144D1*
X16740Y3072D1*
X16813Y3035D1*
X16922D1*
X16995Y3072D1*
X17068Y3144D1*
X70908Y16997D2*
D102*
X72184Y17482D1*
X70908Y17968D1*
X72184Y18603D2*
X70909Y19211D1*
Y18360D1*
X70907Y9747D2*
X72184Y10233D1*
X70907Y10718D1*
X70909Y11414D2*
X70969Y11233D1*
X71090Y11171D1*
X71212D1*
X71333Y11233D1*
X71395Y11353D1*
X71455Y11596D1*
X71515Y11779D1*
X71637Y11900D1*
X71758Y11960D1*
X71941D1*
X72061Y11900D1*
X72123Y11839D1*
X72184Y11657D1*
Y11414D1*
X72123Y11233D1*
X72061Y11171D1*
X71941Y11111D1*
X71758D1*
X71637Y11171D1*
X71515Y11293D1*
X71455Y11474D1*
X71395Y11717D1*
X71333Y11839D1*
X71212Y11900D1*
X71090D1*
X70969Y11839D1*
X70909Y11657D1*
Y11414D1*
X58206Y17885D2*
D103*
X58158D1*
X58060Y17934D1*
X58012Y17982D1*
X57964Y18080D1*
Y18274D1*
X58012Y18371D1*
X58060Y18419D1*
X58158Y18468D1*
X58255D1*
X58352Y18419D1*
X58497Y18322D1*
X58984Y17836D1*
Y18517D1*
Y19317D2*
X57964D1*
X58643Y18830D1*
Y19559D1*
X57963Y19873D2*
X58984Y20261D1*
X57963Y20650D1*
X58206Y8635D2*
X58158D1*
X58060Y8684D1*
X58012Y8732D1*
X57964Y8830D1*
Y9024D1*
X58012Y9121D1*
X58060Y9169D1*
X58158Y9218D1*
X58255D1*
X58352Y9169D1*
X58497Y9072D1*
X58984Y8586D1*
Y9267D1*
Y10067D2*
X57964D1*
X58643Y9580D1*
Y10309D1*
X57963Y10623D2*
X58984Y11011D1*
X57963Y11400D1*
X58072Y14727D2*
X59093Y15116D1*
X58072Y15504D1*
X59093Y16012D2*
X58073Y16498D1*
Y15818D1*
X58010Y5476D2*
X59031Y5865D1*
X58010Y6253D1*
X58011Y6810D2*
X58059Y6665D1*
X58156Y6615D1*
X58254D1*
X58350Y6665D1*
X58400Y6761D1*
X58448Y6956D1*
X58496Y7102D1*
X58594Y7198D1*
X58690Y7246D1*
X58836D1*
X58933Y7198D1*
X58982Y7150D1*
X59031Y7004D1*
Y6810D1*
X58982Y6665D1*
X58933Y6615D1*
X58836Y6567D1*
X58690D1*
X58594Y6615D1*
X58496Y6713D1*
X58448Y6858D1*
X58400Y7052D1*
X58350Y7150D1*
X58254Y7198D1*
X58156D1*
X58059Y7150D1*
X58011Y7004D1*
Y6810D1*
M02*
